<svg xmlns="http://www.w3.org/2000/svg" xmlns:xlink="http://www.w3.org/1999/xlink" version="1.1" id="Layer_1" x="0px" y="0px" viewBox="0 0 200 200" style="enable-background:new 0 0 200 200;" xml:space="preserve"><path style="fill:none;stroke:red;stroke-width:0.0001px" d="M133.1,95.5c-2.9-3.8-6-7.4-9.4-10.8c-3.7,5-7.9,9.7-12.5,13.9C118.6,98.5,126,97.4,133.1,95.5z"/><path style="fill:none;stroke:red;stroke-width:0.0001px" d="M103.2,101.4c-8.6-0.6-17-2.3-25.1-5.2c-0.5,6.2-0.3,12.4,0.7,18.5  C87.5,111.5,95.8,107.1,103.2,101.4z"/><path style="fill:none;stroke:red;stroke-width:0.0001px" d="M175.3,74.9c4.8,14.3,5.4,29.7,1.7,44.3c-3.6,14.6-11.4,27.9-22.3,38.3c1.2-21.4-4.7-42.6-16.7-60.3  C152,92.8,164.8,85.1,175.3,74.9z"/><path style="fill:none;stroke:red;stroke-width:0.0001px" d="M78.4,93.2c9.1,3.3,18.7,5.1,28.3,5.4c5.6-4.7,10.6-10,14.8-15.9c-9.5-8.9-20.8-15.7-33.1-20  C83.1,72,79.7,82.4,78.4,93.2z"/><path style="fill:none;stroke:red;stroke-width:0.0001px" d="M174.2,71.8c-10.6,10.6-23.7,18.5-38,22.8c-3.2-4.4-6.7-8.5-10.7-12.4c10.1-14.6,15.8-31.8,16.6-49.6  C156.8,41.9,168,55.6,174.2,71.8z"/><path style="fill:none;stroke:red;stroke-width:0.0001px" d="M71.5,174.1c15.5,5.9,32.4,6.9,48.5,2.7c-14.3-7.4-26.2-18.8-34.2-32.8  C76.2,150.9,70.8,162.3,71.5,174.1z"/></svg>