<svg xmlns="http://www.w3.org/2000/svg" xmlns:xlink="http://www.w3.org/1999/xlink" version="1.1" id="Layer_1" x="0px" y="0px" viewBox="0 0 144 144" style="enable-background:new 0 0 144 144;" xml:space="preserve"><path style="fill:none;stroke:red;stroke-width:0.0001px" d="M37.3,26.2c1.5,0.9,2.9,1.8,4.4,2.6c1.9,1.2,3.9,2.3,5.8,3.6c0.6,0.4,1,0.5,1.6,0.5  c0.2-0.2,0.4-0.5,0.7-0.6c2.5-1.5,5.1-3,7.6-4.5c0.8-0.5,1.5-1.1,2.1-1.5c0-4.5,0-8.7,0-12.9c-3.7-2.3-7.4-4.5-11.1-6.7  c-3.7,2.3-7.4,4.5-11.1,6.8C37.3,17.6,37.3,21.9,37.3,26.2z"/><path style="fill:none;stroke:red;stroke-width:0.0001px" d="M118.2,6.9c-3.8,2.3-7.4,4.5-11,6.7c0,4.4,0,8.9,0,13.2c3.8,2.3,7.4,4.5,11,6.7  c3.8-2.3,7.6-4.6,11.2-6.8c0-4.5,0-8.8,0-13C125.6,11.4,122,9.1,118.2,6.9z"/><path style="fill:none;stroke:red;stroke-width:0.0001px" d="M130.3,54.5c3.7-2.5,7.7-4.5,11.1-7c0-4.4,0-8.5,0-12.8c-3.7-2.3-7.4-4.6-11.2-6.9  c-3.7,2.3-7.4,4.5-11.1,6.7c0,4.2,0,8.5,0,12.9C122.7,50,126.6,52.1,130.3,54.5z"/><path style="fill:none;stroke:red;stroke-width:0.0001px" d="M119.2,89.1c3.7,2.2,7.3,4.5,11.2,6.8c3.7-2.3,7.4-4.5,11-6.8c0-4.4,0-8.7,0-13  c-3.7-2.3-7.3-4.5-11.1-6.8c-3.7,2.3-7.5,4.4-11.1,6.8C119.2,80.5,119.2,84.8,119.2,89.1z"/><path style="fill:none;stroke:red;stroke-width:0.0001px" d="M71.2,46.9c0-4.3,0-8.5,0-12.7c-3.6-2.2-7.2-4.4-10.9-6.6c-0.7,0-0.7,0-2,0.7c-2,1.2-4,2.5-5.9,3.7  c-1.1,0.7-2.2,1.3-3.4,2c0,4.3,0,8.7,0,13.3c3.6,2.2,7.3,4.4,10.9,6.6C63.7,51.4,67.6,49.3,71.2,46.9z"/><path style="fill:none;stroke:red;stroke-width:0.0001px" d="M13.6,53.8c3.7-2.4,7.7-4.4,11.2-7c0-4.2,0-8.4,0-12.7c-3.7-2.3-7.4-4.6-11.2-6.9  c-0.1,0.2-0.3,0.5-0.5,0.6c-2.6,1.4-5,3.1-7.6,4.5c-1,0.6-2.3,0.9-2.9,2c0,4.4,0,8.6,0,12.8C6.3,49.3,9.9,51.5,13.6,53.8z"/><path style="fill:none;stroke:red;stroke-width:0.0001px" d="M94.2,130.2c0-4.5,0-8.8,0-13c-3.8-2.3-7.6-4.6-11.2-6.8c-3.8,2.3-7.4,4.5-10.9,6.7c0,4.4,0,8.7,0,13  c3.7,2.3,7.4,4.6,11.1,6.8C86.9,134.6,90.5,132.4,94.2,130.2z"/><path style="fill:none;stroke:red;stroke-width:0.0001px" d="M94.2,47.2c0-4.4,0-8.7,0-13c-3.7-2.3-7.4-4.5-11.1-6.8c-3.8,2.3-7.5,4.6-11,6.7c0,4.4,0,8.6,0,12.9  c3.6,2.6,7.5,4.7,11.2,6.9C86.9,51.6,90.5,49.4,94.2,47.2z"/><path style="fill:none;stroke:red;stroke-width:0.0001px" d="M25.6,130.1c1.5,0.9,2.9,1.8,4.4,2.6c1.9,1.2,3.9,2.3,5.8,3.6c0.6,0.4,1,0.5,1.6,0.5  c0.2-0.2,0.4-0.5,0.7-0.6c2.5-1.5,5.1-3,7.6-4.5c0.8-0.5,1.5-1.1,2.1-1.5c0-4.5,0-8.7,0-12.9c-3.7-2.3-7.4-4.5-11.1-6.7  c-3.7,2.3-7.4,4.5-11.1,6.8C25.6,121.4,25.6,125.7,25.6,130.1z"/><path style="fill:none;stroke:red;stroke-width:0.0001px" d="M13.7,136.8c3.8-2.3,7.5-4.5,11.1-6.8c0-4.3,0-8.6,0-12.9c-3.7-2.3-7.5-4.6-11.1-6.8  c-3.8,2.3-7.5,4.6-11.1,6.8c0,4.3,0,8.6,0,13C6.3,132.4,9.9,134.8,13.7,136.8z"/><path style="fill:none;stroke:red;stroke-width:0.0001px" d="M24.8,74.3c0.7,0.1,1.3-0.2,1.9-0.6c2-1.3,4.1-2.5,6.1-3.8c1.3-0.8,2.5-1.5,3.7-2.3  c0-4.3,0-8.4,0-12.7c-3.7-2.4-7.6-4.7-11.2-7c-3.8,2.3-7.4,4.5-11,6.8c0,4.3,0,8.5,0,12.9C17.5,70.1,21.3,71.8,24.8,74.3z"/><path style="fill:none;stroke:red;stroke-width:0.0001px" d="M71.2,75.8c-3.5-2.6-7.5-4.5-11.2-7c-3.7,2.3-7.4,4.5-11.1,6.7c0,4.4,0,8.9,0,13.2  c1,0.6,1.8,1.1,2.7,1.6c2.4,1.5,4.8,2.9,7.1,4.4c0.6,0.3,1.1,0.4,1.4,0.3c3.6-2.2,7.1-4.3,10.7-6.5c0.1-0.5,0.2-1.2,0.3-1.8  C71.2,83.1,71.2,79.6,71.2,75.8z"/><path style="fill:none;stroke:red;stroke-width:0.0001px" d="M82.5,96.3c-3.7-2.3-7.4-4.7-11.1-6.7c-3.7,2.3-7.2,4.4-10.8,6.6c0,4.4,0,8.7,0,13.3  c3.6,2.2,7.3,4.5,10.8,6.6c3.8-2.3,7.4-4.5,11-6.7C82.5,104.9,82.5,100.6,82.5,96.3z"/><path style="fill:none;stroke:red;stroke-width:0.0001px" d="M26,75.4c0,4.6,0,9,0,13.3c3.6,2.2,7,4.3,10.7,6.5c0.3-0.1,0.8-0.2,1.2-0.4c0.9-0.5,1.7-1,2.5-1.5  c2.5-1.5,4.9-3,7.4-4.5c0-4.4,0-8.8,0-13.1c-3.8-2.3-7.4-4.5-11.1-6.8C33.1,71,29.6,73.2,26,75.4z"/><path style="fill:none;stroke:red;stroke-width:0.0001px" d="M106.5,110.7c-3.8,2.3-7.4,4.5-11,6.7c0,4.4,0,8.9,0,13.2c3.8,2.3,7.4,4.5,11,6.7  c3.8-2.3,7.6-4.6,11.2-6.8c0-4.5,0-8.8,0-13C113.9,115.2,110.2,113,106.5,110.7z"/><path style="fill:none;stroke:red;stroke-width:0.0001px" d="M95.5,75.9c0,4.4,0,8.8,0,13.2c3.8,2.3,7.4,4.5,11.1,6.7c3.6-2.6,7.6-4.4,11-7c0-4.5,0-8.8,0-12.9  c-3.8-2.3-7.5-4.5-11.1-6.8C102.9,71.4,99.3,73.6,95.5,75.9z"/><path style="fill:none;stroke:red;stroke-width:0.0001px" d="M84.2,54.9c0,4.6,0,9,0,13.3c3.6,2.2,7,4.3,10.7,6.5c0.3-0.1,0.8-0.2,1.2-0.4c0.9-0.5,1.7-1,2.5-1.5  c2.5-1.5,4.9-3,7.4-4.5c0-4.4,0-8.8,0-13.1c-3.8-2.3-7.4-4.5-11.1-6.8C91.4,50.5,87.8,52.7,84.2,54.9z"/><path style="fill:none;stroke:red;stroke-width:0.0001px" d="M105.9,26.3c0-4.5,0-8.8,0-13c-3.8-2.3-7.6-4.6-11.2-6.8c-3.8,2.3-7.4,4.5-10.9,6.7c0,4.4,0,8.7,0,13  c3.7,2.3,7.4,4.6,11.1,6.8C98.6,30.8,102.2,28.6,105.9,26.3z"/><path style="fill:none;stroke:red;stroke-width:0.0001px" d="M37.3,96.4c0,4.4,0,8.8,0,13.2c3.8,2.3,7.4,4.5,11.1,6.7c3.6-2.6,7.6-4.4,11-7c0-4.5,0-8.8,0-12.9  c-3.8-2.3-7.5-4.5-11.1-6.8C44.7,91.9,41.1,94.1,37.3,96.4z"/><path style="fill:none;stroke:red;stroke-width:0.0001px" d="M24.8,88.5c0-4.5,0-8.8,0-13c-3.7-2.3-7.3-4.5-11-6.7c-3.7,2.5-7.6,4.5-11.2,7c0,4.3,0,8.4,0,12.8  c3.7,2.1,7.3,4.7,11.2,6.7C17.5,93,21.1,90.7,24.8,88.5z"/><path style="fill:none;stroke:red;stroke-width:0.0001px" d="M47.9,47.2c0-4.4,0-8.6,0-13.1c-3.7-2.1-7.3-4.7-11.2-6.7c-3.6,2.2-7.2,4.4-10.7,6.5  c0,4.4,0,8.8,0,13.3c3.7,2.2,7.3,4.5,11,6.7C40.6,51.6,44.2,49.4,47.9,47.2z"/><path style="fill:none;stroke:red;stroke-width:0.0001px" d="M60.7,54.6c0,4.5,0,8.9,0,13.3c3.6,2.2,7.2,4.4,10.8,6.6c3.6-2.4,7.5-4.5,11-6.9c0-4.5,0-8.8,0-13  c-3.8-2.3-7.4-4.5-11-6.7C67.8,50.3,64.3,52.4,60.7,54.6z"/><path style="fill:none;stroke:red;stroke-width:0.0001px" d="M83.8,109.6c1.5,0.9,2.9,1.8,4.4,2.6c1.9,1.2,3.9,2.3,5.8,3.6c0.6,0.4,1,0.5,1.6,0.5  c0.2-0.2,0.4-0.5,0.7-0.6c2.5-1.5,5.1-3,7.6-4.5c0.8-0.5,1.5-1.1,2.1-1.5c0-4.5,0-8.7,0-12.9c-3.7-2.3-7.4-4.5-11.1-6.7  c-3.7,2.3-7.4,4.5-11.1,6.8C83.8,100.9,83.8,105.2,83.8,109.6z"/><path style="fill:none;stroke:red;stroke-width:0.0001px" d="M129.4,55.3c-3.5-2.6-7.5-4.5-11.2-7c-3.7,2.3-7.4,4.5-11.1,6.7c0,4.4,0,8.9,0,13.2  c1,0.6,1.8,1.1,2.7,1.6c2.4,1.5,4.8,2.9,7.1,4.4c0.6,0.3,1.1,0.4,1.4,0.3c3.6-2.2,7.1-4.3,10.7-6.5c0.1-0.5,0.2-1.2,0.3-1.8  C129.5,62.6,129.4,59,129.4,55.3z"/><path style="fill:none;stroke:red;stroke-width:0.0001px" d="M119.1,130.7c3.7,2.2,7.3,4.5,11.2,6.8c3.7-2.3,7.4-4.5,11-6.8c0-4.4,0-8.7,0-13  c-3.7-2.3-7.3-4.5-11.1-6.8c-3.7,2.3-7.5,4.4-11.1,6.8C119.1,122.1,119.1,126.4,119.1,130.7z"/></svg>