<svg xmlns="http://www.w3.org/2000/svg" xmlns:xlink="http://www.w3.org/1999/xlink" version="1.1" id="Layer_1" x="0px" y="0px" viewBox="0 0 144 144" style="enable-background:new 0 0 144 144;" xml:space="preserve"><path style="fill:none;stroke:red;stroke-width:0.0001px" d="M25.4,33c3.8-2.3,7.5-4.5,11.1-6.8c0-4.3,0-8.6,0-12.9c-3.7-2.3-7.5-4.6-11.1-6.8  c-3.8,2.3-7.5,4.6-11.1,6.8c0,4.3,0,8.6,0,13C18,28.6,21.6,31,25.4,33z"/><path style="fill:none;stroke:red;stroke-width:0.0001px" d="M71.4,33c2-1,3.8-2.2,5.6-3.4c1.9-1.2,3.9-2.1,5.5-3.4c0-4.4,0-8.7,0-13c-3.6-2.2-7.3-4.5-10.9-6.7  c-3.7,2.3-7.3,4.5-10.9,6.7c0,4.5,0,8.9,0,13.3C64.3,28.7,67.8,30.8,71.4,33z"/><path style="fill:none;stroke:red;stroke-width:0.0001px" d="M72,75.6c0,4.3,0,8.5,0,13c3.7,2.3,7.5,4.6,11.2,6.9c3.6-2.6,7.6-4.4,11-7c0-4.3,0-8.5,0-12.7  c-3.7-2.3-7.4-4.6-11.2-6.9C79.4,71,75.7,73.3,72,75.6z"/><path style="fill:none;stroke:red;stroke-width:0.0001px" d="M36.5,96.3c-3.8-2.3-7.5-4.6-11.2-6.9c-3.8,2.3-7.5,4.6-11,6.7c0,4.5,0,8.8,0,13.1  c3.7,2.2,7.3,4.5,11,6.7c3.7-2.4,7.7-4.5,11.2-7.1C36.5,104.6,36.5,100.5,36.5,96.3z"/><path style="fill:none;stroke:red;stroke-width:0.0001px" d="M59.5,67.7c0-4.4,0-8.5,0-12.7c-3.7-2.3-7.4-4.5-11.1-6.8c-3.8,2.3-7.5,4.6-11.1,6.8  c0,3.8,0,7.4,0,11.1c0,0.8-0.1,1.6,0.3,2.1c3.8,2.3,7.3,4.4,10.8,6.6C52.1,72.3,56.1,70.3,59.5,67.7z"/><path style="fill:none;stroke:red;stroke-width:0.0001px" d="M59.7,136.8c2-1,3.8-2.2,5.6-3.4c1.9-1.2,3.9-2.1,5.5-3.4c0-4.4,0-8.7,0-13  c-3.6-2.2-7.3-4.5-10.9-6.7c-3.7,2.3-7.3,4.5-10.9,6.7c0,4.5,0,8.9,0,13.3C52.6,132.5,56.1,134.7,59.7,136.8z"/><path style="fill:none;stroke:red;stroke-width:0.0001px" d="M117.7,47.2c0-4.4,0-8.5,0-12.7c-3.7-2.3-7.4-4.5-11.1-6.8c-3.8,2.3-7.5,4.6-11.1,6.8  c0,3.8,0,7.4,0,11.1c0,0.8-0.1,1.6,0.3,2.1c3.8,2.3,7.3,4.4,10.8,6.6C110.3,51.8,114.3,49.8,117.7,47.2z"/><path style="fill:none;stroke:red;stroke-width:0.0001px" d="M117.9,116.3c2-1,3.8-2.2,5.6-3.4c1.9-1.2,3.9-2.1,5.5-3.4c0-4.4,0-8.7,0-13  c-3.6-2.2-7.3-4.5-10.9-6.7c-3.7,2.3-7.3,4.5-10.9,6.7c0,4.5,0,8.9,0,13.3C110.8,112,114.3,114.2,117.9,116.3z"/></svg>