<svg xmlns="http://www.w3.org/2000/svg" xmlns:xlink="http://www.w3.org/1999/xlink" version="1.1" id="Layer_1" x="0px" y="0px" viewBox="0 0 200 200" style="enable-background:new 0 0 200 200;" xml:space="preserve"><polygon style="fill:none;stroke:red;stroke-width:0.0001px" points="97.6,192.2 8.8,192.2 8.8,153 97.6,153 97.6,144.8 68.1,144.8 68.1,105 97.6,105 97.6,97.3   8.8,97.3 8.8,58.1 97.6,58.1 97.6,49.9 68.1,49.9 68.1,10 97.6,10 97.6,0 0,0 0,200 97.6,200 "/><polygon style="fill:none;stroke:red;stroke-width:0.0001px" points="106,0 106,10 191.1,10 191.1,49.9 106,49.9 106,58.1 154.2,58.1 154.2,97.3 106,97.3   106,105 191.1,105 191.1,144.8 106,144.8 106,153 154.2,153 154.2,192.2 106,192.2 106,200 200,200 200,0 "/></svg>