<svg xmlns="http://www.w3.org/2000/svg" xmlns:xlink="http://www.w3.org/1999/xlink" version="1.1" id="Layer_1" x="0px" y="0px" viewBox="0 0 200 200" style="enable-background:new 0 0 200 200;" xml:space="preserve"><path style="fill:none;stroke:red;stroke-width:0.0001px" d="M132.5,18.1l-5.1,7.9l0.1,0.1c0.2-0.1,0.5-0.2,0.9-0.3c0.4-0.1,0.7-0.1,1.1-0.1  c0.9,0,1.8,0.2,2.6,0.5c0.8,0.4,1.5,0.9,2,1.5c0.6,0.6,1,1.3,1.3,2.2s0.5,1.7,0.5,2.6c0,1.1-0.2,2.1-0.6,3c-0.4,0.9-0.9,1.7-1.6,2.3  s-1.5,1.1-2.4,1.5s-1.9,0.5-3,0.5c-1.1,0-2.1-0.2-3.1-0.5c-0.9-0.3-1.7-0.8-2.4-1.4c-0.7-0.6-1.2-1.4-1.6-2.3  c-0.4-0.9-0.6-1.9-0.6-3c0-1.1,0.2-2.1,0.6-3c0.4-0.9,0.8-1.8,1.4-2.8l5.4-8.6H132.5z M124.5,32.4c0,0.5,0.1,1,0.3,1.5  c0.2,0.5,0.5,0.9,0.8,1.2c0.3,0.4,0.8,0.6,1.2,0.8c0.5,0.2,1,0.3,1.5,0.3c0.5,0,1-0.1,1.5-0.3c0.5-0.2,0.9-0.5,1.2-0.8  c0.3-0.3,0.6-0.8,0.8-1.2c0.2-0.5,0.3-1,0.3-1.5s-0.1-1-0.3-1.5c-0.2-0.5-0.5-0.9-0.8-1.2s-0.8-0.6-1.2-0.8c-0.5-0.2-1-0.3-1.5-0.3  c-0.5,0-1,0.1-1.5,0.3c-0.5,0.2-0.9,0.5-1.2,0.8s-0.6,0.8-0.8,1.2C124.6,31.3,124.5,31.8,124.5,32.4z"/><path style="fill:none;stroke:red;stroke-width:0.0001px" d="M69.5,70.9l-4,3.7l-2.1-2.5l6.4-5.3h3.3V88h-3.6V70.9z"/><path style="fill:none;stroke:red;stroke-width:0.0001px" d="M80.9,84.2l8.2-8c0.2-0.2,0.5-0.5,0.8-0.8s0.5-0.6,0.7-0.9c0.2-0.3,0.4-0.6,0.5-0.9  c0.1-0.3,0.2-0.7,0.2-1c0-0.4-0.1-0.8-0.3-1.2c-0.2-0.3-0.4-0.6-0.7-0.9c-0.3-0.2-0.6-0.4-1-0.6c-0.4-0.1-0.8-0.2-1.2-0.2  c-0.9,0-1.6,0.3-2.2,0.8c-0.6,0.5-0.9,1.2-1.1,2.1l-3.8-0.3c0.1-1,0.3-1.8,0.7-2.6c0.4-0.8,0.9-1.4,1.5-1.9s1.3-0.9,2.2-1.1  c0.8-0.3,1.7-0.4,2.7-0.4s1.9,0.1,2.7,0.4c0.8,0.3,1.6,0.6,2.2,1.1c0.6,0.5,1.1,1.1,1.5,1.9c0.4,0.8,0.5,1.7,0.5,2.7  c0,1.3-0.3,2.5-0.9,3.5c-0.6,1-1.4,1.9-2.4,2.8l-6.6,6.1h9.8V88H80.9V84.2z"/><path style="fill:none;stroke:red;stroke-width:0.0001px" d="M119.1,118.6l-4,3.7l-2.1-2.5l6.4-5.3h3.3v21.2h-3.6V118.6z"/><path style="fill:none;stroke:red;stroke-width:0.0001px" d="M142,114.5l-5.1,7.9l0.1,0.1c0.2-0.1,0.5-0.2,0.9-0.3c0.4-0.1,0.7-0.1,1.1-0.1c0.9,0,1.8,0.2,2.6,0.5  c0.8,0.4,1.5,0.9,2,1.5c0.6,0.6,1,1.3,1.3,2.2c0.3,0.8,0.5,1.7,0.5,2.6c0,1.1-0.2,2.1-0.6,3c-0.4,0.9-0.9,1.7-1.6,2.3  s-1.5,1.1-2.4,1.5c-0.9,0.3-1.9,0.5-3,0.5c-1.1,0-2.1-0.2-3.1-0.5c-0.9-0.3-1.7-0.8-2.4-1.4c-0.7-0.6-1.2-1.4-1.6-2.3  c-0.4-0.9-0.6-1.9-0.6-3s0.2-2.1,0.6-3s0.8-1.8,1.4-2.8l5.4-8.5H142z M133.9,128.8c0,0.5,0.1,1,0.3,1.5c0.2,0.5,0.5,0.9,0.8,1.2  c0.3,0.4,0.8,0.6,1.2,0.8c0.5,0.2,1,0.3,1.5,0.3s1-0.1,1.5-0.3c0.5-0.2,0.9-0.5,1.2-0.8c0.3-0.3,0.6-0.8,0.8-1.2  c0.2-0.5,0.3-1,0.3-1.5s-0.1-1-0.3-1.5c-0.2-0.5-0.5-0.9-0.8-1.2c-0.3-0.4-0.8-0.6-1.2-0.8c-0.5-0.2-1-0.3-1.5-0.3s-1,0.1-1.5,0.3  c-0.5,0.2-0.9,0.5-1.2,0.8c-0.3,0.3-0.6,0.8-0.8,1.2C134,127.7,133.9,128.2,133.9,128.8z"/><path style="fill:none;stroke:red;stroke-width:0.0001px" d="M58.8,179.3l8.2-8c0.2-0.2,0.5-0.5,0.8-0.8c0.3-0.3,0.5-0.6,0.7-0.9c0.2-0.3,0.4-0.6,0.5-0.9  c0.1-0.3,0.2-0.7,0.2-1c0-0.4-0.1-0.8-0.3-1.2c-0.2-0.3-0.4-0.6-0.7-0.9c-0.3-0.2-0.6-0.4-1-0.6c-0.4-0.1-0.8-0.2-1.2-0.2  c-0.9,0-1.6,0.3-2.2,0.8c-0.6,0.5-0.9,1.2-1.1,2.1l-3.8-0.3c0.1-1,0.3-1.8,0.7-2.6s0.9-1.4,1.5-1.9c0.6-0.5,1.3-0.9,2.2-1.1  s1.7-0.4,2.7-0.4c1,0,1.9,0.1,2.7,0.4c0.8,0.3,1.6,0.6,2.2,1.1c0.6,0.5,1.1,1.1,1.5,1.9c0.4,0.8,0.5,1.7,0.5,2.7  c0,1.3-0.3,2.5-0.9,3.5c-0.6,1-1.4,1.9-2.4,2.8l-6.6,6.1h9.8v3.2H58.8V179.3z"/><path style="fill:none;stroke:red;stroke-width:0.0001px" d="M76,172.4c0-1.7,0.1-3.1,0.4-4.3c0.3-1.2,0.6-2.2,1.1-3c0.4-0.8,0.9-1.5,1.5-2  c0.5-0.5,1.1-0.9,1.7-1.1s1.1-0.4,1.7-0.5c0.5-0.1,1-0.1,1.4-0.1s0.9,0,1.4,0.1c0.5,0.1,1.1,0.2,1.6,0.5c0.6,0.2,1.1,0.6,1.7,1.1  c0.5,0.5,1,1.1,1.5,2c0.4,0.8,0.8,1.8,1.1,3c0.3,1.2,0.4,2.6,0.4,4.3s-0.1,3.1-0.4,4.3c-0.3,1.2-0.6,2.2-1.1,3  c-0.4,0.8-0.9,1.5-1.5,2c-0.6,0.5-1.1,0.9-1.7,1.1c-0.6,0.2-1.1,0.4-1.6,0.5c-0.5,0.1-1,0.1-1.4,0.1s-0.9,0-1.4-0.1  c-0.5-0.1-1.1-0.2-1.7-0.5s-1.1-0.6-1.7-1.1c-0.6-0.5-1-1.1-1.5-2c-0.4-0.8-0.8-1.8-1.1-3C76.2,175.6,76,174.1,76,172.4z   M79.6,172.4c0,0.7,0,1.4,0.1,2.3c0.1,0.9,0.3,1.7,0.6,2.5c0.3,0.8,0.7,1.4,1.2,2s1.3,0.8,2.2,0.8c0.9,0,1.6-0.3,2.2-0.8  s0.9-1.2,1.2-2c0.3-0.8,0.5-1.6,0.6-2.5s0.1-1.6,0.1-2.3s0-1.4-0.1-2.3s-0.3-1.7-0.6-2.5c-0.3-0.8-0.7-1.4-1.2-2s-1.3-0.8-2.2-0.8  c-0.9,0-1.6,0.3-2.2,0.8s-1,1.2-1.2,2c-0.3,0.8-0.5,1.6-0.6,2.5C79.7,171,79.6,171.8,79.6,172.4z"/></svg>