<svg xmlns="http://www.w3.org/2000/svg" xmlns:xlink="http://www.w3.org/1999/xlink" version="1.1" id="Layer_1" x="0px" y="0px" viewBox="0 0 200 200" style="enable-background:new 0 0 200 200;" xml:space="preserve"><path style="fill:#F5C0FB;" d="M135,98.1c-8.8,2.5-18,3.6-27.2,3.5c-8.5,7-18.2,12.4-28.5,16.1c1.5,7.7,4,15.1,7.6,22  c10.8-6.4,24-7,35.3-1.5c11.3,5.4,19.1,16.1,20.9,28.5c3-1.9,5.8-4,8.4-6.3C153.4,138.3,147.6,116.3,135,98.1z"/><path style="fill:#F5C0FB;" d="M107.1,21V0H94.5v20.9c-6.8,0.5-13.6,1.8-20.1,4c-17,5.8-31.5,17.2-41.2,32.3  C51,52.7,69.7,53.4,87.1,59c9.3-15.2,23.2-27,39.7-33.7C120.4,23,113.8,21.6,107.1,21z"/></svg>