<svg xmlns="http://www.w3.org/2000/svg" xmlns:xlink="http://www.w3.org/1999/xlink" version="1.1" id="Layer_1" x="0px" y="0px" viewBox="0 0 200 200" style="enable-background:new 0 0 200 200;" xml:space="preserve"><path style="fill:#F4B569;" d="M133.1,95.5c-2.9-3.8-6-7.4-9.4-10.8c-3.7,5-7.9,9.7-12.5,13.9C118.6,98.5,126,97.4,133.1,95.5z"/><path style="fill:#F4B569;" d="M103.2,101.4c-8.6-0.6-17-2.3-25.1-5.2c-0.5,6.2-0.3,12.4,0.7,18.5  C87.5,111.5,95.8,107.1,103.2,101.4z"/><path style="fill:#F4B569;" d="M175.3,74.9c4.8,14.3,5.4,29.7,1.7,44.3c-3.6,14.6-11.4,27.9-22.3,38.3c1.2-21.4-4.7-42.6-16.7-60.3  C152,92.8,164.8,85.1,175.3,74.9z"/></svg>