<svg xmlns="http://www.w3.org/2000/svg" xmlns:xlink="http://www.w3.org/1999/xlink" version="1.1" id="Layer_1" x="0px" y="0px" viewBox="0 0 158.7 158.7" style="enable-background:new 0 0 158.7 158.7;" xml:space="preserve"><path style="fill:none;stroke:red;stroke-width:0.0001px" d="M112.5,74.9c-2.9-3.8-6-7.4-9.4-10.8c-3.7,5-7.9,9.7-12.5,13.9C98,77.8,105.3,76.8,112.5,74.9z"/><path style="fill:none;stroke:red;stroke-width:0.0001px" d="M82.6,80.8c-8.6-0.6-17-2.3-25.1-5.2C57,81.8,57.2,88,58.1,94.1C66.9,90.9,75.2,86.4,82.6,80.8z"/><path style="fill:none;stroke:red;stroke-width:0.0001px" d="M154.7,54.3c4.8,14.3,5.4,29.7,1.7,44.3c-3.6,14.6-11.4,27.9-22.3,38.3c1.2-21.4-4.7-42.6-16.7-60.3  C131.3,72.1,144.1,64.5,154.7,54.3z"/><path style="fill:none;stroke:red;stroke-width:0.0001px" d="M14.1,39.2c10.2,14.4,24.3,25.6,40.8,32.2c1.4-10.7,4.8-21,10.1-30.4C48.5,35.8,30.9,35.2,14.1,39.2z  "/><path style="fill:none;stroke:red;stroke-width:0.0001px" d="M12.5,36.6C22.2,21.4,36.8,10,53.8,4.2s35.5-5.6,52.4,0.4c-16.5,6.7-30.4,18.6-39.7,33.7  C49,32.7,30.3,32.1,12.5,36.6z"/><path style="fill:none;stroke:red;stroke-width:0.0001px" d="M114.3,77.5c-8.8,2.5-18,3.6-27.2,3.5c-8.5,7-18.2,12.4-28.5,16.1c1.5,7.7,4,15.1,7.6,22  c10.8-6.4,24-7,35.3-1.5c11.3,5.4,19.1,16.1,20.9,28.5c3-1.9,5.8-4,8.4-6.3C132.8,117.7,126.9,95.7,114.3,77.5z"/><path style="fill:none;stroke:red;stroke-width:0.0001px" d="M50.9,153.5c15.5,5.9,32.4,6.9,48.5,2.7c-14.3-7.4-26.2-18.8-34.2-32.8  C55.6,130.3,50.2,141.6,50.9,153.5z"/></svg>