<svg xmlns="http://www.w3.org/2000/svg" xmlns:xlink="http://www.w3.org/1999/xlink" version="1.1" id="Layer_1" x="0px" y="0px" viewBox="0 0 158.7 158.7" style="enable-background:new 0 0 158.7 158.7;" xml:space="preserve"><path style="fill:none;stroke:red;stroke-width:0.0001px" d="M11.1,40c-0.2,0.1-0.5,0.1-0.7,0.2C0.8,57.1-2.3,76.9,1.7,95.9c17.5,5.1,36.2,4.8,53.5-0.8  c-1.1-6.8-1.3-13.7-0.7-20.5C36.9,67.6,21.8,55.6,11.1,40z"/><path style="fill:none;stroke:red;stroke-width:0.0001px" d="M2.5,99.2c17.5,4.7,36,4.3,53.3-1.1c1.5,7.9,4.2,15.5,8,22.7c-10.2,7.2-16.2,19-15.9,31.5  C25.4,142.5,8.6,122.9,2.5,99.2z"/><path style="fill:none;stroke:red;stroke-width:0.0001px" d="M12.5,36.6C22.2,21.4,36.8,10,53.8,4.2s35.5-5.6,52.4,0.4c-16.5,6.7-30.4,18.6-39.7,33.7  C49,32.7,30.3,32.1,12.5,36.6z"/><path style="fill:none;stroke:red;stroke-width:0.0001px" d="M114.3,77.5c-8.8,2.5-18,3.6-27.2,3.5c-8.5,7-18.2,12.4-28.5,16.1c1.5,7.7,4,15.1,7.6,22  c10.8-6.4,24-7,35.3-1.5c11.3,5.4,19.1,16.1,20.9,28.5c3-1.9,5.8-4,8.4-6.3C132.8,117.7,126.9,95.7,114.3,77.5z"/><path style="fill:none;stroke:red;stroke-width:0.0001px" d="M14.1,39.2c10.2,14.4,24.3,25.6,40.8,32.2c1.4-10.7,4.8-21,10.1-30.4C48.5,35.8,30.9,35.2,14.1,39.2z  "/></svg>