<svg xmlns="http://www.w3.org/2000/svg" xmlns:xlink="http://www.w3.org/1999/xlink" version="1.1" id="Layer_1" x="0px" y="0px" xml:space="preserve" width="32in" height="18in"><g transform="translate(29.82337649086284 29.82337649086284) rotate(-45 72.0 72.0)"><path style="fill:none;stroke:red;stroke-width:0.0001px" d="M112.9,77.9c2.1-0.3,3.9,2.1,3.9,3.6c0,2.1-1.8,3.8-4,3.8c-2.1,0-3.7-1.8-3.6-3.8  C109.2,79.5,110.7,77.7,112.9,77.9z"/><path style="fill:none;stroke:red;stroke-width:0.0001px" d="M112.9,77.9c2.1-0.3,3.9,2.1,3.9,3.6c0,2.1-1.8,3.8-4,3.8c-2.1,0-3.7-1.8-3.6-3.8  C109.2,79.5,110.7,77.7,112.9,77.9z"/><path style="fill:none;stroke:red;stroke-width:0.0001px" d="M112.9,77.9c2.1-0.3,3.9,2.1,3.9,3.6c0,2.1-1.8,3.8-4,3.8c-2.1,0-3.7-1.8-3.6-3.8  C109.2,79.5,110.7,77.7,112.9,77.9z"/><path style="fill:none;stroke:red;stroke-width:0.0001px" d="M83.9,66.2c0.1,1.5-1.4,3-2.9,3c-1.7,0-2.9-1.2-3-2.6c-0.2-1.6,1.3-3.1,2.7-3.2  C82.5,63.3,83.9,64.5,83.9,66.2z"/><path style="fill:none;stroke:red;stroke-width:0.0001px" d="M83.9,66.2c0.1,1.5-1.4,3-2.9,3c-1.7,0-2.9-1.2-3-2.6c-0.2-1.6,1.3-3.1,2.7-3.2  C82.5,63.3,83.9,64.5,83.9,66.2z"/><path style="fill:none;stroke:red;stroke-width:0.0001px" d="M83.9,66.2c0.1,1.5-1.4,3-2.9,3c-1.7,0-2.9-1.2-3-2.6c-0.2-1.6,1.3-3.1,2.7-3.2  C82.5,63.3,83.9,64.5,83.9,66.2z"/><path style="fill:none;stroke:red;stroke-width:0.0001px" d="M76.7,38.5c-0.2,1.8-1.4,2.8-3.3,2.9c-1.2,0-2.7-1.6-2.7-2.8c0-1.6,1.5-3,3.2-2.9  C75.5,35.8,76.7,36.9,76.7,38.5z"/><path style="fill:none;stroke:red;stroke-width:0.0001px" d="M76.7,38.5c-0.2,1.8-1.4,2.8-3.3,2.9c-1.2,0-2.7-1.6-2.7-2.8c0-1.6,1.5-3,3.2-2.9  C75.5,35.8,76.7,36.9,76.7,38.5z"/><path style="fill:none;stroke:red;stroke-width:0.0001px" d="M76.7,38.5c-0.2,1.8-1.4,2.8-3.3,2.9c-1.2,0-2.7-1.6-2.7-2.8c0-1.6,1.5-3,3.2-2.9  C75.5,35.8,76.7,36.9,76.7,38.5z"/><path style="fill:none;stroke:red;stroke-width:0.0001px" d="M43.6,82.4c-1.1,0-1.8-0.4-2.2-1.3c-0.4-0.8-0.1-1.5,0.3-2.2c0.2-0.3,0.5-0.4,0.7-0.6  c0.2-0.1,0.3-0.3-0.1-0.4c-0.3-0.1-0.6-0.2-0.9-0.4c-0.6-0.5-0.7-1.2-0.4-1.9c0.3-0.7,0.8-1.1,1.4-1.1c0.9,0,1.5,0.5,1.7,1.2  c0.2,0.7,0,1.4-0.6,1.9c-0.1,0.1-0.3,0.1-0.2,0.3c0.1,0.2,0.2,0.1,0.3,0.1c0.4,0.1,0.7,0.2,1,0.3c1.6,0.7,1.4,2.9,0.1,3.7  C44.4,82.2,44,82.5,43.6,82.4z"/><path style="fill:none;stroke:red;stroke-width:0.0001px" d="M43.6,82.4c-1.1,0-1.8-0.4-2.2-1.3c-0.4-0.8-0.1-1.5,0.3-2.2c0.2-0.3,0.5-0.4,0.7-0.6  c0.2-0.1,0.3-0.3-0.1-0.4c-0.3-0.1-0.6-0.2-0.9-0.4c-0.6-0.5-0.7-1.2-0.4-1.9c0.3-0.7,0.8-1.1,1.4-1.1c0.9,0,1.5,0.5,1.7,1.2  c0.2,0.7,0,1.4-0.6,1.9c-0.1,0.1-0.3,0.1-0.2,0.3c0.1,0.2,0.2,0.1,0.3,0.1c0.4,0.1,0.7,0.2,1,0.3c1.6,0.7,1.4,2.9,0.1,3.7  C44.4,82.2,44,82.5,43.6,82.4z"/><path style="fill:none;stroke:red;stroke-width:0.0001px" d="M43.6,82.4c-1.1,0-1.8-0.4-2.2-1.3c-0.4-0.8-0.1-1.5,0.3-2.2c0.2-0.3,0.5-0.4,0.7-0.6  c0.2-0.1,0.3-0.3-0.1-0.4c-0.3-0.1-0.6-0.2-0.9-0.4c-0.6-0.5-0.7-1.2-0.4-1.9c0.3-0.7,0.8-1.1,1.4-1.1c0.9,0,1.5,0.5,1.7,1.2  c0.2,0.7,0,1.4-0.6,1.9c-0.1,0.1-0.3,0.1-0.2,0.3c0.1,0.2,0.2,0.1,0.3,0.1c0.4,0.1,0.7,0.2,1,0.3c1.6,0.7,1.4,2.9,0.1,3.7  C44.4,82.2,44,82.5,43.6,82.4z"/><path style="fill:none;stroke:red;stroke-width:0.0001px" d="M91.6,81.4c0,1.6-1.3,2.9-2.9,3c-1.3,0.1-2.9-1.3-2.9-2.5c0-1.9,1.3-3.1,3-3.2  C90.2,78.7,91.7,80.1,91.6,81.4z"/><path style="fill:none;stroke:red;stroke-width:0.0001px" d="M91.6,81.4c0,1.6-1.3,2.9-2.9,3c-1.3,0.1-2.9-1.3-2.9-2.5c0-1.9,1.3-3.1,3-3.2  C90.2,78.7,91.7,80.1,91.6,81.4z"/><path style="fill:none;stroke:red;stroke-width:0.0001px" d="M91.6,81.4c0,1.6-1.3,2.9-2.9,3c-1.3,0.1-2.9-1.3-2.9-2.5c0-1.9,1.3-3.1,3-3.2  C90.2,78.7,91.7,80.1,91.6,81.4z"/><path style="fill:none;stroke:red;stroke-width:0.0001px" d="M55.2,48.3c-1.7-0.2-2.8-1.2-2.8-2.9c0-1.5,1.3-2.8,2.7-2.8c2,0,3,1.5,3,2.8  C58.1,46.9,56.7,48.3,55.2,48.3z"/><path style="fill:none;stroke:red;stroke-width:0.0001px" d="M55.2,48.3c-1.7-0.2-2.8-1.2-2.8-2.9c0-1.5,1.3-2.8,2.7-2.8c2,0,3,1.5,3,2.8  C58.1,46.9,56.7,48.3,55.2,48.3z"/><path style="fill:none;stroke:red;stroke-width:0.0001px" d="M55.2,48.3c-1.7-0.2-2.8-1.2-2.8-2.9c0-1.5,1.3-2.8,2.7-2.8c2,0,3,1.5,3,2.8  C58.1,46.9,56.7,48.3,55.2,48.3z"/><path style="fill:none;stroke:red;stroke-width:0.0001px" d="M81.5,88.5c0-0.2,0-0.3-0.1-0.4c-1.2-1.3-0.7-3.5,1-4.3c0.7-0.4,2.2-0.4,3,0.4c1,0.9,1.3,2.5,0.7,3.5  c-0.5,0.8-1.1,1.3-2,1.4c-0.3,0-0.6,0.1-0.9,0.2C82.5,88.9,82,88.7,81.5,88.5z"/><path style="fill:none;stroke:red;stroke-width:0.0001px" d="M81.5,88.5c0-0.2,0-0.3-0.1-0.4c-1.2-1.3-0.7-3.5,1-4.3c0.7-0.4,2.2-0.4,3,0.4c1,0.9,1.3,2.5,0.7,3.5  c-0.5,0.8-1.1,1.3-2,1.4c-0.3,0-0.6,0.1-0.9,0.2C82.5,88.9,82,88.7,81.5,88.5z"/><path style="fill:none;stroke:red;stroke-width:0.0001px" d="M81.5,88.5c0-0.2,0-0.3-0.1-0.4c-1.2-1.3-0.7-3.5,1-4.3c0.7-0.4,2.2-0.4,3,0.4c1,0.9,1.3,2.5,0.7,3.5  c-0.5,0.8-1.1,1.3-2,1.4c-0.3,0-0.6,0.1-0.9,0.2C82.5,88.9,82,88.7,81.5,88.5z"/><path style="fill:none;stroke:red;stroke-width:0.0001px" d="M52.8,67.6c0,1.5-1.4,2.9-3,2.8c-1.3,0-2.7-1.4-2.7-2.6c0-1.8,1.3-2.9,2.9-3  C51.6,64.7,52.9,66.3,52.8,67.6z"/><path style="fill:none;stroke:red;stroke-width:0.0001px" d="M52.8,67.6c0,1.5-1.4,2.9-3,2.8c-1.3,0-2.7-1.4-2.7-2.6c0-1.8,1.3-2.9,2.9-3  C51.6,64.7,52.9,66.3,52.8,67.6z"/><path style="fill:none;stroke:red;stroke-width:0.0001px" d="M52.8,67.6c0,1.5-1.4,2.9-3,2.8c-1.3,0-2.7-1.4-2.7-2.6c0-1.8,1.3-2.9,2.9-3  C51.6,64.7,52.9,66.3,52.8,67.6z"/><path style="fill:none;stroke:red;stroke-width:0.0001px" d="M28.4,55.3c-0.1-1.5,1.3-2.8,2.8-2.7c1.5,0.1,2.6,1,2.6,2.7c0,1.7-1.4,2.7-3,2.7  C29.6,58,28.4,56.6,28.4,55.3z"/><path style="fill:none;stroke:red;stroke-width:0.0001px" d="M28.4,55.3c-0.1-1.5,1.3-2.8,2.8-2.7c1.5,0.1,2.6,1,2.6,2.7c0,1.7-1.4,2.7-3,2.7  C29.6,58,28.4,56.6,28.4,55.3z"/><path style="fill:none;stroke:red;stroke-width:0.0001px" d="M28.4,55.3c-0.1-1.5,1.3-2.8,2.8-2.7c1.5,0.1,2.6,1,2.6,2.7c0,1.7-1.4,2.7-3,2.7  C29.6,58,28.4,56.6,28.4,55.3z"/><path style="fill:none;stroke:red;stroke-width:0.0001px" d="M87.6,102.1c2,0,2.6,0.9,2.9,2.6c0.2,1.3-1.3,2.7-2.6,2.6c-1.8,0-2.6-1-2.8-2.6  C84.9,103.4,86.1,102,87.6,102.1z"/><path style="fill:none;stroke:red;stroke-width:0.0001px" d="M87.6,102.1c2,0,2.6,0.9,2.9,2.6c0.2,1.3-1.3,2.7-2.6,2.6c-1.8,0-2.6-1-2.8-2.6  C84.9,103.4,86.1,102,87.6,102.1z"/><path style="fill:none;stroke:red;stroke-width:0.0001px" d="M87.6,102.1c2,0,2.6,0.9,2.9,2.6c0.2,1.3-1.3,2.7-2.6,2.6c-1.8,0-2.6-1-2.8-2.6  C84.9,103.4,86.1,102,87.6,102.1z"/><path style="fill:none;stroke:red;stroke-width:0.0001px" d="M51.8,38.9c0-1.7,1.3-2.9,2.9-2.9c1.2,0,2.5,1.1,2.5,2.9c0,1.2-1.3,2.7-2.8,2.6  C53,41.4,51.8,40.3,51.8,38.9z"/><path style="fill:none;stroke:red;stroke-width:0.0001px" d="M51.8,38.9c0-1.7,1.3-2.9,2.9-2.9c1.2,0,2.5,1.1,2.5,2.9c0,1.2-1.3,2.7-2.8,2.6  C53,41.4,51.8,40.3,51.8,38.9z"/><path style="fill:none;stroke:red;stroke-width:0.0001px" d="M51.8,38.9c0-1.7,1.3-2.9,2.9-2.9c1.2,0,2.5,1.1,2.5,2.9c0,1.2-1.3,2.7-2.8,2.6  C53,41.4,51.8,40.3,51.8,38.9z"/><path style="fill:none;stroke:red;stroke-width:0.0001px" d="M71.2,43c0.2,1.2-1.2,2.9-2.9,2.7c-1.2-0.1-2.5-1.3-2.4-2.8c0-1.3,1.2-2.6,2.8-2.6  C69.7,40.4,71.3,41.6,71.2,43z"/><path style="fill:none;stroke:red;stroke-width:0.0001px" d="M71.2,43c0.2,1.2-1.2,2.9-2.9,2.7c-1.2-0.1-2.5-1.3-2.4-2.8c0-1.3,1.2-2.6,2.8-2.6  C69.7,40.4,71.3,41.6,71.2,43z"/><path style="fill:none;stroke:red;stroke-width:0.0001px" d="M71.2,43c0.2,1.2-1.2,2.9-2.9,2.7c-1.2-0.1-2.5-1.3-2.4-2.8c0-1.3,1.2-2.6,2.8-2.6  C69.7,40.4,71.3,41.6,71.2,43z"/><path style="fill:none;stroke:red;stroke-width:0.0001px" d="M91.9,97.2c1.5,0,2.7,1.2,2.7,2.8c0,1.1-1.5,2.5-2.6,2.5c-1.9,0-2.8-1.1-2.8-2.8  C89.1,98.6,90.2,97.2,91.9,97.2z"/><path style="fill:none;stroke:red;stroke-width:0.0001px" d="M91.9,97.2c1.5,0,2.7,1.2,2.7,2.8c0,1.1-1.5,2.5-2.6,2.5c-1.9,0-2.8-1.1-2.8-2.8  C89.1,98.6,90.2,97.2,91.9,97.2z"/><path style="fill:none;stroke:red;stroke-width:0.0001px" d="M91.9,97.2c1.5,0,2.7,1.2,2.7,2.8c0,1.1-1.5,2.5-2.6,2.5c-1.9,0-2.8-1.1-2.8-2.8  C89.1,98.6,90.2,97.2,91.9,97.2z"/><path style="fill:none;stroke:red;stroke-width:0.0001px" d="M102.5,86c-0.1-1.4,0.9-2.7,2.1-2.8c1.5-0.1,3,1.1,3,2.5c0,1.7-0.9,2.6-2.4,2.9  C103.9,88.8,102.6,87.6,102.5,86z"/><path style="fill:none;stroke:red;stroke-width:0.0001px" d="M102.5,86c-0.1-1.4,0.9-2.7,2.1-2.8c1.5-0.1,3,1.1,3,2.5c0,1.7-0.9,2.6-2.4,2.9  C103.9,88.8,102.6,87.6,102.5,86z"/><path style="fill:none;stroke:red;stroke-width:0.0001px" d="M102.5,86c-0.1-1.4,0.9-2.7,2.1-2.8c1.5-0.1,3,1.1,3,2.5c0,1.7-0.9,2.6-2.4,2.9  C103.9,88.8,102.6,87.6,102.5,86z"/><path style="fill:none;stroke:red;stroke-width:0.0001px" d="M104.4,50.3c-0.1-1.5,1.3-2.7,2.5-2.7c1.5,0,2.7,1.2,2.8,2.7c0.1,1.4-1.5,2.7-2.6,2.7  C105.7,53,104.2,51.6,104.4,50.3z"/><path style="fill:none;stroke:red;stroke-width:0.0001px" d="M104.4,50.3c-0.1-1.5,1.3-2.7,2.5-2.7c1.5,0,2.7,1.2,2.8,2.7c0.1,1.4-1.5,2.7-2.6,2.7  C105.7,53,104.2,51.6,104.4,50.3z"/><path style="fill:none;stroke:red;stroke-width:0.0001px" d="M104.4,50.3c-0.1-1.5,1.3-2.7,2.5-2.7c1.5,0,2.7,1.2,2.8,2.7c0.1,1.4-1.5,2.7-2.6,2.7  C105.7,53,104.2,51.6,104.4,50.3z"/><path style="fill:none;stroke:red;stroke-width:0.0001px" d="M59.9,53.5c1.4,0,2.5,1.1,2.5,2.4c0,1.5-1.2,2.7-2.6,2.7c-1.6,0-2.7-1.4-2.6-3  C57.2,54.5,58.4,53.5,59.9,53.5z"/><path style="fill:none;stroke:red;stroke-width:0.0001px" d="M59.9,53.5c1.4,0,2.5,1.1,2.5,2.4c0,1.5-1.2,2.7-2.6,2.7c-1.6,0-2.7-1.4-2.6-3  C57.2,54.5,58.4,53.5,59.9,53.5z"/><path style="fill:none;stroke:red;stroke-width:0.0001px" d="M59.9,53.5c1.4,0,2.5,1.1,2.5,2.4c0,1.5-1.2,2.7-2.6,2.7c-1.6,0-2.7-1.4-2.6-3  C57.2,54.5,58.4,53.5,59.9,53.5z"/><path style="fill:none;stroke:red;stroke-width:0.0001px" d="M40.5,39.6c1.4,0,2.5,1.1,2.4,2.3c-0.1,1.7-1,2.6-2.7,2.7c-1.1,0.1-2.4-1.2-2.3-2.4  C38,40.7,38.8,39.5,40.5,39.6z"/><path style="fill:none;stroke:red;stroke-width:0.0001px" d="M40.5,39.6c1.4,0,2.5,1.1,2.4,2.3c-0.1,1.7-1,2.6-2.7,2.7c-1.1,0.1-2.4-1.2-2.3-2.4  C38,40.7,38.8,39.5,40.5,39.6z"/><path style="fill:none;stroke:red;stroke-width:0.0001px" d="M40.5,39.6c1.4,0,2.5,1.1,2.4,2.3c-0.1,1.7-1,2.6-2.7,2.7c-1.1,0.1-2.4-1.2-2.3-2.4  C38,40.7,38.8,39.5,40.5,39.6z"/><path style="fill:none;stroke:red;stroke-width:0.0001px" d="M75,83.3c-1.3,0.2-2.6-1-2.6-2.1c-0.1-1.7,0.9-2.5,2.4-2.7c1.3-0.2,2.4,1,2.5,2.4  C77.3,82.3,76.6,83.2,75,83.3z"/><path style="fill:none;stroke:red;stroke-width:0.0001px" d="M75,83.3c-1.3,0.2-2.6-1-2.6-2.1c-0.1-1.7,0.9-2.5,2.4-2.7c1.3-0.2,2.4,1,2.5,2.4  C77.3,82.3,76.6,83.2,75,83.3z"/><path style="fill:none;stroke:red;stroke-width:0.0001px" d="M75,83.3c-1.3,0.2-2.6-1-2.6-2.1c-0.1-1.7,0.9-2.5,2.4-2.7c1.3-0.2,2.4,1,2.5,2.4  C77.3,82.3,76.6,83.2,75,83.3z"/><path style="fill:none;stroke:red;stroke-width:0.0001px" d="M63.7,81.3c0-1.6,1.1-2.4,2.3-2.5c1.5,0,2.5,1,2.5,2.5c0,1.2-1.2,2.2-2.5,2.2  C64.8,83.5,63.7,82.5,63.7,81.3z"/><path style="fill:none;stroke:red;stroke-width:0.0001px" d="M63.7,81.3c0-1.6,1.1-2.4,2.3-2.5c1.5,0,2.5,1,2.5,2.5c0,1.2-1.2,2.2-2.5,2.2  C64.8,83.5,63.7,82.5,63.7,81.3z"/><path style="fill:none;stroke:red;stroke-width:0.0001px" d="M63.7,81.3c0-1.6,1.1-2.4,2.3-2.5c1.5,0,2.5,1,2.5,2.5c0,1.2-1.2,2.2-2.5,2.2  C64.8,83.5,63.7,82.5,63.7,81.3z"/><path style="fill:none;stroke:red;stroke-width:0.0001px" d="M99.4,90.9c-1.4,0-2.3-0.8-2.5-2.5c-0.1-1,1.3-2.2,2.5-2.2c1.2,0,2.2,1,2.3,2.1  C101.8,89.5,100.7,91.1,99.4,90.9z"/><path style="fill:none;stroke:red;stroke-width:0.0001px" d="M99.4,90.9c-1.4,0-2.3-0.8-2.5-2.5c-0.1-1,1.3-2.2,2.5-2.2c1.2,0,2.2,1,2.3,2.1  C101.8,89.5,100.7,91.1,99.4,90.9z"/><path style="fill:none;stroke:red;stroke-width:0.0001px" d="M99.4,90.9c-1.4,0-2.3-0.8-2.5-2.5c-0.1-1,1.3-2.2,2.5-2.2c1.2,0,2.2,1,2.3,2.1  C101.8,89.5,100.7,91.1,99.4,90.9z"/><path style="fill:none;stroke:red;stroke-width:0.0001px" d="M35,41.5c-1.4,0-2.2-1.1-2.3-2.4c0-1.1,1.2-2.2,2.4-2.2c1.2,0,2.4,1.2,2.4,2.3  C37.5,40.3,36.2,41.6,35,41.5z"/><path style="fill:none;stroke:red;stroke-width:0.0001px" d="M35,41.5c-1.4,0-2.2-1.1-2.3-2.4c0-1.1,1.2-2.2,2.4-2.2c1.2,0,2.4,1.2,2.4,2.3  C37.5,40.3,36.2,41.6,35,41.5z"/><path style="fill:none;stroke:red;stroke-width:0.0001px" d="M35,41.5c-1.4,0-2.2-1.1-2.3-2.4c0-1.1,1.2-2.2,2.4-2.2c1.2,0,2.4,1.2,2.4,2.3  C37.5,40.3,36.2,41.6,35,41.5z"/><path style="fill:none;stroke:red;stroke-width:0.0001px" d="M66.5,85.8c-0.1-1.3,1.2-2.3,2.3-2.3c1,0,2.4,1.1,2.2,2.6c-0.1,0.8-1,2-2.3,1.9  C67.5,88,66.4,87,66.5,85.8z"/><path style="fill:none;stroke:red;stroke-width:0.0001px" d="M66.5,85.8c-0.1-1.3,1.2-2.3,2.3-2.3c1,0,2.4,1.1,2.2,2.6c-0.1,0.8-1,2-2.3,1.9  C67.5,88,66.4,87,66.5,85.8z"/><path style="fill:none;stroke:red;stroke-width:0.0001px" d="M66.5,85.8c-0.1-1.3,1.2-2.3,2.3-2.3c1,0,2.4,1.1,2.2,2.6c-0.1,0.8-1,2-2.3,1.9  C67.5,88,66.4,87,66.5,85.8z"/><path style="fill:none;stroke:red;stroke-width:0.0001px" d="M98.7,103.6c1.5-0.2,2.3,0.9,2.4,1.9c0.1,1.1-1,2.3-2,2.4c-1.3,0.1-2.4-0.9-2.4-2.3  c0-0.5,0.1-1.1,0.7-1.5C97.9,103.8,98.2,103.4,98.7,103.6z"/><path style="fill:none;stroke:red;stroke-width:0.0001px" d="M98.7,103.6c1.5-0.2,2.3,0.9,2.4,1.9c0.1,1.1-1,2.3-2,2.4c-1.3,0.1-2.4-0.9-2.4-2.3  c0-0.5,0.1-1.1,0.7-1.5C97.9,103.8,98.2,103.4,98.7,103.6z"/><path style="fill:none;stroke:red;stroke-width:0.0001px" d="M98.7,103.6c1.5-0.2,2.3,0.9,2.4,1.9c0.1,1.1-1,2.3-2,2.4c-1.3,0.1-2.4-0.9-2.4-2.3  c0-0.5,0.1-1.1,0.7-1.5C97.9,103.8,98.2,103.4,98.7,103.6z"/><path style="fill:none;stroke:red;stroke-width:0.0001px" d="M43.2,100.5c-1.1,0.1-2.2-0.9-2.3-2c-0.1-1.1,0.9-2.3,1.9-2.4c1.3-0.1,2.4,0.8,2.5,2.2  C45.4,99.4,44.4,100.4,43.2,100.5z"/><path style="fill:none;stroke:red;stroke-width:0.0001px" d="M43.2,100.5c-1.1,0.1-2.2-0.9-2.3-2c-0.1-1.1,0.9-2.3,1.9-2.4c1.3-0.1,2.4,0.8,2.5,2.2  C45.4,99.4,44.4,100.4,43.2,100.5z"/><path style="fill:none;stroke:red;stroke-width:0.0001px" d="M43.2,100.5c-1.1,0.1-2.2-0.9-2.3-2c-0.1-1.1,0.9-2.3,1.9-2.4c1.3-0.1,2.4,0.8,2.5,2.2  C45.4,99.4,44.4,100.4,43.2,100.5z"/><path style="fill:none;stroke:red;stroke-width:0.0001px" d="M38.5,93.8c-0.8,0.1-1.6-0.6-1.7-1.5c-0.1-0.8,0.7-1.7,1.4-1.8c1-0.1,1.8,0.6,1.8,1.6  C40.1,93,39.4,93.7,38.5,93.8z"/><path style="fill:none;stroke:red;stroke-width:0.0001px" d="M38.5,93.8c-0.8,0.1-1.6-0.6-1.7-1.5c-0.1-0.8,0.7-1.7,1.4-1.8c1-0.1,1.8,0.6,1.8,1.6  C40.1,93,39.4,93.7,38.5,93.8z"/><path style="fill:none;stroke:red;stroke-width:0.0001px" d="M38.5,93.8c-0.8,0.1-1.6-0.6-1.7-1.5c-0.1-0.8,0.7-1.7,1.4-1.8c1-0.1,1.8,0.6,1.8,1.6  C40.1,93,39.4,93.7,38.5,93.8z"/><path style="fill:none;stroke:red;stroke-width:0.0001px" d="M97.8,53.7c-1.1,0-2.3-1.2-2.2-2.3c0.1-1.1,1.3-2.2,2.4-2.2c1.1,0.1,2.2,1.3,2.1,2.5  C100.1,52.6,98.7,53.8,97.8,53.7z"/><path style="fill:none;stroke:red;stroke-width:0.0001px" d="M97.8,53.7c-1.1,0-2.3-1.2-2.2-2.3c0.1-1.1,1.3-2.2,2.4-2.2c1.1,0.1,2.2,1.3,2.1,2.5  C100.1,52.6,98.7,53.8,97.8,53.7z"/><path style="fill:none;stroke:red;stroke-width:0.0001px" d="M97.8,53.7c-1.1,0-2.3-1.2-2.2-2.3c0.1-1.1,1.3-2.2,2.4-2.2c1.1,0.1,2.2,1.3,2.1,2.5  C100.1,52.6,98.7,53.8,97.8,53.7z"/><path style="fill:none;stroke:red;stroke-width:0.0001px" d="M46.5,86.4c-1.2,0.1-2.3-1.1-2.2-2.1c0.1-1.2,0.9-2.2,2-2.2c1.4,0.1,2.3,0.9,2.3,2.2  C48.6,85.5,47.7,86.4,46.5,86.4z"/><path style="fill:none;stroke:red;stroke-width:0.0001px" d="M46.5,86.4c-1.2,0.1-2.3-1.1-2.2-2.1c0.1-1.2,0.9-2.2,2-2.2c1.4,0.1,2.3,0.9,2.3,2.2  C48.6,85.5,47.7,86.4,46.5,86.4z"/><path style="fill:none;stroke:red;stroke-width:0.0001px" d="M46.5,86.4c-1.2,0.1-2.3-1.1-2.2-2.1c0.1-1.2,0.9-2.2,2-2.2c1.4,0.1,2.3,0.9,2.3,2.2  C48.6,85.5,47.7,86.4,46.5,86.4z"/><path style="fill:none;stroke:red;stroke-width:0.0001px" d="M51,64.2c-1.3-0.1-2-0.9-2-2c0-1.2,1-2,2.4-1.9c0.8,0,1.8,1.1,1.6,2C52.9,63.6,52.2,64.2,51,64.2z"/><path style="fill:none;stroke:red;stroke-width:0.0001px" d="M51,64.2c-1.3-0.1-2-0.9-2-2c0-1.2,1-2,2.4-1.9c0.8,0,1.8,1.1,1.6,2C52.9,63.6,52.2,64.2,51,64.2z"/><path style="fill:none;stroke:red;stroke-width:0.0001px" d="M51,64.2c-1.3-0.1-2-0.9-2-2c0-1.2,1-2,2.4-1.9c0.8,0,1.8,1.1,1.6,2C52.9,63.6,52.2,64.2,51,64.2z"/><path style="fill:none;stroke:red;stroke-width:0.0001px" d="M98.9,62.9c-1.1,0.1-2-1.1-2-1.9c0-1,1-2,2-1.9c1.1,0.1,1.9,0.7,1.9,2.1  C100.7,62.2,100,62.9,98.9,62.9z"/><path style="fill:none;stroke:red;stroke-width:0.0001px" d="M98.9,62.9c-1.1,0.1-2-1.1-2-1.9c0-1,1-2,2-1.9c1.1,0.1,1.9,0.7,1.9,2.1  C100.7,62.2,100,62.9,98.9,62.9z"/><path style="fill:none;stroke:red;stroke-width:0.0001px" d="M98.9,62.9c-1.1,0.1-2-1.1-2-1.9c0-1,1-2,2-1.9c1.1,0.1,1.9,0.7,1.9,2.1  C100.7,62.2,100,62.9,98.9,62.9z"/><path style="fill:none;stroke:red;stroke-width:0.0001px" d="M100.3,73.1c0-1.1,0.8-1.9,2-1.9c0.8,0,1.9,1,1.9,1.7c0,1.5-0.7,2-1.9,2.1  C101.2,75.2,100.3,74.5,100.3,73.1z"/><path style="fill:none;stroke:red;stroke-width:0.0001px" d="M100.3,73.1c0-1.1,0.8-1.9,2-1.9c0.8,0,1.9,1,1.9,1.7c0,1.5-0.7,2-1.9,2.1  C101.2,75.2,100.3,74.5,100.3,73.1z"/><path style="fill:none;stroke:red;stroke-width:0.0001px" d="M100.3,73.1c0-1.1,0.8-1.9,2-1.9c0.8,0,1.9,1,1.9,1.7c0,1.5-0.7,2-1.9,2.1  C101.2,75.2,100.3,74.5,100.3,73.1z"/><path style="fill:none;stroke:red;stroke-width:0.0001px" d="M101.3,45.7c0.9-0.1,2.1,0.8,2.2,1.7c0.1,0.9-1,2.1-2,2.1c-1,0-1.9-0.8-2-1.8  C99.4,46.6,100.1,45.8,101.3,45.7z"/><path style="fill:none;stroke:red;stroke-width:0.0001px" d="M101.3,45.7c0.9-0.1,2.1,0.8,2.2,1.7c0.1,0.9-1,2.1-2,2.1c-1,0-1.9-0.8-2-1.8  C99.4,46.6,100.1,45.8,101.3,45.7z"/><path style="fill:none;stroke:red;stroke-width:0.0001px" d="M101.3,45.7c0.9-0.1,2.1,0.8,2.2,1.7c0.1,0.9-1,2.1-2,2.1c-1,0-1.9-0.8-2-1.8  C99.4,46.6,100.1,45.8,101.3,45.7z"/><path style="fill:none;stroke:red;stroke-width:0.0001px" d="M44.9,47.2c0,1.1-0.7,1.8-1.9,1.9c-1,0-1.9-0.8-1.9-1.9c0-0.9,0.7-2.1,1.9-2  C44.1,45.2,44.9,46,44.9,47.2z"/><path style="fill:none;stroke:red;stroke-width:0.0001px" d="M44.9,47.2c0,1.1-0.7,1.8-1.9,1.9c-1,0-1.9-0.8-1.9-1.9c0-0.9,0.7-2.1,1.9-2  C44.1,45.2,44.9,46,44.9,47.2z"/><path style="fill:none;stroke:red;stroke-width:0.0001px" d="M44.9,47.2c0,1.1-0.7,1.8-1.9,1.9c-1,0-1.9-0.8-1.9-1.9c0-0.9,0.7-2.1,1.9-2  C44.1,45.2,44.9,46,44.9,47.2z"/><path style="fill:none;stroke:red;stroke-width:0.0001px" d="M95.7,66.6c1.2,0,2,0.8,2,2c0,1-0.9,1.8-2,1.7c-1.2-0.1-1.8-0.8-1.9-2C93.7,67.5,94.7,66.6,95.7,66.6  z"/><path style="fill:none;stroke:red;stroke-width:0.0001px" d="M95.7,66.6c1.2,0,2,0.8,2,2c0,1-0.9,1.8-2,1.7c-1.2-0.1-1.8-0.8-1.9-2C93.7,67.5,94.7,66.6,95.7,66.6  z"/><path style="fill:none;stroke:red;stroke-width:0.0001px" d="M95.7,66.6c1.2,0,2,0.8,2,2c0,1-0.9,1.8-2,1.7c-1.2-0.1-1.8-0.8-1.9-2C93.7,67.5,94.7,66.6,95.7,66.6  z"/><path style="fill:none;stroke:red;stroke-width:0.0001px" d="M75.3,77.5c-1.2,0-1.9-0.8-1.8-1.9c0-1,0.8-1.7,2.1-1.8c0.7,0,1.8,0.9,1.7,1.9  C77.2,77,76.6,77.6,75.3,77.5z"/><path style="fill:none;stroke:red;stroke-width:0.0001px" d="M75.3,77.5c-1.2,0-1.9-0.8-1.8-1.9c0-1,0.8-1.7,2.1-1.8c0.7,0,1.8,0.9,1.7,1.9  C77.2,77,76.6,77.6,75.3,77.5z"/><path style="fill:none;stroke:red;stroke-width:0.0001px" d="M75.3,77.5c-1.2,0-1.9-0.8-1.8-1.9c0-1,0.8-1.7,2.1-1.8c0.7,0,1.8,0.9,1.7,1.9  C77.2,77,76.6,77.6,75.3,77.5z"/><path style="fill:none;stroke:red;stroke-width:0.0001px" d="M62.1,49.6c1.2,0.2,1.7,0.7,1.8,1.9c0.1,0.8-0.9,1.7-1.8,1.7c-0.9,0-1.8-0.9-1.8-1.8  C60.4,50.5,61.2,49.7,62.1,49.6z"/><path style="fill:none;stroke:red;stroke-width:0.0001px" d="M62.1,49.6c1.2,0.2,1.7,0.7,1.8,1.9c0.1,0.8-0.9,1.7-1.8,1.7c-0.9,0-1.8-0.9-1.8-1.8  C60.4,50.5,61.2,49.7,62.1,49.6z"/><path style="fill:none;stroke:red;stroke-width:0.0001px" d="M62.1,49.6c1.2,0.2,1.7,0.7,1.8,1.9c0.1,0.8-0.9,1.7-1.8,1.7c-0.9,0-1.8-0.9-1.8-1.8  C60.4,50.5,61.2,49.7,62.1,49.6z"/><path style="fill:none;stroke:red;stroke-width:0.0001px" d="M101.7,79.5c-1.1,0-1.7-0.8-1.7-1.8c-0.1-0.8,0.9-1.8,1.6-1.8c1.2,0.1,1.9,0.8,1.9,1.8  C103.5,78.8,102.8,79.4,101.7,79.5z"/><path style="fill:none;stroke:red;stroke-width:0.0001px" d="M101.7,79.5c-1.1,0-1.7-0.8-1.7-1.8c-0.1-0.8,0.9-1.8,1.6-1.8c1.2,0.1,1.9,0.8,1.9,1.8  C103.5,78.8,102.8,79.4,101.7,79.5z"/><path style="fill:none;stroke:red;stroke-width:0.0001px" d="M101.7,79.5c-1.1,0-1.7-0.8-1.7-1.8c-0.1-0.8,0.9-1.8,1.6-1.8c1.2,0.1,1.9,0.8,1.9,1.8  C103.5,78.8,102.8,79.4,101.7,79.5z"/><path style="fill:none;stroke:red;stroke-width:0.0001px" d="M41.5,108.2c-1,0-1.8-0.8-1.7-1.6c0-1.1,0.8-1.8,1.9-1.8c0.8,0,1.6,0.9,1.6,1.7  C43.2,107.5,42.4,108.3,41.5,108.2z"/><path style="fill:none;stroke:red;stroke-width:0.0001px" d="M41.5,108.2c-1,0-1.8-0.8-1.7-1.6c0-1.1,0.8-1.8,1.9-1.8c0.8,0,1.6,0.9,1.6,1.7  C43.2,107.5,42.4,108.3,41.5,108.2z"/><path style="fill:none;stroke:red;stroke-width:0.0001px" d="M41.5,108.2c-1,0-1.8-0.8-1.7-1.6c0-1.1,0.8-1.8,1.9-1.8c0.8,0,1.6,0.9,1.6,1.7  C43.2,107.5,42.4,108.3,41.5,108.2z"/><path style="fill:none;stroke:red;stroke-width:0.0001px" d="M36.3,107.7c-1.4,0-2.6-1.1-2.6-2.4c0-1.7,1.1-2.7,2.8-2.7c1.2,0,2.4,1.3,2.3,2.6  C38.8,106.6,37.7,107.8,36.3,107.7z"/><path style="fill:none;stroke:red;stroke-width:0.0001px" d="M36.3,107.7c-1.4,0-2.6-1.1-2.6-2.4c0-1.7,1.1-2.7,2.8-2.7c1.2,0,2.4,1.3,2.3,2.6  C38.8,106.6,37.7,107.8,36.3,107.7z"/><path style="fill:none;stroke:red;stroke-width:0.0001px" d="M36.3,107.7c-1.4,0-2.6-1.1-2.6-2.4c0-1.7,1.1-2.7,2.8-2.7c1.2,0,2.4,1.3,2.3,2.6  C38.8,106.6,37.7,107.8,36.3,107.7z"/><path style="fill:none;stroke:red;stroke-width:0.0001px" d="M36.1,55.5c-0.8,0-1.5-0.6-1.6-1.4c-0.1-0.9,0.6-1.7,1.5-1.7c0.9,0,1.8,0.7,1.9,1.5  C37.9,54.7,37,55.5,36.1,55.5z"/><path style="fill:none;stroke:red;stroke-width:0.0001px" d="M36.1,55.5c-0.8,0-1.5-0.6-1.6-1.4c-0.1-0.9,0.6-1.7,1.5-1.7c0.9,0,1.8,0.7,1.9,1.5  C37.9,54.7,37,55.5,36.1,55.5z"/><path style="fill:none;stroke:red;stroke-width:0.0001px" d="M36.1,55.5c-0.8,0-1.5-0.6-1.6-1.4c-0.1-0.9,0.6-1.7,1.5-1.7c0.9,0,1.8,0.7,1.9,1.5  C37.9,54.7,37,55.5,36.1,55.5z"/><path style="fill:none;stroke:red;stroke-width:0.0001px" d="M81.9,61.6c0-1.1,0.7-1.6,1.6-1.6c0.9,0,1.6,0.8,1.6,1.7c0,0.7-0.9,1.5-1.6,1.5  C82.6,63.2,81.9,62.5,81.9,61.6z"/><path style="fill:none;stroke:red;stroke-width:0.0001px" d="M81.9,61.6c0-1.1,0.7-1.6,1.6-1.6c0.9,0,1.6,0.8,1.6,1.7c0,0.7-0.9,1.5-1.6,1.5  C82.6,63.2,81.9,62.5,81.9,61.6z"/><path style="fill:none;stroke:red;stroke-width:0.0001px" d="M81.9,61.6c0-1.1,0.7-1.6,1.6-1.6c0.9,0,1.6,0.8,1.6,1.7c0,0.7-0.9,1.5-1.6,1.5  C82.6,63.2,81.9,62.5,81.9,61.6z"/><path style="fill:none;stroke:red;stroke-width:0.0001px" d="M102.8,56c-0.7,0-1.5-0.9-1.5-1.6c0-0.8,0.9-1.6,1.6-1.6c0.8,0,1.6,0.8,1.6,1.6  C104.6,55.5,104,56,102.8,56z"/><path style="fill:none;stroke:red;stroke-width:0.0001px" d="M102.8,56c-0.7,0-1.5-0.9-1.5-1.6c0-0.8,0.9-1.6,1.6-1.6c0.8,0,1.6,0.8,1.6,1.6  C104.6,55.5,104,56,102.8,56z"/><path style="fill:none;stroke:red;stroke-width:0.0001px" d="M102.8,56c-0.7,0-1.5-0.9-1.5-1.6c0-0.8,0.9-1.6,1.6-1.6c0.8,0,1.6,0.8,1.6,1.6  C104.6,55.5,104,56,102.8,56z"/><path style="fill:none;stroke:red;stroke-width:0.0001px" d="M38.7,88.7c0,0.8-0.7,1.7-1.4,1.7c-1.1,0-1.9-0.6-1.9-1.4c0-0.9,0.8-1.7,1.7-1.7  C37.9,87.2,38.7,87.9,38.7,88.7z"/><path style="fill:none;stroke:red;stroke-width:0.0001px" d="M38.7,88.7c0,0.8-0.7,1.7-1.4,1.7c-1.1,0-1.9-0.6-1.9-1.4c0-0.9,0.8-1.7,1.7-1.7  C37.9,87.2,38.7,87.9,38.7,88.7z"/><path style="fill:none;stroke:red;stroke-width:0.0001px" d="M38.7,88.7c0,0.8-0.7,1.7-1.4,1.7c-1.1,0-1.9-0.6-1.9-1.4c0-0.9,0.8-1.7,1.7-1.7  C37.9,87.2,38.7,87.9,38.7,88.7z"/><path style="fill:none;stroke:red;stroke-width:0.0001px" d="M67.9,50c0.1,0,0.1,0,0.2,0c-0.1,0.3,0.1,0.5,0.3,0.7c0.5,0.5,0.4,1.3,0,1.8  c-0.6,0.7-1.4,0.8-2.2,0.3c-0.6-0.3-0.8-1.1-0.5-1.8c0.3-0.7,0.8-1,1.6-0.9C67.5,50.2,67.8,50.4,67.9,50z"/><path style="fill:none;stroke:red;stroke-width:0.0001px" d="M67.9,50c0.1,0,0.1,0,0.2,0c-0.1,0.3,0.1,0.5,0.3,0.7c0.5,0.5,0.4,1.3,0,1.8  c-0.6,0.7-1.4,0.8-2.2,0.3c-0.6-0.3-0.8-1.1-0.5-1.8c0.3-0.7,0.8-1,1.6-0.9C67.5,50.2,67.8,50.4,67.9,50z"/><path style="fill:none;stroke:red;stroke-width:0.0001px" d="M67.9,50c0.1,0,0.1,0,0.2,0c-0.1,0.3,0.1,0.5,0.3,0.7c0.5,0.5,0.4,1.3,0,1.8  c-0.6,0.7-1.4,0.8-2.2,0.3c-0.6-0.3-0.8-1.1-0.5-1.8c0.3-0.7,0.8-1,1.6-0.9C67.5,50.2,67.8,50.4,67.9,50z"/><path style="fill:none;stroke:red;stroke-width:0.0001px" d="M94.4,82.8c-0.9,0-1.6-0.7-1.6-1.5c0-0.8,0.8-1.5,1.6-1.5c0.6,0,1.5,0.7,1.5,1.2  C95.9,82.2,95.4,82.7,94.4,82.8z"/><path style="fill:none;stroke:red;stroke-width:0.0001px" d="M94.4,82.8c-0.9,0-1.6-0.7-1.6-1.5c0-0.8,0.8-1.5,1.6-1.5c0.6,0,1.5,0.7,1.5,1.2  C95.9,82.2,95.4,82.7,94.4,82.8z"/><path style="fill:none;stroke:red;stroke-width:0.0001px" d="M94.4,82.8c-0.9,0-1.6-0.7-1.6-1.5c0-0.8,0.8-1.5,1.6-1.5c0.6,0,1.5,0.7,1.5,1.2  C95.9,82.2,95.4,82.7,94.4,82.8z"/><path style="fill:none;stroke:red;stroke-width:0.0001px" d="M75,70c0.8,0,1.5,0.7,1.5,1.5c0,0.7-0.8,1.5-1.5,1.5c-0.9,0-1.6-0.7-1.6-1.5C73.3,70.7,74.1,70,75,70  z"/><path style="fill:none;stroke:red;stroke-width:0.0001px" d="M75,70c0.8,0,1.5,0.7,1.5,1.5c0,0.7-0.8,1.5-1.5,1.5c-0.9,0-1.6-0.7-1.6-1.5C73.3,70.7,74.1,70,75,70  z"/><path style="fill:none;stroke:red;stroke-width:0.0001px" d="M75,70c0.8,0,1.5,0.7,1.5,1.5c0,0.7-0.8,1.5-1.5,1.5c-0.9,0-1.6-0.7-1.6-1.5C73.3,70.7,74.1,70,75,70  z"/><path style="fill:none;stroke:red;stroke-width:0.0001px" d="M78.7,70.4c0.8,0,1.5,0.7,1.5,1.5c0,0.7-0.8,1.4-1.5,1.4c-0.7,0-1.5-0.6-1.5-1.5  C77.3,71,77.9,70.4,78.7,70.4z"/><path style="fill:none;stroke:red;stroke-width:0.0001px" d="M78.7,70.4c0.8,0,1.5,0.7,1.5,1.5c0,0.7-0.8,1.4-1.5,1.4c-0.7,0-1.5-0.6-1.5-1.5  C77.3,71,77.9,70.4,78.7,70.4z"/><path style="fill:none;stroke:red;stroke-width:0.0001px" d="M78.7,70.4c0.8,0,1.5,0.7,1.5,1.5c0,0.7-0.8,1.4-1.5,1.4c-0.7,0-1.5-0.6-1.5-1.5  C77.3,71,77.9,70.4,78.7,70.4z"/><path style="fill:none;stroke:red;stroke-width:0.0001px" d="M48.3,72.4c0-0.8,0.7-1.5,1.4-1.5c0.7,0,1.5,0.7,1.5,1.3c0,0.9-0.7,1.7-1.6,1.7  C48.8,73.9,48.3,73.3,48.3,72.4z"/><path style="fill:none;stroke:red;stroke-width:0.0001px" d="M48.3,72.4c0-0.8,0.7-1.5,1.4-1.5c0.7,0,1.5,0.7,1.5,1.3c0,0.9-0.7,1.7-1.6,1.7  C48.8,73.9,48.3,73.3,48.3,72.4z"/><path style="fill:none;stroke:red;stroke-width:0.0001px" d="M48.3,72.4c0-0.8,0.7-1.5,1.4-1.5c0.7,0,1.5,0.7,1.5,1.3c0,0.9-0.7,1.7-1.6,1.7  C48.8,73.9,48.3,73.3,48.3,72.4z"/><path style="fill:none;stroke:red;stroke-width:0.0001px" d="M41.8,95.6c-0.7,0.1-1.5-0.8-1.5-1.7c0-0.6,0.9-1.3,1.5-1.3c0.8,0,1.5,0.8,1.5,1.7  C43.3,94.9,42.5,95.6,41.8,95.6z"/><path style="fill:none;stroke:red;stroke-width:0.0001px" d="M41.8,95.6c-0.7,0.1-1.5-0.8-1.5-1.7c0-0.6,0.9-1.3,1.5-1.3c0.8,0,1.5,0.8,1.5,1.7  C43.3,94.9,42.5,95.6,41.8,95.6z"/><path style="fill:none;stroke:red;stroke-width:0.0001px" d="M41.8,95.6c-0.7,0.1-1.5-0.8-1.5-1.7c0-0.6,0.9-1.3,1.5-1.3c0.8,0,1.5,0.8,1.5,1.7  C43.3,94.9,42.5,95.6,41.8,95.6z"/><path style="fill:none;stroke:red;stroke-width:0.0001px" d="M73.5,44.5c-0.8,0-1.4-0.7-1.3-1.5c0-0.7,0.6-1.3,1.3-1.3c0.8,0,1.8,0.8,1.8,1.4  C75.2,43.9,74.4,44.5,73.5,44.5z"/><path style="fill:none;stroke:red;stroke-width:0.0001px" d="M73.5,44.5c-0.8,0-1.4-0.7-1.3-1.5c0-0.7,0.6-1.3,1.3-1.3c0.8,0,1.8,0.8,1.8,1.4  C75.2,43.9,74.4,44.5,73.5,44.5z"/><path style="fill:none;stroke:red;stroke-width:0.0001px" d="M73.5,44.5c-0.8,0-1.4-0.7-1.3-1.5c0-0.7,0.6-1.3,1.3-1.3c0.8,0,1.8,0.8,1.8,1.4  C75.2,43.9,74.4,44.5,73.5,44.5z"/><path style="fill:none;stroke:red;stroke-width:0.0001px" d="M40.1,39.2c-0.9,0-1.4-0.4-1.3-1.3c0.1-1.1,0.5-1.6,1.5-1.6c0.7,0,1.4,0.7,1.3,1.4  C41.5,38.6,40.9,39.2,40.1,39.2z"/><path style="fill:none;stroke:red;stroke-width:0.0001px" d="M40.1,39.2c-0.9,0-1.4-0.4-1.3-1.3c0.1-1.1,0.5-1.6,1.5-1.6c0.7,0,1.4,0.7,1.3,1.4  C41.5,38.6,40.9,39.2,40.1,39.2z"/><path style="fill:none;stroke:red;stroke-width:0.0001px" d="M40.1,39.2c-0.9,0-1.4-0.4-1.3-1.3c0.1-1.1,0.5-1.6,1.5-1.6c0.7,0,1.4,0.7,1.3,1.4  C41.5,38.6,40.9,39.2,40.1,39.2z"/><path style="fill:none;stroke:red;stroke-width:0.0001px" d="M77.5,87.7c-0.2-0.8,0.7-1.4,1.6-1.4c0.6,0,1.3,0.8,1.3,1.5c0,0.7-0.8,1.4-1.5,1.5  C78.2,89.2,77.5,88.5,77.5,87.7z"/><path style="fill:none;stroke:red;stroke-width:0.0001px" d="M77.5,87.7c-0.2-0.8,0.7-1.4,1.6-1.4c0.6,0,1.3,0.8,1.3,1.5c0,0.7-0.8,1.4-1.5,1.5  C78.2,89.2,77.5,88.5,77.5,87.7z"/><path style="fill:none;stroke:red;stroke-width:0.0001px" d="M77.5,87.7c-0.2-0.8,0.7-1.4,1.6-1.4c0.6,0,1.3,0.8,1.3,1.5c0,0.7-0.8,1.4-1.5,1.5  C78.2,89.2,77.5,88.5,77.5,87.7z"/><path style="fill:none;stroke:red;stroke-width:0.0001px" d="M32.5,100.8c0.7,0,1.4,0.7,1.4,1.5c0,0.8-0.8,1.5-1.6,1.4c-0.4,0-1.1-0.8-1.1-1.2  C31.1,101.7,31.8,100.8,32.5,100.8z"/><path style="fill:none;stroke:red;stroke-width:0.0001px" d="M32.5,100.8c0.7,0,1.4,0.7,1.4,1.5c0,0.8-0.8,1.5-1.6,1.4c-0.4,0-1.1-0.8-1.1-1.2  C31.1,101.7,31.8,100.8,32.5,100.8z"/><path style="fill:none;stroke:red;stroke-width:0.0001px" d="M32.5,100.8c0.7,0,1.4,0.7,1.4,1.5c0,0.8-0.8,1.5-1.6,1.4c-0.4,0-1.1-0.8-1.1-1.2  C31.1,101.7,31.8,100.8,32.5,100.8z"/><path style="fill:none;stroke:red;stroke-width:0.0001px" d="M61.5,46.6c0,0.7-0.6,1.3-1.3,1.3c-0.8,0-1.4-0.6-1.4-1.3c0-0.7,0.6-1.4,1.3-1.4  C60.9,45.2,61.5,45.8,61.5,46.6z"/><path style="fill:none;stroke:red;stroke-width:0.0001px" d="M61.5,46.6c0,0.7-0.6,1.3-1.3,1.3c-0.8,0-1.4-0.6-1.4-1.3c0-0.7,0.6-1.4,1.3-1.4  C60.9,45.2,61.5,45.8,61.5,46.6z"/><path style="fill:none;stroke:red;stroke-width:0.0001px" d="M61.5,46.6c0,0.7-0.6,1.3-1.3,1.3c-0.8,0-1.4-0.6-1.4-1.3c0-0.7,0.6-1.4,1.3-1.4  C60.9,45.2,61.5,45.8,61.5,46.6z"/><path style="fill:none;stroke:red;stroke-width:0.0001px" d="M40.4,46.4c0,0.7-0.7,1.4-1.4,1.4c-0.7,0-1.3-0.6-1.3-1.4c0-0.9,0.8-1.4,1.4-1.4  C39.8,45,40.4,45.7,40.4,46.4z"/><path style="fill:none;stroke:red;stroke-width:0.0001px" d="M40.4,46.4c0,0.7-0.7,1.4-1.4,1.4c-0.7,0-1.3-0.6-1.3-1.4c0-0.9,0.8-1.4,1.4-1.4  C39.8,45,40.4,45.7,40.4,46.4z"/><path style="fill:none;stroke:red;stroke-width:0.0001px" d="M40.4,46.4c0,0.7-0.7,1.4-1.4,1.4c-0.7,0-1.3-0.6-1.3-1.4c0-0.9,0.8-1.4,1.4-1.4  C39.8,45,40.4,45.7,40.4,46.4z"/><path style="fill:none;stroke:red;stroke-width:0.0001px" d="M92.7,49.7c0-0.7,0.6-1.3,1.1-1.3c0.9,0,1.5,0.6,1.5,1.5c0,0.7-0.6,1.2-1.3,1.2  C93.3,51,92.7,50.4,92.7,49.7z"/><path style="fill:none;stroke:red;stroke-width:0.0001px" d="M92.7,49.7c0-0.7,0.6-1.3,1.1-1.3c0.9,0,1.5,0.6,1.5,1.5c0,0.7-0.6,1.2-1.3,1.2  C93.3,51,92.7,50.4,92.7,49.7z"/><path style="fill:none;stroke:red;stroke-width:0.0001px" d="M92.7,49.7c0-0.7,0.6-1.3,1.1-1.3c0.9,0,1.5,0.6,1.5,1.5c0,0.7-0.6,1.2-1.3,1.2  C93.3,51,92.7,50.4,92.7,49.7z"/><path style="fill:none;stroke:red;stroke-width:0.0001px" d="M99.7,42.9c0.7,0,1.4,0.6,1.4,1.2c0,0.7-0.8,1.4-1.5,1.4c-0.5,0-1.2-0.8-1.2-1.3  C98.4,43.4,99,42.9,99.7,42.9z"/><path style="fill:none;stroke:red;stroke-width:0.0001px" d="M99.7,42.9c0.7,0,1.4,0.6,1.4,1.2c0,0.7-0.8,1.4-1.5,1.4c-0.5,0-1.2-0.8-1.2-1.3  C98.4,43.4,99,42.9,99.7,42.9z"/><path style="fill:none;stroke:red;stroke-width:0.0001px" d="M99.7,42.9c0.7,0,1.4,0.6,1.4,1.2c0,0.7-0.8,1.4-1.5,1.4c-0.5,0-1.2-0.8-1.2-1.3  C98.4,43.4,99,42.9,99.7,42.9z"/><path style="fill:none;stroke:red;stroke-width:0.0001px" d="M97.1,97c0.2,0,0.4,0,0.4,0.2c-0.3,0.3,0.1,0.6,0.1,0.9c-0.1,1.1-1.2,1.4-2,0.9  c-0.5-0.3-0.8-0.8-0.6-1.3c0.3-0.7,0.8-1,1.5-0.8C96.7,97,96.9,97,97.1,97z"/><path style="fill:none;stroke:red;stroke-width:0.0001px" d="M97.1,97c0.2,0,0.4,0,0.4,0.2c-0.3,0.3,0.1,0.6,0.1,0.9c-0.1,1.1-1.2,1.4-2,0.9  c-0.5-0.3-0.8-0.8-0.6-1.3c0.3-0.7,0.8-1,1.5-0.8C96.7,97,96.9,97,97.1,97z"/><path style="fill:none;stroke:red;stroke-width:0.0001px" d="M97.1,97c0.2,0,0.4,0,0.4,0.2c-0.3,0.3,0.1,0.6,0.1,0.9c-0.1,1.1-1.2,1.4-2,0.9  c-0.5-0.3-0.8-0.8-0.6-1.3c0.3-0.7,0.8-1,1.5-0.8C96.7,97,96.9,97,97.1,97z"/><path style="fill:none;stroke:red;stroke-width:0.0001px" d="M51.3,43.9c-0.7,0-1.1-0.5-1.2-1.3c0-0.6,0.6-1.2,1.1-1.2c0.6,0,1.3,0.6,1.3,1.2  C52.6,43.4,52.1,43.9,51.3,43.9z"/><path style="fill:none;stroke:red;stroke-width:0.0001px" d="M51.3,43.9c-0.7,0-1.1-0.5-1.2-1.3c0-0.6,0.6-1.2,1.1-1.2c0.6,0,1.3,0.6,1.3,1.2  C52.6,43.4,52.1,43.9,51.3,43.9z"/><path style="fill:none;stroke:red;stroke-width:0.0001px" d="M51.3,43.9c-0.7,0-1.1-0.5-1.2-1.3c0-0.6,0.6-1.2,1.1-1.2c0.6,0,1.3,0.6,1.3,1.2  C52.6,43.4,52.1,43.9,51.3,43.9z"/><path style="fill:none;stroke:red;stroke-width:0.0001px" d="M72,74.3c-0.7,0-1.2-0.5-1.2-1.1c0-0.6,0.6-1.2,1.3-1.2c0.5,0,1.2,0.7,1.2,1.2  C73.2,73.8,72.6,74.4,72,74.3z"/><path style="fill:none;stroke:red;stroke-width:0.0001px" d="M72,74.3c-0.7,0-1.2-0.5-1.2-1.1c0-0.6,0.6-1.2,1.3-1.2c0.5,0,1.2,0.7,1.2,1.2  C73.2,73.8,72.6,74.4,72,74.3z"/><path style="fill:none;stroke:red;stroke-width:0.0001px" d="M72,74.3c-0.7,0-1.2-0.5-1.2-1.1c0-0.6,0.6-1.2,1.3-1.2c0.5,0,1.2,0.7,1.2,1.2  C73.2,73.8,72.6,74.4,72,74.3z"/><path style="fill:none;stroke:red;stroke-width:0.0001px" d="M118.9,84.3c0,0.5-0.6,1.1-1.2,1.1c-0.6,0-1.2-0.5-1.2-1.1c0-0.6,0.6-1.2,1.2-1.1  C118.4,83.1,118.9,83.7,118.9,84.3z"/><path style="fill:none;stroke:red;stroke-width:0.0001px" d="M118.9,84.3c0,0.5-0.6,1.1-1.2,1.1c-0.6,0-1.2-0.5-1.2-1.1c0-0.6,0.6-1.2,1.2-1.1  C118.4,83.1,118.9,83.7,118.9,84.3z"/><path style="fill:none;stroke:red;stroke-width:0.0001px" d="M118.9,84.3c0,0.5-0.6,1.1-1.2,1.1c-0.6,0-1.2-0.5-1.2-1.1c0-0.6,0.6-1.2,1.2-1.1  C118.4,83.1,118.9,83.7,118.9,84.3z"/><path style="fill:none;stroke:red;stroke-width:0.0001px" d="M45.8,92.1c-0.1,0.8-0.4,1.1-1,1.1c-0.7-0.1-1.2-0.6-1.1-1.3c0-0.5,0.6-1.1,1.1-1.1  C45.4,90.9,45.9,91.5,45.8,92.1z"/><path style="fill:none;stroke:red;stroke-width:0.0001px" d="M45.8,92.1c-0.1,0.8-0.4,1.1-1,1.1c-0.7-0.1-1.2-0.6-1.1-1.3c0-0.5,0.6-1.1,1.1-1.1  C45.4,90.9,45.9,91.5,45.8,92.1z"/><path style="fill:none;stroke:red;stroke-width:0.0001px" d="M45.8,92.1c-0.1,0.8-0.4,1.1-1,1.1c-0.7-0.1-1.2-0.6-1.1-1.3c0-0.5,0.6-1.1,1.1-1.1  C45.4,90.9,45.9,91.5,45.8,92.1z"/><path style="fill:none;stroke:red;stroke-width:0.0001px" d="M110.8,39.3c0.6,0,1.1,0.5,1.1,1c0,0.6-0.6,1.3-1.1,1.3c-0.6,0-1.2-0.6-1.2-1.3  C109.7,39.6,110.1,39.3,110.8,39.3z"/><path style="fill:none;stroke:red;stroke-width:0.0001px" d="M110.8,39.3c0.6,0,1.1,0.5,1.1,1c0,0.6-0.6,1.3-1.1,1.3c-0.6,0-1.2-0.6-1.2-1.3  C109.7,39.6,110.1,39.3,110.8,39.3z"/><path style="fill:none;stroke:red;stroke-width:0.0001px" d="M110.8,39.3c0.6,0,1.1,0.5,1.1,1c0,0.6-0.6,1.3-1.1,1.3c-0.6,0-1.2-0.6-1.2-1.3  C109.7,39.6,110.1,39.3,110.8,39.3z"/><path style="fill:none;stroke:red;stroke-width:0.0001px" d="M98.6,92.6c0-0.5,0.5-1.2,1-1.2c0.5,0,1.2,0.8,1.2,1.3c0,0.4-0.5,0.9-0.9,0.9  C99.1,93.6,98.6,93.3,98.6,92.6z"/><path style="fill:none;stroke:red;stroke-width:0.0001px" d="M98.6,92.6c0-0.5,0.5-1.2,1-1.2c0.5,0,1.2,0.8,1.2,1.3c0,0.4-0.5,0.9-0.9,0.9  C99.1,93.6,98.6,93.3,98.6,92.6z"/><path style="fill:none;stroke:red;stroke-width:0.0001px" d="M98.6,92.6c0-0.5,0.5-1.2,1-1.2c0.5,0,1.2,0.8,1.2,1.3c0,0.4-0.5,0.9-0.9,0.9  C99.1,93.6,98.6,93.3,98.6,92.6z"/><path style="fill:none;stroke:red;stroke-width:0.0001px" d="M87.7,57.1c0-0.7,0.5-1.2,1.2-1.2c0.3,0,1,0.7,1,1c0,0.4-0.8,1.2-1.2,1.2  C88.1,58.1,87.7,57.7,87.7,57.1z"/><path style="fill:none;stroke:red;stroke-width:0.0001px" d="M87.7,57.1c0-0.7,0.5-1.2,1.2-1.2c0.3,0,1,0.7,1,1c0,0.4-0.8,1.2-1.2,1.2  C88.1,58.1,87.7,57.7,87.7,57.1z"/><path style="fill:none;stroke:red;stroke-width:0.0001px" d="M87.7,57.1c0-0.7,0.5-1.2,1.2-1.2c0.3,0,1,0.7,1,1c0,0.4-0.8,1.2-1.2,1.2  C88.1,58.1,87.7,57.7,87.7,57.1z"/><path style="fill:none;stroke:red;stroke-width:0.0001px" d="M58.1,62.3c0,0.6-0.4,1-1,1c-0.6,0-1.1-0.5-1.1-1c0-0.5,0.5-1.1,1.1-1.1  C57.7,61.2,58.1,61.7,58.1,62.3z"/><path style="fill:none;stroke:red;stroke-width:0.0001px" d="M58.1,62.3c0,0.6-0.4,1-1,1c-0.6,0-1.1-0.5-1.1-1c0-0.5,0.5-1.1,1.1-1.1  C57.7,61.2,58.1,61.7,58.1,62.3z"/><path style="fill:none;stroke:red;stroke-width:0.0001px" d="M58.1,62.3c0,0.6-0.4,1-1,1c-0.6,0-1.1-0.5-1.1-1c0-0.5,0.5-1.1,1.1-1.1  C57.7,61.2,58.1,61.7,58.1,62.3z"/><path style="fill:none;stroke:red;stroke-width:0.0001px" d="M118.3,79.5c0.6,0,1,0.4,1,1c0,0.5-0.5,1-1,1c-0.5,0-1.1-0.5-1.1-1C117.2,80,117.8,79.5,118.3,79.5z"/><path style="fill:none;stroke:red;stroke-width:0.0001px" d="M118.3,79.5c0.6,0,1,0.4,1,1c0,0.5-0.5,1-1,1c-0.5,0-1.1-0.5-1.1-1C117.2,80,117.8,79.5,118.3,79.5z"/><path style="fill:none;stroke:red;stroke-width:0.0001px" d="M118.3,79.5c0.6,0,1,0.4,1,1c0,0.5-0.5,1-1,1c-0.5,0-1.1-0.5-1.1-1C117.2,80,117.8,79.5,118.3,79.5z"/><path style="fill:none;stroke:red;stroke-width:0.0001px" d="M83.5,81.8c0-0.6,0.5-1,1.2-1c0.4,0,0.9,0.6,0.9,1.2c0,0.3-0.8,0.8-1.1,0.8  C84,82.8,83.5,82.3,83.5,81.8z"/><path style="fill:none;stroke:red;stroke-width:0.0001px" d="M83.5,81.8c0-0.6,0.5-1,1.2-1c0.4,0,0.9,0.6,0.9,1.2c0,0.3-0.8,0.8-1.1,0.8  C84,82.8,83.5,82.3,83.5,81.8z"/><path style="fill:none;stroke:red;stroke-width:0.0001px" d="M83.5,81.8c0-0.6,0.5-1,1.2-1c0.4,0,0.9,0.6,0.9,1.2c0,0.3-0.8,0.8-1.1,0.8  C84,82.8,83.5,82.3,83.5,81.8z"/><path style="fill:none;stroke:red;stroke-width:0.0001px" d="M44.4,86.3c0,0.5-0.5,0.9-1.1,0.9c-0.5,0-0.8-0.4-0.8-0.9c0-0.6,0.5-1,1.1-1  C44,85.2,44.4,85.8,44.4,86.3z"/><path style="fill:none;stroke:red;stroke-width:0.0001px" d="M44.4,86.3c0,0.5-0.5,0.9-1.1,0.9c-0.5,0-0.8-0.4-0.8-0.9c0-0.6,0.5-1,1.1-1  C44,85.2,44.4,85.8,44.4,86.3z"/><path style="fill:none;stroke:red;stroke-width:0.0001px" d="M44.4,86.3c0,0.5-0.5,0.9-1.1,0.9c-0.5,0-0.8-0.4-0.8-0.9c0-0.6,0.5-1,1.1-1  C44,85.2,44.4,85.8,44.4,86.3z"/><path style="fill:none;stroke:red;stroke-width:0.0001px" d="M101.1,103.6c-0.5,0-1-0.4-1-1c0-0.4,0.6-0.9,1.1-0.9c0.4,0,0.9,0.4,0.9,0.8  C102.1,103.1,101.7,103.6,101.1,103.6z"/><path style="fill:none;stroke:red;stroke-width:0.0001px" d="M101.1,103.6c-0.5,0-1-0.4-1-1c0-0.4,0.6-0.9,1.1-0.9c0.4,0,0.9,0.4,0.9,0.8  C102.1,103.1,101.7,103.6,101.1,103.6z"/><path style="fill:none;stroke:red;stroke-width:0.0001px" d="M101.1,103.6c-0.5,0-1-0.4-1-1c0-0.4,0.6-0.9,1.1-0.9c0.4,0,0.9,0.4,0.9,0.8  C102.1,103.1,101.7,103.6,101.1,103.6z"/><path style="fill:none;stroke:red;stroke-width:0.0001px" d="M59,59c0.6,0,0.9,0.2,0.9,0.8c0,0.6-0.3,1-0.8,1c-0.6,0-0.9-0.3-1-0.8C58.1,59.4,58.4,59.1,59,59z"/><path style="fill:none;stroke:red;stroke-width:0.0001px" d="M59,59c0.6,0,0.9,0.2,0.9,0.8c0,0.6-0.3,1-0.8,1c-0.6,0-0.9-0.3-1-0.8C58.1,59.4,58.4,59.1,59,59z"/><path style="fill:none;stroke:red;stroke-width:0.0001px" d="M59,59c0.6,0,0.9,0.2,0.9,0.8c0,0.6-0.3,1-0.8,1c-0.6,0-0.9-0.3-1-0.8C58.1,59.4,58.4,59.1,59,59z"/><path style="fill:none;stroke:red;stroke-width:0.0001px" d="M58.1,37.6c-0.4-0.1-0.6-0.3-0.6-0.8c0-0.5,0.3-0.8,0.8-0.8c0.4,0,1,0.5,1,0.8  C59.2,37.2,58.6,37.7,58.1,37.6z"/><path style="fill:none;stroke:red;stroke-width:0.0001px" d="M58.1,37.6c-0.4-0.1-0.6-0.3-0.6-0.8c0-0.5,0.3-0.8,0.8-0.8c0.4,0,1,0.5,1,0.8  C59.2,37.2,58.6,37.7,58.1,37.6z"/><path style="fill:none;stroke:red;stroke-width:0.0001px" d="M58.1,37.6c-0.4-0.1-0.6-0.3-0.6-0.8c0-0.5,0.3-0.8,0.8-0.8c0.4,0,1,0.5,1,0.8  C59.2,37.2,58.6,37.7,58.1,37.6z"/><path style="fill:none;stroke:red;stroke-width:0.0001px" d="M108.6,84.6c-0.5,0-0.7-0.4-0.7-0.8c0-0.4,0.2-0.7,0.6-0.7c0.4,0,0.9,0.4,0.9,0.8  C109.5,84.3,109.1,84.6,108.6,84.6z"/><path style="fill:none;stroke:red;stroke-width:0.0001px" d="M108.6,84.6c-0.5,0-0.7-0.4-0.7-0.8c0-0.4,0.2-0.7,0.6-0.7c0.4,0,0.9,0.4,0.9,0.8  C109.5,84.3,109.1,84.6,108.6,84.6z"/><path style="fill:none;stroke:red;stroke-width:0.0001px" d="M108.6,84.6c-0.5,0-0.7-0.4-0.7-0.8c0-0.4,0.2-0.7,0.6-0.7c0.4,0,0.9,0.4,0.9,0.8  C109.5,84.3,109.1,84.6,108.6,84.6z"/><path style="fill:none;stroke:red;stroke-width:0.0001px" d="M84.5,108c0-0.6,0.3-0.9,0.7-0.9c0.3,0,0.9,0.5,0.9,0.7c-0.1,0.5-0.4,0.7-0.8,0.7  C84.8,108.6,84.5,108.3,84.5,108z"/><path style="fill:none;stroke:red;stroke-width:0.0001px" d="M84.5,108c0-0.6,0.3-0.9,0.7-0.9c0.3,0,0.9,0.5,0.9,0.7c-0.1,0.5-0.4,0.7-0.8,0.7  C84.8,108.6,84.5,108.3,84.5,108z"/><path style="fill:none;stroke:red;stroke-width:0.0001px" d="M84.5,108c0-0.6,0.3-0.9,0.7-0.9c0.3,0,0.9,0.5,0.9,0.7c-0.1,0.5-0.4,0.7-0.8,0.7  C84.8,108.6,84.5,108.3,84.5,108z"/><path style="fill:none;stroke:red;stroke-width:0.0001px" d="M47.8,81.7c-0.3-0.1-0.7-0.2-0.7-0.6c0-0.4,0.3-0.7,0.7-0.7c0.4,0,0.7,0.2,0.8,0.7  C48.7,81.6,48.2,81.6,47.8,81.7z"/><path style="fill:none;stroke:red;stroke-width:0.0001px" d="M47.8,81.7c-0.3-0.1-0.7-0.2-0.7-0.6c0-0.4,0.3-0.7,0.7-0.7c0.4,0,0.7,0.2,0.8,0.7  C48.7,81.6,48.2,81.6,47.8,81.7z"/><path style="fill:none;stroke:red;stroke-width:0.0001px" d="M47.8,81.7c-0.3-0.1-0.7-0.2-0.7-0.6c0-0.4,0.3-0.7,0.7-0.7c0.4,0,0.7,0.2,0.8,0.7  C48.7,81.6,48.2,81.6,47.8,81.7z"/><path style="fill:none;stroke:red;stroke-width:0.0001px" d="M104.1,82.3c0,0.5-0.2,0.8-0.7,0.8c-0.4,0-0.7-0.3-0.6-0.8c0-0.5,0.4-0.5,0.8-0.6  C103.9,81.8,104.1,82,104.1,82.3z"/><path style="fill:none;stroke:red;stroke-width:0.0001px" d="M104.1,82.3c0,0.5-0.2,0.8-0.7,0.8c-0.4,0-0.7-0.3-0.6-0.8c0-0.5,0.4-0.5,0.8-0.6  C103.9,81.8,104.1,82,104.1,82.3z"/><path style="fill:none;stroke:red;stroke-width:0.0001px" d="M104.1,82.3c0,0.5-0.2,0.8-0.7,0.8c-0.4,0-0.7-0.3-0.6-0.8c0-0.5,0.4-0.5,0.8-0.6  C103.9,81.8,104.1,82,104.1,82.3z"/><path style="fill:none;stroke:red;stroke-width:0.0001px" d="M50.7,40.8c-0.4,0-0.7-0.2-0.6-0.5c0-0.4,0.3-0.6,0.7-0.6c0.3,0,0.6,0.1,0.6,0.5  C51.3,40.5,51,40.8,50.7,40.8z"/><path style="fill:none;stroke:red;stroke-width:0.0001px" d="M50.7,40.8c-0.4,0-0.7-0.2-0.6-0.5c0-0.4,0.3-0.6,0.7-0.6c0.3,0,0.6,0.1,0.6,0.5  C51.3,40.5,51,40.8,50.7,40.8z"/><path style="fill:none;stroke:red;stroke-width:0.0001px" d="M50.7,40.8c-0.4,0-0.7-0.2-0.6-0.5c0-0.4,0.3-0.6,0.7-0.6c0.3,0,0.6,0.1,0.6,0.5  C51.3,40.5,51,40.8,50.7,40.8z"/></g></svg>