<svg xmlns="http://www.w3.org/2000/svg" xmlns:xlink="http://www.w3.org/1999/xlink" version="1.1" id="Layer_2" x="0px" y="0px" viewBox="0 0 250.8 250.4" style="enable-background:new 0 0 250.8 250.4;" xml:space="preserve">
<path d="M124,2.8C56.4,2.8,1.6,57.7,1.6,125.3S56.4,247.7,124,247.7s122.5-54.8,122.5-122.5S191.7,2.8,124,2.8z M193.1,70.9  c0,1-1,2.3-1.9,2.3c-1,0-2.1-1-2.1-2.3c0.2-1.1,0.9-1.7,2.1-1.7C192.2,69.2,193.1,70.1,193.1,70.9z M160.4,168.3  c-3.4,0.2-6.3-3.3-6.2-6.8c-0.2-3.1,3.1-6.6,6.2-6.6c4.5,0.2,7.3,3.3,6.9,7.3C167.1,165.5,164.5,168.3,160.4,168.3z M163.1,174.6  c0,1.9-2.6,4.3-4.5,4.3c-3.3,0-4.9-1.9-4.9-4.9c-0.1-1.9,1.8-4.3,4.7-4.3C161,169.7,163.1,171.8,163.1,174.6z M174.4,99.8  c0,1.6-1.2,2.8-2.8,2.8c-1.6,0-2.9-1.2-2.9-2.9c0-1.6,1-2.6,2.8-2.6C173,96.8,174.2,98.2,174.4,99.8z M174,90.1  c0-1.4,0.9-2.1,2.4-2.1c0.9,0,1.9,1.2,1.9,2.1c0,1-1.2,2.1-2.1,2.1C174.9,92.1,174,91.3,174,90.1z M170.6,103.6  c1.9,0.2,3.3,1.2,3.3,3.6c-0.2,1.8-1.4,3-3.3,3c-1.9,0.2-3.5-1.9-3.5-3.3C167.1,105.2,168.8,103.4,170.6,103.6z M166.6,98.5  c-0.9,0-1.6-0.7-1.6-1.6c0-1,0.7-1.7,1.7-1.7c1.1,0.1,1.8,0.7,1.8,1.6C168.5,97.7,167.6,98.5,166.6,98.5z M168.6,94.2  c-1.9,0-4-2.1-3.8-4c0.2-1.9,2.3-3.8,4.2-3.8c1.9,0.2,3.8,2.3,3.6,4.3C172.6,92.3,170.2,94.4,168.6,94.2z M166.7,110.7  c1,0,2.1,1,2.1,2.1c0,1-1,1.9-2.1,1.9c-1.1,0-1.9-1-1.9-2.1C164.8,111.6,165.7,110.7,166.7,110.7z M165,116.6c2.1,0,3.5,1.4,3.5,3.5  c0,1.7-1.6,3.1-3.5,2.9c-2.1-0.2-3.1-1.4-3.3-3.5C161.5,118.2,163.3,116.6,165,116.6z M169.4,123.5c1.4,0,2.4,1,2.4,2.6  c0,1.1-1.2,2.1-2.6,2.1s-2.4-0.9-2.4-2.3C166.8,124.3,167.8,123.3,169.4,123.5z M166.5,129.6c2.6,0,4.2,2.3,4.3,4.5  c0.3,2.4-1.8,4.9-4.4,4.7c-2.9,0-4.9-2.3-4.9-4.9C161.5,131.5,163.8,129.6,166.5,129.6z M162.7,139.5c1,0,2.6,1.2,2.6,2.1  c0.1,2.1-0.8,2.9-2.6,3.1c-1.6,0-2.8-1.2-2.8-2.6C159.9,140.7,161.3,139.5,162.7,139.5z M157.1,106.8c-1.4,0-2.8-1.4-2.8-2.8  c-0.1-1.5,1.3-2.7,2.9-2.7s2.8,1,2.8,2.6C160,105.6,158.8,106.8,157.1,106.8z M162.6,145.6c2.3,0.2,4.2,1.4,4.2,4.7  c0,1.6-2.4,4.3-4.7,4.3c-2.3-0.2-4.2-1.9-4.2-4.2C157.7,148.3,159.8,145.4,162.6,145.6z M163.7,171.2c0.4-0.9,1.1-1.3,2-1.1  c0.4,0.1,0.6,0.1,0.9,0.1c0.3,0,0.5,0,0.5,0.3c-0.4,0.4,0.1,0.8,0.1,1.2c-0.1,1.5-1.6,1.9-2.7,1.2  C163.8,172.5,163.4,171.8,163.7,171.2z M166.5,174.3c1.8,0.1,3.4,1.3,3.4,2.8c0,1.4-1.4,2.9-2.9,3.1c-1.6,0-3.1-1.4-3.1-3.1  C163.9,175.9,165.5,174.3,166.5,174.3z M169.8,169.9c-0.7,0-1.2,0-1.7-0.3c0-0.3-0.3-0.3-0.7-0.3c-0.2-0.9-0.7-1.4-0.7-2.4  c0.2-1.4,1.6-2.8,2.9-2.8c1.6,0,3.1,1.6,3.1,2.9C172.7,168.4,171.1,169.9,169.8,169.9z M172.2,163.5c-1.3-0.1-2.2-0.6-2.2-1.8  c0-0.9,0.9-2.1,1.7-2.1c0.9,0,2.1,1.4,2.1,2.3C173.8,162.6,172.9,163.5,172.2,163.5z M171.4,158.7c-2.4,0-4-1.4-4.3-4.3  c-0.2-1.7,2.3-3.8,4.3-3.8c2.1,0,3.8,1.7,4,3.6C175.6,156.3,173.7,159.1,171.4,158.7z M170.6,148.6c-2.5,0.1-4.2-1.6-4.2-4.3  c0-2.4,1.9-4.5,4.2-4.7c2.8,0,4.9,1.7,5,4C175.8,146.2,173.9,148.6,170.6,148.6z M175.4,139c-1.9,0-2.9-1.4-2.9-3.1  c-0.2-1.4,1.6-3.1,2.8-3.1c2.1,0.2,3.3,1.4,3.3,3.1C178.5,137.8,177.3,138.8,175.4,139z M177.4,143.8c0-0.9,0.7-0.9,1.4-1  c0.4,0.2,0.8,0.5,0.8,1c0,0.9-0.3,1.4-1.2,1.4C177.7,145.2,177.2,144.7,177.4,143.8z M176.5,131.1c-2,0.4-3.5-0.8-3.5-3.2  c0-1.9,1.4-3.3,3.5-3.3c1.4,0,3.3,1.7,3.3,2.9C179.8,130.1,178.6,131,176.5,131.1z M175,123.2c-3.5,0-6.4-3.3-6.2-7.1  c0-3,3-6.1,7-5.9c2.9-0.2,6.2,3.5,6.1,6.4C181.7,120.4,179.1,123.2,175,123.2z M179.1,109.7c-2.6,0.2-4.9-2.3-5-5.2  c-0.1-2.5,2.2-4.7,5-4.7c3.1,0,5,1.6,5,4.7C184.1,107.1,181.8,109.5,179.1,109.7z M177.3,98.2c-1.2,0-2.6-1.6-2.6-2.8  c0-1.4,1.6-2.8,2.8-2.8c1.4,0,2.8,1.4,2.8,2.8C180.4,97.3,179.4,98.2,177.3,98.2z M180.1,88.3c-0.2-2.6,2.3-4.7,4.3-4.7  c2.6,0,4.7,2.1,4.9,4.7c0.2,2.4-2.6,4.7-4.5,4.7C182.4,93,179.8,90.6,180.1,88.3z M189.1,84c-1.2,0-2.3-0.9-2.3-2.1  c0.1-1,0.8-1.9,2.1-1.9c1.2,0,2.1,0.9,2.1,2.1C191,83.1,190.1,84,189.1,84z M187.2,60c2.6,0.3,4.7,2.3,4.5,4.7  c-0.2,2.8-2.6,4.7-5.4,4.7c-2.6-0.2-4.2-2.4-4-4.7C182.3,61.8,184.7,59.8,187.2,60z M174.9,75.2c0.3-4.2,3.5-6.2,6.4-6.2  c4.9-0.2,6.9,3.8,6.8,6.9c0,4.1-3.1,6.3-6.6,6.2C177.7,82.1,174.7,79,174.9,75.2z M178.5,83.2c0.2,1.6-1.7,3.6-3.5,3.6  s-3.3-1.4-3.5-3.1c-0.1-1.8,1.1-3.2,3.2-3.4C176.3,80.1,178.3,81.7,178.5,83.2z M171.9,75.5c1.2,0,2.4,1,2.4,2.1  c0,1.2-1.4,2.4-2.6,2.4c-0.9,0-2.1-1.4-2.1-2.3C169.7,76.3,170.7,75.5,171.9,75.5z M166.6,80c1.7,0,2.9,1.2,2.9,2.8  c0,1.2-1.2,3.1-2.9,2.9c-1.9-0.2-3.3-1.4-3.3-3.1C163.4,81,164.8,80,166.6,80z M161.7,85c1.6,0,2.6,1,2.6,2.6c0,1.2-1,2.1-2.3,2.1  c-1.2-0.2-2.2-1.2-2.2-2.4C159.8,86.1,160.8,85,161.7,85z M159.1,91.1c2.4,0,4.7,2.1,4.7,4.5c0,2.4-2.1,4.7-4.5,4.7  c-2.6,0-4.9-2.1-4.9-4.5C154.4,93.2,156.5,91.1,159.1,91.1z M153.2,98c0.5,0,1.7,1.2,1.7,1.7c0,0.7-1.4,2.1-2.1,2.1  c-1,0-1.7-0.6-1.7-1.7C151.1,98.9,152,98,153.2,98z M151.1,105.2c1.6,0,2.8,1.2,2.8,2.4c0,1.9-1.2,2.9-2.8,2.9  c-1.6,0-2.8-1.2-2.8-2.4C148.5,106.5,149.7,105.2,151.1,105.2z M153.1,137.6c2.4,0,5,2.4,4.8,4.7c0,2.8-2.3,5-5,5.2  c-2.3,0.2-5-2.3-5-4.3C147.9,139.9,150.2,137.8,153.1,137.6z M147.5,143.4c0,0.5-1.4,1.4-1.9,1.4c-0.9-0.1-1.8-1-1.8-1.8  c0-1,0.9-1.7,2.1-1.7C146.6,141.3,147.5,142.3,147.5,143.4z M143.9,105.1c1.6,0,2.8,1.4,2.8,2.9c0,1.2-1.6,2.6-2.8,2.6  c-1.6,0.1-2.8-1.1-2.8-2.7C141.1,106,142.3,105.1,143.9,105.1z M139,111c3.1-0.1,5.5,1.9,5.5,4.9c0.2,2.6-2.4,5.2-5,5.2  c-2.9,0-5-2.1-5.2-4.5C134,113.8,136.6,111.2,139,111z M135.5,123.2c1.4,0,2.6,1.2,2.6,2.6c0,1.2-1.4,2.4-2.6,2.4s-2.6-1-2.6-2.6  C133.1,124.2,134.1,123.2,135.5,123.2z M133,132.4c-0.1,2.2-1.1,3.3-3.4,3.1c-2.1,0-3.3-1.4-3.1-3.3c0-1.7,1.4-2.9,3.6-3.1  C131.3,129.1,133.2,130.7,133,132.4z M126.8,81.5c0,1.6-1.2,2.8-2.9,2.8c-1.4,0-2.6-1.2-2.8-2.8c-0.2-1.4,1.4-2.8,2.6-2.8  C125.6,78.8,127,79.6,126.8,81.5z M124.2,75.7c0-1.2,1-2.3,2.3-2.3c1.4,0,3.1,1.4,3.1,2.4c-0.2,1.4-1.5,2.5-3.1,2.5  C125.1,78.3,124.1,77.1,124.2,75.7z M129.1,122.5c1.4,0,2.6,1.2,2.6,2.6c0,1.2-1.4,2.6-2.6,2.6c-1.6,0-2.8-1.2-2.8-2.6  C126.1,123.7,127.5,122.5,129.1,122.5z M127.2,62.9c2.8,0.3,4.8,2.2,4.8,4.9c-0.3,3.1-2.4,4.9-5.7,5c-2.1,0-4.7-2.8-4.7-4.9  C121.6,65.1,124.2,62.7,127.2,62.9z M118.2,71c1.7,0.1,4.5,2.2,4.3,4.7c0.3,2.1-2.1,5-5,4.7c-2.1-0.2-4.3-2.3-4.2-4.9  C113.3,73.2,115.4,71,118.2,71z M117.3,90c0.9,0.9,0.7,2.3,0,3.1c-1,1.2-2.4,1.4-3.8,0.5c-1-0.5-1.4-1.9-0.9-3.1  c0.5-1.2,1.4-1.7,2.8-1.6c0.4,0.3,0.9,0.6,1.1-0.1c0.2,0,0.2,0,0.3,0C116.6,89.3,117,89.7,117.3,90z M117.1,88  c-0.1-0.2-0.3-0.2-0.3-0.2c-1-0.7-1.9-1.6-1.7-2.9c0.2-1,0.7-1.7,1.7-2.1c1-0.3,2.1-0.5,2.9,0.2c1.6,1.2,1.6,1.9,1,3.3  C120.2,87.7,118.6,88.2,117.1,88z M114.2,83c0,1.2-1.7,3.3-3.8,3.3c-1.8,0.1-4.2-2-3.9-3.9c0-1.9,1.6-3.5,3.5-3.6  C112.3,78.8,114,80.2,114.2,83z M106.7,87.1c2.1,0.3,2.9,1.2,3.1,3.3c0.2,1.4-1.6,2.9-3.1,2.9c-1.6,0-3.1-1.6-3.1-3.1  C103.8,88.7,105.2,87.3,106.7,87.1z M103.4,84.2c-1.4,0-2.4-1-2.4-2.3c0-1.2,1-2.4,2.3-2.4s2.4,1,2.4,2.4  C105.7,83.1,104.7,84.2,103.4,84.2z M112.3,71.5c0.1,3.8-2.8,6.9-6.1,6.8c-4.2,0-6.8-2.8-7.1-6.1c-0.3-4,3.3-7.1,6.4-7.1  C110,64.9,112.3,68.6,112.3,71.5z M100.2,63.5c0.7,0,1.7,0.9,1.7,1.4c-0.2,0.7-1.3,1.6-2.1,1.4c-0.7-0.2-1-0.5-1-1.4  S99.3,63.5,100.2,63.5z M93.8,63.5c2.1,0,4.3,1.9,4.3,5c0,2.1-2.3,4.7-4.9,4.5c-2.3-0.1-4.4-2-4.4-4.5  C88.8,65.6,91.1,63.5,93.8,63.5z M90.1,74.9c0.1,1.4-0.7,2.3-2.1,2.3c-1.2,0-1.9-0.9-2.1-2.3c0-1,1-2.1,1.9-2.1  C88.8,72.8,90.1,73.8,90.1,74.9z M86.9,71.8c-0.7,0-1.2-0.3-1-0.9c0-0.7,0.5-1,1.2-1c0.5,0,1,0.2,1,0.9C88,71.3,87.5,71.8,86.9,71.8  z M84.6,63c1.7,0,3.3,1.2,3.3,3.1c-0.1,1.9-1.5,3.5-3.2,3.5c-2.1,0-3.6-1.4-3.6-3.5C81.1,64.5,82.7,63,84.6,63z M82.5,70.4  c1.5,0,2.2,0.7,2.2,2.3c0,1.6-0.9,2.4-2.4,2.4c-1.2,0-2.1-1-2.1-2.4C80.2,71.5,81.2,70.4,82.5,70.4z M75.8,62.7  c2.1,0,4.3,1.9,4.3,3.8c0.2,2.7-1.7,4.6-4.1,4.6c-2.3,0-4.2-1.9-4.2-4.2C71.8,64.8,73.9,62.7,75.8,62.7z M59.4,98.9  c0.9,0,1.2,0.5,1.2,1.4c0,0.7-0.5,1.2-1.2,1.2c-0.7,0-1.2-0.3-1.2-1.2C58.2,99.6,58.5,98.9,59.4,98.9z M61.4,92  c1.6,0,3.1,1.2,3.3,2.6c0,1.3-1.5,2.7-3.1,2.7c-1.4,0-2.6-1-2.8-2.4C58.6,93.3,59.8,92,61.4,92z M60.8,105c0,1.2-1.6,2.9-2.6,2.9  c-1.9-0.2-3.5-1-3.3-2.9c-0.1-1.8,1-2.8,3.1-2.8C59.7,102.2,60.6,103.2,60.8,105z M57.6,158.6c0.2-0.2,0.3-0.2,0.5-0.3  c1.2-0.2,2.4,0,3.1,1.2c0.7,1.2,0.5,2.8-0.7,3.6c-1,0.9-2.8,0.5-3.5-0.5C55.9,161.3,56.1,160.3,57.6,158.6z M60.4,155.4  c0-1.6,1.4-2.9,2.9-2.9c1.4-0.2,2.8,1,2.8,2.4c0,1.4-1.2,2.9-2.4,2.9C61.8,157.8,60.4,156.8,60.4,155.4z M65.3,158.1  c1.7-0.2,3.1,1,3.1,2.8c0.2,1.5-1.1,2.7-2.6,2.9c-1.4,0.2-2.8-1-2.9-2.6C62.7,159.8,64.1,158.3,65.3,158.1z M65.8,151.5  c-1.6-0.9-2.8-2.1-2.9-4c0-1.4,0.7-2.4,1.9-3.3c0.5-0.3,1.2-0.5,1.7-1c0.3-0.1,0.7-0.1,1-0.1c0.7,0.3,1.6,0.5,2.3,0.9  c2.4,1.4,2.8,4.7,0.7,6.6C69.1,151.8,67.6,152.2,65.8,151.5z M71.5,161.7c1.4,0,2.6,1.4,2.6,2.9c0,1.1-1.4,2.3-2.6,2.3  c-1.2,0.2-2.6-1.4-2.6-2.9C68.9,163,70.5,161.7,71.5,161.7z M73.2,167.7c2.3-0.2,4.2,1.4,4.3,3.8c0.2,2-1.5,3.7-3.6,3.9  c-1.9,0.2-3.8-1.6-4-3.5C69.7,170,71.5,167.9,73.2,167.7z M74.8,160.4c0-0.9,1-1.9,1.9-1.9c1,0.2,1.9,1.3,1.7,2.3  c-0.2,1.4-0.7,1.9-1.7,1.9C75.5,162.5,74.6,161.7,74.8,160.4z M74.1,152.4c-0.9,0-1.4-0.7-1.4-1.6c0-1,0.9-1.7,1.9-1.7  c0.7-0.2,1.4,0.8,1.4,1.7C76,151.7,75.1,152.4,74.1,152.4z M74.6,144c-1.9,0-3.1-0.7-3.8-2.3c-0.7-1.4-0.2-2.6,0.5-3.8  c0.3-0.5,0.9-0.7,1.2-1c0.3-0.2,0.5-0.5-0.2-0.7c-0.5-0.2-1-0.3-1.6-0.7c-1-0.9-1.2-2.1-0.7-3.3s1.4-1.9,2.4-1.9  c1.6,0,2.6,0.9,2.9,2.1c0.3,1.2,0,2.4-1,3.3c-0.2,0.2-0.5,0.2-0.3,0.5c0.2,0.3,0.3,0.2,0.5,0.2c0.7,0.2,1.2,0.3,1.7,0.5  c2.8,1.2,2.4,5,0.2,6.4C76,143.7,75.3,144.2,74.6,144z M70.3,82.9c0-1.6,1.2-3.6,3.3-3.5c1.9,0.1,3.3,1.5,3.3,3.5  c0,1.9-1.2,3.1-3.3,3.3C71.9,86.2,70.3,84.8,70.3,82.9z M76.9,77.4c-1,0-2.1-1-2.1-2.3c0-1,1.2-2.3,2.3-2.3c1-0.1,2.2,1.1,2.2,2.2  C79.3,76.2,78.1,77.4,76.9,77.4z M68.9,64c1.2,0,2.4,1.2,2.3,2.4c-0.2,1.6-1.3,2.7-2.6,2.7c-1.6,0-2.4-0.7-2.3-2.3  C66.5,64.9,67.2,64,68.9,64z M64.7,74.3c0.2-2.6,1.6-4.7,4.5-4.5c2.4,0,4.3,1.9,4.2,4c-0.2,2.9-1.7,4.5-4.7,4.7  C66.8,78.7,64.5,76.4,64.7,74.3z M66.8,79.1c1.2,0,2.3,1.2,2.3,2.4c0,1.2-1.2,2.4-2.4,2.4s-2.3-1-2.3-2.4  C64.4,79.9,65.8,79.1,66.8,79.1z M60.7,79c-0.1-0.1-0.3-0.1-0.5-0.1c-0.7-0.7-1.2-1.4-0.9-2.6c0.3-1.4,1-2.1,2.3-2.1  c1.4,0,2.6,1.2,2.6,2.4C64.4,77.8,62.1,79.4,60.7,79z M59.9,65c2.1,0,4.2,2.1,4.2,4c-0.1,2-2.3,4.2-4.4,4c-2.4,0-3.8-1.9-4-4.2  C55.7,66.9,57.8,65,59.9,65z M54.4,80.6c1.2-0.6,2.5-0.3,3.7-0.1c0.5,0.2,0.9,0.4,1.5,0.3c0.1,0.7,1,1,1.3,1.5  c1.3,2,1.5,3.9,0.3,6.1c-1.2,2-3.1,2.7-5.2,2.7c-2.1-0.1-4.6-1.4-5-4.4S52,81.6,54.4,80.6z M53.2,92.3c2.6,0.2,4.5,1.7,4.5,4.7  c0,2.9-2.4,4.7-5.2,4.7c-2.2,0-4.2-2.5-4.2-4.7C48.1,94.4,50.6,92.1,53.2,92.3z M50.7,107.9c-1.7,0-2.8-1.2-2.8-2.9  c0-1.4,1.4-2.6,2.6-2.6c1.4,0,2.9,1.6,2.9,2.9C53.5,106.7,52.1,107.9,50.7,107.9z M55,180.9c-0.7,0-1.9-1.4-1.9-2.1  c-0.2-1.3,1.1-2.9,2.3-2.9c1.2,0,2.4,1.2,2.4,2.6C57.8,179.9,56.4,181.1,55,180.9z M62,187.9c-2.4,0-4.5-1.9-4.5-4.2  c0-2.9,1.9-4.7,4.9-4.7c2.1,0,4.2,2.3,4,4.5C66.3,186,64.4,188.1,62,187.9z M62.2,177.2c-3.1,0.2-5.2-1.7-6.2-4  c-1.6-3.6,0.7-8.3,4.9-8.7c0.9,0,1.9,0,2.8,0.2c0.5,0.1,1,0.1,1.6,0.3c0,0.5,0.5,0.5,0.9,0.9c2.1,1.9,2.8,4.5,1.7,7.1  C66.9,175.8,65.1,177.2,62.2,177.2z M66.5,178.3c0-1.7,1.2-3.1,2.9-3.1c1.6,0,2.8,1.4,2.8,3.1c0,1.4-1.4,2.8-2.6,2.8  C68,181,66.5,179.7,66.5,178.3z M71,188.8c-1.7,0-3.1-1.4-2.9-2.8c0-1.9,1.4-3.1,3.3-3.1c1.4,0,2.8,1.6,2.8,2.9  C73.9,187.5,72.5,188.9,71,188.8z M75.5,183.6c-1.6,0-2.6-1.4-2.8-2.6c-0.2-1.6,1.4-3.1,2.9-3.1c1.4,0,3.1,1.6,2.9,3.1  C78.4,182.7,77.6,183.6,75.5,183.6z M77.8,168c-1.4,0-2.3-1-2.3-2.3c0-1.1,0.9-2.1,1.9-1.9c1.6-0.2,2.3,1.2,2.3,2.1  C79.7,167.1,78.8,168,77.8,168z M79.7,150.9c-2.1,0.2-4-1.9-3.8-3.6c0.2-2.1,1.6-3.8,3.5-3.8c2.4,0.2,4,1.6,4,3.8  C83.3,149.4,81.7,150.9,79.7,150.9z M80.7,141.8c0-0.7,0.5-1.2,1.2-1.2c0.7,0,1.2,0.3,1.4,1.2c0.2,0.8-0.7,0.8-1.4,1  C81.4,142.6,80.7,142.5,80.7,141.8z M82.8,139.7c-2.8,0-4.9-1.9-4.9-4.9c0-2.3,2.3-4.7,4.5-4.7c2.6,0,4.9,2.1,5,4.7  C87.5,137.9,85,139.7,82.8,139.7z M85,129.3c-1.4,0-2.2-1.1-2.2-2.6c0-1.4,1.2-2.6,2.4-2.6s2.6,1.2,2.6,2.3  C87.8,128,86.6,129.3,85,129.3z M90.6,118.3c0,2.6-2.4,5-5.2,4.9c-2.3,0-4.7-2.4-4.7-4.5c0-3.1,2.3-5,5-5.2  C88.5,113.3,90.8,116.1,90.6,118.3z M91,109.1c-0.2,2.3-1.5,3.3-3.5,3.3c-2.3-0.2-3.5-1.6-3.5-3.5c0-2.1,1.7-3.5,4.2-3.3  C89.6,105.6,91.3,107.5,91,109.1z M89.8,79.8c0-2.6,2.3-4.9,4.7-4.9c3.5,0,5.2,2.6,5.2,4.9c0.1,2.6-2.4,5-5,5  C91.8,84.5,89.8,82.7,89.8,79.8z M94.2,123.4c-1.4,0-2.8-1.4-2.8-2.6c0-1.6,1.4-2.9,2.9-2.9c1.4,0,2.9,1.4,2.8,2.6  C97,122.1,96.5,123.2,94.2,123.4z M98.1,110.8c-1,0-1.9-0.9-1.9-1.7c0-0.9,0.9-1.9,1.9-1.9c1,0,1.7,0.9,1.7,1.9  S99.1,110.8,98.1,110.8z M101.5,106.5c-1,0-1.6-0.5-1.7-1.4c0-1,0.5-1.5,1.5-1.7c1,0,1.6,0.3,1.6,1.4  C102.9,105.9,102.4,106.5,101.5,106.5z M102.7,102.8c-2.8,0-4.7-2.4-4.5-5.2c0-2,2.1-3.7,4.7-3.7c2.4,0,4.3,1.9,4.3,4.2  C107.2,100.7,105.1,102.8,102.7,102.8z M111.1,93.7c1.4,0,2.6,1,2.6,2.4c0,1.2-1.4,2.4-2.6,2.3c-1,0-2.4-1.4-2.4-2.6  C108.8,94.7,110,93.7,111.1,93.7z M109.5,142.1c0-2.8,1.9-4.2,4-4.3c2.6,0,4.3,1.7,4.3,4.3c0,2.1-2.1,3.8-4.3,3.8  C111.4,145.9,109.5,144.2,109.5,142.1z M122.1,150.4c-0.2,1.4-1.7,3.5-4,3.3c-2,0-3.9-1.7-3.8-3.8c-0.2-2.3,2.1-4,4-4  C120,145.9,122.5,147.8,122.1,150.4z M123.9,129.9c-1.2,0-2.1-0.9-2.1-1.9s1-2.1,2.3-2.1c0.9,0,2.1,1.2,2.1,2.1  C126,129.1,124.9,130.1,123.9,129.9z M129.1,145.6c-2.3,0.3-4.5-1.7-4.5-3.6c-0.2-2.9,1.6-4.3,4.2-4.7c2.3-0.3,4.2,1.7,4.3,4.2  C133.1,143.8,131.9,145.4,129.1,145.6z M133.4,153.2c-0.3-1.4,1.2-2.4,2.8-2.4c1,0,2.3,1.4,2.3,2.6s-1.4,2.4-2.6,2.6  C134.6,155.8,133.4,154.6,133.4,153.2z M140.4,187.7c-2.6-0.2-4-1.5-4.2-4.1c0-2.3,2-4.1,4.2-4.1c2.3,0,4.3,2,4.2,4.1  C144.6,185.7,142.4,187.8,140.4,187.7z M143.4,153.1c-0.4,0-0.8,0.1-1.2,0.3c-0.9-0.5-1.5-0.8-2.2-1.1c0-0.3,0-0.4-0.1-0.5  c-1.6-1.7-0.9-4.5,1.3-5.5c0.9-0.5,2.9-0.5,3.9,0.5c1.3,1.2,1.7,3.2,0.9,4.5C145.3,152.3,144.6,153,143.4,153.1z M147,189.2  c-0.9,0.3-1.4-0.3-1.4-0.8c0-1,0.5-1.6,1.2-1.6c0.5,0,1.6,0.9,1.6,1.2C148.2,188.9,147.7,189.2,147,189.2z M151.5,187.2  c-3.1,0-4.5-1.7-4.9-4.5c-0.3-2.3,1.8-4.7,4.4-4.5c3.5,0,4.5,1.6,5,4.5C156.3,185,153.7,187.4,151.5,187.2z M161.5,187  c-2.4,0.2-4.2-1.9-4.2-3.8c0.2-2.1,2-3.6,4.2-3.8c2.1,0,4,1.7,3.8,3.8C165.3,185.6,163.6,187,161.5,187z M170.9,188.3  c-2.3,0.2-4.2-1.6-4.2-4c0-0.9,0.2-1.9,1.2-2.6c0.9-0.6,1.4-1.3,2.3-0.9c2.6-0.3,4,1.6,4.2,3.3C174.6,186,172.7,188.1,170.9,188.3z   M172.7,179.1c0-0.7,1-1.6,1.9-1.6c0.7,0,1.6,0.7,1.6,1.4c-0.1,1-0.8,1.9-1.8,1.9C173.5,180.8,172.7,180.1,172.7,179.1z M183.9,185  c-1.2,2.1-2.6,2.9-4.7,2.4c-0.3,0-0.5,0-0.9,0c-0.5-0.2-0.6-0.4-0.8-0.4c-0.3-0.9-1.2-1.2-1.6-2.1c-0.7-1.7-0.3-3.8,1.2-5  c1.9-1.6,4.3-1.4,5.9,0.2C184.2,181.1,184.7,183.6,183.9,185z M181.4,154.6c-2.2,0.5-4.4-1.6-4.6-4.4c-0.2-2.4,1.6-4.7,3.6-4.9  c2.6-0.2,5.2,1.9,5.2,4.3C185.6,152.5,184,154.1,181.4,154.6z M183.9,100c-1.4,0.2-2.6-1.2-2.6-2.6c0-1.6,1.2-2.8,2.8-2.8  c1.4,0,2.6,1.2,2.6,2.6C186.7,98.9,185.5,99.8,183.9,100z M187.4,147.8c-0.9,0-1.2-0.7-1.2-1.4s0.3-1.2,1-1.2s1.6,0.7,1.6,1.4  C188.9,147.3,188.3,147.8,187.4,147.8z M194.7,149c-3.6,0-6.4-3.1-6.2-6.6c-0.1-3.4,2.5-6.6,6.3-6.2c3.6-0.5,6.8,3.6,6.8,6.2  C201.6,146,198.5,149,194.7,149z M203.2,149.2c-1,0-2.1-0.9-2.1-1.9s1-2.1,2.1-1.9c1.2-0.2,2.1,0.9,2.1,1.9  C205.3,148.2,204.3,149.2,203.2,149.2z M204.2,142.4c-0.9,0-1.9-0.9-1.9-1.7c0-0.9,1-1.7,1.9-1.7c1,0,1.7,0.7,1.7,1.7  C205.9,141.6,205,142.4,204.2,142.4z" style="fill:none;stroke:red;stroke-width:0.0001px"/>
</svg>