<svg xmlns="http://www.w3.org/2000/svg" xmlns:xlink="http://www.w3.org/1999/xlink" version="1.1" id="Layer_1" x="0px" y="0px" xml:space="preserve" width="32in" height="18in"><g transform="translate(51.801015798442876 52.00101579844288) rotate(-45 125.4 125.2)"><path style="fill:none;stroke:red;stroke-width:0.0001px" d="M194.8,136.2c3.6-0.5,6.8,3.6,6.8,6.2c0,3.6-3.1,6.6-6.9,6.6c-3.6,0-6.4-3.1-6.2-6.6  C188.4,139,191,135.8,194.8,136.2z"/><path style="fill:none;stroke:red;stroke-width:0.0001px" d="M194.8,136.2c3.6-0.5,6.8,3.6,6.8,6.2c0,3.6-3.1,6.6-6.9,6.6c-3.6,0-6.4-3.1-6.2-6.6  C188.4,139,191,135.8,194.8,136.2z"/><path style="fill:none;stroke:red;stroke-width:0.0001px" d="M194.8,136.2c3.6-0.5,6.8,3.6,6.8,6.2c0,3.6-3.1,6.6-6.9,6.6c-3.6,0-6.4-3.1-6.2-6.6  C188.4,139,191,135.8,194.8,136.2z"/><path style="fill:none;stroke:red;stroke-width:0.0001px" d="M144.5,115.9c0.2,2.6-2.4,5.2-5,5.2c-2.9,0-5-2.1-5.2-4.5c-0.3-2.8,2.3-5.4,4.7-5.6  C142.1,110.9,144.5,112.9,144.5,115.9z"/><path style="fill:none;stroke:red;stroke-width:0.0001px" d="M144.5,115.9c0.2,2.6-2.4,5.2-5,5.2c-2.9,0-5-2.1-5.2-4.5c-0.3-2.8,2.3-5.4,4.7-5.6  C142.1,110.9,144.5,112.9,144.5,115.9z"/><path style="fill:none;stroke:red;stroke-width:0.0001px" d="M144.5,115.9c0.2,2.6-2.4,5.2-5,5.2c-2.9,0-5-2.1-5.2-4.5c-0.3-2.8,2.3-5.4,4.7-5.6  C142.1,110.9,144.5,112.9,144.5,115.9z"/><path style="fill:none;stroke:red;stroke-width:0.0001px" d="M132,67.8c-0.3,3.1-2.4,4.9-5.7,5c-2.1,0-4.7-2.8-4.7-4.9c0-2.8,2.6-5.2,5.6-5  C130,63.2,132,65.1,132,67.8z"/><path style="fill:none;stroke:red;stroke-width:0.0001px" d="M132,67.8c-0.3,3.1-2.4,4.9-5.7,5c-2.1,0-4.7-2.8-4.7-4.9c0-2.8,2.6-5.2,5.6-5  C130,63.2,132,65.1,132,67.8z"/><path style="fill:none;stroke:red;stroke-width:0.0001px" d="M132,67.8c-0.3,3.1-2.4,4.9-5.7,5c-2.1,0-4.7-2.8-4.7-4.9c0-2.8,2.6-5.2,5.6-5  C130,63.2,132,65.1,132,67.8z"/><path style="fill:none;stroke:red;stroke-width:0.0001px" d="M74.6,144c-1.9,0-3.1-0.7-3.8-2.3c-0.7-1.4-0.2-2.6,0.5-3.8c0.3-0.5,0.9-0.7,1.2-1  c0.3-0.2,0.5-0.5-0.2-0.7c-0.5-0.2-1-0.3-1.6-0.7c-1-0.9-1.2-2.1-0.7-3.3s1.4-1.9,2.4-1.9c1.6,0,2.6,0.9,2.9,2.1s0,2.4-1,3.3  c-0.2,0.2-0.5,0.2-0.3,0.5c0.2,0.3,0.3,0.2,0.5,0.2c0.7,0.2,1.2,0.3,1.7,0.5c2.8,1.2,2.4,5,0.2,6.4C76,143.7,75.3,144.2,74.6,144z"/><path style="fill:none;stroke:red;stroke-width:0.0001px" d="M74.6,144c-1.9,0-3.1-0.7-3.8-2.3c-0.7-1.4-0.2-2.6,0.5-3.8c0.3-0.5,0.9-0.7,1.2-1  c0.3-0.2,0.5-0.5-0.2-0.7c-0.5-0.2-1-0.3-1.6-0.7c-1-0.9-1.2-2.1-0.7-3.3s1.4-1.9,2.4-1.9c1.6,0,2.6,0.9,2.9,2.1s0,2.4-1,3.3  c-0.2,0.2-0.5,0.2-0.3,0.5c0.2,0.3,0.3,0.2,0.5,0.2c0.7,0.2,1.2,0.3,1.7,0.5c2.8,1.2,2.4,5,0.2,6.4C76,143.7,75.3,144.2,74.6,144z"/><path style="fill:none;stroke:red;stroke-width:0.0001px" d="M74.6,144c-1.9,0-3.1-0.7-3.8-2.3c-0.7-1.4-0.2-2.6,0.5-3.8c0.3-0.5,0.9-0.7,1.2-1  c0.3-0.2,0.5-0.5-0.2-0.7c-0.5-0.2-1-0.3-1.6-0.7c-1-0.9-1.2-2.1-0.7-3.3s1.4-1.9,2.4-1.9c1.6,0,2.6,0.9,2.9,2.1s0,2.4-1,3.3  c-0.2,0.2-0.5,0.2-0.3,0.5c0.2,0.3,0.3,0.2,0.5,0.2c0.7,0.2,1.2,0.3,1.7,0.5c2.8,1.2,2.4,5,0.2,6.4C76,143.7,75.3,144.2,74.6,144z"/><path style="fill:none;stroke:red;stroke-width:0.0001px" d="M157.9,142.3c0,2.8-2.3,5-5,5.2c-2.3,0.2-5-2.3-5-4.3c0-3.3,2.3-5.4,5.2-5.6  C155.5,137.6,158.1,140,157.9,142.3z"/><path style="fill:none;stroke:red;stroke-width:0.0001px" d="M157.9,142.3c0,2.8-2.3,5-5,5.2c-2.3,0.2-5-2.3-5-4.3c0-3.3,2.3-5.4,5.2-5.6  C155.5,137.6,158.1,140,157.9,142.3z"/><path style="fill:none;stroke:red;stroke-width:0.0001px" d="M157.9,142.3c0,2.8-2.3,5-5,5.2c-2.3,0.2-5-2.3-5-4.3c0-3.3,2.3-5.4,5.2-5.6  C155.5,137.6,158.1,140,157.9,142.3z"/><path style="fill:none;stroke:red;stroke-width:0.0001px" d="M94.7,84.8c-2.9-0.3-4.9-2.1-4.9-5c0-2.6,2.3-4.9,4.7-4.9c3.5,0,5.2,2.6,5.2,4.9  C99.8,82.4,97.3,84.8,94.7,84.8z"/><path style="fill:none;stroke:red;stroke-width:0.0001px" d="M94.7,84.8c-2.9-0.3-4.9-2.1-4.9-5c0-2.6,2.3-4.9,4.7-4.9c3.5,0,5.2,2.6,5.2,4.9  C99.8,82.4,97.3,84.8,94.7,84.8z"/><path style="fill:none;stroke:red;stroke-width:0.0001px" d="M94.7,84.8c-2.9-0.3-4.9-2.1-4.9-5c0-2.6,2.3-4.9,4.7-4.9c3.5,0,5.2,2.6,5.2,4.9  C99.8,82.4,97.3,84.8,94.7,84.8z"/><path style="fill:none;stroke:red;stroke-width:0.0001px" d="M140,152.3c0-0.3,0-0.4-0.1-0.5c-1.6-1.7-0.9-4.5,1.3-5.5c0.9-0.5,2.9-0.5,3.9,0.5  c1.3,1.2,1.7,3.2,0.9,4.5c-0.7,1-1.4,1.7-2.6,1.8c-0.4,0-0.8,0.1-1.2,0.3C141.3,152.9,140.7,152.6,140,152.3z"/><path style="fill:none;stroke:red;stroke-width:0.0001px" d="M140,152.3c0-0.3,0-0.4-0.1-0.5c-1.6-1.7-0.9-4.5,1.3-5.5c0.9-0.5,2.9-0.5,3.9,0.5  c1.3,1.2,1.7,3.2,0.9,4.5c-0.7,1-1.4,1.7-2.6,1.8c-0.4,0-0.8,0.1-1.2,0.3C141.3,152.9,140.7,152.6,140,152.3z"/><path style="fill:none;stroke:red;stroke-width:0.0001px" d="M140,152.3c0-0.3,0-0.4-0.1-0.5c-1.6-1.7-0.9-4.5,1.3-5.5c0.9-0.5,2.9-0.5,3.9,0.5  c1.3,1.2,1.7,3.2,0.9,4.5c-0.7,1-1.4,1.7-2.6,1.8c-0.4,0-0.8,0.1-1.2,0.3C141.3,152.9,140.7,152.6,140,152.3z"/><path style="fill:none;stroke:red;stroke-width:0.0001px" d="M90.6,118.3c0,2.6-2.4,5-5.2,4.9c-2.3,0-4.7-2.4-4.7-4.5c0-3.1,2.3-5,5-5.2  C88.5,113.3,90.8,116.1,90.6,118.3z"/><path style="fill:none;stroke:red;stroke-width:0.0001px" d="M90.6,118.3c0,2.6-2.4,5-5.2,4.9c-2.3,0-4.7-2.4-4.7-4.5c0-3.1,2.3-5,5-5.2  C88.5,113.3,90.8,116.1,90.6,118.3z"/><path style="fill:none;stroke:red;stroke-width:0.0001px" d="M90.6,118.3c0,2.6-2.4,5-5.2,4.9c-2.3,0-4.7-2.4-4.7-4.5c0-3.1,2.3-5,5-5.2  C88.5,113.3,90.8,116.1,90.6,118.3z"/><path style="fill:none;stroke:red;stroke-width:0.0001px" d="M48.3,97c-0.2-2.6,2.3-4.9,4.9-4.7c2.6,0.2,4.5,1.7,4.5,4.7c0,2.9-2.4,4.7-5.2,4.7  C50.3,101.7,48.3,99.2,48.3,97z"/><path style="fill:none;stroke:red;stroke-width:0.0001px" d="M48.3,97c-0.2-2.6,2.3-4.9,4.9-4.7c2.6,0.2,4.5,1.7,4.5,4.7c0,2.9-2.4,4.7-5.2,4.7  C50.3,101.7,48.3,99.2,48.3,97z"/><path style="fill:none;stroke:red;stroke-width:0.0001px" d="M48.3,97c-0.2-2.6,2.3-4.9,4.9-4.7c2.6,0.2,4.5,1.7,4.5,4.7c0,2.9-2.4,4.7-5.2,4.7  C50.3,101.7,48.3,99.2,48.3,97z"/><path style="fill:none;stroke:red;stroke-width:0.0001px" d="M151,178.2c3.5,0,4.5,1.6,5,4.5c0.3,2.3-2.3,4.7-4.5,4.5c-3.1,0-4.5-1.7-4.9-4.5  C146.3,180.4,148.4,178,151,178.2z"/><path style="fill:none;stroke:red;stroke-width:0.0001px" d="M151,178.2c3.5,0,4.5,1.6,5,4.5c0.3,2.3-2.3,4.7-4.5,4.5c-3.1,0-4.5-1.7-4.9-4.5  C146.3,180.4,148.4,178,151,178.2z"/><path style="fill:none;stroke:red;stroke-width:0.0001px" d="M151,178.2c3.5,0,4.5,1.6,5,4.5c0.3,2.3-2.3,4.7-4.5,4.5c-3.1,0-4.5-1.7-4.9-4.5  C146.3,180.4,148.4,178,151,178.2z"/><path style="fill:none;stroke:red;stroke-width:0.0001px" d="M88.8,68.5c0-2.9,2.3-5,5-5c2.1,0,4.3,1.9,4.3,5c0,2.1-2.3,4.7-4.9,4.5C90.9,72.9,88.8,71,88.8,68.5z  "/><path style="fill:none;stroke:red;stroke-width:0.0001px" d="M88.8,68.5c0-2.9,2.3-5,5-5c2.1,0,4.3,1.9,4.3,5c0,2.1-2.3,4.7-4.9,4.5C90.9,72.9,88.8,71,88.8,68.5z  "/><path style="fill:none;stroke:red;stroke-width:0.0001px" d="M88.8,68.5c0-2.9,2.3-5,5-5c2.1,0,4.3,1.9,4.3,5c0,2.1-2.3,4.7-4.9,4.5C90.9,72.9,88.8,71,88.8,68.5z  "/><path style="fill:none;stroke:red;stroke-width:0.0001px" d="M122.5,75.7c0.3,2.1-2.1,5-5,4.7c-2.1-0.2-4.3-2.3-4.2-4.9c0-2.3,2.1-4.5,4.9-4.5  C119.9,71.1,122.7,73.2,122.5,75.7z"/><path style="fill:none;stroke:red;stroke-width:0.0001px" d="M122.5,75.7c0.3,2.1-2.1,5-5,4.7c-2.1-0.2-4.3-2.3-4.2-4.9c0-2.3,2.1-4.5,4.9-4.5  C119.9,71.1,122.7,73.2,122.5,75.7z"/><path style="fill:none;stroke:red;stroke-width:0.0001px" d="M122.5,75.7c0.3,2.1-2.1,5-5,4.7c-2.1-0.2-4.3-2.3-4.2-4.9c0-2.3,2.1-4.5,4.9-4.5  C119.9,71.1,122.7,73.2,122.5,75.7z"/><path style="fill:none;stroke:red;stroke-width:0.0001px" d="M158.4,169.7c2.6,0,4.7,2.1,4.7,4.9c0,1.9-2.6,4.3-4.5,4.3c-3.3,0-4.9-1.9-4.9-4.9  C153.6,172.1,155.5,169.7,158.4,169.7z"/><path style="fill:none;stroke:red;stroke-width:0.0001px" d="M158.4,169.7c2.6,0,4.7,2.1,4.7,4.9c0,1.9-2.6,4.3-4.5,4.3c-3.3,0-4.9-1.9-4.9-4.9  C153.6,172.1,155.5,169.7,158.4,169.7z"/><path style="fill:none;stroke:red;stroke-width:0.0001px" d="M158.4,169.7c2.6,0,4.7,2.1,4.7,4.9c0,1.9-2.6,4.3-4.5,4.3c-3.3,0-4.9-1.9-4.9-4.9  C153.6,172.1,155.5,169.7,158.4,169.7z"/><path style="fill:none;stroke:red;stroke-width:0.0001px" d="M176.8,150.2c-0.2-2.4,1.6-4.7,3.6-4.9c2.6-0.2,5.2,1.9,5.2,4.3c0,2.9-1.6,4.5-4.2,5  C179.2,155.1,177,153,176.8,150.2z"/><path style="fill:none;stroke:red;stroke-width:0.0001px" d="M176.8,150.2c-0.2-2.4,1.6-4.7,3.6-4.9c2.6-0.2,5.2,1.9,5.2,4.3c0,2.9-1.6,4.5-4.2,5  C179.2,155.1,177,153,176.8,150.2z"/><path style="fill:none;stroke:red;stroke-width:0.0001px" d="M176.8,150.2c-0.2-2.4,1.6-4.7,3.6-4.9c2.6-0.2,5.2,1.9,5.2,4.3c0,2.9-1.6,4.5-4.2,5  C179.2,155.1,177,153,176.8,150.2z"/><path style="fill:none;stroke:red;stroke-width:0.0001px" d="M180.1,88.3c-0.2-2.6,2.3-4.7,4.3-4.7c2.6,0,4.7,2.1,4.9,4.7c0.2,2.4-2.6,4.7-4.5,4.7  C182.4,93,179.8,90.6,180.1,88.3z"/><path style="fill:none;stroke:red;stroke-width:0.0001px" d="M180.1,88.3c-0.2-2.6,2.3-4.7,4.3-4.7c2.6,0,4.7,2.1,4.9,4.7c0.2,2.4-2.6,4.7-4.5,4.7  C182.4,93,179.8,90.6,180.1,88.3z"/><path style="fill:none;stroke:red;stroke-width:0.0001px" d="M180.1,88.3c-0.2-2.6,2.3-4.7,4.3-4.7c2.6,0,4.7,2.1,4.9,4.7c0.2,2.4-2.6,4.7-4.5,4.7  C182.4,93,179.8,90.6,180.1,88.3z"/><path style="fill:none;stroke:red;stroke-width:0.0001px" d="M102.9,93.9c2.4,0,4.3,1.9,4.3,4.2c0,2.6-2.1,4.7-4.5,4.7c-2.8,0-4.7-2.4-4.5-5.2  C98.2,95.6,100.3,93.9,102.9,93.9z"/><path style="fill:none;stroke:red;stroke-width:0.0001px" d="M102.9,93.9c2.4,0,4.3,1.9,4.3,4.2c0,2.6-2.1,4.7-4.5,4.7c-2.8,0-4.7-2.4-4.5-5.2  C98.2,95.6,100.3,93.9,102.9,93.9z"/><path style="fill:none;stroke:red;stroke-width:0.0001px" d="M102.9,93.9c2.4,0,4.3,1.9,4.3,4.2c0,2.6-2.1,4.7-4.5,4.7c-2.8,0-4.7-2.4-4.5-5.2  C98.2,95.6,100.3,93.9,102.9,93.9z"/><path style="fill:none;stroke:red;stroke-width:0.0001px" d="M69.2,69.8c2.4,0,4.3,1.9,4.2,4c-0.2,2.9-1.7,4.5-4.7,4.7c-1.9,0.2-4.2-2.1-4-4.2  C64.9,71.7,66.3,69.6,69.2,69.8z"/><path style="fill:none;stroke:red;stroke-width:0.0001px" d="M69.2,69.8c2.4,0,4.3,1.9,4.2,4c-0.2,2.9-1.7,4.5-4.7,4.7c-1.9,0.2-4.2-2.1-4-4.2  C64.9,71.7,66.3,69.6,69.2,69.8z"/><path style="fill:none;stroke:red;stroke-width:0.0001px" d="M69.2,69.8c2.4,0,4.3,1.9,4.2,4c-0.2,2.9-1.7,4.5-4.7,4.7c-1.9,0.2-4.2-2.1-4-4.2  C64.9,71.7,66.3,69.6,69.2,69.8z"/><path style="fill:none;stroke:red;stroke-width:0.0001px" d="M129.1,145.6c-2.3,0.3-4.5-1.7-4.5-3.6c-0.2-2.9,1.6-4.3,4.2-4.7c2.3-0.3,4.2,1.7,4.3,4.2  C133.1,143.8,131.9,145.4,129.1,145.6z"/><path style="fill:none;stroke:red;stroke-width:0.0001px" d="M129.1,145.6c-2.3,0.3-4.5-1.7-4.5-3.6c-0.2-2.9,1.6-4.3,4.2-4.7c2.3-0.3,4.2,1.7,4.3,4.2  C133.1,143.8,131.9,145.4,129.1,145.6z"/><path style="fill:none;stroke:red;stroke-width:0.0001px" d="M129.1,145.6c-2.3,0.3-4.5-1.7-4.5-3.6c-0.2-2.9,1.6-4.3,4.2-4.7c2.3-0.3,4.2,1.7,4.3,4.2  C133.1,143.8,131.9,145.4,129.1,145.6z"/><path style="fill:none;stroke:red;stroke-width:0.0001px" d="M109.5,142.1c0-2.8,1.9-4.2,4-4.3c2.6,0,4.3,1.7,4.3,4.3c0,2.1-2.1,3.8-4.3,3.8  C111.4,145.9,109.5,144.2,109.5,142.1z"/><path style="fill:none;stroke:red;stroke-width:0.0001px" d="M109.5,142.1c0-2.8,1.9-4.2,4-4.3c2.6,0,4.3,1.7,4.3,4.3c0,2.1-2.1,3.8-4.3,3.8  C111.4,145.9,109.5,144.2,109.5,142.1z"/><path style="fill:none;stroke:red;stroke-width:0.0001px" d="M109.5,142.1c0-2.8,1.9-4.2,4-4.3c2.6,0,4.3,1.7,4.3,4.3c0,2.1-2.1,3.8-4.3,3.8  C111.4,145.9,109.5,144.2,109.5,142.1z"/><path style="fill:none;stroke:red;stroke-width:0.0001px" d="M171.4,158.7c-2.4,0-4-1.4-4.3-4.3c-0.2-1.7,2.3-3.8,4.3-3.8c2.1,0,3.8,1.7,4,3.6  C175.6,156.3,173.7,159.1,171.4,158.7z"/><path style="fill:none;stroke:red;stroke-width:0.0001px" d="M171.4,158.7c-2.4,0-4-1.4-4.3-4.3c-0.2-1.7,2.3-3.8,4.3-3.8c2.1,0,3.8,1.7,4,3.6  C175.6,156.3,173.7,159.1,171.4,158.7z"/><path style="fill:none;stroke:red;stroke-width:0.0001px" d="M171.4,158.7c-2.4,0-4-1.4-4.3-4.3c-0.2-1.7,2.3-3.8,4.3-3.8c2.1,0,3.8,1.7,4,3.6  C175.6,156.3,173.7,159.1,171.4,158.7z"/><path style="fill:none;stroke:red;stroke-width:0.0001px" d="M59.7,73c-2.4,0-3.8-1.9-4-4.2c0-1.9,2.1-3.8,4.2-3.8s4.2,2.1,4.2,4C64,71,61.8,73.2,59.7,73z"/><path style="fill:none;stroke:red;stroke-width:0.0001px" d="M59.7,73c-2.4,0-3.8-1.9-4-4.2c0-1.9,2.1-3.8,4.2-3.8s4.2,2.1,4.2,4C64,71,61.8,73.2,59.7,73z"/><path style="fill:none;stroke:red;stroke-width:0.0001px" d="M59.7,73c-2.4,0-3.8-1.9-4-4.2c0-1.9,2.1-3.8,4.2-3.8s4.2,2.1,4.2,4C64,71,61.8,73.2,59.7,73z"/><path style="fill:none;stroke:red;stroke-width:0.0001px" d="M114.3,149.9c-0.2-2.3,2.1-4,4-4c1.7,0,4.2,1.9,3.8,4.5c-0.2,1.4-1.7,3.5-4,3.3  C116.1,153.7,114.2,152,114.3,149.9z"/><path style="fill:none;stroke:red;stroke-width:0.0001px" d="M114.3,149.9c-0.2-2.3,2.1-4,4-4c1.7,0,4.2,1.9,3.8,4.5c-0.2,1.4-1.7,3.5-4,3.3  C116.1,153.7,114.2,152,114.3,149.9z"/><path style="fill:none;stroke:red;stroke-width:0.0001px" d="M114.3,149.9c-0.2-2.3,2.1-4,4-4c1.7,0,4.2,1.9,3.8,4.5c-0.2,1.4-1.7,3.5-4,3.3  C116.1,153.7,114.2,152,114.3,149.9z"/><path style="fill:none;stroke:red;stroke-width:0.0001px" d="M170.2,180.8c2.6-0.3,4,1.6,4.2,3.3c0.2,1.9-1.7,4-3.5,4.2c-2.3,0.2-4.2-1.6-4.2-4  c0-0.9,0.2-1.9,1.2-2.6C168.8,181.1,169.3,180.4,170.2,180.8z"/><path style="fill:none;stroke:red;stroke-width:0.0001px" d="M170.2,180.8c2.6-0.3,4,1.6,4.2,3.3c0.2,1.9-1.7,4-3.5,4.2c-2.3,0.2-4.2-1.6-4.2-4  c0-0.9,0.2-1.9,1.2-2.6C168.8,181.1,169.3,180.4,170.2,180.8z"/><path style="fill:none;stroke:red;stroke-width:0.0001px" d="M170.2,180.8c2.6-0.3,4,1.6,4.2,3.3c0.2,1.9-1.7,4-3.5,4.2c-2.3,0.2-4.2-1.6-4.2-4  c0-0.9,0.2-1.9,1.2-2.6C168.8,181.1,169.3,180.4,170.2,180.8z"/><path style="fill:none;stroke:red;stroke-width:0.0001px" d="M73.9,175.4c-1.9,0.2-3.8-1.6-4-3.5c-0.2-1.9,1.6-4,3.3-4.2c2.3-0.2,4.2,1.4,4.3,3.8  C77.7,173.5,76,175.2,73.9,175.4z"/><path style="fill:none;stroke:red;stroke-width:0.0001px" d="M73.9,175.4c-1.9,0.2-3.8-1.6-4-3.5c-0.2-1.9,1.6-4,3.3-4.2c2.3-0.2,4.2,1.4,4.3,3.8  C77.7,173.5,76,175.2,73.9,175.4z"/><path style="fill:none;stroke:red;stroke-width:0.0001px" d="M73.9,175.4c-1.9,0.2-3.8-1.6-4-3.5c-0.2-1.9,1.6-4,3.3-4.2c2.3-0.2,4.2,1.4,4.3,3.8  C77.7,173.5,76,175.2,73.9,175.4z"/><path style="fill:none;stroke:red;stroke-width:0.0001px" d="M65.8,163.8c-1.4,0.2-2.8-1-2.9-2.6c-0.2-1.4,1.2-2.9,2.4-3.1c1.7-0.2,3.1,1,3.1,2.8  C68.6,162.4,67.3,163.6,65.8,163.8z"/><path style="fill:none;stroke:red;stroke-width:0.0001px" d="M65.8,163.8c-1.4,0.2-2.8-1-2.9-2.6c-0.2-1.4,1.2-2.9,2.4-3.1c1.7-0.2,3.1,1,3.1,2.8  C68.6,162.4,67.3,163.6,65.8,163.8z"/><path style="fill:none;stroke:red;stroke-width:0.0001px" d="M65.8,163.8c-1.4,0.2-2.8-1-2.9-2.6c-0.2-1.4,1.2-2.9,2.4-3.1c1.7-0.2,3.1,1,3.1,2.8  C68.6,162.4,67.3,163.6,65.8,163.8z"/><path style="fill:none;stroke:red;stroke-width:0.0001px" d="M168.6,94.2c-1.9,0-4-2.1-3.8-4c0.2-1.9,2.3-3.8,4.2-3.8c1.9,0.2,3.8,2.3,3.6,4.3  C172.6,92.3,170.2,94.4,168.6,94.2z"/><path style="fill:none;stroke:red;stroke-width:0.0001px" d="M168.6,94.2c-1.9,0-4-2.1-3.8-4c0.2-1.9,2.3-3.8,4.2-3.8c1.9,0.2,3.8,2.3,3.6,4.3  C172.6,92.3,170.2,94.4,168.6,94.2z"/><path style="fill:none;stroke:red;stroke-width:0.0001px" d="M168.6,94.2c-1.9,0-4-2.1-3.8-4c0.2-1.9,2.3-3.8,4.2-3.8c1.9,0.2,3.8,2.3,3.6,4.3  C172.6,92.3,170.2,94.4,168.6,94.2z"/><path style="fill:none;stroke:red;stroke-width:0.0001px" d="M79.7,150.9c-2.1,0.2-4-1.9-3.8-3.6c0.2-2.1,1.6-3.8,3.5-3.8c2.4,0.2,4,1.6,4,3.8  C83.3,149.4,81.7,150.9,79.7,150.9z"/><path style="fill:none;stroke:red;stroke-width:0.0001px" d="M79.7,150.9c-2.1,0.2-4-1.9-3.8-3.6c0.2-2.1,1.6-3.8,3.5-3.8c2.4,0.2,4,1.6,4,3.8  C83.3,149.4,81.7,150.9,79.7,150.9z"/><path style="fill:none;stroke:red;stroke-width:0.0001px" d="M79.7,150.9c-2.1,0.2-4-1.9-3.8-3.6c0.2-2.1,1.6-3.8,3.5-3.8c2.4,0.2,4,1.6,4,3.8  C83.3,149.4,81.7,150.9,79.7,150.9z"/><path style="fill:none;stroke:red;stroke-width:0.0001px" d="M87.5,112.4c-2.3-0.2-3.5-1.6-3.5-3.5c0-2.1,1.7-3.5,4.2-3.3c1.4,0,3.1,1.9,2.8,3.5  C90.8,111.4,89.5,112.4,87.5,112.4z"/><path style="fill:none;stroke:red;stroke-width:0.0001px" d="M87.5,112.4c-2.3-0.2-3.5-1.6-3.5-3.5c0-2.1,1.7-3.5,4.2-3.3c1.4,0,3.1,1.9,2.8,3.5  C90.8,111.4,89.5,112.4,87.5,112.4z"/><path style="fill:none;stroke:red;stroke-width:0.0001px" d="M87.5,112.4c-2.3-0.2-3.5-1.6-3.5-3.5c0-2.1,1.7-3.5,4.2-3.3c1.4,0,3.1,1.9,2.8,3.5  C90.8,111.4,89.5,112.4,87.5,112.4z"/><path style="fill:none;stroke:red;stroke-width:0.0001px" d="M170.6,110.2c-1.9,0.2-3.5-1.9-3.5-3.3c0-1.7,1.7-3.5,3.5-3.3c1.9,0.2,3.3,1.2,3.3,3.6  C173.7,109,172.5,110.2,170.6,110.2z"/><path style="fill:none;stroke:red;stroke-width:0.0001px" d="M170.6,110.2c-1.9,0.2-3.5-1.9-3.5-3.3c0-1.7,1.7-3.5,3.5-3.3c1.9,0.2,3.3,1.2,3.3,3.6  C173.7,109,172.5,110.2,170.6,110.2z"/><path style="fill:none;stroke:red;stroke-width:0.0001px" d="M170.6,110.2c-1.9,0.2-3.5-1.9-3.5-3.3c0-1.7,1.7-3.5,3.5-3.3c1.9,0.2,3.3,1.2,3.3,3.6  C173.7,109,172.5,110.2,170.6,110.2z"/><path style="fill:none;stroke:red;stroke-width:0.0001px" d="M173,127.9c0-1.9,1.4-3.3,3.5-3.3c1.4,0,3.3,1.7,3.3,2.9c0,2.6-1.2,3.5-3.3,3.6  C174.5,131.5,173,130.3,173,127.9z"/><path style="fill:none;stroke:red;stroke-width:0.0001px" d="M173,127.9c0-1.9,1.4-3.3,3.5-3.3c1.4,0,3.3,1.7,3.3,2.9c0,2.6-1.2,3.5-3.3,3.6  C174.5,131.5,173,130.3,173,127.9z"/><path style="fill:none;stroke:red;stroke-width:0.0001px" d="M173,127.9c0-1.9,1.4-3.3,3.5-3.3c1.4,0,3.3,1.7,3.3,2.9c0,2.6-1.2,3.5-3.3,3.6  C174.5,131.5,173,130.3,173,127.9z"/><path style="fill:none;stroke:red;stroke-width:0.0001px" d="M174.7,80.3c1.6-0.2,3.6,1.4,3.8,2.9c0.2,1.6-1.7,3.6-3.5,3.6s-3.3-1.4-3.5-3.1  C171.4,81.9,172.6,80.5,174.7,80.3z"/><path style="fill:none;stroke:red;stroke-width:0.0001px" d="M174.7,80.3c1.6-0.2,3.6,1.4,3.8,2.9c0.2,1.6-1.7,3.6-3.5,3.6s-3.3-1.4-3.5-3.1  C171.4,81.9,172.6,80.5,174.7,80.3z"/><path style="fill:none;stroke:red;stroke-width:0.0001px" d="M174.7,80.3c1.6-0.2,3.6,1.4,3.8,2.9c0.2,1.6-1.7,3.6-3.5,3.6s-3.3-1.4-3.5-3.1  C171.4,81.9,172.6,80.5,174.7,80.3z"/><path style="fill:none;stroke:red;stroke-width:0.0001px" d="M76.9,82.9c0,1.9-1.2,3.1-3.3,3.3c-1.7,0-3.3-1.4-3.3-3.3c0-1.6,1.2-3.6,3.3-3.5  C75.5,79.5,76.9,80.9,76.9,82.9z"/><path style="fill:none;stroke:red;stroke-width:0.0001px" d="M76.9,82.9c0,1.9-1.2,3.1-3.3,3.3c-1.7,0-3.3-1.4-3.3-3.3c0-1.6,1.2-3.6,3.3-3.5  C75.5,79.5,76.9,80.9,76.9,82.9z"/><path style="fill:none;stroke:red;stroke-width:0.0001px" d="M76.9,82.9c0,1.9-1.2,3.1-3.3,3.3c-1.7,0-3.3-1.4-3.3-3.3c0-1.6,1.2-3.6,3.3-3.5  C75.5,79.5,76.9,80.9,76.9,82.9z"/><path style="fill:none;stroke:red;stroke-width:0.0001px" d="M165,116.6c2.1,0,3.5,1.4,3.5,3.5c0,1.7-1.6,3.1-3.5,2.9c-2.1-0.2-3.1-1.4-3.3-3.5  C161.5,118.2,163.3,116.6,165,116.6z"/><path style="fill:none;stroke:red;stroke-width:0.0001px" d="M165,116.6c2.1,0,3.5,1.4,3.5,3.5c0,1.7-1.6,3.1-3.5,2.9c-2.1-0.2-3.1-1.4-3.3-3.5  C161.5,118.2,163.3,116.6,165,116.6z"/><path style="fill:none;stroke:red;stroke-width:0.0001px" d="M165,116.6c2.1,0,3.5,1.4,3.5,3.5c0,1.7-1.6,3.1-3.5,2.9c-2.1-0.2-3.1-1.4-3.3-3.5  C161.5,118.2,163.3,116.6,165,116.6z"/><path style="fill:none;stroke:red;stroke-width:0.0001px" d="M129.6,135.5c-2.1,0-3.3-1.4-3.1-3.3c0-1.7,1.4-2.9,3.6-3.1c1.2,0,3.1,1.6,2.9,3.3  C132.9,134.6,131.9,135.7,129.6,135.5z"/><path style="fill:none;stroke:red;stroke-width:0.0001px" d="M129.6,135.5c-2.1,0-3.3-1.4-3.1-3.3c0-1.7,1.4-2.9,3.6-3.1c1.2,0,3.1,1.6,2.9,3.3  C132.9,134.6,131.9,135.7,129.6,135.5z"/><path style="fill:none;stroke:red;stroke-width:0.0001px" d="M129.6,135.5c-2.1,0-3.3-1.4-3.1-3.3c0-1.7,1.4-2.9,3.6-3.1c1.2,0,3.1,1.6,2.9,3.3  C132.9,134.6,131.9,135.7,129.6,135.5z"/><path style="fill:none;stroke:red;stroke-width:0.0001px" d="M106.7,87.1c2.1,0.3,2.9,1.2,3.1,3.3c0.2,1.4-1.6,2.9-3.1,2.9c-1.6,0-3.1-1.6-3.1-3.1  C103.8,88.7,105.2,87.3,106.7,87.1z"/><path style="fill:none;stroke:red;stroke-width:0.0001px" d="M106.7,87.1c2.1,0.3,2.9,1.2,3.1,3.3c0.2,1.4-1.6,2.9-3.1,2.9c-1.6,0-3.1-1.6-3.1-3.1  C103.8,88.7,105.2,87.3,106.7,87.1z"/><path style="fill:none;stroke:red;stroke-width:0.0001px" d="M106.7,87.1c2.1,0.3,2.9,1.2,3.1,3.3c0.2,1.4-1.6,2.9-3.1,2.9c-1.6,0-3.1-1.6-3.1-3.1  C103.8,88.7,105.2,87.3,106.7,87.1z"/><path style="fill:none;stroke:red;stroke-width:0.0001px" d="M175.4,139c-1.9,0-2.9-1.4-2.9-3.1c-0.2-1.4,1.6-3.1,2.8-3.1c2.1,0.2,3.3,1.4,3.3,3.1  C178.5,137.8,177.3,138.8,175.4,139z"/><path style="fill:none;stroke:red;stroke-width:0.0001px" d="M175.4,139c-1.9,0-2.9-1.4-2.9-3.1c-0.2-1.4,1.6-3.1,2.8-3.1c2.1,0.2,3.3,1.4,3.3,3.1  C178.5,137.8,177.3,138.8,175.4,139z"/><path style="fill:none;stroke:red;stroke-width:0.0001px" d="M175.4,139c-1.9,0-2.9-1.4-2.9-3.1c-0.2-1.4,1.6-3.1,2.8-3.1c2.1,0.2,3.3,1.4,3.3,3.1  C178.5,137.8,177.3,138.8,175.4,139z"/><path style="fill:none;stroke:red;stroke-width:0.0001px" d="M71,188.8c-1.7,0-3.1-1.4-2.9-2.8c0-1.9,1.4-3.1,3.3-3.1c1.4,0,2.8,1.6,2.8,2.9  C73.9,187.5,72.5,188.9,71,188.8z"/><path style="fill:none;stroke:red;stroke-width:0.0001px" d="M71,188.8c-1.7,0-3.1-1.4-2.9-2.8c0-1.9,1.4-3.1,3.3-3.1c1.4,0,2.8,1.6,2.8,2.9  C73.9,187.5,72.5,188.9,71,188.8z"/><path style="fill:none;stroke:red;stroke-width:0.0001px" d="M71,188.8c-1.7,0-3.1-1.4-2.9-2.8c0-1.9,1.4-3.1,3.3-3.1c1.4,0,2.8,1.6,2.8,2.9  C73.9,187.5,72.5,188.9,71,188.8z"/><path style="fill:none;stroke:red;stroke-width:0.0001px" d="M62,187.9c-2.4,0-4.5-1.9-4.5-4.2c0-2.9,1.9-4.7,4.9-4.7c2.1,0,4.2,2.3,4,4.5  C66.3,186,64.4,188.1,62,187.9z"/><path style="fill:none;stroke:red;stroke-width:0.0001px" d="M62,187.9c-2.4,0-4.5-1.9-4.5-4.2c0-2.9,1.9-4.7,4.9-4.7c2.1,0,4.2,2.3,4,4.5  C66.3,186,64.4,188.1,62,187.9z"/><path style="fill:none;stroke:red;stroke-width:0.0001px" d="M62,187.9c-2.4,0-4.5-1.9-4.5-4.2c0-2.9,1.9-4.7,4.9-4.7c2.1,0,4.2,2.3,4,4.5  C66.3,186,64.4,188.1,62,187.9z"/><path style="fill:none;stroke:red;stroke-width:0.0001px" d="M61.6,97.3c-1.4,0-2.6-1-2.8-2.4c-0.2-1.6,1-2.9,2.6-2.9s3.1,1.2,3.3,2.6  C64.7,95.9,63.2,97.3,61.6,97.3z"/><path style="fill:none;stroke:red;stroke-width:0.0001px" d="M61.6,97.3c-1.4,0-2.6-1-2.8-2.4c-0.2-1.6,1-2.9,2.6-2.9s3.1,1.2,3.3,2.6  C64.7,95.9,63.2,97.3,61.6,97.3z"/><path style="fill:none;stroke:red;stroke-width:0.0001px" d="M61.6,97.3c-1.4,0-2.6-1-2.8-2.4c-0.2-1.6,1-2.9,2.6-2.9s3.1,1.2,3.3,2.6  C64.7,95.9,63.2,97.3,61.6,97.3z"/><path style="fill:none;stroke:red;stroke-width:0.0001px" d="M141.1,107.9c0-1.9,1.2-2.8,2.8-2.8c1.6,0,2.8,1.4,2.8,2.9c0,1.2-1.6,2.6-2.8,2.6  C142.3,110.7,141.1,109.5,141.1,107.9z"/><path style="fill:none;stroke:red;stroke-width:0.0001px" d="M141.1,107.9c0-1.9,1.2-2.8,2.8-2.8c1.6,0,2.8,1.4,2.8,2.9c0,1.2-1.6,2.6-2.8,2.6  C142.3,110.7,141.1,109.5,141.1,107.9z"/><path style="fill:none;stroke:red;stroke-width:0.0001px" d="M141.1,107.9c0-1.9,1.2-2.8,2.8-2.8c1.6,0,2.8,1.4,2.8,2.9c0,1.2-1.6,2.6-2.8,2.6  C142.3,110.7,141.1,109.5,141.1,107.9z"/><path style="fill:none;stroke:red;stroke-width:0.0001px" d="M177.3,98.2c-1.2,0-2.6-1.6-2.6-2.8c0-1.4,1.6-2.8,2.8-2.8c1.4,0,2.8,1.4,2.8,2.8  C180.4,97.3,179.4,98.2,177.3,98.2z"/><path style="fill:none;stroke:red;stroke-width:0.0001px" d="M177.3,98.2c-1.2,0-2.6-1.6-2.6-2.8c0-1.4,1.6-2.8,2.8-2.8c1.4,0,2.8,1.4,2.8,2.8  C180.4,97.3,179.4,98.2,177.3,98.2z"/><path style="fill:none;stroke:red;stroke-width:0.0001px" d="M177.3,98.2c-1.2,0-2.6-1.6-2.6-2.8c0-1.4,1.6-2.8,2.8-2.8c1.4,0,2.8,1.4,2.8,2.8  C180.4,97.3,179.4,98.2,177.3,98.2z"/><path style="fill:none;stroke:red;stroke-width:0.0001px" d="M66.1,154.9c0,1.4-1.2,2.9-2.4,2.9c-1.9,0-3.3-1-3.3-2.4c0-1.6,1.4-2.9,2.9-2.9  C64.7,152.3,66.1,153.5,66.1,154.9z"/><path style="fill:none;stroke:red;stroke-width:0.0001px" d="M66.1,154.9c0,1.4-1.2,2.9-2.4,2.9c-1.9,0-3.3-1-3.3-2.4c0-1.6,1.4-2.9,2.9-2.9  C64.7,152.3,66.1,153.5,66.1,154.9z"/><path style="fill:none;stroke:red;stroke-width:0.0001px" d="M66.1,154.9c0,1.4-1.2,2.9-2.4,2.9c-1.9,0-3.3-1-3.3-2.4c0-1.6,1.4-2.9,2.9-2.9  C64.7,152.3,66.1,153.5,66.1,154.9z"/><path style="fill:none;stroke:red;stroke-width:0.0001px" d="M116.5,88.8c0.2,0,0.2,0,0.3,0c-0.2,0.5,0.2,0.9,0.5,1.2c0.9,0.9,0.7,2.3,0,3.1  c-1,1.2-2.4,1.4-3.8,0.5c-1-0.5-1.4-1.9-0.9-3.1c0.5-1.2,1.4-1.7,2.8-1.6C115.8,89.2,116.3,89.5,116.5,88.8z"/><path style="fill:none;stroke:red;stroke-width:0.0001px" d="M116.5,88.8c0.2,0,0.2,0,0.3,0c-0.2,0.5,0.2,0.9,0.5,1.2c0.9,0.9,0.7,2.3,0,3.1  c-1,1.2-2.4,1.4-3.8,0.5c-1-0.5-1.4-1.9-0.9-3.1c0.5-1.2,1.4-1.7,2.8-1.6C115.8,89.2,116.3,89.5,116.5,88.8z"/><path style="fill:none;stroke:red;stroke-width:0.0001px" d="M116.5,88.8c0.2,0,0.2,0,0.3,0c-0.2,0.5,0.2,0.9,0.5,1.2c0.9,0.9,0.7,2.3,0,3.1  c-1,1.2-2.4,1.4-3.8,0.5c-1-0.5-1.4-1.9-0.9-3.1c0.5-1.2,1.4-1.7,2.8-1.6C115.8,89.2,116.3,89.5,116.5,88.8z"/><path style="fill:none;stroke:red;stroke-width:0.0001px" d="M162.7,144.7c-1.6,0-2.8-1.2-2.8-2.6c0-1.4,1.4-2.6,2.8-2.6c1,0,2.6,1.2,2.6,2.1  C165.4,143.7,164.5,144.5,162.7,144.7z"/><path style="fill:none;stroke:red;stroke-width:0.0001px" d="M162.7,144.7c-1.6,0-2.8-1.2-2.8-2.6c0-1.4,1.4-2.6,2.8-2.6c1,0,2.6,1.2,2.6,2.1  C165.4,143.7,164.5,144.5,162.7,144.7z"/><path style="fill:none;stroke:red;stroke-width:0.0001px" d="M162.7,144.7c-1.6,0-2.8-1.2-2.8-2.6c0-1.4,1.4-2.6,2.8-2.6c1,0,2.6,1.2,2.6,2.1  C165.4,143.7,164.5,144.5,162.7,144.7z"/><path style="fill:none;stroke:red;stroke-width:0.0001px" d="M129.1,122.5c1.4,0,2.6,1.2,2.6,2.6c0,1.2-1.4,2.6-2.6,2.6c-1.6,0-2.8-1.2-2.8-2.6  C126.1,123.7,127.5,122.5,129.1,122.5z"/><path style="fill:none;stroke:red;stroke-width:0.0001px" d="M129.1,122.5c1.4,0,2.6,1.2,2.6,2.6c0,1.2-1.4,2.6-2.6,2.6c-1.6,0-2.8-1.2-2.8-2.6  C126.1,123.7,127.5,122.5,129.1,122.5z"/><path style="fill:none;stroke:red;stroke-width:0.0001px" d="M129.1,122.5c1.4,0,2.6,1.2,2.6,2.6c0,1.2-1.4,2.6-2.6,2.6c-1.6,0-2.8-1.2-2.8-2.6  C126.1,123.7,127.5,122.5,129.1,122.5z"/><path style="fill:none;stroke:red;stroke-width:0.0001px" d="M135.5,123.2c1.4,0,2.6,1.2,2.6,2.6c0,1.2-1.4,2.4-2.6,2.4c-1.2,0-2.6-1-2.6-2.6  C133.1,124.2,134.1,123.2,135.5,123.2z"/><path style="fill:none;stroke:red;stroke-width:0.0001px" d="M135.5,123.2c1.4,0,2.6,1.2,2.6,2.6c0,1.2-1.4,2.4-2.6,2.4c-1.2,0-2.6-1-2.6-2.6  C133.1,124.2,134.1,123.2,135.5,123.2z"/><path style="fill:none;stroke:red;stroke-width:0.0001px" d="M135.5,123.2c1.4,0,2.6,1.2,2.6,2.6c0,1.2-1.4,2.4-2.6,2.4c-1.2,0-2.6-1-2.6-2.6  C133.1,124.2,134.1,123.2,135.5,123.2z"/><path style="fill:none;stroke:red;stroke-width:0.0001px" d="M82.8,126.7c0-1.4,1.2-2.6,2.4-2.6c1.2,0,2.6,1.2,2.6,2.3c0,1.6-1.2,2.9-2.8,2.9  C83.6,129.3,82.8,128.2,82.8,126.7z"/><path style="fill:none;stroke:red;stroke-width:0.0001px" d="M82.8,126.7c0-1.4,1.2-2.6,2.4-2.6c1.2,0,2.6,1.2,2.6,2.3c0,1.6-1.2,2.9-2.8,2.9  C83.6,129.3,82.8,128.2,82.8,126.7z"/><path style="fill:none;stroke:red;stroke-width:0.0001px" d="M82.8,126.7c0-1.4,1.2-2.6,2.4-2.6c1.2,0,2.6,1.2,2.6,2.3c0,1.6-1.2,2.9-2.8,2.9  C83.6,129.3,82.8,128.2,82.8,126.7z"/><path style="fill:none;stroke:red;stroke-width:0.0001px" d="M71.5,166.9c-1.2,0.2-2.6-1.4-2.6-2.9c0-1,1.6-2.3,2.6-2.3c1.4,0,2.6,1.4,2.6,2.9  C74.1,165.7,72.7,166.9,71.5,166.9z"/><path style="fill:none;stroke:red;stroke-width:0.0001px" d="M71.5,166.9c-1.2,0.2-2.6-1.4-2.6-2.9c0-1,1.6-2.3,2.6-2.3c1.4,0,2.6,1.4,2.6,2.9  C74.1,165.7,72.7,166.9,71.5,166.9z"/><path style="fill:none;stroke:red;stroke-width:0.0001px" d="M71.5,166.9c-1.2,0.2-2.6-1.4-2.6-2.9c0-1,1.6-2.3,2.6-2.3c1.4,0,2.6,1.4,2.6,2.9  C74.1,165.7,72.7,166.9,71.5,166.9z"/><path style="fill:none;stroke:red;stroke-width:0.0001px" d="M126.5,78.3c-1.4,0-2.4-1.2-2.3-2.6c0-1.2,1-2.3,2.3-2.3c1.4,0,3.1,1.4,3.1,2.4  C129.4,77.2,128.1,78.3,126.5,78.3z"/><path style="fill:none;stroke:red;stroke-width:0.0001px" d="M126.5,78.3c-1.4,0-2.4-1.2-2.3-2.6c0-1.2,1-2.3,2.3-2.3c1.4,0,3.1,1.4,3.1,2.4  C129.4,77.2,128.1,78.3,126.5,78.3z"/><path style="fill:none;stroke:red;stroke-width:0.0001px" d="M126.5,78.3c-1.4,0-2.4-1.2-2.3-2.6c0-1.2,1-2.3,2.3-2.3c1.4,0,3.1,1.4,3.1,2.4  C129.4,77.2,128.1,78.3,126.5,78.3z"/><path style="fill:none;stroke:red;stroke-width:0.0001px" d="M68.6,69.1c-1.6,0-2.4-0.7-2.3-2.3c0.2-1.9,0.9-2.8,2.6-2.8c1.2,0,2.4,1.2,2.3,2.4  C71,68,69.9,69.1,68.6,69.1z"/><path style="fill:none;stroke:red;stroke-width:0.0001px" d="M68.6,69.1c-1.6,0-2.4-0.7-2.3-2.3c0.2-1.9,0.9-2.8,2.6-2.8c1.2,0,2.4,1.2,2.3,2.4  C71,68,69.9,69.1,68.6,69.1z"/><path style="fill:none;stroke:red;stroke-width:0.0001px" d="M68.6,69.1c-1.6,0-2.4-0.7-2.3-2.3c0.2-1.9,0.9-2.8,2.6-2.8c1.2,0,2.4,1.2,2.3,2.4  C71,68,69.9,69.1,68.6,69.1z"/><path style="fill:none;stroke:red;stroke-width:0.0001px" d="M133.4,153.2c-0.3-1.4,1.2-2.4,2.8-2.4c1,0,2.3,1.4,2.3,2.6s-1.4,2.4-2.6,2.6  C134.6,155.8,133.4,154.6,133.4,153.2z"/><path style="fill:none;stroke:red;stroke-width:0.0001px" d="M133.4,153.2c-0.3-1.4,1.2-2.4,2.8-2.4c1,0,2.3,1.4,2.3,2.6s-1.4,2.4-2.6,2.6  C134.6,155.8,133.4,154.6,133.4,153.2z"/><path style="fill:none;stroke:red;stroke-width:0.0001px" d="M133.4,153.2c-0.3-1.4,1.2-2.4,2.8-2.4c1,0,2.3,1.4,2.3,2.6s-1.4,2.4-2.6,2.6  C134.6,155.8,133.4,154.6,133.4,153.2z"/><path style="fill:none;stroke:red;stroke-width:0.0001px" d="M55.4,175.9c1.2,0,2.4,1.2,2.4,2.6c0,1.4-1.4,2.6-2.8,2.4c-0.7,0-1.9-1.4-1.9-2.1  C52.9,177.5,54.2,175.9,55.4,175.9z"/><path style="fill:none;stroke:red;stroke-width:0.0001px" d="M55.4,175.9c1.2,0,2.4,1.2,2.4,2.6c0,1.4-1.4,2.6-2.8,2.4c-0.7,0-1.9-1.4-1.9-2.1  C52.9,177.5,54.2,175.9,55.4,175.9z"/><path style="fill:none;stroke:red;stroke-width:0.0001px" d="M55.4,175.9c1.2,0,2.4,1.2,2.4,2.6c0,1.4-1.4,2.6-2.8,2.4c-0.7,0-1.9-1.4-1.9-2.1  C52.9,177.5,54.2,175.9,55.4,175.9z"/><path style="fill:none;stroke:red;stroke-width:0.0001px" d="M105.7,81.9c0,1.2-1,2.3-2.3,2.3c-1.4,0-2.4-1-2.4-2.3c0-1.2,1-2.4,2.3-2.4  C104.6,79.5,105.7,80.5,105.7,81.9z"/><path style="fill:none;stroke:red;stroke-width:0.0001px" d="M105.7,81.9c0,1.2-1,2.3-2.3,2.3c-1.4,0-2.4-1-2.4-2.3c0-1.2,1-2.4,2.3-2.4  C104.6,79.5,105.7,80.5,105.7,81.9z"/><path style="fill:none;stroke:red;stroke-width:0.0001px" d="M105.7,81.9c0,1.2-1,2.3-2.3,2.3c-1.4,0-2.4-1-2.4-2.3c0-1.2,1-2.4,2.3-2.4  C104.6,79.5,105.7,80.5,105.7,81.9z"/><path style="fill:none;stroke:red;stroke-width:0.0001px" d="M69.1,81.5c0,1.2-1.2,2.4-2.4,2.4c-1.2,0-2.3-1-2.3-2.4c0-1.6,1.4-2.4,2.4-2.4  C68,79.1,69.1,80.3,69.1,81.5z"/><path style="fill:none;stroke:red;stroke-width:0.0001px" d="M69.1,81.5c0,1.2-1.2,2.4-2.4,2.4c-1.2,0-2.3-1-2.3-2.4c0-1.6,1.4-2.4,2.4-2.4  C68,79.1,69.1,80.3,69.1,81.5z"/><path style="fill:none;stroke:red;stroke-width:0.0001px" d="M69.1,81.5c0,1.2-1.2,2.4-2.4,2.4c-1.2,0-2.3-1-2.3-2.4c0-1.6,1.4-2.4,2.4-2.4  C68,79.1,69.1,80.3,69.1,81.5z"/><path style="fill:none;stroke:red;stroke-width:0.0001px" d="M159.8,87.3c0-1.2,1-2.3,1.9-2.3c1.6,0,2.6,1,2.6,2.6c0,1.2-1,2.1-2.3,2.1  C160.8,89.5,159.8,88.5,159.8,87.3z"/><path style="fill:none;stroke:red;stroke-width:0.0001px" d="M159.8,87.3c0-1.2,1-2.3,1.9-2.3c1.6,0,2.6,1,2.6,2.6c0,1.2-1,2.1-2.3,2.1  C160.8,89.5,159.8,88.5,159.8,87.3z"/><path style="fill:none;stroke:red;stroke-width:0.0001px" d="M159.8,87.3c0-1.2,1-2.3,1.9-2.3c1.6,0,2.6,1,2.6,2.6c0,1.2-1,2.1-2.3,2.1  C160.8,89.5,159.8,88.5,159.8,87.3z"/><path style="fill:none;stroke:red;stroke-width:0.0001px" d="M171.9,75.5c1.2,0,2.4,1,2.4,2.1c0,1.2-1.4,2.4-2.6,2.4c-0.9,0-2.1-1.4-2.1-2.3  C169.7,76.3,170.7,75.5,171.9,75.5z"/><path style="fill:none;stroke:red;stroke-width:0.0001px" d="M171.9,75.5c1.2,0,2.4,1,2.4,2.1c0,1.2-1.4,2.4-2.6,2.4c-0.9,0-2.1-1.4-2.1-2.3  C169.7,76.3,170.7,75.5,171.9,75.5z"/><path style="fill:none;stroke:red;stroke-width:0.0001px" d="M171.9,75.5c1.2,0,2.4,1,2.4,2.1c0,1.2-1.4,2.4-2.6,2.4c-0.9,0-2.1-1.4-2.1-2.3  C169.7,76.3,170.7,75.5,171.9,75.5z"/><path style="fill:none;stroke:red;stroke-width:0.0001px" d="M166.6,170.2c0.3,0,0.5,0,0.5,0.3c-0.4,0.4,0.1,0.8,0.1,1.2c-0.1,1.5-1.6,1.9-2.7,1.2  c-0.7-0.4-1.1-1.1-0.8-1.7c0.4-0.9,1.1-1.3,2-1.1C166.1,170.2,166.3,170.2,166.6,170.2z"/><path style="fill:none;stroke:red;stroke-width:0.0001px" d="M166.6,170.2c0.3,0,0.5,0,0.5,0.3c-0.4,0.4,0.1,0.8,0.1,1.2c-0.1,1.5-1.6,1.9-2.7,1.2  c-0.7-0.4-1.1-1.1-0.8-1.7c0.4-0.9,1.1-1.3,2-1.1C166.1,170.2,166.3,170.2,166.6,170.2z"/><path style="fill:none;stroke:red;stroke-width:0.0001px" d="M166.6,170.2c0.3,0,0.5,0,0.5,0.3c-0.4,0.4,0.1,0.8,0.1,1.2c-0.1,1.5-1.6,1.9-2.7,1.2  c-0.7-0.4-1.1-1.1-0.8-1.7c0.4-0.9,1.1-1.3,2-1.1C166.1,170.2,166.3,170.2,166.6,170.2z"/><path style="fill:none;stroke:red;stroke-width:0.0001px" d="M88,77.2c-1.2,0-1.9-0.9-2.1-2.3c0-1,1-2.1,1.9-2.1c1,0,2.3,1,2.3,2.1C90.2,76.3,89.4,77.2,88,77.2z"/><path style="fill:none;stroke:red;stroke-width:0.0001px" d="M88,77.2c-1.2,0-1.9-0.9-2.1-2.3c0-1,1-2.1,1.9-2.1c1,0,2.3,1,2.3,2.1C90.2,76.3,89.4,77.2,88,77.2z"/><path style="fill:none;stroke:red;stroke-width:0.0001px" d="M88,77.2c-1.2,0-1.9-0.9-2.1-2.3c0-1,1-2.1,1.9-2.1c1,0,2.3,1,2.3,2.1C90.2,76.3,89.4,77.2,88,77.2z"/><path style="fill:none;stroke:red;stroke-width:0.0001px" d="M123.9,129.9c-1.2,0-2.1-0.9-2.1-1.9s1-2.1,2.3-2.1c0.9,0,2.1,1.2,2.1,2.1  C126,129.1,124.9,130.1,123.9,129.9z"/><path style="fill:none;stroke:red;stroke-width:0.0001px" d="M123.9,129.9c-1.2,0-2.1-0.9-2.1-1.9s1-2.1,2.3-2.1c0.9,0,2.1,1.2,2.1,2.1  C126,129.1,124.9,130.1,123.9,129.9z"/><path style="fill:none;stroke:red;stroke-width:0.0001px" d="M123.9,129.9c-1.2,0-2.1-0.9-2.1-1.9s1-2.1,2.3-2.1c0.9,0,2.1,1.2,2.1,2.1  C126,129.1,124.9,130.1,123.9,129.9z"/><path style="fill:none;stroke:red;stroke-width:0.0001px" d="M205.3,147.3c0,0.9-1,1.9-2.1,1.9c-1,0-2.1-0.9-2.1-1.9c0-1,1-2.1,2.1-1.9  C204.4,145.2,205.3,146.3,205.3,147.3z"/><path style="fill:none;stroke:red;stroke-width:0.0001px" d="M205.3,147.3c0,0.9-1,1.9-2.1,1.9c-1,0-2.1-0.9-2.1-1.9c0-1,1-2.1,2.1-1.9  C204.4,145.2,205.3,146.3,205.3,147.3z"/><path style="fill:none;stroke:red;stroke-width:0.0001px" d="M205.3,147.3c0,0.9-1,1.9-2.1,1.9c-1,0-2.1-0.9-2.1-1.9c0-1,1-2.1,2.1-1.9  C204.4,145.2,205.3,146.3,205.3,147.3z"/><path style="fill:none;stroke:red;stroke-width:0.0001px" d="M78.4,160.8c-0.2,1.4-0.7,1.9-1.7,1.9c-1.2-0.2-2.1-1-1.9-2.3c0-0.9,1-1.9,1.9-1.9  C77.7,158.7,78.6,159.8,78.4,160.8z"/><path style="fill:none;stroke:red;stroke-width:0.0001px" d="M78.4,160.8c-0.2,1.4-0.7,1.9-1.7,1.9c-1.2-0.2-2.1-1-1.9-2.3c0-0.9,1-1.9,1.9-1.9  C77.7,158.7,78.6,159.8,78.4,160.8z"/><path style="fill:none;stroke:red;stroke-width:0.0001px" d="M78.4,160.8c-0.2,1.4-0.7,1.9-1.7,1.9c-1.2-0.2-2.1-1-1.9-2.3c0-0.9,1-1.9,1.9-1.9  C77.7,158.7,78.6,159.8,78.4,160.8z"/><path style="fill:none;stroke:red;stroke-width:0.0001px" d="M191.2,69.2c1,0,1.9,0.9,1.9,1.7c0,1-1,2.3-1.9,2.3c-1,0-2.1-1-2.1-2.3  C189.3,69.8,190,69.2,191.2,69.2z"/><path style="fill:none;stroke:red;stroke-width:0.0001px" d="M191.2,69.2c1,0,1.9,0.9,1.9,1.7c0,1-1,2.3-1.9,2.3c-1,0-2.1-1-2.1-2.3  C189.3,69.8,190,69.2,191.2,69.2z"/><path style="fill:none;stroke:red;stroke-width:0.0001px" d="M191.2,69.2c1,0,1.9,0.9,1.9,1.7c0,1-1,2.3-1.9,2.3c-1,0-2.1-1-2.1-2.3  C189.3,69.8,190,69.2,191.2,69.2z"/><path style="fill:none;stroke:red;stroke-width:0.0001px" d="M170,161.7c0-0.9,0.9-2.1,1.7-2.1c0.9,0,2.1,1.4,2.1,2.3c0,0.7-0.9,1.6-1.6,1.6  C170.9,163.4,170,162.9,170,161.7z"/><path style="fill:none;stroke:red;stroke-width:0.0001px" d="M170,161.7c0-0.9,0.9-2.1,1.7-2.1c0.9,0,2.1,1.4,2.1,2.3c0,0.7-0.9,1.6-1.6,1.6  C170.9,163.4,170,162.9,170,161.7z"/><path style="fill:none;stroke:red;stroke-width:0.0001px" d="M170,161.7c0-0.9,0.9-2.1,1.7-2.1c0.9,0,2.1,1.4,2.1,2.3c0,0.7-0.9,1.6-1.6,1.6  C170.9,163.4,170,162.9,170,161.7z"/><path style="fill:none;stroke:red;stroke-width:0.0001px" d="M151.1,100.1c0-1.2,0.9-2.1,2.1-2.1c0.5,0,1.7,1.2,1.7,1.7c0,0.7-1.4,2.1-2.1,2.1  C151.8,101.8,151.1,101.2,151.1,100.1z"/><path style="fill:none;stroke:red;stroke-width:0.0001px" d="M151.1,100.1c0-1.2,0.9-2.1,2.1-2.1c0.5,0,1.7,1.2,1.7,1.7c0,0.7-1.4,2.1-2.1,2.1  C151.8,101.8,151.1,101.2,151.1,100.1z"/><path style="fill:none;stroke:red;stroke-width:0.0001px" d="M151.1,100.1c0-1.2,0.9-2.1,2.1-2.1c0.5,0,1.7,1.2,1.7,1.7c0,0.7-1.4,2.1-2.1,2.1  C151.8,101.8,151.1,101.2,151.1,100.1z"/><path style="fill:none;stroke:red;stroke-width:0.0001px" d="M99.8,109.1c0,1-0.7,1.7-1.7,1.7c-1,0-1.9-0.9-1.9-1.7c0-0.9,0.9-1.9,1.9-1.9  C99.1,107.2,99.8,108.1,99.8,109.1z"/><path style="fill:none;stroke:red;stroke-width:0.0001px" d="M99.8,109.1c0,1-0.7,1.7-1.7,1.7c-1,0-1.9-0.9-1.9-1.7c0-0.9,0.9-1.9,1.9-1.9  C99.1,107.2,99.8,108.1,99.8,109.1z"/><path style="fill:none;stroke:red;stroke-width:0.0001px" d="M99.8,109.1c0,1-0.7,1.7-1.7,1.7c-1,0-1.9-0.9-1.9-1.7c0-0.9,0.9-1.9,1.9-1.9  C99.1,107.2,99.8,108.1,99.8,109.1z"/><path style="fill:none;stroke:red;stroke-width:0.0001px" d="M204.2,139c1,0,1.7,0.7,1.7,1.7c0,0.9-0.9,1.7-1.7,1.7c-0.9,0-1.9-0.9-1.9-1.7  C202.3,139.8,203.3,139,204.2,139z"/><path style="fill:none;stroke:red;stroke-width:0.0001px" d="M204.2,139c1,0,1.7,0.7,1.7,1.7c0,0.9-0.9,1.7-1.7,1.7c-0.9,0-1.9-0.9-1.9-1.7  C202.3,139.8,203.3,139,204.2,139z"/><path style="fill:none;stroke:red;stroke-width:0.0001px" d="M204.2,139c1,0,1.7,0.7,1.7,1.7c0,0.9-0.9,1.7-1.7,1.7c-0.9,0-1.9-0.9-1.9-1.7  C202.3,139.8,203.3,139,204.2,139z"/><path style="fill:none;stroke:red;stroke-width:0.0001px" d="M143.8,143c0-1,0.9-1.7,2.1-1.7c0.7,0,1.6,1,1.6,2.1c0,0.5-1.4,1.4-1.9,1.4  C144.7,144.7,143.8,143.8,143.8,143z"/><path style="fill:none;stroke:red;stroke-width:0.0001px" d="M143.8,143c0-1,0.9-1.7,2.1-1.7c0.7,0,1.6,1,1.6,2.1c0,0.5-1.4,1.4-1.9,1.4  C144.7,144.7,143.8,143.8,143.8,143z"/><path style="fill:none;stroke:red;stroke-width:0.0001px" d="M143.8,143c0-1,0.9-1.7,2.1-1.7c0.7,0,1.6,1,1.6,2.1c0,0.5-1.4,1.4-1.9,1.4  C144.7,144.7,143.8,143.8,143.8,143z"/><path style="fill:none;stroke:red;stroke-width:0.0001px" d="M76,150.8c0,0.9-0.9,1.6-1.9,1.6c-0.9,0-1.4-0.7-1.4-1.6c0-1,0.9-1.7,1.9-1.7  C75.3,148.9,76,149.9,76,150.8z"/><path style="fill:none;stroke:red;stroke-width:0.0001px" d="M76,150.8c0,0.9-0.9,1.6-1.9,1.6c-0.9,0-1.4-0.7-1.4-1.6c0-1,0.9-1.7,1.9-1.7  C75.3,148.9,76,149.9,76,150.8z"/><path style="fill:none;stroke:red;stroke-width:0.0001px" d="M76,150.8c0,0.9-0.9,1.6-1.9,1.6c-0.9,0-1.4-0.7-1.4-1.6c0-1,0.9-1.7,1.9-1.7  C75.3,148.9,76,149.9,76,150.8z"/><path style="fill:none;stroke:red;stroke-width:0.0001px" d="M174.4,180.8c-0.9,0-1.7-0.7-1.7-1.7c0-0.7,1-1.6,1.9-1.6c0.7,0,1.6,0.7,1.6,1.4  C176.1,179.9,175.4,180.8,174.4,180.8z"/><path style="fill:none;stroke:red;stroke-width:0.0001px" d="M174.4,180.8c-0.9,0-1.7-0.7-1.7-1.7c0-0.7,1-1.6,1.9-1.6c0.7,0,1.6,0.7,1.6,1.4  C176.1,179.9,175.4,180.8,174.4,180.8z"/><path style="fill:none;stroke:red;stroke-width:0.0001px" d="M174.4,180.8c-0.9,0-1.7-0.7-1.7-1.7c0-0.7,1-1.6,1.9-1.6c0.7,0,1.6,0.7,1.6,1.4  C176.1,179.9,175.4,180.8,174.4,180.8z"/><path style="fill:none;stroke:red;stroke-width:0.0001px" d="M101.3,103.4c1,0,1.6,0.3,1.6,1.4s-0.5,1.7-1.4,1.7c-1,0-1.6-0.5-1.7-1.4  C99.8,104.1,100.3,103.6,101.3,103.4z"/><path style="fill:none;stroke:red;stroke-width:0.0001px" d="M101.3,103.4c1,0,1.6,0.3,1.6,1.4s-0.5,1.7-1.4,1.7c-1,0-1.6-0.5-1.7-1.4  C99.8,104.1,100.3,103.6,101.3,103.4z"/><path style="fill:none;stroke:red;stroke-width:0.0001px" d="M101.3,103.4c1,0,1.6,0.3,1.6,1.4s-0.5,1.7-1.4,1.7c-1,0-1.6-0.5-1.7-1.4  C99.8,104.1,100.3,103.6,101.3,103.4z"/><path style="fill:none;stroke:red;stroke-width:0.0001px" d="M99.8,66.3c-0.7-0.2-1-0.5-1-1.4c0-0.9,0.5-1.4,1.4-1.4c0.7,0,1.7,0.9,1.7,1.4  C101.7,65.6,100.6,66.5,99.8,66.3z"/><path style="fill:none;stroke:red;stroke-width:0.0001px" d="M99.8,66.3c-0.7-0.2-1-0.5-1-1.4c0-0.9,0.5-1.4,1.4-1.4c0.7,0,1.7,0.9,1.7,1.4  C101.7,65.6,100.6,66.5,99.8,66.3z"/><path style="fill:none;stroke:red;stroke-width:0.0001px" d="M99.8,66.3c-0.7-0.2-1-0.5-1-1.4c0-0.9,0.5-1.4,1.4-1.4c0.7,0,1.7,0.9,1.7,1.4  C101.7,65.6,100.6,66.5,99.8,66.3z"/><path style="fill:none;stroke:red;stroke-width:0.0001px" d="M187.4,147.8c-0.9,0-1.2-0.7-1.2-1.4c0-0.7,0.3-1.2,1-1.2s1.6,0.7,1.6,1.4  C188.9,147.3,188.3,147.8,187.4,147.8z"/><path style="fill:none;stroke:red;stroke-width:0.0001px" d="M187.4,147.8c-0.9,0-1.2-0.7-1.2-1.4c0-0.7,0.3-1.2,1-1.2s1.6,0.7,1.6,1.4  C188.9,147.3,188.3,147.8,187.4,147.8z"/><path style="fill:none;stroke:red;stroke-width:0.0001px" d="M187.4,147.8c-0.9,0-1.2-0.7-1.2-1.4c0-0.7,0.3-1.2,1-1.2s1.6,0.7,1.6,1.4  C188.9,147.3,188.3,147.8,187.4,147.8z"/><path style="fill:none;stroke:red;stroke-width:0.0001px" d="M145.6,188.4c0-1,0.5-1.6,1.2-1.6c0.5,0,1.6,0.9,1.6,1.2c-0.2,0.9-0.7,1.2-1.4,1.2  C146.1,189.5,145.6,188.9,145.6,188.4z"/><path style="fill:none;stroke:red;stroke-width:0.0001px" d="M145.6,188.4c0-1,0.5-1.6,1.2-1.6c0.5,0,1.6,0.9,1.6,1.2c-0.2,0.9-0.7,1.2-1.4,1.2  C146.1,189.5,145.6,188.9,145.6,188.4z"/><path style="fill:none;stroke:red;stroke-width:0.0001px" d="M145.6,188.4c0-1,0.5-1.6,1.2-1.6c0.5,0,1.6,0.9,1.6,1.2c-0.2,0.9-0.7,1.2-1.4,1.2  C146.1,189.5,145.6,188.9,145.6,188.4z"/><path style="fill:none;stroke:red;stroke-width:0.0001px" d="M81.9,142.8c-0.5-0.2-1.2-0.3-1.2-1c0-0.7,0.5-1.2,1.2-1.2s1.2,0.3,1.4,1.2  C83.5,142.6,82.6,142.6,81.9,142.8z"/><path style="fill:none;stroke:red;stroke-width:0.0001px" d="M81.9,142.8c-0.5-0.2-1.2-0.3-1.2-1c0-0.7,0.5-1.2,1.2-1.2s1.2,0.3,1.4,1.2  C83.5,142.6,82.6,142.6,81.9,142.8z"/><path style="fill:none;stroke:red;stroke-width:0.0001px" d="M81.9,142.8c-0.5-0.2-1.2-0.3-1.2-1c0-0.7,0.5-1.2,1.2-1.2s1.2,0.3,1.4,1.2  C83.5,142.6,82.6,142.6,81.9,142.8z"/><path style="fill:none;stroke:red;stroke-width:0.0001px" d="M179.6,143.8c0,0.9-0.3,1.4-1.2,1.4c-0.7,0-1.2-0.5-1-1.4c0-0.9,0.7-0.9,1.4-1  C179.2,143,179.6,143.3,179.6,143.8z"/><path style="fill:none;stroke:red;stroke-width:0.0001px" d="M179.6,143.8c0,0.9-0.3,1.4-1.2,1.4c-0.7,0-1.2-0.5-1-1.4c0-0.9,0.7-0.9,1.4-1  C179.2,143,179.6,143.3,179.6,143.8z"/><path style="fill:none;stroke:red;stroke-width:0.0001px" d="M179.6,143.8c0,0.9-0.3,1.4-1.2,1.4c-0.7,0-1.2-0.5-1-1.4c0-0.9,0.7-0.9,1.4-1  C179.2,143,179.6,143.3,179.6,143.8z"/><path style="fill:none;stroke:red;stroke-width:0.0001px" d="M86.9,71.8c-0.7,0-1.2-0.3-1-0.9c0-0.7,0.5-1,1.2-1c0.5,0,1,0.2,1,0.9C88,71.3,87.5,71.8,86.9,71.8z"/><path style="fill:none;stroke:red;stroke-width:0.0001px" d="M86.9,71.8c-0.7,0-1.2-0.3-1-0.9c0-0.7,0.5-1,1.2-1c0.5,0,1,0.2,1,0.9C88,71.3,87.5,71.8,86.9,71.8z"/><path style="fill:none;stroke:red;stroke-width:0.0001px" d="M86.9,71.8c-0.7,0-1.2-0.3-1-0.9c0-0.7,0.5-1,1.2-1c0.5,0,1,0.2,1,0.9C88,71.3,87.5,71.8,86.9,71.8z"/><path style="fill:none;stroke:red;stroke-width:0.0001px" d="M106.2,78.3c-4.2,0-6.8-2.8-7.1-6.1c-0.3-4,3.3-7.1,6.4-7.1c4.5-0.2,6.8,3.5,6.8,6.4  C112.4,75.3,109.5,78.4,106.2,78.3z"/><path style="fill:none;stroke:red;stroke-width:0.0001px" d="M106.2,78.3c-4.2,0-6.8-2.8-7.1-6.1c-0.3-4,3.3-7.1,6.4-7.1c4.5-0.2,6.8,3.5,6.8,6.4  C112.4,75.3,109.5,78.4,106.2,78.3z"/><path style="fill:none;stroke:red;stroke-width:0.0001px" d="M106.2,78.3c-4.2,0-6.8-2.8-7.1-6.1c-0.3-4,3.3-7.1,6.4-7.1c4.5-0.2,6.8,3.5,6.8,6.4  C112.4,75.3,109.5,78.4,106.2,78.3z"/><path style="fill:none;stroke:red;stroke-width:0.0001px" d="M181.5,82.1c-3.8,0-6.8-3.1-6.6-6.9c0.3-4.2,3.5-6.2,6.4-6.2c4.9-0.2,6.9,3.8,6.8,6.9  C188.1,80,185,82.2,181.5,82.1z"/><path style="fill:none;stroke:red;stroke-width:0.0001px" d="M181.5,82.1c-3.8,0-6.8-3.1-6.6-6.9c0.3-4.2,3.5-6.2,6.4-6.2c4.9-0.2,6.9,3.8,6.8,6.9  C188.1,80,185,82.2,181.5,82.1z"/><path style="fill:none;stroke:red;stroke-width:0.0001px" d="M181.5,82.1c-3.8,0-6.8-3.1-6.6-6.9c0.3-4.2,3.5-6.2,6.4-6.2c4.9-0.2,6.9,3.8,6.8,6.9  C188.1,80,185,82.2,181.5,82.1z"/><path style="fill:none;stroke:red;stroke-width:0.0001px" d="M154.2,161.5c-0.2-3.1,3.1-6.6,6.2-6.6c4.5,0.2,7.3,3.3,6.9,7.3c-0.2,3.3-2.8,6.1-6.9,6.1  C157,168.5,154.1,165,154.2,161.5z"/><path style="fill:none;stroke:red;stroke-width:0.0001px" d="M154.2,161.5c-0.2-3.1,3.1-6.6,6.2-6.6c4.5,0.2,7.3,3.3,6.9,7.3c-0.2,3.3-2.8,6.1-6.9,6.1  C157,168.5,154.1,165,154.2,161.5z"/><path style="fill:none;stroke:red;stroke-width:0.0001px" d="M154.2,161.5c-0.2-3.1,3.1-6.6,6.2-6.6c4.5,0.2,7.3,3.3,6.9,7.3c-0.2,3.3-2.8,6.1-6.9,6.1  C157,168.5,154.1,165,154.2,161.5z"/><path style="fill:none;stroke:red;stroke-width:0.0001px" d="M59.6,80.8c0.1,0.7,1,1,1.3,1.5c1.3,2,1.5,3.9,0.3,6.1c-1.2,2-3.1,2.7-5.2,2.7  c-2.1-0.1-4.6-1.4-5-4.4c-0.4-3,1-5.1,3.4-6.1c1.2-0.6,2.5-0.3,3.7-0.1C58.6,80.7,59,80.9,59.6,80.8L59.6,80.8z"/><path style="fill:none;stroke:red;stroke-width:0.0001px" d="M59.6,80.8c0.1,0.7,1,1,1.3,1.5c1.3,2,1.5,3.9,0.3,6.1c-1.2,2-3.1,2.7-5.2,2.7  c-2.1-0.1-4.6-1.4-5-4.4c-0.4-3,1-5.1,3.4-6.1c1.2-0.6,2.5-0.3,3.7-0.1C58.6,80.7,59,80.9,59.6,80.8L59.6,80.8z"/><path style="fill:none;stroke:red;stroke-width:0.0001px" d="M59.6,80.8c0.1,0.7,1,1,1.3,1.5c1.3,2,1.5,3.9,0.3,6.1c-1.2,2-3.1,2.7-5.2,2.7  c-2.1-0.1-4.6-1.4-5-4.4c-0.4-3,1-5.1,3.4-6.1c1.2-0.6,2.5-0.3,3.7-0.1C58.6,80.7,59,80.9,59.6,80.8L59.6,80.8z"/><path style="fill:none;stroke:red;stroke-width:0.0001px" d="M175.8,110.2c2.9-0.2,6.2,3.5,6.1,6.4c-0.2,3.8-2.8,6.6-6.9,6.6c-3.5,0-6.4-3.3-6.2-7.1  C168.8,113.1,171.8,110,175.8,110.2z"/><path style="fill:none;stroke:red;stroke-width:0.0001px" d="M175.8,110.2c2.9-0.2,6.2,3.5,6.1,6.4c-0.2,3.8-2.8,6.6-6.9,6.6c-3.5,0-6.4-3.3-6.2-7.1  C168.8,113.1,171.8,110,175.8,110.2z"/><path style="fill:none;stroke:red;stroke-width:0.0001px" d="M175.8,110.2c2.9-0.2,6.2,3.5,6.1,6.4c-0.2,3.8-2.8,6.6-6.9,6.6c-3.5,0-6.4-3.3-6.2-7.1  C168.8,113.1,171.8,110,175.8,110.2z"/><path style="fill:none;stroke:red;stroke-width:0.0001px" d="M65.3,165c0,0.5,0.5,0.5,0.9,0.9c2.1,1.9,2.8,4.5,1.7,7.1c-1,2.8-2.8,4.2-5.7,4.2  c-3.1,0.2-5.2-1.7-6.2-4c-1.6-3.6,0.7-8.3,4.9-8.7c0.9,0,1.9,0,2.8,0.2C64.2,164.8,64.7,164.8,65.3,165z"/><path style="fill:none;stroke:red;stroke-width:0.0001px" d="M65.3,165c0,0.5,0.5,0.5,0.9,0.9c2.1,1.9,2.8,4.5,1.7,7.1c-1,2.8-2.8,4.2-5.7,4.2  c-3.1,0.2-5.2-1.7-6.2-4c-1.6-3.6,0.7-8.3,4.9-8.7c0.9,0,1.9,0,2.8,0.2C64.2,164.8,64.7,164.8,65.3,165z"/><path style="fill:none;stroke:red;stroke-width:0.0001px" d="M65.3,165c0,0.5,0.5,0.5,0.9,0.9c2.1,1.9,2.8,4.5,1.7,7.1c-1,2.8-2.8,4.2-5.7,4.2  c-3.1,0.2-5.2-1.7-6.2-4c-1.6-3.6,0.7-8.3,4.9-8.7c0.9,0,1.9,0,2.8,0.2C64.2,164.8,64.7,164.8,65.3,165z"/><path style="fill:none;stroke:red;stroke-width:0.0001px" d="M179.1,99.8c3.1,0,5,1.6,5,4.7c0,2.6-2.3,5-5,5.2c-2.6,0.2-4.9-2.3-5-5.2  C174,102,176.3,99.8,179.1,99.8z"/><path style="fill:none;stroke:red;stroke-width:0.0001px" d="M179.1,99.8c3.1,0,5,1.6,5,4.7c0,2.6-2.3,5-5,5.2c-2.6,0.2-4.9-2.3-5-5.2  C174,102,176.3,99.8,179.1,99.8z"/><path style="fill:none;stroke:red;stroke-width:0.0001px" d="M179.1,99.8c3.1,0,5,1.6,5,4.7c0,2.6-2.3,5-5,5.2c-2.6,0.2-4.9-2.3-5-5.2  C174,102,176.3,99.8,179.1,99.8z"/><path style="fill:none;stroke:red;stroke-width:0.0001px" d="M82.8,139.7c-2.8,0-4.9-1.9-4.9-4.9c0-2.3,2.3-4.7,4.5-4.7c2.6,0,4.9,2.1,5,4.7  C87.5,137.9,85,139.7,82.8,139.7z"/><path style="fill:none;stroke:red;stroke-width:0.0001px" d="M82.8,139.7c-2.8,0-4.9-1.9-4.9-4.9c0-2.3,2.3-4.7,4.5-4.7c2.6,0,4.9,2.1,5,4.7  C87.5,137.9,85,139.7,82.8,139.7z"/><path style="fill:none;stroke:red;stroke-width:0.0001px" d="M82.8,139.7c-2.8,0-4.9-1.9-4.9-4.9c0-2.3,2.3-4.7,4.5-4.7c2.6,0,4.9,2.1,5,4.7  C87.5,137.9,85,139.7,82.8,139.7z"/><path style="fill:none;stroke:red;stroke-width:0.0001px" d="M186.3,69.4c-2.6-0.2-4.2-2.4-4-4.7c0-2.9,2.4-4.9,4.9-4.7c2.6,0.3,4.7,2.3,4.5,4.7  C191.5,67.5,189.1,69.4,186.3,69.4z"/><path style="fill:none;stroke:red;stroke-width:0.0001px" d="M186.3,69.4c-2.6-0.2-4.2-2.4-4-4.7c0-2.9,2.4-4.9,4.9-4.7c2.6,0.3,4.7,2.3,4.5,4.7  C191.5,67.5,189.1,69.4,186.3,69.4z"/><path style="fill:none;stroke:red;stroke-width:0.0001px" d="M186.3,69.4c-2.6-0.2-4.2-2.4-4-4.7c0-2.9,2.4-4.9,4.9-4.7c2.6,0.3,4.7,2.3,4.5,4.7  C191.5,67.5,189.1,69.4,186.3,69.4z"/><path style="fill:none;stroke:red;stroke-width:0.0001px" d="M166.4,138.8c-2.9,0-4.9-2.3-4.9-4.9c0-2.4,2.3-4.3,5-4.3c2.6,0,4.2,2.3,4.3,4.5  C171.1,136.5,169,139,166.4,138.8z"/><path style="fill:none;stroke:red;stroke-width:0.0001px" d="M166.4,138.8c-2.9,0-4.9-2.3-4.9-4.9c0-2.4,2.3-4.3,5-4.3c2.6,0,4.2,2.3,4.3,4.5  C171.1,136.5,169,139,166.4,138.8z"/><path style="fill:none;stroke:red;stroke-width:0.0001px" d="M166.4,138.8c-2.9,0-4.9-2.3-4.9-4.9c0-2.4,2.3-4.3,5-4.3c2.6,0,4.2,2.3,4.3,4.5  C171.1,136.5,169,139,166.4,138.8z"/><path style="fill:none;stroke:red;stroke-width:0.0001px" d="M140.4,179.5c2.3,0,4.3,2,4.2,4.1c0,2.1-2.2,4.2-4.2,4.1c-2.6-0.2-4-1.5-4.2-4.1  C136.2,181.3,138.2,179.5,140.4,179.5z"/><path style="fill:none;stroke:red;stroke-width:0.0001px" d="M140.4,179.5c2.3,0,4.3,2,4.2,4.1c0,2.1-2.2,4.2-4.2,4.1c-2.6-0.2-4-1.5-4.2-4.1  C136.2,181.3,138.2,179.5,140.4,179.5z"/><path style="fill:none;stroke:red;stroke-width:0.0001px" d="M140.4,179.5c2.3,0,4.3,2,4.2,4.1c0,2.1-2.2,4.2-4.2,4.1c-2.6-0.2-4-1.5-4.2-4.1  C136.2,181.3,138.2,179.5,140.4,179.5z"/><path style="fill:none;stroke:red;stroke-width:0.0001px" d="M159.1,91.1c2.4,0,4.7,2.1,4.7,4.5s-2.1,4.7-4.5,4.7c-2.6,0-4.9-2.1-4.9-4.5  C154.4,93.2,156.5,91.1,159.1,91.1z"/><path style="fill:none;stroke:red;stroke-width:0.0001px" d="M159.1,91.1c2.4,0,4.7,2.1,4.7,4.5s-2.1,4.7-4.5,4.7c-2.6,0-4.9-2.1-4.9-4.5  C154.4,93.2,156.5,91.1,159.1,91.1z"/><path style="fill:none;stroke:red;stroke-width:0.0001px" d="M159.1,91.1c2.4,0,4.7,2.1,4.7,4.5s-2.1,4.7-4.5,4.7c-2.6,0-4.9-2.1-4.9-4.5  C154.4,93.2,156.5,91.1,159.1,91.1z"/><path style="fill:none;stroke:red;stroke-width:0.0001px" d="M166.4,144.3c0-2.4,1.9-4.5,4.2-4.7c2.8,0,4.9,1.7,5,4c0.2,2.6-1.7,5-5,5  C168.1,148.7,166.4,147,166.4,144.3z"/><path style="fill:none;stroke:red;stroke-width:0.0001px" d="M166.4,144.3c0-2.4,1.9-4.5,4.2-4.7c2.8,0,4.9,1.7,5,4c0.2,2.6-1.7,5-5,5  C168.1,148.7,166.4,147,166.4,144.3z"/><path style="fill:none;stroke:red;stroke-width:0.0001px" d="M166.4,144.3c0-2.4,1.9-4.5,4.2-4.7c2.8,0,4.9,1.7,5,4c0.2,2.6-1.7,5-5,5  C168.1,148.7,166.4,147,166.4,144.3z"/><path style="fill:none;stroke:red;stroke-width:0.0001px" d="M162.6,145.6c2.3,0.2,4.2,1.4,4.2,4.7c0,1.6-2.4,4.3-4.7,4.3c-2.3-0.2-4.2-1.9-4.2-4.2  C157.7,148.3,159.8,145.4,162.6,145.6z"/><path style="fill:none;stroke:red;stroke-width:0.0001px" d="M162.6,145.6c2.3,0.2,4.2,1.4,4.2,4.7c0,1.6-2.4,4.3-4.7,4.3c-2.3-0.2-4.2-1.9-4.2-4.2  C157.7,148.3,159.8,145.4,162.6,145.6z"/><path style="fill:none;stroke:red;stroke-width:0.0001px" d="M162.6,145.6c2.3,0.2,4.2,1.4,4.2,4.7c0,1.6-2.4,4.3-4.7,4.3c-2.3-0.2-4.2-1.9-4.2-4.2  C157.7,148.3,159.8,145.4,162.6,145.6z"/><path style="fill:none;stroke:red;stroke-width:0.0001px" d="M67.5,143.1c0.7,0.3,1.6,0.5,2.3,0.9c2.4,1.4,2.8,4.7,0.7,6.6c-1.4,1.2-2.9,1.6-4.7,0.9  c-1.6-0.9-2.8-2.1-2.9-4c0-1.4,0.7-2.4,1.9-3.3c0.5-0.3,1.2-0.5,1.7-1C66.8,143.1,67.2,143.1,67.5,143.1z"/><path style="fill:none;stroke:red;stroke-width:0.0001px" d="M67.5,143.1c0.7,0.3,1.6,0.5,2.3,0.9c2.4,1.4,2.8,4.7,0.7,6.6c-1.4,1.2-2.9,1.6-4.7,0.9  c-1.6-0.9-2.8-2.1-2.9-4c0-1.4,0.7-2.4,1.9-3.3c0.5-0.3,1.2-0.5,1.7-1C66.8,143.1,67.2,143.1,67.5,143.1z"/><path style="fill:none;stroke:red;stroke-width:0.0001px" d="M67.5,143.1c0.7,0.3,1.6,0.5,2.3,0.9c2.4,1.4,2.8,4.7,0.7,6.6c-1.4,1.2-2.9,1.6-4.7,0.9  c-1.6-0.9-2.8-2.1-2.9-4c0-1.4,0.7-2.4,1.9-3.3c0.5-0.3,1.2-0.5,1.7-1C66.8,143.1,67.2,143.1,67.5,143.1z"/><path style="fill:none;stroke:red;stroke-width:0.0001px" d="M177.5,187c-0.3-0.9-1.2-1.2-1.6-2.1c-0.7-1.7-0.3-3.8,1.2-5c1.9-1.6,4.3-1.4,5.9,0.2  c1.2,1,1.7,3.5,0.9,4.9c-1.2,2.1-2.6,2.9-4.7,2.4c-0.3,0-0.5,0-0.9,0C177.8,187.2,177.7,187,177.5,187z"/><path style="fill:none;stroke:red;stroke-width:0.0001px" d="M177.5,187c-0.3-0.9-1.2-1.2-1.6-2.1c-0.7-1.7-0.3-3.8,1.2-5c1.9-1.6,4.3-1.4,5.9,0.2  c1.2,1,1.7,3.5,0.9,4.9c-1.2,2.1-2.6,2.9-4.7,2.4c-0.3,0-0.5,0-0.9,0C177.8,187.2,177.7,187,177.5,187z"/><path style="fill:none;stroke:red;stroke-width:0.0001px" d="M177.5,187c-0.3-0.9-1.2-1.2-1.6-2.1c-0.7-1.7-0.3-3.8,1.2-5c1.9-1.6,4.3-1.4,5.9,0.2  c1.2,1,1.7,3.5,0.9,4.9c-1.2,2.1-2.6,2.9-4.7,2.4c-0.3,0-0.5,0-0.9,0C177.8,187.2,177.7,187,177.5,187z"/><path style="fill:none;stroke:red;stroke-width:0.0001px" d="M76,71.1c-2.3,0-4.2-1.9-4.2-4.2c0-2.1,2.1-4.2,4-4.2c2.1,0,4.3,1.9,4.3,3.8  C80.3,69.2,78.4,71.1,76,71.1z"/><path style="fill:none;stroke:red;stroke-width:0.0001px" d="M76,71.1c-2.3,0-4.2-1.9-4.2-4.2c0-2.1,2.1-4.2,4-4.2c2.1,0,4.3,1.9,4.3,3.8  C80.3,69.2,78.4,71.1,76,71.1z"/><path style="fill:none;stroke:red;stroke-width:0.0001px" d="M76,71.1c-2.3,0-4.2-1.9-4.2-4.2c0-2.1,2.1-4.2,4-4.2c2.1,0,4.3,1.9,4.3,3.8  C80.3,69.2,78.4,71.1,76,71.1z"/><path style="fill:none;stroke:red;stroke-width:0.0001px" d="M161.5,179.4c2.1,0,4,1.7,3.8,3.8c0,2.4-1.7,3.8-3.8,3.8c-2.4,0.2-4.2-1.9-4.2-3.8  C157.5,181.1,159.3,179.6,161.5,179.4z"/><path style="fill:none;stroke:red;stroke-width:0.0001px" d="M161.5,179.4c2.1,0,4,1.7,3.8,3.8c0,2.4-1.7,3.8-3.8,3.8c-2.4,0.2-4.2-1.9-4.2-3.8  C157.5,181.1,159.3,179.6,161.5,179.4z"/><path style="fill:none;stroke:red;stroke-width:0.0001px" d="M161.5,179.4c2.1,0,4,1.7,3.8,3.8c0,2.4-1.7,3.8-3.8,3.8c-2.4,0.2-4.2-1.9-4.2-3.8  C157.5,181.1,159.3,179.6,161.5,179.4z"/><path style="fill:none;stroke:red;stroke-width:0.0001px" d="M106.5,82.4c0-1.9,1.6-3.5,3.5-3.6c2.3,0,4,1.4,4.2,4.2c0,1.2-1.7,3.3-3.8,3.3  C108.6,86.4,106.2,84.3,106.5,82.4z"/><path style="fill:none;stroke:red;stroke-width:0.0001px" d="M106.5,82.4c0-1.9,1.6-3.5,3.5-3.6c2.3,0,4,1.4,4.2,4.2c0,1.2-1.7,3.3-3.8,3.3  C108.6,86.4,106.2,84.3,106.5,82.4z"/><path style="fill:none;stroke:red;stroke-width:0.0001px" d="M106.5,82.4c0-1.9,1.6-3.5,3.5-3.6c2.3,0,4,1.4,4.2,4.2c0,1.2-1.7,3.3-3.8,3.3  C108.6,86.4,106.2,84.3,106.5,82.4z"/><path style="fill:none;stroke:red;stroke-width:0.0001px" d="M84.7,69.6c-2.1,0-3.6-1.4-3.6-3.5c0-1.6,1.6-3.1,3.5-3.1c1.7,0,3.3,1.2,3.3,3.1  C87.8,68,86.4,69.6,84.7,69.6z"/><path style="fill:none;stroke:red;stroke-width:0.0001px" d="M84.7,69.6c-2.1,0-3.6-1.4-3.6-3.5c0-1.6,1.6-3.1,3.5-3.1c1.7,0,3.3,1.2,3.3,3.1  C87.8,68,86.4,69.6,84.7,69.6z"/><path style="fill:none;stroke:red;stroke-width:0.0001px" d="M84.7,69.6c-2.1,0-3.6-1.4-3.6-3.5c0-1.6,1.6-3.1,3.5-3.1c1.7,0,3.3,1.2,3.3,3.1  C87.8,68,86.4,69.6,84.7,69.6z"/><path style="fill:none;stroke:red;stroke-width:0.0001px" d="M166.6,80c1.7,0,2.9,1.2,2.9,2.8c0,1.2-1.2,3.1-2.9,2.9c-1.9-0.2-3.3-1.4-3.3-3.1  C163.4,81,164.8,80,166.6,80z"/><path style="fill:none;stroke:red;stroke-width:0.0001px" d="M166.6,80c1.7,0,2.9,1.2,2.9,2.8c0,1.2-1.2,3.1-2.9,2.9c-1.9-0.2-3.3-1.4-3.3-3.1  C163.4,81,164.8,80,166.6,80z"/><path style="fill:none;stroke:red;stroke-width:0.0001px" d="M166.6,80c1.7,0,2.9,1.2,2.9,2.8c0,1.2-1.2,3.1-2.9,2.9c-1.9-0.2-3.3-1.4-3.3-3.1  C163.4,81,164.8,80,166.6,80z"/><path style="fill:none;stroke:red;stroke-width:0.0001px" d="M167.4,169.3c-0.2-0.9-0.7-1.4-0.7-2.4c0.2-1.4,1.6-2.8,2.9-2.8c1.6,0,3.1,1.6,3.1,2.9  c0,1.4-1.6,2.9-2.9,2.9c-0.7,0-1.2,0-1.7-0.3C168.1,169.3,167.8,169.3,167.4,169.3z"/><path style="fill:none;stroke:red;stroke-width:0.0001px" d="M167.4,169.3c-0.2-0.9-0.7-1.4-0.7-2.4c0.2-1.4,1.6-2.8,2.9-2.8c1.6,0,3.1,1.6,3.1,2.9  c0,1.4-1.6,2.9-2.9,2.9c-0.7,0-1.2,0-1.7-0.3C168.1,169.3,167.8,169.3,167.4,169.3z"/><path style="fill:none;stroke:red;stroke-width:0.0001px" d="M167.4,169.3c-0.2-0.9-0.7-1.4-0.7-2.4c0.2-1.4,1.6-2.8,2.9-2.8c1.6,0,3.1,1.6,3.1,2.9  c0,1.4-1.6,2.9-2.9,2.9c-0.7,0-1.2,0-1.7-0.3C168.1,169.3,167.8,169.3,167.4,169.3z"/><path style="fill:none;stroke:red;stroke-width:0.0001px" d="M169.9,177.1c0,1.4-1.4,2.9-2.9,3.1c-1.6,0-3.1-1.4-3.1-3.1c0-1.2,1.6-2.8,2.6-2.8  C168.3,174.4,169.9,175.6,169.9,177.1z"/><path style="fill:none;stroke:red;stroke-width:0.0001px" d="M169.9,177.1c0,1.4-1.4,2.9-2.9,3.1c-1.6,0-3.1-1.4-3.1-3.1c0-1.2,1.6-2.8,2.6-2.8  C168.3,174.4,169.9,175.6,169.9,177.1z"/><path style="fill:none;stroke:red;stroke-width:0.0001px" d="M169.9,177.1c0,1.4-1.4,2.9-2.9,3.1c-1.6,0-3.1-1.4-3.1-3.1c0-1.2,1.6-2.8,2.6-2.8  C168.3,174.4,169.9,175.6,169.9,177.1z"/><path style="fill:none;stroke:red;stroke-width:0.0001px" d="M58,102.2c1.7,0,2.6,1,2.8,2.8c0,1.2-1.6,2.9-2.6,2.9c-1.9-0.2-3.5-1-3.3-2.9  C54.8,103.2,55.9,102.2,58,102.2z"/><path style="fill:none;stroke:red;stroke-width:0.0001px" d="M58,102.2c1.7,0,2.6,1,2.8,2.8c0,1.2-1.6,2.9-2.6,2.9c-1.9-0.2-3.5-1-3.3-2.9  C54.8,103.2,55.9,102.2,58,102.2z"/><path style="fill:none;stroke:red;stroke-width:0.0001px" d="M58,102.2c1.7,0,2.6,1,2.8,2.8c0,1.2-1.6,2.9-2.6,2.9c-1.9-0.2-3.5-1-3.3-2.9  C54.8,103.2,55.9,102.2,58,102.2z"/><path style="fill:none;stroke:red;stroke-width:0.0001px" d="M66.5,178.3c0-1.7,1.2-3.1,2.9-3.1c1.6,0,2.8,1.4,2.8,3.1c0,1.4-1.4,2.8-2.6,2.8  C68,181,66.5,179.7,66.5,178.3z"/><path style="fill:none;stroke:red;stroke-width:0.0001px" d="M66.5,178.3c0-1.7,1.2-3.1,2.9-3.1c1.6,0,2.8,1.4,2.8,3.1c0,1.4-1.4,2.8-2.6,2.8  C68,181,66.5,179.7,66.5,178.3z"/><path style="fill:none;stroke:red;stroke-width:0.0001px" d="M66.5,178.3c0-1.7,1.2-3.1,2.9-3.1c1.6,0,2.8,1.4,2.8,3.1c0,1.4-1.4,2.8-2.6,2.8  C68,181,66.5,179.7,66.5,178.3z"/><path style="fill:none;stroke:red;stroke-width:0.0001px" d="M75.5,183.6c-1.6,0-2.6-1.4-2.8-2.6c-0.2-1.6,1.4-3.1,2.9-3.1c1.4,0,3.1,1.6,2.9,3.1  C78.4,182.7,77.6,183.6,75.5,183.6z"/><path style="fill:none;stroke:red;stroke-width:0.0001px" d="M75.5,183.6c-1.6,0-2.6-1.4-2.8-2.6c-0.2-1.6,1.4-3.1,2.9-3.1c1.4,0,3.1,1.6,2.9,3.1  C78.4,182.7,77.6,183.6,75.5,183.6z"/><path style="fill:none;stroke:red;stroke-width:0.0001px" d="M75.5,183.6c-1.6,0-2.6-1.4-2.8-2.6c-0.2-1.6,1.4-3.1,2.9-3.1c1.4,0,3.1,1.6,2.9,3.1  C78.4,182.7,77.6,183.6,75.5,183.6z"/><path style="fill:none;stroke:red;stroke-width:0.0001px" d="M174.4,99.8c0,1.6-1.2,2.8-2.8,2.8s-2.9-1.2-2.9-2.9c0-1.6,1-2.6,2.8-2.6  C173,96.8,174.2,98.2,174.4,99.8z"/><path style="fill:none;stroke:red;stroke-width:0.0001px" d="M174.4,99.8c0,1.6-1.2,2.8-2.8,2.8s-2.9-1.2-2.9-2.9c0-1.6,1-2.6,2.8-2.6  C173,96.8,174.2,98.2,174.4,99.8z"/><path style="fill:none;stroke:red;stroke-width:0.0001px" d="M174.4,99.8c0,1.6-1.2,2.8-2.8,2.8s-2.9-1.2-2.9-2.9c0-1.6,1-2.6,2.8-2.6  C173,96.8,174.2,98.2,174.4,99.8z"/><path style="fill:none;stroke:red;stroke-width:0.0001px" d="M116.8,87.8c-1-0.7-1.9-1.6-1.7-2.9c0.2-1,0.7-1.7,1.7-2.1c1-0.3,2.1-0.5,2.9,0.2  c1.6,1.2,1.6,1.9,1,3.3c-0.5,1.4-2.1,1.9-3.6,1.7C117,87.8,116.8,87.8,116.8,87.8z"/><path style="fill:none;stroke:red;stroke-width:0.0001px" d="M116.8,87.8c-1-0.7-1.9-1.6-1.7-2.9c0.2-1,0.7-1.7,1.7-2.1c1-0.3,2.1-0.5,2.9,0.2  c1.6,1.2,1.6,1.9,1,3.3c-0.5,1.4-2.1,1.9-3.6,1.7C117,87.8,116.8,87.8,116.8,87.8z"/><path style="fill:none;stroke:red;stroke-width:0.0001px" d="M116.8,87.8c-1-0.7-1.9-1.6-1.7-2.9c0.2-1,0.7-1.7,1.7-2.1c1-0.3,2.1-0.5,2.9,0.2  c1.6,1.2,1.6,1.9,1,3.3c-0.5,1.4-2.1,1.9-3.6,1.7C117,87.8,116.8,87.8,116.8,87.8z"/><path style="fill:none;stroke:red;stroke-width:0.0001px" d="M157.2,101.3c1.6,0,2.8,1,2.8,2.6c0,1.7-1.2,2.9-2.9,2.9c-1.4,0-2.8-1.4-2.8-2.8  C154.2,102.5,155.6,101.3,157.2,101.3z"/><path style="fill:none;stroke:red;stroke-width:0.0001px" d="M157.2,101.3c1.6,0,2.8,1,2.8,2.6c0,1.7-1.2,2.9-2.9,2.9c-1.4,0-2.8-1.4-2.8-2.8  C154.2,102.5,155.6,101.3,157.2,101.3z"/><path style="fill:none;stroke:red;stroke-width:0.0001px" d="M157.2,101.3c1.6,0,2.8,1,2.8,2.6c0,1.7-1.2,2.9-2.9,2.9c-1.4,0-2.8-1.4-2.8-2.8  C154.2,102.5,155.6,101.3,157.2,101.3z"/><path style="fill:none;stroke:red;stroke-width:0.0001px" d="M94.2,123.4c-1.4,0-2.8-1.4-2.8-2.6c0-1.6,1.4-2.9,2.9-2.9c1.4,0,2.9,1.4,2.8,2.6  C97,122.1,96.5,123.2,94.2,123.4z"/><path style="fill:none;stroke:red;stroke-width:0.0001px" d="M94.2,123.4c-1.4,0-2.8-1.4-2.8-2.6c0-1.6,1.4-2.9,2.9-2.9c1.4,0,2.9,1.4,2.8,2.6  C97,122.1,96.5,123.2,94.2,123.4z"/><path style="fill:none;stroke:red;stroke-width:0.0001px" d="M94.2,123.4c-1.4,0-2.8-1.4-2.8-2.6c0-1.6,1.4-2.9,2.9-2.9c1.4,0,2.9,1.4,2.8,2.6  C97,122.1,96.5,123.2,94.2,123.4z"/><path style="fill:none;stroke:red;stroke-width:0.0001px" d="M126.8,81.5c0,1.6-1.2,2.8-2.9,2.8c-1.4,0-2.6-1.2-2.8-2.8c-0.2-1.4,1.4-2.8,2.6-2.8  C125.6,78.8,127,79.6,126.8,81.5z"/><path style="fill:none;stroke:red;stroke-width:0.0001px" d="M126.8,81.5c0,1.6-1.2,2.8-2.9,2.8c-1.4,0-2.6-1.2-2.8-2.8c-0.2-1.4,1.4-2.8,2.6-2.8  C125.6,78.8,127,79.6,126.8,81.5z"/><path style="fill:none;stroke:red;stroke-width:0.0001px" d="M126.8,81.5c0,1.6-1.2,2.8-2.9,2.8c-1.4,0-2.6-1.2-2.8-2.8c-0.2-1.4,1.4-2.8,2.6-2.8  C125.6,78.8,127,79.6,126.8,81.5z"/><path style="fill:none;stroke:red;stroke-width:0.0001px" d="M50.7,107.9c-1.7,0-2.8-1.2-2.8-2.9c0-1.4,1.4-2.6,2.6-2.6c1.4,0,2.9,1.6,2.9,2.9  C53.5,106.7,52.1,107.9,50.7,107.9z"/><path style="fill:none;stroke:red;stroke-width:0.0001px" d="M50.7,107.9c-1.7,0-2.8-1.2-2.8-2.9c0-1.4,1.4-2.6,2.6-2.6c1.4,0,2.9,1.6,2.9,2.9  C53.5,106.7,52.1,107.9,50.7,107.9z"/><path style="fill:none;stroke:red;stroke-width:0.0001px" d="M50.7,107.9c-1.7,0-2.8-1.2-2.8-2.9c0-1.4,1.4-2.6,2.6-2.6c1.4,0,2.9,1.6,2.9,2.9  C53.5,106.7,52.1,107.9,50.7,107.9z"/><path style="fill:none;stroke:red;stroke-width:0.0001px" d="M151.1,110.5c-1.6,0-2.8-1.2-2.8-2.4c0.2-1.6,1.4-2.9,2.8-2.9c1.6,0,2.8,1.2,2.8,2.4  C153.9,109.5,152.7,110.5,151.1,110.5z"/><path style="fill:none;stroke:red;stroke-width:0.0001px" d="M151.1,110.5c-1.6,0-2.8-1.2-2.8-2.4c0.2-1.6,1.4-2.9,2.8-2.9c1.6,0,2.8,1.2,2.8,2.4  C153.9,109.5,152.7,110.5,151.1,110.5z"/><path style="fill:none;stroke:red;stroke-width:0.0001px" d="M151.1,110.5c-1.6,0-2.8-1.2-2.8-2.4c0.2-1.6,1.4-2.9,2.8-2.9c1.6,0,2.8,1.2,2.8,2.4  C153.9,109.5,152.7,110.5,151.1,110.5z"/><path style="fill:none;stroke:red;stroke-width:0.0001px" d="M57.6,158.6c0.2-0.2,0.3-0.2,0.5-0.3c1.2-0.2,2.4,0,3.1,1.2c0.7,1.2,0.5,2.8-0.7,3.6  c-1,0.9-2.8,0.5-3.5-0.5C55.9,161.3,56.1,160.3,57.6,158.6z"/><path style="fill:none;stroke:red;stroke-width:0.0001px" d="M57.6,158.6c0.2-0.2,0.3-0.2,0.5-0.3c1.2-0.2,2.4,0,3.1,1.2c0.7,1.2,0.5,2.8-0.7,3.6  c-1,0.9-2.8,0.5-3.5-0.5C55.9,161.3,56.1,160.3,57.6,158.6z"/><path style="fill:none;stroke:red;stroke-width:0.0001px" d="M57.6,158.6c0.2-0.2,0.3-0.2,0.5-0.3c1.2-0.2,2.4,0,3.1,1.2c0.7,1.2,0.5,2.8-0.7,3.6  c-1,0.9-2.8,0.5-3.5-0.5C55.9,161.3,56.1,160.3,57.6,158.6z"/><path style="fill:none;stroke:red;stroke-width:0.0001px" d="M184.1,94.6c1.4,0,2.6,1.2,2.6,2.6c0,1.7-1.2,2.6-2.8,2.8c-1.4,0.2-2.6-1.2-2.6-2.6  C181.3,95.8,182.5,94.6,184.1,94.6z"/><path style="fill:none;stroke:red;stroke-width:0.0001px" d="M184.1,94.6c1.4,0,2.6,1.2,2.6,2.6c0,1.7-1.2,2.6-2.8,2.8c-1.4,0.2-2.6-1.2-2.6-2.6  C181.3,95.8,182.5,94.6,184.1,94.6z"/><path style="fill:none;stroke:red;stroke-width:0.0001px" d="M184.1,94.6c1.4,0,2.6,1.2,2.6,2.6c0,1.7-1.2,2.6-2.8,2.8c-1.4,0.2-2.6-1.2-2.6-2.6  C181.3,95.8,182.5,94.6,184.1,94.6z"/><path style="fill:none;stroke:red;stroke-width:0.0001px" d="M169.2,128.2c-1.4,0-2.4-0.9-2.4-2.3c0-1.6,1-2.6,2.6-2.4c1.4,0,2.4,1,2.4,2.6  C171.8,127.2,170.6,128.2,169.2,128.2z"/><path style="fill:none;stroke:red;stroke-width:0.0001px" d="M169.2,128.2c-1.4,0-2.4-0.9-2.4-2.3c0-1.6,1-2.6,2.6-2.4c1.4,0,2.4,1,2.4,2.6  C171.8,127.2,170.6,128.2,169.2,128.2z"/><path style="fill:none;stroke:red;stroke-width:0.0001px" d="M169.2,128.2c-1.4,0-2.4-0.9-2.4-2.3c0-1.6,1-2.6,2.6-2.4c1.4,0,2.4,1,2.4,2.6  C171.8,127.2,170.6,128.2,169.2,128.2z"/><path style="fill:none;stroke:red;stroke-width:0.0001px" d="M60.2,78.9c-0.7-0.7-1.2-1.4-0.9-2.6c0.3-1.4,1-2.1,2.3-2.1c1.4,0,2.6,1.2,2.6,2.4  c0.2,1.2-2.1,2.8-3.5,2.4C60.6,78.9,60.4,78.9,60.2,78.9L60.2,78.9z"/><path style="fill:none;stroke:red;stroke-width:0.0001px" d="M60.2,78.9c-0.7-0.7-1.2-1.4-0.9-2.6c0.3-1.4,1-2.1,2.3-2.1c1.4,0,2.6,1.2,2.6,2.4  c0.2,1.2-2.1,2.8-3.5,2.4C60.6,78.9,60.4,78.9,60.2,78.9L60.2,78.9z"/><path style="fill:none;stroke:red;stroke-width:0.0001px" d="M60.2,78.9c-0.7-0.7-1.2-1.4-0.9-2.6c0.3-1.4,1-2.1,2.3-2.1c1.4,0,2.6,1.2,2.6,2.4  c0.2,1.2-2.1,2.8-3.5,2.4C60.6,78.9,60.4,78.9,60.2,78.9L60.2,78.9z"/><path style="fill:none;stroke:red;stroke-width:0.0001px" d="M111.1,93.7c1.4,0,2.6,1,2.6,2.4c0,1.2-1.4,2.4-2.6,2.3c-1,0-2.4-1.4-2.4-2.6  C108.8,94.7,110,93.7,111.1,93.7z"/><path style="fill:none;stroke:red;stroke-width:0.0001px" d="M111.1,93.7c1.4,0,2.6,1,2.6,2.4c0,1.2-1.4,2.4-2.6,2.3c-1,0-2.4-1.4-2.4-2.6  C108.8,94.7,110,93.7,111.1,93.7z"/><path style="fill:none;stroke:red;stroke-width:0.0001px" d="M111.1,93.7c1.4,0,2.6,1,2.6,2.4c0,1.2-1.4,2.4-2.6,2.3c-1,0-2.4-1.4-2.4-2.6  C108.8,94.7,110,93.7,111.1,93.7z"/><path style="fill:none;stroke:red;stroke-width:0.0001px" d="M84.7,72.7c0,1.6-0.9,2.4-2.4,2.4c-1.2,0-2.1-1-2.1-2.4c0-1.2,1-2.3,2.3-2.3  C84,70.4,84.7,71.1,84.7,72.7z"/><path style="fill:none;stroke:red;stroke-width:0.0001px" d="M84.7,72.7c0,1.6-0.9,2.4-2.4,2.4c-1.2,0-2.1-1-2.1-2.4c0-1.2,1-2.3,2.3-2.3  C84,70.4,84.7,71.1,84.7,72.7z"/><path style="fill:none;stroke:red;stroke-width:0.0001px" d="M84.7,72.7c0,1.6-0.9,2.4-2.4,2.4c-1.2,0-2.1-1-2.1-2.4c0-1.2,1-2.3,2.3-2.3  C84,70.4,84.7,71.1,84.7,72.7z"/><path style="fill:none;stroke:red;stroke-width:0.0001px" d="M79.3,75c0,1.2-1.2,2.4-2.4,2.4c-1,0-2.1-1-2.1-2.3c0-1,1.2-2.3,2.3-2.3C78.1,72.7,79.3,73.9,79.3,75  z"/><path style="fill:none;stroke:red;stroke-width:0.0001px" d="M79.3,75c0,1.2-1.2,2.4-2.4,2.4c-1,0-2.1-1-2.1-2.3c0-1,1.2-2.3,2.3-2.3C78.1,72.7,79.3,73.9,79.3,75  z"/><path style="fill:none;stroke:red;stroke-width:0.0001px" d="M79.3,75c0,1.2-1.2,2.4-2.4,2.4c-1,0-2.1-1-2.1-2.3c0-1,1.2-2.3,2.3-2.3C78.1,72.7,79.3,73.9,79.3,75  z"/><path style="fill:none;stroke:red;stroke-width:0.0001px" d="M174,90.1c0-1.4,0.9-2.1,2.4-2.1c0.9,0,1.9,1.2,1.9,2.1c0,1-1.2,2.1-2.1,2.1  C174.9,92.1,174,91.3,174,90.1z"/><path style="fill:none;stroke:red;stroke-width:0.0001px" d="M174,90.1c0-1.4,0.9-2.1,2.4-2.1c0.9,0,1.9,1.2,1.9,2.1c0,1-1.2,2.1-2.1,2.1  C174.9,92.1,174,91.3,174,90.1z"/><path style="fill:none;stroke:red;stroke-width:0.0001px" d="M174,90.1c0-1.4,0.9-2.1,2.4-2.1c0.9,0,1.9,1.2,1.9,2.1c0,1-1.2,2.1-2.1,2.1  C174.9,92.1,174,91.3,174,90.1z"/><path style="fill:none;stroke:red;stroke-width:0.0001px" d="M77.4,163.8c1.6-0.2,2.3,1.2,2.3,2.1c0,1.2-0.9,2.1-1.9,2.1c-1.4,0-2.3-1-2.3-2.3  C75.5,164.6,76.4,163.6,77.4,163.8z"/><path style="fill:none;stroke:red;stroke-width:0.0001px" d="M77.4,163.8c1.6-0.2,2.3,1.2,2.3,2.1c0,1.2-0.9,2.1-1.9,2.1c-1.4,0-2.3-1-2.3-2.3  C75.5,164.6,76.4,163.6,77.4,163.8z"/><path style="fill:none;stroke:red;stroke-width:0.0001px" d="M77.4,163.8c1.6-0.2,2.3,1.2,2.3,2.1c0,1.2-0.9,2.1-1.9,2.1c-1.4,0-2.3-1-2.3-2.3  C75.5,164.6,76.4,163.6,77.4,163.8z"/><path style="fill:none;stroke:red;stroke-width:0.0001px" d="M188.9,80c1.2,0,2.1,0.9,2.1,2.1c0,1-0.9,1.9-1.9,1.9c-1.2,0-2.3-0.9-2.3-2.1  C186.9,80.9,187.6,80,188.9,80z"/><path style="fill:none;stroke:red;stroke-width:0.0001px" d="M188.9,80c1.2,0,2.1,0.9,2.1,2.1c0,1-0.9,1.9-1.9,1.9c-1.2,0-2.3-0.9-2.3-2.1  C186.9,80.9,187.6,80,188.9,80z"/><path style="fill:none;stroke:red;stroke-width:0.0001px" d="M188.9,80c1.2,0,2.1,0.9,2.1,2.1c0,1-0.9,1.9-1.9,1.9c-1.2,0-2.3-0.9-2.3-2.1  C186.9,80.9,187.6,80,188.9,80z"/><path style="fill:none;stroke:red;stroke-width:0.0001px" d="M166.7,110.7c1,0,2.1,1,2.1,2.1c0,1-1,1.9-2.1,1.9s-1.9-1-1.9-2.1  C164.8,111.6,165.7,110.7,166.7,110.7z"/><path style="fill:none;stroke:red;stroke-width:0.0001px" d="M166.7,110.7c1,0,2.1,1,2.1,2.1c0,1-1,1.9-2.1,1.9s-1.9-1-1.9-2.1  C164.8,111.6,165.7,110.7,166.7,110.7z"/><path style="fill:none;stroke:red;stroke-width:0.0001px" d="M166.7,110.7c1,0,2.1,1,2.1,2.1c0,1-1,1.9-2.1,1.9s-1.9-1-1.9-2.1  C164.8,111.6,165.7,110.7,166.7,110.7z"/><path style="fill:none;stroke:red;stroke-width:0.0001px" d="M168.5,96.8c0,0.9-0.9,1.7-1.9,1.7c-0.9,0-1.6-0.7-1.6-1.6c0-1,0.7-1.7,1.7-1.7  C167.8,95.3,168.5,95.9,168.5,96.8z"/><path style="fill:none;stroke:red;stroke-width:0.0001px" d="M168.5,96.8c0,0.9-0.9,1.7-1.9,1.7c-0.9,0-1.6-0.7-1.6-1.6c0-1,0.7-1.7,1.7-1.7  C167.8,95.3,168.5,95.9,168.5,96.8z"/><path style="fill:none;stroke:red;stroke-width:0.0001px" d="M168.5,96.8c0,0.9-0.9,1.7-1.9,1.7c-0.9,0-1.6-0.7-1.6-1.6c0-1,0.7-1.7,1.7-1.7  C167.8,95.3,168.5,95.9,168.5,96.8z"/><path style="fill:none;stroke:red;stroke-width:0.0001px" d="M60.6,100.3c0,0.7-0.5,1.2-1.2,1.2s-1.2-0.3-1.2-1.2c0-0.7,0.3-1.4,1.2-1.4S60.6,99.4,60.6,100.3z"/><path style="fill:none;stroke:red;stroke-width:0.0001px" d="M60.6,100.3c0,0.7-0.5,1.2-1.2,1.2s-1.2-0.3-1.2-1.2c0-0.7,0.3-1.4,1.2-1.4S60.6,99.4,60.6,100.3z"/><path style="fill:none;stroke:red;stroke-width:0.0001px" d="M60.6,100.3c0,0.7-0.5,1.2-1.2,1.2s-1.2-0.3-1.2-1.2c0-0.7,0.3-1.4,1.2-1.4S60.6,99.4,60.6,100.3z"/></g></svg>