<svg xmlns="http://www.w3.org/2000/svg" xmlns:xlink="http://www.w3.org/1999/xlink" version="1.1" id="Layer_1" x="0px" y="0px" viewBox="0 0 158.7 158.7" style="enable-background:new 0 0 158.7 158.7;" xml:space="preserve"><path style="fill:#1BBAD9;" d="M13.3,115c0.5-0.1,1-0.2,1.5-0.4c0.1,0,0.3-0.1,0.4-0.1c0.4-0.1,0.7-0.2,1.1-0.3  c0.2-0.1,0.4-0.1,0.6-0.2c0.3-0.1,0.6-0.2,0.9-0.3c0.2-0.1,0.4-0.1,0.6-0.2c0.3-0.1,0.6-0.2,0.9-0.3c0.2-0.1,0.4-0.2,0.6-0.2  c0.3-0.1,0.6-0.2,0.8-0.3c0.2-0.1,0.4-0.2,0.6-0.3c0.3-0.1,0.5-0.2,0.8-0.4c0.2-0.1,0.4-0.2,0.6-0.3c0.3-0.1,0.5-0.3,0.8-0.4  c0.2-0.1,0.4-0.2,0.6-0.3c0.3-0.1,0.5-0.3,0.8-0.4c0.2-0.1,0.4-0.2,0.6-0.3c0.3-0.2,0.5-0.3,0.8-0.5c0.2-0.1,0.4-0.2,0.5-0.3  c0.3-0.2,0.5-0.3,0.8-0.5c0.2-0.1,0.3-0.2,0.5-0.3c0.3-0.2,0.6-0.4,0.8-0.6c0.1-0.1,0.3-0.2,0.4-0.3c0.4-0.3,0.8-0.6,1.2-0.9  c2.5-2.1,4.8-4.4,7.2-6.9c4.2-4.3,8.5-8.8,14.2-11.7c0.3-0.1,0.5-0.3,0.8-0.4c2.3-1,4.3-1.5,6.1-1.5c0.3,0,0.6,0,0.9,0  c2.2,0.1,4.2,0.9,5.9,2.6c0.1,0.1,0.2,0.2,0.3,0.3c1.9,2.2,2.3,5,2.5,7.5c0.2,2.9,0.4,5.7,0.5,8.5c0.3,5.8,0.6,11.7,1.6,17.4  c1.7,9.4,5.1,16.7,10.1,21.6c3.4,3.3,7.7,5.7,11.1,7.4c0.4,0.2,0.8,0.4,1.2,0.6c0.1,0.1,0.3,0.1,0.4,0.2c0.3,0.1,0.5,0.3,0.8,0.4  c0.2,0.1,0.3,0.1,0.5,0.2c0.2,0.1,0.5,0.2,0.7,0.3c0.2,0.1,0.3,0.1,0.5,0.2c0.2,0.1,0.5,0.2,0.7,0.3c0.2,0.1,0.3,0.1,0.5,0.2  c0.2,0.1,0.5,0.2,0.7,0.3c0.2,0.1,0.3,0.1,0.5,0.2c0.2,0.1,0.5,0.2,0.8,0.3c0.2,0.1,0.4,0.1,0.5,0.2c0.2,0.1,0.5,0.2,0.8,0.3  c0.2,0.1,0.4,0.1,0.6,0.2c0.1,0,0.1,0.1,0.2,0.1c2.2-0.6,4.4-1.4,6.6-2.2c6.6-2.5,12.8-5.9,18.5-10c-0.2,0-0.4-0.1-0.6-0.1  c-0.2,0-0.4-0.1-0.6-0.1c-0.8-0.2-1.6-0.4-2.3-0.6c0,0,0,0,0,0c-0.8-0.2-1.5-0.4-2.3-0.6c-0.2-0.1-0.4-0.1-0.6-0.2  c-0.8-0.2-1.5-0.5-2.3-0.7c0,0,0,0,0,0c-0.7-0.3-1.5-0.5-2.2-0.8c-0.2-0.1-0.4-0.1-0.5-0.2c-0.7-0.3-1.4-0.6-2.1-0.9  C96,132.1,83.9,118,81,102.4c-0.6-3.1-0.8-6.3-1-9.3c-0.2-3.1-0.4-6.1-1-9c-0.6-2.9-2.5-9.9-8.1-12.3c-3.5-1.5-8.3-0.9-12.9,1.6  c-3.3,1.9-6.2,4.4-9.3,7.1c-1,0.9-2,1.8-3.1,2.7c-0.7,0.6-1.4,1.2-2.1,1.7c-0.1,0-0.1,0.1-0.2,0.2c-0.7,0.5-1.4,1.1-2.1,1.6  c-0.1,0.1-0.2,0.1-0.3,0.2c-0.7,0.5-1.4,1-2.1,1.5c-0.1,0.1-0.2,0.2-0.3,0.2c-0.7,0.5-1.4,1-2.1,1.4c-0.1,0.1-0.2,0.1-0.3,0.2  c-0.7,0.5-1.5,0.9-2.2,1.4c-0.1,0.1-0.2,0.1-0.3,0.2c-0.8,0.5-1.5,0.9-2.3,1.3c-0.1,0-0.1,0.1-0.2,0.1c-1.6,0.9-3.3,1.8-4.9,2.6  c-0.1,0-0.1,0.1-0.2,0.1c-0.8,0.4-1.6,0.8-2.4,1.1c-0.1,0-0.2,0.1-0.3,0.1c-0.8,0.4-1.6,0.7-2.4,1c-0.1,0-0.2,0.1-0.4,0.1  c-0.8,0.3-1.6,0.6-2.4,0.9c-0.1,0-0.2,0.1-0.4,0.1c-0.8,0.3-1.6,0.6-2.5,0.9c-0.1,0-0.2,0.1-0.3,0.1c-0.8,0.3-1.7,0.6-2.5,0.8  c-0.1,0-0.1,0-0.2,0.1c-1.8,0.5-3.6,1-5.4,1.5c-0.1,0-0.1,0-0.2,0.1c-0.9,0.2-1.7,0.4-2.6,0.6c-0.1,0-0.1,0-0.2,0  c0.5,1.4,0.9,2.8,1.5,4.2c1,2.7,2.3,5.4,3.6,8.1c0.2,0,0.5-0.1,0.7-0.1c0.2,0,0.4-0.1,0.6-0.1c0.3-0.1,0.7-0.1,1-0.2  c0.2,0,0.4-0.1,0.5-0.1c0.5-0.1,0.9-0.2,1.4-0.3C13.2,115,13.2,115,13.3,115z"/><path style="fill:#1BBAD9;" d="M148.4,114.6c0.6,0.1,1.2,0.1,1.8,0.2c0,0,0,0,0.1,0c1.8-3.7,3.4-7.5,4.6-11.4c0,0,0,0-0.1,0  c-0.5-0.1-1.1-0.2-1.6-0.3c-0.1,0-0.2,0-0.3-0.1c-0.5-0.1-1.1-0.2-1.6-0.3c-0.1,0-0.2,0-0.3-0.1c-0.5-0.1-1.1-0.2-1.6-0.4  c-0.1,0-0.2,0-0.2-0.1c-0.6-0.1-1.1-0.3-1.7-0.4c0,0-0.1,0-0.1,0c-0.6-0.1-1.1-0.3-1.7-0.4c0,0-0.1,0-0.1,0  c-0.6-0.1-1.1-0.3-1.7-0.5c-0.1,0-0.2,0-0.2-0.1c-0.5-0.2-1.1-0.3-1.6-0.5c-0.1,0-0.2-0.1-0.3-0.1c-0.5-0.2-1.1-0.3-1.6-0.5  c-0.1,0-0.2-0.1-0.3-0.1c-0.5-0.2-1.1-0.4-1.6-0.6c-0.1,0-0.1-0.1-0.2-0.1c-0.6-0.2-1.1-0.4-1.7-0.6c0,0,0,0-0.1,0  c-0.5-0.2-1.1-0.5-1.6-0.7c-0.1,0-0.1,0-0.2-0.1c-0.5-0.2-1-0.5-1.6-0.7c-0.1,0-0.2-0.1-0.2-0.1c-0.5-0.2-1-0.5-1.5-0.8  c-0.1,0-0.2-0.1-0.3-0.1c-0.5-0.3-1-0.5-1.5-0.8c-0.1,0-0.2-0.1-0.2-0.1c-0.5-0.3-1-0.6-1.5-0.9c-0.1,0-0.1-0.1-0.2-0.1  c-0.5-0.3-1-0.7-1.5-1c-2-1.4-3.8-2.9-5.5-4.6c-7.2-7.2-11.2-16.6-10.3-25.5v0c0.6-6.4,3.4-12,6.6-17.2c1.1-1.7,2.2-3.5,3.4-5.2  c2.5-3.8,4.9-7.4,6.7-11.3c0.2-0.5,0.4-0.9,0.6-1.4c0.1-0.2,0.1-0.3,0.2-0.5c0.1-0.3,0.2-0.6,0.4-0.9c0.1-0.2,0.1-0.4,0.2-0.6  c0.1-0.3,0.2-0.6,0.3-0.9c0.1-0.2,0.1-0.4,0.2-0.6c0.1-0.3,0.2-0.6,0.2-0.9c0.1-0.2,0.1-0.4,0.2-0.6c0.1-0.3,0.1-0.6,0.2-0.9  c0-0.2,0.1-0.4,0.1-0.6c0.1-0.3,0.1-0.7,0.2-1c0-0.2,0.1-0.3,0.1-0.5c0.1-0.5,0.2-1,0.2-1.5c-3-2.5-6.2-4.8-9.6-6.9  c0,0.1,0,0.1,0,0.2c0,0.1,0,0.2,0,0.3c0,0.3-0.1,0.6-0.1,0.8c0,0.1,0,0.1,0,0.2c-0.1,0.3-0.1,0.7-0.2,1c0,0.1,0,0.2-0.1,0.2  c-0.1,0.3-0.1,0.5-0.2,0.8c0,0.1,0,0.2-0.1,0.2c-0.1,0.3-0.2,0.6-0.3,0.9c0,0,0,0.1,0,0.1c-0.1,0.3-0.2,0.6-0.3,0.8  c0,0.1-0.1,0.2-0.1,0.2c-0.1,0.3-0.2,0.5-0.3,0.8c0,0,0,0.1,0,0.1c-0.1,0.3-0.2,0.6-0.3,0.9c0,0.1-0.1,0.1-0.1,0.2  c-0.1,0.2-0.2,0.4-0.3,0.7c0,0.1,0,0.1-0.1,0.2c-0.1,0.3-0.2,0.5-0.3,0.8c0,0,0,0.1-0.1,0.1c-0.1,0.2-0.2,0.4-0.3,0.6  c0,0.1-0.1,0.1-0.1,0.2c-0.1,0.2-0.2,0.5-0.3,0.7c-1.2,2.3-2.6,4.5-4,6.6c-0.8,1.3-1.7,2.5-2.6,3.7c-2,2.8-3.8,5.5-5.4,8.4  c-0.2,0.4-0.4,0.8-0.6,1.2c-3.5,6.8-5.3,14.6-5.4,22.3c0,4.1,0.4,8.2,1.4,12.2c0.2,0.9,0.5,1.8,0.7,2.6c0.3,0.9,0.6,1.7,0.9,2.6  c0.2,0.4,0.3,0.8,0.5,1.3c5.4,13.4,17.4,24.3,31.2,28.4c0.6,0.2,1.2,0.4,1.9,0.5c0.1,0,0.2,0,0.3,0.1c0.6,0.2,1.2,0.3,1.8,0.4  c0.1,0,0.2,0,0.3,0.1c0.6,0.1,1.2,0.2,1.8,0.4c0.1,0,0.2,0,0.3,0.1c0.6,0.1,1.2,0.2,1.9,0.3c0,0,0.1,0,0.1,0  c0.6,0.1,1.2,0.2,1.9,0.3c0.1,0,0.1,0,0.2,0c0.6,0.1,1.2,0.2,1.9,0.2c0.1,0,0.2,0,0.3,0c0.6,0.1,1.2,0.1,1.8,0.2  C148.2,114.6,148.3,114.6,148.4,114.6z"/><path style="fill:#1BBAD9;" d="M2,65.4c-0.3,0.1-0.5,0.2-0.8,0.3C0.4,70,0,74.4,0,78.8c0.6-0.2,1.3-0.5,1.9-0.7  c0.2-0.1,0.4-0.2,0.6-0.2c0.4-0.2,0.9-0.3,1.3-0.5c0.3-0.1,0.5-0.2,0.8-0.3c0.4-0.2,0.8-0.3,1.2-0.5c0.3-0.1,0.5-0.2,0.8-0.3  c0.4-0.2,0.8-0.3,1.1-0.5c0.3-0.1,0.5-0.2,0.8-0.3c0.4-0.2,0.8-0.3,1.2-0.5c0.3-0.1,0.5-0.2,0.8-0.3c0.4-0.2,0.8-0.4,1.2-0.5  c0.2-0.1,0.4-0.2,0.6-0.3c0.6-0.3,1.2-0.5,1.7-0.8c0.1,0,0.1-0.1,0.2-0.1c0.6-0.3,1.2-0.6,1.8-0.8c0.2-0.1,0.4-0.2,0.7-0.3  c0.4-0.2,0.8-0.4,1.2-0.6c0.3-0.1,0.5-0.2,0.8-0.4c0.4-0.2,0.7-0.4,1.1-0.5c0.3-0.1,0.5-0.2,0.8-0.4c0.4-0.2,0.7-0.4,1.1-0.5  c0.3-0.1,0.5-0.2,0.8-0.4c0.4-0.2,0.7-0.4,1.1-0.5c0.2-0.1,0.5-0.2,0.7-0.3c0.4-0.2,0.8-0.4,1.2-0.6c0.2-0.1,0.4-0.2,0.6-0.3  c0.6-0.3,1.2-0.6,1.8-0.9c0.5-0.3,1-0.5,1.5-0.8c10.3-5.2,17.9-9.5,23.9-13.2c6.4-4,12.6-8.5,18.2-13.6c0.4-0.4,0.8-0.7,1.2-1.1  c0.1-0.1,0.3-0.2,0.4-0.4c0.3-0.2,0.5-0.5,0.8-0.7c0.1-0.1,0.3-0.3,0.4-0.4c0.2-0.2,0.5-0.4,0.7-0.7c0.2-0.2,0.3-0.3,0.5-0.5  c0.2-0.2,0.4-0.4,0.6-0.6c0.2-0.2,0.3-0.3,0.5-0.5c0.2-0.2,0.4-0.4,0.6-0.6c0.2-0.2,0.3-0.3,0.5-0.5c0.2-0.2,0.4-0.4,0.6-0.6  c0.2-0.2,0.3-0.3,0.5-0.5c0.2-0.2,0.4-0.4,0.6-0.6c0.1-0.2,0.3-0.3,0.4-0.5c0.2-0.2,0.4-0.4,0.5-0.6c0.1-0.2,0.3-0.3,0.4-0.5  c0.2-0.2,0.4-0.4,0.5-0.7c0.1-0.2,0.3-0.3,0.4-0.5c0.2-0.2,0.4-0.4,0.5-0.7c0.1-0.2,0.3-0.3,0.4-0.5c0.2-0.2,0.4-0.5,0.5-0.7  c0.1-0.2,0.2-0.3,0.4-0.5c0.2-0.3,0.4-0.5,0.6-0.8c0.1-0.1,0.2-0.3,0.3-0.4c0.3-0.4,0.5-0.7,0.8-1.1c0,0,0-0.1,0.1-0.1  c0.3-0.4,0.5-0.8,0.8-1.2c0.1-0.1,0.2-0.3,0.3-0.4c0.2-0.3,0.3-0.5,0.5-0.8c0.1-0.2,0.2-0.3,0.3-0.5c0.1-0.2,0.3-0.5,0.4-0.7  c0.1-0.2,0.2-0.4,0.3-0.5c0.1-0.2,0.3-0.5,0.4-0.7c0.1-0.2,0.2-0.4,0.3-0.6c0.1-0.2,0.3-0.5,0.4-0.7c0.1-0.2,0.2-0.4,0.3-0.6  c0.1-0.2,0.2-0.5,0.4-0.7c0.1-0.2,0.2-0.4,0.3-0.6c0.1-0.2,0.2-0.5,0.3-0.7c0.1-0.2,0.2-0.4,0.3-0.6c0.1-0.2,0.2-0.5,0.3-0.7  c0.1-0.2,0.2-0.4,0.3-0.6c0.1-0.2,0.2-0.5,0.3-0.7c0.1-0.2,0.2-0.4,0.3-0.6c0.1-0.2,0.2-0.5,0.3-0.7c0.1-0.2,0.2-0.4,0.2-0.6  c0.1-0.2,0.2-0.5,0.3-0.7c0.1-0.2,0.1-0.4,0.2-0.6c0.1-0.3,0.2-0.5,0.3-0.8C92.9,8.1,93,7.9,93,7.7c0.1-0.3,0.2-0.7,0.3-1  c0-0.1,0.1-0.3,0.1-0.4c0.1-0.4,0.3-0.8,0.4-1.2C93.9,5,94,4.9,94,4.7c0.1-0.3,0.2-0.5,0.2-0.8c0.1-0.2,0.1-0.4,0.2-0.6  c0.1-0.2,0.1-0.5,0.2-0.7c0.1-0.2,0.1-0.4,0.1-0.6c0-0.2,0.1-0.3,0.1-0.5c-3.5-0.7-7.1-1.2-10.7-1.4c0,0.1-0.1,0.2-0.1,0.2  c-0.1,0.2-0.2,0.5-0.2,0.7c-0.1,0.3-0.2,0.5-0.3,0.7c-0.1,0.2-0.2,0.5-0.2,0.7c-0.1,0.3-0.2,0.5-0.3,0.8c-0.1,0.2-0.2,0.4-0.3,0.7  c-0.1,0.3-0.2,0.5-0.3,0.8c-0.1,0.2-0.2,0.4-0.3,0.7c-0.1,0.3-0.2,0.5-0.3,0.8c-0.1,0.2-0.2,0.4-0.3,0.7c-0.1,0.3-0.2,0.5-0.3,0.8  c-0.1,0.2-0.2,0.4-0.3,0.6c-0.1,0.3-0.2,0.5-0.4,0.8c-0.1,0.2-0.2,0.4-0.3,0.6c-0.1,0.3-0.3,0.5-0.4,0.8c-0.1,0.2-0.2,0.4-0.3,0.6  c-0.1,0.3-0.3,0.5-0.4,0.8c-0.1,0.2-0.2,0.4-0.3,0.6c-0.1,0.3-0.3,0.5-0.5,0.8c-0.1,0.2-0.2,0.4-0.3,0.6c-0.2,0.3-0.3,0.6-0.5,0.9  c-0.1,0.2-0.2,0.3-0.3,0.5c-0.2,0.3-0.4,0.7-0.6,1c-0.1,0.1-0.2,0.2-0.2,0.4c-0.3,0.5-0.6,0.9-0.9,1.3c0,0,0,0,0,0.1  c-0.3,0.4-0.6,0.8-0.9,1.3c-0.1,0.1-0.2,0.3-0.3,0.4c-0.2,0.3-0.4,0.6-0.6,0.9c-0.1,0.2-0.2,0.3-0.4,0.5c-0.2,0.3-0.4,0.5-0.6,0.8  c-0.1,0.2-0.3,0.4-0.4,0.5c-0.2,0.3-0.4,0.5-0.6,0.8c-0.1,0.2-0.3,0.4-0.4,0.6c-0.2,0.2-0.4,0.5-0.6,0.7c-0.2,0.2-0.3,0.4-0.5,0.6  c-0.2,0.2-0.4,0.5-0.6,0.7c-0.2,0.2-0.3,0.4-0.5,0.6c-0.2,0.2-0.4,0.5-0.6,0.7c-0.2,0.2-0.3,0.4-0.5,0.6c-0.2,0.2-0.4,0.5-0.6,0.7  c-0.2,0.2-0.3,0.4-0.5,0.6c-0.2,0.2-0.4,0.4-0.6,0.7c-0.2,0.2-0.4,0.4-0.5,0.6c-0.2,0.2-0.4,0.4-0.6,0.7c-0.2,0.2-0.4,0.4-0.5,0.5  c-0.2,0.2-0.4,0.4-0.6,0.6c-0.2,0.2-0.4,0.4-0.6,0.5c-0.2,0.2-0.4,0.4-0.7,0.6c-0.2,0.2-0.4,0.4-0.6,0.5c-0.2,0.2-0.5,0.4-0.7,0.6  c-0.2,0.2-0.4,0.3-0.6,0.5c-0.2,0.2-0.5,0.4-0.7,0.6c-0.2,0.2-0.4,0.3-0.6,0.5c-0.2,0.2-0.5,0.4-0.7,0.6c-0.2,0.2-0.4,0.3-0.6,0.5  c-0.3,0.2-0.5,0.4-0.8,0.7c-0.2,0.1-0.4,0.3-0.5,0.4c-0.3,0.2-0.6,0.5-0.9,0.7c-0.2,0.1-0.3,0.2-0.5,0.4c-0.5,0.4-0.9,0.7-1.4,1.1v0  c-0.1,0.1-0.3,0.2-0.4,0.3c-0.4,0.3-0.8,0.6-1.2,0.9c-0.2,0.2-0.4,0.3-0.7,0.5c-0.3,0.2-0.6,0.5-0.9,0.7c-0.2,0.2-0.5,0.3-0.7,0.5  c-0.3,0.2-0.6,0.4-0.9,0.6c-0.3,0.2-0.5,0.3-0.8,0.5c-0.3,0.2-0.6,0.4-0.9,0.6c-0.3,0.2-0.5,0.3-0.8,0.5c-0.3,0.2-0.6,0.4-0.9,0.6  c-0.3,0.2-0.5,0.3-0.8,0.5c-0.3,0.2-0.6,0.4-0.9,0.5c-0.3,0.2-0.5,0.3-0.8,0.5c-0.3,0.2-0.6,0.4-0.9,0.5c-0.3,0.2-0.5,0.3-0.8,0.5  c-0.3,0.2-0.6,0.3-0.9,0.5c-0.3,0.2-0.5,0.3-0.8,0.5c-0.3,0.2-0.6,0.3-0.9,0.5c-0.3,0.1-0.5,0.3-0.8,0.4c-0.3,0.2-0.6,0.3-0.9,0.5  c-0.3,0.1-0.5,0.3-0.8,0.4c-0.3,0.2-0.6,0.3-0.9,0.5c-0.3,0.1-0.5,0.3-0.8,0.4c-0.3,0.2-0.6,0.3-0.9,0.5c-0.3,0.1-0.5,0.3-0.8,0.4  c-0.3,0.2-0.6,0.3-0.9,0.4c-0.3,0.1-0.5,0.3-0.8,0.4c-0.3,0.1-0.6,0.3-0.9,0.4c-0.3,0.1-0.5,0.3-0.8,0.4c-0.3,0.1-0.6,0.3-0.9,0.4  c-0.3,0.1-0.5,0.3-0.8,0.4c-0.3,0.1-0.6,0.3-0.9,0.4c-0.3,0.1-0.5,0.2-0.8,0.4c-0.3,0.1-0.6,0.3-0.9,0.4c-0.3,0.1-0.5,0.2-0.8,0.4  c-0.3,0.1-0.6,0.3-0.9,0.4c-0.3,0.1-0.5,0.2-0.8,0.3c-0.3,0.1-0.6,0.3-0.9,0.4c-0.3,0.1-0.5,0.2-0.8,0.3c-0.3,0.1-0.6,0.3-0.9,0.4  c-0.3,0.1-0.5,0.2-0.8,0.3c-0.3,0.1-0.6,0.3-0.9,0.4c-0.3,0.1-0.5,0.2-0.8,0.3c-0.3,0.1-0.6,0.2-0.9,0.4c-0.3,0.1-0.5,0.2-0.8,0.3  c-0.3,0.1-0.6,0.2-0.9,0.4c-0.3,0.1-0.5,0.2-0.8,0.3c-0.3,0.1-0.6,0.2-0.9,0.4c-0.3,0.1-0.5,0.2-0.8,0.3c-0.3,0.1-0.6,0.2-1,0.4  c-0.3,0.1-0.5,0.2-0.8,0.3c-0.3,0.1-0.6,0.2-0.9,0.3c-0.3,0.1-0.5,0.2-0.8,0.3c-0.3,0.1-0.7,0.2-1,0.4c-0.2,0.1-0.5,0.2-0.7,0.3  c-0.4,0.1-0.7,0.3-1.1,0.4C6.5,63.9,6.3,64,6.1,64c-0.5,0.2-1,0.3-1.4,0.5c-0.3,0.1-0.6,0.2-0.9,0.3c-0.3,0.1-0.6,0.2-1,0.3  C2.5,65.3,2.2,65.4,2,65.4z"/></svg>