<svg xmlns="http://www.w3.org/2000/svg" xmlns:xlink="http://www.w3.org/1999/xlink" version="1.1" id="Layer_1" x="0px" y="0px" viewBox="0 0 158.7 158.7" style="enable-background:new 0 0 158.7 158.7;" xml:space="preserve"><path style="fill:#EC1B2A;" d="M58.3,153.2c-0.4-0.9-0.7-1.8-1.1-2.7c-0.1-0.2-0.2-0.4-0.2-0.6c-0.3-0.9-0.7-1.8-1-2.7  c0-0.1-0.1-0.3-0.1-0.4c-0.3-0.9-0.6-1.7-0.8-2.6c-0.1-0.2-0.1-0.4-0.2-0.6c-0.3-0.9-0.6-1.9-0.8-2.9c-0.1-0.2-0.1-0.4-0.2-0.6  c-0.2-0.9-0.5-1.8-0.7-2.7c0-0.1-0.1-0.3-0.1-0.4c-0.2-1-0.5-2-0.7-3c0-0.2-0.1-0.5-0.1-0.7c-0.2-1-0.4-2.1-0.6-3.2l0,0  c0-0.2-0.1-0.5-0.1-0.7c-0.2-1.1-0.4-2.3-0.9-3.1c0,0,0,0,0,0c0,0,0,0,0,0c-0.2-0.3-0.3-0.6-0.6-0.8c-0.5-0.5-1.3-0.7-2.2-0.7  c-0.1,0-0.3,0-0.4,0c-0.2,0-0.3,0-0.5,0.1c-1.3,0.2-2.6,0.9-4.3,2.2c-1.9,1.4-3.7,3.2-5.5,5c-0.3,0.3-0.6,0.6-0.9,0.9  c-0.1,0.1-0.1,0.1-0.2,0.2c-0.3,0.3-0.6,0.6-1,0.9c-0.1,0.1-0.1,0.1-0.2,0.2c-0.3,0.3-0.7,0.6-1,0.9c0,0-0.1,0.1-0.1,0.1  c-0.3,0.3-0.7,0.6-1,0.9c0,0-0.1,0-0.1,0.1c-0.3,0.3-0.7,0.6-1.1,0.9c-0.1,0-0.1,0.1-0.2,0.1c-0.4,0.3-0.7,0.5-1.1,0.8  c-0.1,0-0.1,0.1-0.2,0.1c-0.4,0.3-0.8,0.5-1.2,0.8c0,0,0,0-0.1,0c-0.4,0.2-0.8,0.5-1.2,0.7c0,0-0.1,0-0.1,0.1  c9.2,7.8,20,13.4,31.7,16.4c0-0.1-0.1-0.2-0.1-0.3C59,155,58.6,154.1,58.3,153.2C58.3,153.2,58.3,153.2,58.3,153.2z"/><path style="fill:#EC1B2A;" d="M146.7,120.9c-0.5-0.1-1-0.1-1.5-0.2c-0.2,0-0.3,0-0.5-0.1c-0.6-0.1-1.1-0.1-1.7-0.2c0,0-0.1,0-0.1,0  c-0.5-0.1-1.1-0.1-1.6-0.2c-0.1,0-0.3,0-0.4-0.1c-0.6-0.1-1.1-0.2-1.7-0.3c0,0,0,0-0.1,0c-0.5-0.1-1.1-0.2-1.6-0.3  c-0.1,0-0.3-0.1-0.4-0.1c-0.6-0.1-1.1-0.2-1.7-0.4c0,0,0,0,0,0c-0.6-0.1-1.1-0.3-1.6-0.4c-0.1,0-0.3-0.1-0.4-0.1  c-0.6-0.1-1.1-0.3-1.7-0.5c-15.9-4.8-29.1-16.8-35.3-32.2c-6.2-15.4-5.2-33.2,2.9-47.7c1.7-3.1,3.8-6.1,5.8-8.9  c2.3-3.3,4.4-6.3,6.1-9.6v0c0.1-0.3,0.3-0.5,0.4-0.8c0-0.1,0.1-0.2,0.1-0.2c0.1-0.2,0.2-0.4,0.3-0.6c0-0.1,0.1-0.2,0.1-0.3  c0.1-0.2,0.1-0.3,0.2-0.5c0-0.1,0.1-0.2,0.1-0.3c0.1-0.2,0.1-0.3,0.2-0.5c0-0.1,0.1-0.2,0.1-0.3c0.1-0.2,0.1-0.4,0.2-0.5  c0-0.1,0.1-0.2,0.1-0.3c0.1-0.2,0.2-0.5,0.2-0.7c0,0,0-0.1,0-0.1c0.1-0.3,0.2-0.5,0.2-0.8c0-0.1,0-0.2,0.1-0.3  c0-0.2,0.1-0.4,0.1-0.5c0-0.1,0-0.2,0.1-0.3c0-0.2,0.1-0.3,0.1-0.5c0-0.1,0-0.2,0.1-0.3c0-0.2,0.1-0.3,0.1-0.5c0-0.1,0-0.2,0.1-0.3  c0-0.2,0-0.3,0.1-0.5c0-0.1,0-0.2,0-0.3c0-0.2,0-0.4,0.1-0.6c0-0.1,0-0.1,0-0.2c0-0.2,0-0.5,0-0.7c0-0.1,0-0.2,0-0.2  c0-0.1,0-0.3,0-0.4c-4.2-2.1-8.7-3.8-13.2-5.1c0,0.2-0.1,0.4-0.1,0.6c0,0.2-0.1,0.4-0.1,0.6c-0.1,0.3-0.2,0.6-0.2,0.8  c-0.1,0.2-0.1,0.4-0.2,0.6c-0.1,0.3-0.2,0.6-0.3,0.9c-0.1,0.2-0.1,0.3-0.2,0.5c-0.1,0.3-0.2,0.7-0.3,1c0,0.1-0.1,0.2-0.1,0.4  c-0.2,0.5-0.3,0.9-0.5,1.4c0,0.1-0.1,0.2-0.1,0.3c-0.1,0.4-0.3,0.7-0.4,1.1c-0.1,0.2-0.1,0.3-0.2,0.5c-0.1,0.3-0.2,0.6-0.3,0.9  c-0.1,0.2-0.2,0.4-0.2,0.6c-0.1,0.3-0.2,0.5-0.3,0.8c-0.1,0.2-0.2,0.4-0.3,0.6c-0.1,0.3-0.2,0.5-0.4,0.8c-0.1,0.2-0.2,0.4-0.3,0.6  c-0.1,0.3-0.2,0.5-0.4,0.8c-0.1,0.2-0.2,0.4-0.3,0.6c-0.1,0.3-0.2,0.5-0.4,0.8c-0.1,0.2-0.2,0.4-0.3,0.6c-0.1,0.2-0.3,0.5-0.4,0.7  c-0.1,0.2-0.2,0.4-0.3,0.6c-0.1,0.2-0.3,0.5-0.4,0.7c-0.1,0.2-0.2,0.4-0.3,0.6c-0.1,0.3-0.3,0.5-0.4,0.7c-0.1,0.2-0.2,0.4-0.4,0.6  c-0.2,0.3-0.3,0.5-0.5,0.8c-0.1,0.2-0.2,0.4-0.4,0.6c-0.2,0.3-0.3,0.5-0.5,0.8c-0.1,0.2-0.2,0.4-0.3,0.5c-0.2,0.3-0.4,0.6-0.6,1  c-0.1,0.1-0.2,0.2-0.2,0.4c-0.3,0.4-0.6,0.9-0.9,1.3c-0.1,0.1-0.2,0.3-0.3,0.4c-0.2,0.3-0.4,0.6-0.6,0.9c-0.1,0.2-0.3,0.4-0.4,0.5  c-0.2,0.3-0.4,0.5-0.6,0.8c-0.1,0.2-0.3,0.4-0.4,0.6c-0.2,0.2-0.4,0.5-0.6,0.7c-0.2,0.2-0.3,0.4-0.5,0.6c-0.2,0.2-0.4,0.5-0.6,0.7  c-0.2,0.2-0.3,0.4-0.5,0.6c-0.2,0.2-0.4,0.5-0.6,0.7c-0.2,0.2-0.3,0.4-0.5,0.6c-0.2,0.2-0.4,0.5-0.6,0.7c-0.2,0.2-0.3,0.4-0.5,0.6  c-0.2,0.2-0.4,0.5-0.6,0.7c-0.2,0.2-0.3,0.4-0.5,0.6c-0.2,0.2-0.4,0.5-0.6,0.7c-0.2,0.2-0.3,0.4-0.5,0.5c-0.2,0.2-0.4,0.5-0.7,0.7  c-0.2,0.2-0.3,0.3-0.5,0.5c-0.2,0.2-0.5,0.5-0.7,0.7c-0.2,0.2-0.3,0.3-0.5,0.5c-0.3,0.3-0.5,0.5-0.8,0.8c-0.1,0.1-0.3,0.3-0.4,0.4  c-0.4,0.4-0.8,0.8-1.3,1.2c-0.9,0.8-1.7,1.5-2.6,2.3C60,57.1,44.4,65.3,30.7,72.1c-0.6,0.3-1.3,0.6-1.9,0.9  c-0.2,0.1-0.3,0.2-0.5,0.3c-0.5,0.2-0.9,0.5-1.4,0.7c-0.2,0.1-0.5,0.2-0.7,0.3c-0.4,0.2-0.8,0.4-1.2,0.6c-0.3,0.1-0.5,0.2-0.8,0.4  c-0.4,0.2-0.8,0.4-1.2,0.6c-0.3,0.1-0.5,0.3-0.8,0.4c-0.4,0.2-0.8,0.4-1.2,0.6c-0.3,0.1-0.5,0.3-0.8,0.4c-0.4,0.2-0.8,0.4-1.1,0.5  c-0.3,0.1-0.6,0.3-0.8,0.4c-0.4,0.2-0.8,0.4-1.1,0.5c-0.3,0.1-0.6,0.3-0.8,0.4c-0.4,0.2-0.8,0.3-1.1,0.5c-0.3,0.1-0.6,0.3-0.9,0.4  c-0.4,0.2-0.8,0.3-1.2,0.5c-0.3,0.1-0.6,0.2-0.8,0.4c-0.4,0.2-0.8,0.3-1.2,0.5c-0.3,0.1-0.6,0.2-0.8,0.4c-0.4,0.2-0.8,0.3-1.2,0.5  c-0.3,0.1-0.5,0.2-0.8,0.3C7.9,82.7,7.4,82.8,7,83c-0.2,0.1-0.5,0.2-0.7,0.3c-0.5,0.2-1,0.4-1.6,0.6C4.5,84,4.4,84,4.2,84.1  c-0.7,0.3-1.4,0.5-2.1,0.8C2,84.9,1.8,85,1.6,85.1c-0.5,0.2-0.9,0.3-1.4,0.5c0.3,3.9,0.9,7.9,1.8,11.7c0,0,0,0,0,0  c0.9-0.2,1.7-0.4,2.6-0.6c0.1,0,0.1,0,0.2-0.1c0.8-0.2,1.6-0.4,2.4-0.6C7.4,96,7.5,96,7.6,96c0.8-0.2,1.6-0.4,2.3-0.7  c0.1,0,0.3-0.1,0.4-0.1c0.8-0.2,1.5-0.5,2.3-0.7c0.1,0,0.3-0.1,0.4-0.1c0.8-0.3,1.5-0.5,2.3-0.8c0.1,0,0.2-0.1,0.4-0.1  c0.8-0.3,1.5-0.6,2.3-0.9c0.1,0,0.2-0.1,0.3-0.1c0.8-0.3,1.5-0.6,2.3-1c0.1,0,0.1-0.1,0.2-0.1c0.8-0.3,1.6-0.7,2.3-1.1c0,0,0,0,0,0  c0.8-0.4,1.5-0.8,2.3-1.2c0.1,0,0.1-0.1,0.2-0.1c0.7-0.4,1.5-0.8,2.2-1.2c0.1-0.1,0.2-0.1,0.3-0.2c0.7-0.4,1.4-0.8,2.1-1.2  c0.1-0.1,0.2-0.1,0.3-0.2c0.7-0.4,1.4-0.8,2-1.3c0.1-0.1,0.2-0.1,0.3-0.2c0.7-0.4,1.3-0.9,2-1.3c0.1-0.1,0.2-0.1,0.3-0.2  c0.7-0.5,1.3-0.9,2-1.4c0.1-0.1,0.2-0.1,0.3-0.2c0.7-0.5,1.3-1,2-1.5c0.1,0,0.1-0.1,0.2-0.1c0.7-0.5,1.4-1.1,2-1.7  c1-0.8,2-1.7,3-2.6c1.2-1.1,2.4-2.1,3.7-3.2c2.1-1.7,4.3-3.4,6.7-4.7c0.4-0.2,0.7-0.4,1.1-0.6c0.1,0,0.1-0.1,0.2-0.1  c0.4-0.2,0.7-0.3,1.1-0.5c0.1,0,0.1-0.1,0.2-0.1c0.3-0.2,0.7-0.3,1-0.4c0,0,0,0,0.1,0c0.4-0.1,0.7-0.3,1.1-0.4c0.1,0,0.1,0,0.2-0.1  c0.4-0.1,0.7-0.2,1.1-0.3c0,0,0.1,0,0.1,0c0.3-0.1,0.7-0.2,1-0.3c0,0,0.1,0,0.1,0c0.4-0.1,0.7-0.1,1.1-0.2c0.1,0,0.1,0,0.2,0  c0.4-0.1,0.7-0.1,1.1-0.1c0,0,0.1,0,0.1,0c0.3,0,0.7-0.1,1-0.1c0.1,0,0.1,0,0.2,0c0.3,0,0.6,0,0.8,0c0.1,0,0.1,0,0.2,0  c0.1,0,0.2,0,0.3,0c0.3,0,0.5,0,0.8,0c0.1,0,0.2,0,0.3,0c0.3,0,0.6,0.1,0.8,0.1c0.1,0,0.1,0,0.2,0c0.3,0,0.7,0.1,1,0.2  c0.1,0,0.2,0,0.2,0.1c0.3,0.1,0.5,0.1,0.8,0.2c0.1,0,0.2,0.1,0.3,0.1c0.2,0.1,0.5,0.1,0.7,0.2c0.1,0,0.2,0.1,0.3,0.1  c0.3,0.1,0.6,0.2,0.9,0.4c5.9,2.6,10.2,8.7,11.8,17c0.6,3.3,0.9,6.6,1.1,9.8c0.2,3,0.4,5.8,0.9,8.6c2.5,13.5,13.1,25.8,27.8,32.1  c0.7,0.3,1.4,0.6,2.1,0.9c0.2,0.1,0.5,0.2,0.7,0.3c0.5,0.2,1,0.4,1.4,0.5c0.3,0.1,0.6,0.2,0.9,0.3c0.4,0.1,0.9,0.3,1.3,0.4  c0.3,0.1,0.6,0.2,1,0.3c0.4,0.1,0.9,0.2,1.3,0.4c0.3,0.1,0.7,0.2,1,0.3c0.4,0.1,0.9,0.2,1.3,0.3c0.4,0.1,0.7,0.2,1.1,0.2  c0.4,0.1,0.9,0.2,1.3,0.3c0.4,0.1,0.7,0.1,1.1,0.2c0.4,0.1,0.9,0.2,1.4,0.2c0.4,0.1,0.7,0.1,1.1,0.2c0.2,0,0.4,0.1,0.6,0.1  c5.5-5,10.2-10.7,14.1-17.1C146.8,121,146.8,120.9,146.7,120.9z"/><path style="fill:#EC1B2A;" d="M17.5,31.9c0.2-0.1,0.3-0.1,0.5-0.2c0.7-0.3,1.5-0.5,2.2-0.8c0.1,0,0.3-0.1,0.4-0.1  c0.7-0.3,1.3-0.5,2-0.8c0.1,0,0.2-0.1,0.3-0.1c0.7-0.3,1.4-0.6,2.1-0.9c0.2-0.1,0.3-0.1,0.5-0.2c0.7-0.3,1.4-0.6,2.1-1  c8.1-3.9,14.9-8.7,20.2-14.1c0.3-0.3,0.7-0.7,1-1c0.1-0.1,0.2-0.2,0.3-0.3c0.2-0.3,0.5-0.5,0.7-0.8c0.1-0.1,0.2-0.2,0.3-0.4  c0.2-0.3,0.5-0.5,0.7-0.8c0.1-0.1,0.2-0.2,0.2-0.3c0.3-0.4,0.6-0.7,0.9-1.1c0-0.1,0.1-0.1,0.1-0.2c0.2-0.3,0.5-0.6,0.7-0.9  c0.1-0.1,0.2-0.2,0.3-0.4c0.2-0.3,0.4-0.5,0.6-0.8c0.1-0.1,0.2-0.3,0.3-0.4c0.2-0.3,0.4-0.6,0.6-0.9c0-0.1,0.1-0.2,0.1-0.2  c0.2-0.4,0.5-0.8,0.7-1.2c0,0,0,0,0-0.1c-1.4,0.5-2.9,1-4.3,1.5c-14.4,5.5-26.9,15.1-35.9,27.5c0,0,0,0,0,0c0,0,0.1,0,0.1,0  C16.1,32.4,16.8,32.1,17.5,31.9z"/><path style="fill:#EC1B2A;" d="M153.5,51c-1.2-3.1-2.6-6.2-4.2-9.2c0,0.1-0.1,0.1-0.1,0.2c-0.2,0.4-0.4,0.9-0.6,1.3c0,0,0,0,0,0.1  c-1.3,2.9-3.1,5.5-4.8,8c-1.1,1.6-2.1,3.1-3,4.7c-2.6,4.4-3.5,8.3-2.6,11.5c0.6,2.5,2.5,4.9,5.1,6.8c2.3,1.6,5.1,2.7,9.1,3.8  c0,0,0,0,0,0c0.7,0.2,1.4,0.4,2.1,0.5c0.2,0,0.3,0.1,0.5,0.1c0.7,0.2,1.4,0.3,2.1,0.5c0.1,0,0.2,0,0.3,0c0.4,0.1,0.8,0.1,1.2,0.2  C158.7,69.8,157,60.2,153.5,51z"/></svg>