<svg xmlns="http://www.w3.org/2000/svg" xmlns:xlink="http://www.w3.org/1999/xlink" version="1.1" id="Layer_1" x="0px" y="0px" viewBox="0 0 158.7 158.7" style="enable-background:new 0 0 158.7 158.7;" xml:space="preserve"><path style="fill:#FFAA30;" d="M59.8,137.1c0.1,0.3,0.2,0.7,0.3,1c0.1,0.3,0.2,0.6,0.2,0.9c0.1,0.3,0.2,0.7,0.3,1  c0.1,0.3,0.2,0.6,0.3,0.9c0.1,0.3,0.2,0.7,0.3,1c0.1,0.3,0.2,0.6,0.3,0.9c0.1,0.3,0.2,0.6,0.3,0.9c0.1,0.3,0.2,0.6,0.3,0.9  c0.1,0.3,0.2,0.6,0.3,0.9c0.1,0.3,0.2,0.6,0.3,0.9c0.1,0.3,0.2,0.6,0.3,0.9c0.1,0.3,0.2,0.6,0.3,0.9c0.1,0.3,0.2,0.6,0.3,0.8  c0.1,0.3,0.2,0.6,0.4,0.9c0.1,0.3,0.2,0.5,0.3,0.8c0.1,0.3,0.3,0.6,0.4,0.9c0.1,0.3,0.2,0.5,0.3,0.8c0.1,0.3,0.3,0.6,0.4,0.9  c0.1,0.3,0.2,0.5,0.3,0.8c0.1,0.3,0.3,0.6,0.4,0.9c0.1,0.2,0.2,0.5,0.3,0.7c0.2,0.3,0.3,0.6,0.5,0.9c0.1,0.2,0.2,0.5,0.3,0.7  c0,0,0,0.1,0.1,0.1c7.6,1.2,15.2,1.2,22.7,0.2c0,0,0,0,0,0c-0.4-0.2-0.9-0.4-1.3-0.7c-3.3-1.7-7.5-3.9-11.2-7.1  c-0.5-0.5-1-0.9-1.6-1.4c-6.1-5.9-10.1-14.4-12-25.1c-1.1-6.1-1.4-12.2-1.7-18.2c-0.1-2.7-0.3-5.6-0.5-8.3c-0.1-1.5-0.3-3-0.9-3.8  c-1.1-1.3-4-0.7-6.2,0.4c-4.7,2.4-8.5,6.3-12.5,10.4c-2.4,2.5-4.9,5.1-7.7,7.4c-0.4,0.4-0.9,0.7-1.3,1.1c-0.1,0.1-0.3,0.2-0.4,0.3  c-0.3,0.2-0.6,0.5-0.9,0.7c-0.2,0.1-0.3,0.2-0.5,0.4c-0.3,0.2-0.6,0.4-0.9,0.6c-0.2,0.1-0.4,0.2-0.5,0.3c-0.3,0.2-0.7,0.4-1,0.6  c-0.2,0.1-0.3,0.2-0.5,0.3c-0.5,0.3-1,0.6-1.5,0.8c0,0,0,0,0,0c-0.5,0.3-1,0.5-1.5,0.8c-0.2,0.1-0.3,0.2-0.5,0.2  c-0.4,0.2-0.7,0.3-1.1,0.5c-0.2,0.1-0.4,0.2-0.6,0.3c-0.3,0.1-0.7,0.3-1,0.4c-0.2,0.1-0.4,0.2-0.6,0.2c-0.4,0.1-0.7,0.3-1.1,0.4  c-0.2,0.1-0.3,0.1-0.5,0.2c-0.5,0.2-1.1,0.4-1.7,0.5c0,0,0,0,0,0c-0.5,0.2-1.1,0.3-1.6,0.5c-0.2,0-0.4,0.1-0.5,0.1  c-0.4,0.1-0.8,0.2-1.2,0.3c-0.2,0-0.4,0.1-0.6,0.1c-0.4,0.1-0.8,0.2-1.1,0.2c-0.2,0-0.4,0.1-0.6,0.1c-0.1,0-0.2,0-0.4,0.1  c3,4.8,6.5,9.2,10.5,13.2c0,0,0.1,0,0.1,0c0.2-0.1,0.5-0.2,0.7-0.3c3.5-1.5,6.3-4.3,9.3-7.2c1.9-1.9,3.9-3.9,6.2-5.6  c2.5-1.9,4.7-2.9,7-3.4c0.8-0.2,1.6-0.2,2.4-0.2c2.4,0.1,4.6,1,6.3,2.5c2,1.9,2.7,4.4,3.2,6.7c0.1,0.5,0.2,1,0.3,1.5  c0,0.2,0.1,0.3,0.1,0.5c0.1,0.5,0.2,1,0.3,1.6c0.1,0.3,0.1,0.7,0.2,1c0.1,0.3,0.1,0.7,0.2,1c0.1,0.4,0.2,0.7,0.2,1.1  c0.1,0.3,0.1,0.6,0.2,0.9c0.1,0.4,0.2,0.7,0.2,1.1C59.7,136.5,59.7,136.8,59.8,137.1z"/><path style="fill:#FFAA30;" d="M12.5,40.3c-0.8,0.2-1.7,0.5-2.5,0.7c0,0,0,0-0.1,0c-3,5.5-5.4,11.3-7,17.3c0.2-0.1,0.3-0.1,0.5-0.2  c0.3-0.1,0.5-0.2,0.8-0.3c0.3-0.1,0.6-0.2,0.8-0.3c0.2-0.1,0.5-0.2,0.7-0.3C6,57.2,6.3,57.1,6.6,57c0.2-0.1,0.4-0.2,0.7-0.2  c0.5-0.2,1-0.4,1.6-0.6C9,56.1,9.2,56.1,9.4,56c0.3-0.1,0.7-0.3,1-0.4c0.2-0.1,0.5-0.2,0.7-0.3c0.3-0.1,0.6-0.2,0.9-0.3  c0.2-0.1,0.5-0.2,0.7-0.3c0.3-0.1,0.6-0.2,0.9-0.3c0.3-0.1,0.5-0.2,0.8-0.3c0.3-0.1,0.6-0.2,0.8-0.3c0.3-0.1,0.5-0.2,0.8-0.3  c0.3-0.1,0.6-0.2,0.8-0.3c0.3-0.1,0.5-0.2,0.8-0.3c0.3-0.1,0.6-0.2,0.9-0.4c0.3-0.1,0.5-0.2,0.8-0.3c0.3-0.1,0.6-0.2,0.9-0.4  c0.2-0.1,0.5-0.2,0.7-0.3c0.4-0.1,0.7-0.3,1.1-0.5c0.3-0.1,0.7-0.3,1-0.4c0.4-0.2,0.8-0.3,1.1-0.5c0.2-0.1,0.5-0.2,0.7-0.3  c0.3-0.1,0.6-0.3,0.9-0.4c0.3-0.1,0.5-0.2,0.8-0.4c0.3-0.1,0.6-0.3,0.8-0.4c0.3-0.1,0.5-0.2,0.8-0.4c0.3-0.1,0.6-0.3,0.8-0.4  c0.3-0.1,0.5-0.3,0.8-0.4c0.3-0.1,0.6-0.3,0.8-0.4c0.3-0.1,0.5-0.3,0.8-0.4c0.3-0.1,0.6-0.3,0.8-0.4c0.3-0.1,0.5-0.3,0.8-0.4  c0.3-0.1,0.6-0.3,0.9-0.5c0.2-0.1,0.5-0.3,0.7-0.4c0.3-0.2,0.6-0.3,1-0.5c0.2-0.1,0.4-0.2,0.6-0.3c0.5-0.3,1-0.6,1.5-0.9  c0.2-0.1,0.4-0.2,0.6-0.3c0.3-0.2,0.7-0.4,1-0.6c0.2-0.1,0.4-0.3,0.7-0.4c0.3-0.2,0.6-0.4,0.9-0.5c0.2-0.1,0.4-0.3,0.7-0.4  c0.3-0.2,0.6-0.4,0.9-0.5c0.2-0.1,0.5-0.3,0.7-0.4c0.3-0.2,0.6-0.4,0.9-0.6c0.2-0.1,0.4-0.3,0.7-0.4c0.3-0.2,0.6-0.4,0.9-0.6  c0.2-0.1,0.4-0.3,0.6-0.4c0.3-0.2,0.6-0.4,0.9-0.6c0.2-0.1,0.4-0.3,0.6-0.4c0.3-0.2,0.7-0.5,1-0.7c0.2-0.1,0.3-0.2,0.5-0.3  c0.5-0.4,1-0.7,1.5-1.1c0.4-0.3,0.8-0.6,1.3-1c0.1-0.1,0.2-0.2,0.4-0.3c0.3-0.2,0.6-0.5,0.9-0.7c0.2-0.1,0.3-0.2,0.5-0.4  c0.3-0.2,0.5-0.4,0.8-0.6c0.2-0.1,0.3-0.3,0.5-0.4c0.2-0.2,0.5-0.4,0.7-0.6c0.2-0.1,0.3-0.3,0.5-0.4c0.2-0.2,0.5-0.4,0.7-0.6  c0.2-0.1,0.3-0.3,0.5-0.4c0.2-0.2,0.4-0.4,0.7-0.6c0.2-0.1,0.3-0.3,0.5-0.4c0.2-0.2,0.4-0.4,0.7-0.6c0.2-0.1,0.3-0.3,0.5-0.4  c0.2-0.2,0.5-0.4,0.7-0.7c0.1-0.1,0.3-0.3,0.4-0.4c0.3-0.3,0.5-0.5,0.8-0.8c0.1-0.1,0.2-0.2,0.3-0.3c0.3-0.4,0.7-0.7,1-1.1  c0.1-0.1,0.2-0.2,0.3-0.3c0.2-0.3,0.5-0.5,0.7-0.8c0.1-0.1,0.3-0.3,0.4-0.4c0.2-0.2,0.4-0.5,0.6-0.7c0.1-0.2,0.3-0.3,0.4-0.5  c0.2-0.2,0.4-0.4,0.5-0.7c0.1-0.2,0.3-0.3,0.4-0.5c0.2-0.2,0.3-0.4,0.5-0.6c0.1-0.2,0.3-0.3,0.4-0.5c0.2-0.2,0.3-0.4,0.5-0.6  c0.1-0.2,0.3-0.4,0.4-0.5c0.2-0.2,0.3-0.4,0.5-0.7c0.1-0.2,0.3-0.3,0.4-0.5c0.2-0.2,0.3-0.5,0.5-0.7c0.1-0.2,0.2-0.3,0.4-0.5  c0.2-0.2,0.3-0.5,0.5-0.7c0.1-0.2,0.2-0.3,0.3-0.5c0.2-0.3,0.4-0.7,0.6-1c0-0.1,0.1-0.2,0.1-0.2c0.3-0.4,0.5-0.8,0.7-1.2  c0.1-0.1,0.2-0.3,0.3-0.4c0.2-0.3,0.3-0.5,0.5-0.8c0.1-0.2,0.2-0.3,0.3-0.5c0.1-0.2,0.3-0.5,0.4-0.7c0.1-0.2,0.2-0.4,0.3-0.5  c0.1-0.2,0.3-0.5,0.4-0.7c0.1-0.2,0.2-0.4,0.3-0.5c0.1-0.2,0.2-0.5,0.4-0.7c0.1-0.2,0.2-0.4,0.3-0.5c0.1-0.2,0.2-0.5,0.3-0.7  c0.1-0.2,0.2-0.4,0.3-0.5c0.1-0.2,0.2-0.5,0.3-0.8c0.1-0.2,0.2-0.3,0.2-0.5C76,3.5,76.1,3.3,76.2,3c0.1-0.2,0.1-0.3,0.2-0.5  c0.1-0.3,0.3-0.6,0.4-1c0-0.1,0.1-0.2,0.1-0.3c0.2-0.4,0.3-0.8,0.5-1.3c-4.6,0.1-9.3,0.6-13.8,1.6c-0.1,0.1-0.1,0.3-0.2,0.4  c-0.1,0.2-0.1,0.3-0.2,0.5C63,2.7,62.9,3,62.8,3.2c-0.1,0.2-0.1,0.3-0.2,0.5c-0.1,0.2-0.2,0.5-0.4,0.7c-0.1,0.1-0.1,0.3-0.2,0.4  c-0.2,0.3-0.4,0.7-0.5,1c0,0,0,0.1-0.1,0.1c-0.2,0.4-0.4,0.7-0.6,1.1c-0.1,0.1-0.1,0.2-0.2,0.4c-0.1,0.2-0.3,0.5-0.4,0.7  c-0.1,0.1-0.2,0.3-0.3,0.4c-0.1,0.2-0.3,0.4-0.4,0.7c-0.1,0.2-0.2,0.3-0.3,0.5c-0.1,0.2-0.3,0.4-0.4,0.6c-0.1,0.2-0.2,0.3-0.3,0.5  c-0.1,0.2-0.3,0.4-0.4,0.6c-0.1,0.2-0.2,0.3-0.3,0.5c-0.1,0.2-0.3,0.4-0.4,0.6c-0.1,0.2-0.2,0.3-0.4,0.5c-0.2,0.2-0.3,0.4-0.5,0.6  c-0.1,0.2-0.2,0.3-0.4,0.5c-0.2,0.2-0.3,0.4-0.5,0.6c-0.1,0.1-0.2,0.3-0.4,0.4c-0.2,0.2-0.3,0.4-0.5,0.6c-0.1,0.1-0.2,0.3-0.4,0.4  c-0.2,0.2-0.4,0.4-0.6,0.7c-0.1,0.1-0.2,0.2-0.3,0.3c-0.3,0.3-0.6,0.7-0.9,1c-5.8,6-13.2,11.2-22,15.4c-0.7,0.4-1.5,0.7-2.2,1  c-0.1,0-0.1,0-0.2,0.1c-0.7,0.3-1.5,0.6-2.2,1c-0.1,0-0.2,0.1-0.3,0.1c-0.7,0.3-1.5,0.6-2.2,0.9c-0.1,0-0.2,0.1-0.3,0.1  c-0.7,0.3-1.5,0.6-2.2,0.8c-0.1,0-0.2,0.1-0.4,0.1c-0.7,0.3-1.5,0.5-2.2,0.8c-0.1,0-0.2,0.1-0.4,0.1c-0.8,0.3-1.5,0.5-2.3,0.8  c-0.1,0-0.2,0.1-0.4,0.1c-0.8,0.2-1.6,0.5-2.4,0.7C12.7,40.2,12.6,40.2,12.5,40.3z"/><path style="fill:#FFAA30;" d="M155.6,97c0.3,0.1,0.7,0.1,1,0.2c0.8-3.6,1.4-7.3,1.8-11.1c-0.1,0-0.2,0-0.3,0  c-0.5-0.1-0.9-0.2-1.4-0.2c-0.1,0-0.3-0.1-0.4-0.1c-0.6-0.1-1.1-0.2-1.7-0.3c-0.1,0-0.2,0-0.3-0.1c-0.5-0.1-0.9-0.2-1.4-0.3  c-0.2,0-0.3-0.1-0.5-0.1c-0.5-0.1-1.1-0.3-1.6-0.4c0,0,0,0,0,0c-3.2-0.9-7.4-2.2-11.1-4.8c-4-2.7-6.7-6.5-7.7-10.5  c-1.2-4.9-0.1-10.4,3.3-16.3c1-1.8,2.1-3.4,3.2-5c1.6-2.4,3.1-4.7,4.3-7.1c0-0.1,0-0.1,0.1-0.2c0.1-0.2,0.2-0.4,0.3-0.6  c0-0.1,0.1-0.2,0.1-0.4c0.1-0.2,0.1-0.3,0.2-0.5c0-0.1,0.1-0.3,0.1-0.4c0.1-0.2,0.1-0.3,0.2-0.5c0-0.1,0.1-0.3,0.1-0.4  c0-0.2,0.1-0.3,0.1-0.5c0-0.1,0.1-0.3,0.1-0.4c0-0.2,0.1-0.3,0.1-0.5c0-0.1,0.1-0.2,0.1-0.4c0.1-0.3,0.1-0.6,0.2-0.9  c0-0.1,0-0.2,0-0.2c0-0.2,0.1-0.4,0.1-0.6c-2.6-3.8-5.6-7.4-8.9-10.8c-0.1,0.4-0.2,0.8-0.3,1.2c0,0.1,0,0.1-0.1,0.2  c-0.1,0.5-0.3,1-0.4,1.6c0,0.1,0,0.1,0,0.2c-0.2,0.5-0.3,1.1-0.5,1.6c0,0.1-0.1,0.2-0.1,0.3c-0.2,0.5-0.4,1-0.6,1.5  c0,0.1-0.1,0.2-0.1,0.3c-0.2,0.5-0.4,1-0.7,1.6c-2,4.3-4.6,8.3-7.2,12.1c-4.3,6.4-8.3,12.4-8.9,19.4c-0.1,0.5-0.1,1.1-0.1,1.6  c0,5.5,2.2,11.1,6.1,16c0.2,0.2,0.4,0.5,0.6,0.7c0.4,0.5,0.8,0.9,1.3,1.4c1.5,1.6,3.3,3.1,5.2,4.4c0.5,0.4,1,0.7,1.6,1  c0.2,0.1,0.4,0.2,0.5,0.3c0.4,0.2,0.7,0.4,1.1,0.6c0.2,0.1,0.4,0.2,0.6,0.4c0.3,0.2,0.7,0.4,1,0.5c0.2,0.1,0.5,0.2,0.7,0.3  c0.3,0.2,0.6,0.3,1,0.5c0.2,0.1,0.5,0.2,0.7,0.3c0.3,0.1,0.6,0.3,1,0.4c0.3,0.1,0.5,0.2,0.8,0.3c0.3,0.1,0.6,0.3,1,0.4  c0.3,0.1,0.5,0.2,0.8,0.3c0.3,0.1,0.7,0.2,1,0.4c0.3,0.1,0.5,0.2,0.8,0.3c0.3,0.1,0.7,0.2,1,0.3c0.3,0.1,0.5,0.2,0.8,0.2  c0.3,0.1,0.7,0.2,1,0.3c0.3,0.1,0.5,0.2,0.8,0.2c0.4,0.1,0.7,0.2,1.1,0.3c0.2,0.1,0.5,0.1,0.7,0.2c0.4,0.1,0.7,0.2,1.1,0.3  c0.2,0.1,0.5,0.1,0.7,0.2c0.4,0.1,0.8,0.2,1.3,0.3c0.2,0,0.4,0.1,0.5,0.1c0.6,0.1,1.2,0.3,1.8,0.4c0.1,0,0.1,0,0.2,0  c0.5,0.1,1.1,0.2,1.6,0.3C155.2,96.9,155.4,96.9,155.6,97z"/></svg>