<svg xmlns="http://www.w3.org/2000/svg" xmlns:xlink="http://www.w3.org/1999/xlink" version="1.1" id="Layer_1" x="0px" y="0px" xml:space="preserve" width="32in" height="18in"><g transform="translate(32.867846174305086 32.867846174305086) rotate(-45 79.35 79.35)"><path style="fill:none;stroke:red;stroke-width:0.0001px" d="M118.5,10.3c-2.7-1.5-5.4-2.9-8.3-4.1c-17,6.2-31.4,17.8-40.9,33.1c12.3,4.4,23.7,11.3,33.3,20.2  C112.6,45,118.1,27.9,118.5,10.3z"/><path style="fill:none;stroke:red;stroke-width:0.0001px" d="M118.5,10.3c-2.7-1.5-5.4-2.9-8.3-4.1c-17,6.2-31.4,17.8-40.9,33.1c12.3,4.4,23.7,11.3,33.3,20.2  C112.6,45,118.1,27.9,118.5,10.3z"/><path style="fill:none;stroke:red;stroke-width:0.0001px" d="M118.5,10.3c-2.7-1.5-5.4-2.9-8.3-4.1c-17,6.2-31.4,17.8-40.9,33.1c12.3,4.4,23.7,11.3,33.3,20.2  C112.6,45,118.1,27.9,118.5,10.3z"/><path style="fill:none;stroke:red;stroke-width:0.0001px" d="M118.5,10.3c-2.7-1.5-5.4-2.9-8.3-4.1c-17,6.2-31.4,17.8-40.9,33.1c12.3,4.4,23.7,11.3,33.3,20.2  C112.6,45,118.1,27.9,118.5,10.3z"/><path style="fill:none;stroke:red;stroke-width:0.0001px" d="M118.5,10.3c-2.7-1.5-5.4-2.9-8.3-4.1c-17,6.2-31.4,17.8-40.9,33.1c12.3,4.4,23.7,11.3,33.3,20.2  C112.6,45,118.1,27.9,118.5,10.3z"/></g></svg>