<svg xmlns="http://www.w3.org/2000/svg" xmlns:xlink="http://www.w3.org/1999/xlink" version="1.1" id="Layer_1" x="0px" y="0px" viewBox="0 0 158.7 158.7" style="enable-background:new 0 0 158.7 158.7;" xml:space="preserve"><path style="fill:#C27268;" d="M142.3,31c-3.5-4.6-7.5-8.7-11.9-12.4c-6.9,6.3-13.8,10.5-19.8,13.4C89.2,42.1,78,36.2,68.9,32.8  c-9-3.4-15.9-4.4-28.1,0C31,36.3,17.6,43.4,1.6,95.1c1.3,6.4,3.4,12.7,6.2,18.6c1-3.4,2-6.7,3.1-10.1c0.9-2.7,1.8-5.4,2.7-8  s1.9-5.2,3-7.8c1-2.5,2.1-5,3.2-7.4c1.1-2.3,2.2-4.6,3.4-6.9c0.4-0.7,0.8-1.5,1.2-2.2c0.9-1.6,1.8-3.2,2.8-4.8  c0.8-1.3,1.7-2.5,2.5-3.7c0.8-1.1,1.6-2.2,2.5-3.2c1-1.2,2-2.3,3.1-3.4c1.1-1.1,2.3-2.1,3.5-3.1c0.3-0.2,0.6-0.5,0.9-0.7  c0.5-0.3,0.9-0.7,1.4-1c0.9-0.6,1.9-1.2,2.9-1.7c0.5-0.3,1-0.5,1.5-0.7c0.3-0.1,0.5-0.2,0.8-0.3c0.2-0.1,0.5-0.2,0.7-0.3  c0.8-0.3,1.6-0.6,2.5-0.9c0.8-0.3,1.7-0.6,2.5-0.8c0.4-0.1,0.8-0.2,1.1-0.3s0.7-0.2,1-0.3c0.7-0.2,1.4-0.3,2.1-0.5  c0.8-0.2,1.7-0.3,2.5-0.4c1-0.1,2-0.2,3-0.3s2-0.1,3,0c1,0,2.1,0.1,3.1,0.3c1.1,0.1,2.1,0.3,3.2,0.6c0.8,0.2,1.6,0.4,2.4,0.6  c0.7,0.2,1.3,0.4,2,0.6c1.3,0.4,2.5,0.9,3.8,1.3c0.8,0.3,1.6,0.6,2.4,0.8c0.7,0.3,1.5,0.5,2.2,0.7c1.4,0.5,2.9,0.9,4.4,1.2  c0.7,0.2,1.5,0.3,2.2,0.4c0.4,0.1,0.9,0.1,1.3,0.2c0.5,0.1,0.9,0.1,1.4,0.2c0.9,0.1,1.8,0.2,2.7,0.2c0.9,0,1.8,0,2.7,0  c1.8-0.1,3.5-0.2,5.3-0.5c0.9-0.1,1.8-0.3,2.7-0.5c0.3-0.1,0.7-0.1,1-0.2c1-0.2,2-0.5,3-0.8s2-0.6,2.9-0.9c0.6-0.2,1.3-0.4,1.9-0.6  c0.8-0.3,1.5-0.6,2.3-0.8c1.5-0.6,3-1.2,4.4-1.9c0.7-0.3,1.4-0.7,2.1-1.1c0.2-0.1,0.4-0.2,0.6-0.3s0.3-0.2,0.5-0.3  c1.8-0.9,3.5-2,5.1-3.1s3.2-2.2,4.8-3.4c0.8-0.7,1.7-1.4,2.5-2.1c0.9-0.8,1.9-1.7,2.8-2.5C141,32.3,141.6,31.7,142.3,31z"/></svg>