<svg xmlns="http://www.w3.org/2000/svg" xmlns:xlink="http://www.w3.org/1999/xlink" version="1.1" id="Layer_1" x="0px" y="0px" viewBox="0 0 144 144" style="enable-background:new 0 0 144 144;" xml:space="preserve"><path style="fill:none;stroke:red;stroke-width:0.0001px" d="M112.9,77.9c2.1-0.3,3.9,2.1,3.9,3.6c0,2.1-1.8,3.8-4,3.8c-2.1,0-3.7-1.8-3.6-3.8  C109.2,79.5,110.7,77.7,112.9,77.9z"/><path style="fill:none;stroke:red;stroke-width:0.0001px" d="M83.9,66.2c0.1,1.5-1.4,3-2.9,3c-1.7,0-2.9-1.2-3-2.6c-0.2-1.6,1.3-3.1,2.7-3.2  C82.5,63.3,83.9,64.5,83.9,66.2z"/><path style="fill:none;stroke:red;stroke-width:0.0001px" d="M76.7,38.5c-0.2,1.8-1.4,2.8-3.3,2.9c-1.2,0-2.7-1.6-2.7-2.8c0-1.6,1.5-3,3.2-2.9  C75.5,35.8,76.7,36.9,76.7,38.5z"/><path style="fill:none;stroke:red;stroke-width:0.0001px" d="M43.6,82.4c-1.1,0-1.8-0.4-2.2-1.3c-0.4-0.8-0.1-1.5,0.3-2.2c0.2-0.3,0.5-0.4,0.7-0.6  c0.2-0.1,0.3-0.3-0.1-0.4c-0.3-0.1-0.6-0.2-0.9-0.4c-0.6-0.5-0.7-1.2-0.4-1.9c0.3-0.7,0.8-1.1,1.4-1.1c0.9,0,1.5,0.5,1.7,1.2  c0.2,0.7,0,1.4-0.6,1.9c-0.1,0.1-0.3,0.1-0.2,0.3c0.1,0.2,0.2,0.1,0.3,0.1c0.4,0.1,0.7,0.2,1,0.3c1.6,0.7,1.4,2.9,0.1,3.7  C44.4,82.2,44,82.5,43.6,82.4z"/><path style="fill:none;stroke:red;stroke-width:0.0001px" d="M91.6,81.4c0,1.6-1.3,2.9-2.9,3c-1.3,0.1-2.9-1.3-2.9-2.5c0-1.9,1.3-3.1,3-3.2  C90.2,78.7,91.7,80.1,91.6,81.4z"/><path style="fill:none;stroke:red;stroke-width:0.0001px" d="M55.2,48.3c-1.7-0.2-2.8-1.2-2.8-2.9c0-1.5,1.3-2.8,2.7-2.8c2,0,3,1.5,3,2.8  C58.1,46.9,56.7,48.3,55.2,48.3z"/><path style="fill:none;stroke:red;stroke-width:0.0001px" d="M81.5,88.5c0-0.2,0-0.3-0.1-0.4c-1.2-1.3-0.7-3.5,1-4.3c0.7-0.4,2.2-0.4,3,0.4c1,0.9,1.3,2.5,0.7,3.5  c-0.5,0.8-1.1,1.3-2,1.4c-0.3,0-0.6,0.1-0.9,0.2C82.5,88.9,82,88.7,81.5,88.5z"/><path style="fill:none;stroke:red;stroke-width:0.0001px" d="M52.8,67.6c0,1.5-1.4,2.9-3,2.8c-1.3,0-2.7-1.4-2.7-2.6c0-1.8,1.3-2.9,2.9-3  C51.6,64.7,52.9,66.3,52.8,67.6z"/><path style="fill:none;stroke:red;stroke-width:0.0001px" d="M28.4,55.3c-0.1-1.5,1.3-2.8,2.8-2.7c1.5,0.1,2.6,1,2.6,2.7c0,1.7-1.4,2.7-3,2.7  C29.6,58,28.4,56.6,28.4,55.3z"/><path style="fill:none;stroke:red;stroke-width:0.0001px" d="M87.6,102.1c2,0,2.6,0.9,2.9,2.6c0.2,1.3-1.3,2.7-2.6,2.6c-1.8,0-2.6-1-2.8-2.6  C84.9,103.4,86.1,102,87.6,102.1z"/><path style="fill:none;stroke:red;stroke-width:0.0001px" d="M51.8,38.9c0-1.7,1.3-2.9,2.9-2.9c1.2,0,2.5,1.1,2.5,2.9c0,1.2-1.3,2.7-2.8,2.6  C53,41.4,51.8,40.3,51.8,38.9z"/><path style="fill:none;stroke:red;stroke-width:0.0001px" d="M71.2,43c0.2,1.2-1.2,2.9-2.9,2.7c-1.2-0.1-2.5-1.3-2.4-2.8c0-1.3,1.2-2.6,2.8-2.6  C69.7,40.4,71.3,41.6,71.2,43z"/><path style="fill:none;stroke:red;stroke-width:0.0001px" d="M91.9,97.2c1.5,0,2.7,1.2,2.7,2.8c0,1.1-1.5,2.5-2.6,2.5c-1.9,0-2.8-1.1-2.8-2.8  C89.1,98.6,90.2,97.2,91.9,97.2z"/><path style="fill:none;stroke:red;stroke-width:0.0001px" d="M102.5,86c-0.1-1.4,0.9-2.7,2.1-2.8c1.5-0.1,3,1.1,3,2.5c0,1.7-0.9,2.6-2.4,2.9  C103.9,88.8,102.6,87.6,102.5,86z"/><path style="fill:none;stroke:red;stroke-width:0.0001px" d="M104.4,50.3c-0.1-1.5,1.3-2.7,2.5-2.7c1.5,0,2.7,1.2,2.8,2.7c0.1,1.4-1.5,2.7-2.6,2.7  C105.7,53,104.2,51.6,104.4,50.3z"/><path style="fill:none;stroke:red;stroke-width:0.0001px" d="M59.9,53.5c1.4,0,2.5,1.1,2.5,2.4c0,1.5-1.2,2.7-2.6,2.7c-1.6,0-2.7-1.4-2.6-3  C57.2,54.5,58.4,53.5,59.9,53.5z"/><path style="fill:none;stroke:red;stroke-width:0.0001px" d="M40.5,39.6c1.4,0,2.5,1.1,2.4,2.3c-0.1,1.7-1,2.6-2.7,2.7c-1.1,0.1-2.4-1.2-2.3-2.4  C38,40.7,38.8,39.5,40.5,39.6z"/><path style="fill:none;stroke:red;stroke-width:0.0001px" d="M75,83.3c-1.3,0.2-2.6-1-2.6-2.1c-0.1-1.7,0.9-2.5,2.4-2.7c1.3-0.2,2.4,1,2.5,2.4  C77.3,82.3,76.6,83.2,75,83.3z"/><path style="fill:none;stroke:red;stroke-width:0.0001px" d="M63.7,81.3c0-1.6,1.1-2.4,2.3-2.5c1.5,0,2.5,1,2.5,2.5c0,1.2-1.2,2.2-2.5,2.2  C64.8,83.5,63.7,82.5,63.7,81.3z"/><path style="fill:none;stroke:red;stroke-width:0.0001px" d="M99.4,90.9c-1.4,0-2.3-0.8-2.5-2.5c-0.1-1,1.3-2.2,2.5-2.2c1.2,0,2.2,1,2.3,2.1  C101.8,89.5,100.7,91.1,99.4,90.9z"/><path style="fill:none;stroke:red;stroke-width:0.0001px" d="M35,41.5c-1.4,0-2.2-1.1-2.3-2.4c0-1.1,1.2-2.2,2.4-2.2c1.2,0,2.4,1.2,2.4,2.3  C37.5,40.3,36.2,41.6,35,41.5z"/><path style="fill:none;stroke:red;stroke-width:0.0001px" d="M66.5,85.8c-0.1-1.3,1.2-2.3,2.3-2.3c1,0,2.4,1.1,2.2,2.6c-0.1,0.8-1,2-2.3,1.9  C67.5,88,66.4,87,66.5,85.8z"/><path style="fill:none;stroke:red;stroke-width:0.0001px" d="M98.7,103.6c1.5-0.2,2.3,0.9,2.4,1.9c0.1,1.1-1,2.3-2,2.4c-1.3,0.1-2.4-0.9-2.4-2.3  c0-0.5,0.1-1.1,0.7-1.5C97.9,103.8,98.2,103.4,98.7,103.6z"/><path style="fill:none;stroke:red;stroke-width:0.0001px" d="M43.2,100.5c-1.1,0.1-2.2-0.9-2.3-2c-0.1-1.1,0.9-2.3,1.9-2.4c1.3-0.1,2.4,0.8,2.5,2.2  C45.4,99.4,44.4,100.4,43.2,100.5z"/><path style="fill:none;stroke:red;stroke-width:0.0001px" d="M38.5,93.8c-0.8,0.1-1.6-0.6-1.7-1.5c-0.1-0.8,0.7-1.7,1.4-1.8c1-0.1,1.8,0.6,1.8,1.6  C40.1,93,39.4,93.7,38.5,93.8z"/><path style="fill:none;stroke:red;stroke-width:0.0001px" d="M97.8,53.7c-1.1,0-2.3-1.2-2.2-2.3c0.1-1.1,1.3-2.2,2.4-2.2c1.1,0.1,2.2,1.3,2.1,2.5  C100.1,52.6,98.7,53.8,97.8,53.7z"/><path style="fill:none;stroke:red;stroke-width:0.0001px" d="M46.5,86.4c-1.2,0.1-2.3-1.1-2.2-2.1c0.1-1.2,0.9-2.2,2-2.2c1.4,0.1,2.3,0.9,2.3,2.2  C48.6,85.5,47.7,86.4,46.5,86.4z"/><path style="fill:none;stroke:red;stroke-width:0.0001px" d="M51,64.2c-1.3-0.1-2-0.9-2-2c0-1.2,1-2,2.4-1.9c0.8,0,1.8,1.1,1.6,2C52.9,63.6,52.2,64.2,51,64.2z"/><path style="fill:none;stroke:red;stroke-width:0.0001px" d="M98.9,62.9c-1.1,0.1-2-1.1-2-1.9c0-1,1-2,2-1.9c1.1,0.1,1.9,0.7,1.9,2.1  C100.7,62.2,100,62.9,98.9,62.9z"/><path style="fill:none;stroke:red;stroke-width:0.0001px" d="M100.3,73.1c0-1.1,0.8-1.9,2-1.9c0.8,0,1.9,1,1.9,1.7c0,1.5-0.7,2-1.9,2.1  C101.2,75.2,100.3,74.5,100.3,73.1z"/><path style="fill:none;stroke:red;stroke-width:0.0001px" d="M101.3,45.7c0.9-0.1,2.1,0.8,2.2,1.7c0.1,0.9-1,2.1-2,2.1c-1,0-1.9-0.8-2-1.8  C99.4,46.6,100.1,45.8,101.3,45.7z"/><path style="fill:none;stroke:red;stroke-width:0.0001px" d="M44.9,47.2c0,1.1-0.7,1.8-1.9,1.9c-1,0-1.9-0.8-1.9-1.9c0-0.9,0.7-2.1,1.9-2  C44.1,45.2,44.9,46,44.9,47.2z"/><path style="fill:none;stroke:red;stroke-width:0.0001px" d="M95.7,66.6c1.2,0,2,0.8,2,2c0,1-0.9,1.8-2,1.7c-1.2-0.1-1.8-0.8-1.9-2C93.7,67.5,94.7,66.6,95.7,66.6  z"/><path style="fill:none;stroke:red;stroke-width:0.0001px" d="M75.3,77.5c-1.2,0-1.9-0.8-1.8-1.9c0-1,0.8-1.7,2.1-1.8c0.7,0,1.8,0.9,1.7,1.9  C77.2,77,76.6,77.6,75.3,77.5z"/><path style="fill:none;stroke:red;stroke-width:0.0001px" d="M62.1,49.6c1.2,0.2,1.7,0.7,1.8,1.9c0.1,0.8-0.9,1.7-1.8,1.7c-0.9,0-1.8-0.9-1.8-1.8  C60.4,50.5,61.2,49.7,62.1,49.6z"/><path style="fill:none;stroke:red;stroke-width:0.0001px" d="M101.7,79.5c-1.1,0-1.7-0.8-1.7-1.8c-0.1-0.8,0.9-1.8,1.6-1.8c1.2,0.1,1.9,0.8,1.9,1.8  C103.5,78.8,102.8,79.4,101.7,79.5z"/><path style="fill:none;stroke:red;stroke-width:0.0001px" d="M41.5,108.2c-1,0-1.8-0.8-1.7-1.6c0-1.1,0.8-1.8,1.9-1.8c0.8,0,1.6,0.9,1.6,1.7  C43.2,107.5,42.4,108.3,41.5,108.2z"/><path style="fill:none;stroke:red;stroke-width:0.0001px" d="M36.3,107.7c-1.4,0-2.6-1.1-2.6-2.4c0-1.7,1.1-2.7,2.8-2.7c1.2,0,2.4,1.3,2.3,2.6  C38.8,106.6,37.7,107.8,36.3,107.7z"/><path style="fill:none;stroke:red;stroke-width:0.0001px" d="M36.1,55.5c-0.8,0-1.5-0.6-1.6-1.4c-0.1-0.9,0.6-1.7,1.5-1.7c0.9,0,1.8,0.7,1.9,1.5  C37.9,54.7,37,55.5,36.1,55.5z"/><path style="fill:none;stroke:red;stroke-width:0.0001px" d="M81.9,61.6c0-1.1,0.7-1.6,1.6-1.6c0.9,0,1.6,0.8,1.6,1.7c0,0.7-0.9,1.5-1.6,1.5  C82.6,63.2,81.9,62.5,81.9,61.6z"/><path style="fill:none;stroke:red;stroke-width:0.0001px" d="M102.8,56c-0.7,0-1.5-0.9-1.5-1.6c0-0.8,0.9-1.6,1.6-1.6c0.8,0,1.6,0.8,1.6,1.6  C104.6,55.5,104,56,102.8,56z"/><path style="fill:none;stroke:red;stroke-width:0.0001px" d="M38.7,88.7c0,0.8-0.7,1.7-1.4,1.7c-1.1,0-1.9-0.6-1.9-1.4c0-0.9,0.8-1.7,1.7-1.7  C37.9,87.2,38.7,87.9,38.7,88.7z"/><path style="fill:none;stroke:red;stroke-width:0.0001px" d="M67.9,50c0.1,0,0.1,0,0.2,0c-0.1,0.3,0.1,0.5,0.3,0.7c0.5,0.5,0.4,1.3,0,1.8  c-0.6,0.7-1.4,0.8-2.2,0.3c-0.6-0.3-0.8-1.1-0.5-1.8c0.3-0.7,0.8-1,1.6-0.9C67.5,50.2,67.8,50.4,67.9,50z"/><path style="fill:none;stroke:red;stroke-width:0.0001px" d="M94.4,82.8c-0.9,0-1.6-0.7-1.6-1.5c0-0.8,0.8-1.5,1.6-1.5c0.6,0,1.5,0.7,1.5,1.2  C95.9,82.2,95.4,82.7,94.4,82.8z"/><path style="fill:none;stroke:red;stroke-width:0.0001px" d="M75,70c0.8,0,1.5,0.7,1.5,1.5c0,0.7-0.8,1.5-1.5,1.5c-0.9,0-1.6-0.7-1.6-1.5C73.3,70.7,74.1,70,75,70  z"/><path style="fill:none;stroke:red;stroke-width:0.0001px" d="M78.7,70.4c0.8,0,1.5,0.7,1.5,1.5c0,0.7-0.8,1.4-1.5,1.4c-0.7,0-1.5-0.6-1.5-1.5  C77.3,71,77.9,70.4,78.7,70.4z"/><path style="fill:none;stroke:red;stroke-width:0.0001px" d="M48.3,72.4c0-0.8,0.7-1.5,1.4-1.5c0.7,0,1.5,0.7,1.5,1.3c0,0.9-0.7,1.7-1.6,1.7  C48.8,73.9,48.3,73.3,48.3,72.4z"/><path style="fill:none;stroke:red;stroke-width:0.0001px" d="M41.8,95.6c-0.7,0.1-1.5-0.8-1.5-1.7c0-0.6,0.9-1.3,1.5-1.3c0.8,0,1.5,0.8,1.5,1.7  C43.3,94.9,42.5,95.6,41.8,95.6z"/><path style="fill:none;stroke:red;stroke-width:0.0001px" d="M73.5,44.5c-0.8,0-1.4-0.7-1.3-1.5c0-0.7,0.6-1.3,1.3-1.3c0.8,0,1.8,0.8,1.8,1.4  C75.2,43.9,74.4,44.5,73.5,44.5z"/><path style="fill:none;stroke:red;stroke-width:0.0001px" d="M40.1,39.2c-0.9,0-1.4-0.4-1.3-1.3c0.1-1.1,0.5-1.6,1.5-1.6c0.7,0,1.4,0.7,1.3,1.4  C41.5,38.6,40.9,39.2,40.1,39.2z"/><path style="fill:none;stroke:red;stroke-width:0.0001px" d="M77.5,87.7c-0.2-0.8,0.7-1.4,1.6-1.4c0.6,0,1.3,0.8,1.3,1.5c0,0.7-0.8,1.4-1.5,1.5  C78.2,89.2,77.5,88.5,77.5,87.7z"/><path style="fill:none;stroke:red;stroke-width:0.0001px" d="M32.5,100.8c0.7,0,1.4,0.7,1.4,1.5c0,0.8-0.8,1.5-1.6,1.4c-0.4,0-1.1-0.8-1.1-1.2  C31.1,101.7,31.8,100.8,32.5,100.8z"/><path style="fill:none;stroke:red;stroke-width:0.0001px" d="M61.5,46.6c0,0.7-0.6,1.3-1.3,1.3c-0.8,0-1.4-0.6-1.4-1.3c0-0.7,0.6-1.4,1.3-1.4  C60.9,45.2,61.5,45.8,61.5,46.6z"/><path style="fill:none;stroke:red;stroke-width:0.0001px" d="M40.4,46.4c0,0.7-0.7,1.4-1.4,1.4c-0.7,0-1.3-0.6-1.3-1.4c0-0.9,0.8-1.4,1.4-1.4  C39.8,45,40.4,45.7,40.4,46.4z"/><path style="fill:none;stroke:red;stroke-width:0.0001px" d="M92.7,49.7c0-0.7,0.6-1.3,1.1-1.3c0.9,0,1.5,0.6,1.5,1.5c0,0.7-0.6,1.2-1.3,1.2  C93.3,51,92.7,50.4,92.7,49.7z"/><path style="fill:none;stroke:red;stroke-width:0.0001px" d="M99.7,42.9c0.7,0,1.4,0.6,1.4,1.2c0,0.7-0.8,1.4-1.5,1.4c-0.5,0-1.2-0.8-1.2-1.3  C98.4,43.4,99,42.9,99.7,42.9z"/><path style="fill:none;stroke:red;stroke-width:0.0001px" d="M97.1,97c0.2,0,0.4,0,0.4,0.2c-0.3,0.3,0.1,0.6,0.1,0.9c-0.1,1.1-1.2,1.4-2,0.9  c-0.5-0.3-0.8-0.8-0.6-1.3c0.3-0.7,0.8-1,1.5-0.8C96.7,97,96.9,97,97.1,97z"/><path style="fill:none;stroke:red;stroke-width:0.0001px" d="M51.3,43.9c-0.7,0-1.1-0.5-1.2-1.3c0-0.6,0.6-1.2,1.1-1.2c0.6,0,1.3,0.6,1.3,1.2  C52.6,43.4,52.1,43.9,51.3,43.9z"/><path style="fill:none;stroke:red;stroke-width:0.0001px" d="M72,74.3c-0.7,0-1.2-0.5-1.2-1.1c0-0.6,0.6-1.2,1.3-1.2c0.5,0,1.2,0.7,1.2,1.2  C73.2,73.8,72.6,74.4,72,74.3z"/><path style="fill:none;stroke:red;stroke-width:0.0001px" d="M118.9,84.3c0,0.5-0.6,1.1-1.2,1.1c-0.6,0-1.2-0.5-1.2-1.1c0-0.6,0.6-1.2,1.2-1.1  C118.4,83.1,118.9,83.7,118.9,84.3z"/><path style="fill:none;stroke:red;stroke-width:0.0001px" d="M45.8,92.1c-0.1,0.8-0.4,1.1-1,1.1c-0.7-0.1-1.2-0.6-1.1-1.3c0-0.5,0.6-1.1,1.1-1.1  C45.4,90.9,45.9,91.5,45.8,92.1z"/><path style="fill:none;stroke:red;stroke-width:0.0001px" d="M110.8,39.3c0.6,0,1.1,0.5,1.1,1c0,0.6-0.6,1.3-1.1,1.3c-0.6,0-1.2-0.6-1.2-1.3  C109.7,39.6,110.1,39.3,110.8,39.3z"/><path style="fill:none;stroke:red;stroke-width:0.0001px" d="M98.6,92.6c0-0.5,0.5-1.2,1-1.2c0.5,0,1.2,0.8,1.2,1.3c0,0.4-0.5,0.9-0.9,0.9  C99.1,93.6,98.6,93.3,98.6,92.6z"/><path style="fill:none;stroke:red;stroke-width:0.0001px" d="M87.7,57.1c0-0.7,0.5-1.2,1.2-1.2c0.3,0,1,0.7,1,1c0,0.4-0.8,1.2-1.2,1.2  C88.1,58.1,87.7,57.7,87.7,57.1z"/><path style="fill:none;stroke:red;stroke-width:0.0001px" d="M58.1,62.3c0,0.6-0.4,1-1,1c-0.6,0-1.1-0.5-1.1-1c0-0.5,0.5-1.1,1.1-1.1  C57.7,61.2,58.1,61.7,58.1,62.3z"/><path style="fill:none;stroke:red;stroke-width:0.0001px" d="M118.3,79.5c0.6,0,1,0.4,1,1c0,0.5-0.5,1-1,1c-0.5,0-1.1-0.5-1.1-1C117.2,80,117.8,79.5,118.3,79.5z"/><path style="fill:none;stroke:red;stroke-width:0.0001px" d="M83.5,81.8c0-0.6,0.5-1,1.2-1c0.4,0,0.9,0.6,0.9,1.2c0,0.3-0.8,0.8-1.1,0.8  C84,82.8,83.5,82.3,83.5,81.8z"/><path style="fill:none;stroke:red;stroke-width:0.0001px" d="M44.4,86.3c0,0.5-0.5,0.9-1.1,0.9c-0.5,0-0.8-0.4-0.8-0.9c0-0.6,0.5-1,1.1-1  C44,85.2,44.4,85.8,44.4,86.3z"/><path style="fill:none;stroke:red;stroke-width:0.0001px" d="M101.1,103.6c-0.5,0-1-0.4-1-1c0-0.4,0.6-0.9,1.1-0.9c0.4,0,0.9,0.4,0.9,0.8  C102.1,103.1,101.7,103.6,101.1,103.6z"/><path style="fill:none;stroke:red;stroke-width:0.0001px" d="M59,59c0.6,0,0.9,0.2,0.9,0.8c0,0.6-0.3,1-0.8,1c-0.6,0-0.9-0.3-1-0.8C58.1,59.4,58.4,59.1,59,59z"/><path style="fill:none;stroke:red;stroke-width:0.0001px" d="M58.1,37.6c-0.4-0.1-0.6-0.3-0.6-0.8c0-0.5,0.3-0.8,0.8-0.8c0.4,0,1,0.5,1,0.8  C59.2,37.2,58.6,37.7,58.1,37.6z"/><path style="fill:none;stroke:red;stroke-width:0.0001px" d="M108.6,84.6c-0.5,0-0.7-0.4-0.7-0.8c0-0.4,0.2-0.7,0.6-0.7c0.4,0,0.9,0.4,0.9,0.8  C109.5,84.3,109.1,84.6,108.6,84.6z"/><path style="fill:none;stroke:red;stroke-width:0.0001px" d="M84.5,108c0-0.6,0.3-0.9,0.7-0.9c0.3,0,0.9,0.5,0.9,0.7c-0.1,0.5-0.4,0.7-0.8,0.7  C84.8,108.6,84.5,108.3,84.5,108z"/><path style="fill:none;stroke:red;stroke-width:0.0001px" d="M47.8,81.7c-0.3-0.1-0.7-0.2-0.7-0.6c0-0.4,0.3-0.7,0.7-0.7c0.4,0,0.7,0.2,0.8,0.7  C48.7,81.6,48.2,81.6,47.8,81.7z"/><path style="fill:none;stroke:red;stroke-width:0.0001px" d="M104.1,82.3c0,0.5-0.2,0.8-0.7,0.8c-0.4,0-0.7-0.3-0.6-0.8c0-0.5,0.4-0.5,0.8-0.6  C103.9,81.8,104.1,82,104.1,82.3z"/><path style="fill:none;stroke:red;stroke-width:0.0001px" d="M50.7,40.8c-0.4,0-0.7-0.2-0.6-0.5c0-0.4,0.3-0.6,0.7-0.6c0.3,0,0.6,0.1,0.6,0.5  C51.3,40.5,51,40.8,50.7,40.8z"/><path style="fill:none;stroke:red;stroke-width:0.0001px" d="M53.8,14c-1.9,0.3-3.7-1.8-3.7-3.5c-0.1-2.4,1.7-3.9,3.6-4c2-0.1,3.7,1.7,3.9,3.3  C57.9,12,56,14.1,53.8,14z"/><path style="fill:none;stroke:red;stroke-width:0.0001px" d="M93.9,127.1c1.4,0,3.3,2,3.4,3.4c0.1,2.6-1.7,4-3.7,4.1c-2.4,0-3.7-1.8-3.8-3.7  C89.7,128.8,91.3,127.1,93.9,127.1z"/><path style="fill:none;stroke:red;stroke-width:0.0001px" d="M136.2,59.9c1.9-0.1,3.5,1.8,3.6,3.5c0.1,2-1.7,3.9-3.5,3.9c-2.2,0-3.8-1.5-3.8-3.8  C132.5,61.5,133.9,59.8,136.2,59.9z"/><path style="fill:none;stroke:red;stroke-width:0.0001px" d="M118.6,115.9c0.1,1.9-1.7,3.6-3.6,3.6c-2.1-0.1-3.8-1.5-3.8-3.6c0-2.4,1.5-3.6,4-3.7  C116.9,112,118.7,113.9,118.6,115.9z"/><path style="fill:none;stroke:red;stroke-width:0.0001px" d="M107.5,26.9c-2,0-3.6-1.6-3.6-3.6c0-2,1.7-3.8,3.8-3.7c2,0.1,3.6,1.4,3.6,3.5  C111.3,25.3,109.7,26.8,107.5,26.9z"/><path style="fill:none;stroke:red;stroke-width:0.0001px" d="M51.8,118.4c0.2,2.1-1.9,3.6-3.5,3.5c-2.1,0-3.4-1.4-3.6-3.7c-0.2-1.9,1.9-3.6,3.4-3.6  C49.8,114.6,52,116.1,51.8,118.4z"/><path style="fill:none;stroke:red;stroke-width:0.0001px" d="M19,66.4c0.1-1.9,1.7-3.7,3.5-3.7c2,0,3.6,1.7,3.6,3.7c0,2-1.7,3.4-3.5,3.4  C20.7,69.9,19.2,68.5,19,66.4z"/><path style="fill:none;stroke:red;stroke-width:0.0001px" d="M103.9,126.8c0,1.5-1.4,3.1-2.8,2.9c-2-0.2-3-1-3-3.3c0-1.2,1.4-2.6,3-2.6  C102.7,123.9,103.8,124.8,103.9,126.8z"/><path style="fill:none;stroke:red;stroke-width:0.0001px" d="M48.6,60c-1.9-0.1-2.8-1.4-2.9-3.1c0-1.4,1.5-2.8,3-2.7c1.8,0.2,2.9,1.3,2.8,3  C51.5,58.7,50.2,60.1,48.6,60z"/><path style="fill:none;stroke:red;stroke-width:0.0001px" d="M99,18.4c-0.1-1.3,1.6-2.8,3-2.8c1.3,0,2.8,1.1,2.8,3.1c0,1.3-1.6,2.7-2.9,2.7  C100.4,21.4,99,19.9,99,18.4z"/><path style="fill:none;stroke:red;stroke-width:0.0001px" d="M113.4,61.9c-0.1-1.7,1.3-2.9,2.8-2.9c1.6,0,2.7,1.1,2.8,2.7c0.1,1.5-1.4,3-2.8,2.9  C114.8,64.5,113.4,63.4,113.4,61.9z"/><path style="fill:none;stroke:red;stroke-width:0.0001px" d="M89.9,44.2C89.9,45.5,89,47,87.5,47c-1.8,0-2.8-0.9-3.1-2.8c-0.1-1.1,1.2-2.7,2.3-2.8  C88.4,41.4,89.8,42.5,89.9,44.2z"/><path style="fill:none;stroke:red;stroke-width:0.0001px" d="M75.5,51.6c0,2.1-2.5,3.7-4.1,2.9c-1.4-0.7-2.1-2.8-0.8-4.1c0.8-0.9,1.8-1.3,2.9-0.9  c0.8,0.3,1.4,0.9,1.9,1.6C75.5,51.3,75.5,51.5,75.5,51.6z"/><path style="fill:none;stroke:red;stroke-width:0.0001px" d="M102.3,117.8c-1.4,0.1-2.6-1-2.7-2.7c-0.1-1.2,1.3-2.6,2.6-2.7c1.6,0,2.7,0.9,2.9,2.8  C105.2,116.4,103.9,117.6,102.3,117.8z"/><path style="fill:none;stroke:red;stroke-width:0.0001px" d="M29.9,91.2c1.3-0.1,2.8,1.2,2.7,2.7c-0.1,1.3-1.3,2.7-2.5,2.7c-1.6,0-2.9-1.2-2.9-2.6  C27.2,92.3,28.5,91.1,29.9,91.2z"/><path style="fill:none;stroke:red;stroke-width:0.0001px" d="M10.1,86c0.1,1.4-1.1,2.7-2.6,2.7c-1.4,0-2.7-1.3-2.7-2.6c0-1.5,1.1-2.8,2.4-2.8  C8.9,83.4,10.1,84.4,10.1,86z"/><path style="fill:none;stroke:red;stroke-width:0.0001px" d="M73,96.8c1.5,0,2.8,1.1,2.9,2.6c0.1,1.3-1.4,2.7-2.8,2.7c-1.5-0.1-2.6-1.1-2.7-2.7  C70.3,98,71.7,96.8,73,96.8z"/><path style="fill:none;stroke:red;stroke-width:0.0001px" d="M127.6,44.7c0,1.4-1.1,2.5-2.5,2.6c-1.6,0.1-2.8-1.5-2.8-2.6c0-1.7,1.5-2.8,2.9-2.7  C126.2,42,127.8,43.2,127.6,44.7z"/><path style="fill:none;stroke:red;stroke-width:0.0001px" d="M67.1,137.8c0-1.4,1.3-2.8,2.6-2.8c1,0,2.6,1.2,2.6,2.6c0,1.3-1.5,3-2.7,2.9  C68.4,140.3,67.1,139.6,67.1,137.8z"/><path style="fill:none;stroke:red;stroke-width:0.0001px" d="M119.4,31.8c1.8,0,2.8,1.3,2.8,2.6c0,1.3-1.4,2.8-2.6,2.7c-1.6-0.1-2.7-1.3-2.7-2.8  C117,33,118.2,31.7,119.4,31.8z"/><path style="fill:none;stroke:red;stroke-width:0.0001px" d="M133.7,92.5c-1.5,0-2.6-1-2.7-2.5c0-1.5,1.2-2.7,2.7-2.7c1.6,0,2.5,1,2.6,2.7  C136.4,91.2,135,92.5,133.7,92.5z"/><path style="fill:none;stroke:red;stroke-width:0.0001px" d="M89,91.3c0.1,1.3-1.2,2.7-2.5,2.7c-1.8,0-2.7-1.3-2.7-2.5c0-1.5,1-2.6,2.7-2.7  C87.8,88.8,89,90.1,89,91.3z"/><path style="fill:none;stroke:red;stroke-width:0.0001px" d="M17.5,91c1.3,0,2.7,1.4,2.6,2.7c-0.1,1.5-1.1,2.5-2.5,2.6c-1.5,0-2.5-0.8-2.6-2.6  C14.8,92.1,16.2,91,17.5,91z"/><path style="fill:none;stroke:red;stroke-width:0.0001px" d="M35.6,27.3c1.3,0,2.7,1,2.7,2.4c0,1.9-1.4,2.6-2.8,2.7c-1.2,0.1-2.6-1.3-2.5-2.6  C33.1,28.4,34.3,27.2,35.6,27.3z"/><path style="fill:none;stroke:red;stroke-width:0.0001px" d="M129.6,98.7c1.6-0.1,2.7,1.1,2.6,2.5c0,1.5-1.3,2.6-2.5,2.6c-1.5,0-2.8-0.8-2.7-2.7  C127.1,99.8,128.2,98.7,129.6,98.7z"/><path style="fill:none;stroke:red;stroke-width:0.0001px" d="M96.4,10.2c0,1.5-1.2,2.4-2.3,2.5c-1.7,0.1-2.9-1.3-2.8-2.5c0.1-1.8,1.1-2.6,2.8-2.7  C95.1,7.6,96.5,8.6,96.4,10.2z"/><path style="fill:none;stroke:red;stroke-width:0.0001px" d="M67.3,27c0,1.2-1.2,2.5-2.4,2.5c-1.3,0-2.9-1.4-2.9-2.4c0-1.3,1.3-2.7,2.6-2.7  C66.2,24.2,67.2,25.3,67.3,27z"/><path style="fill:none;stroke:red;stroke-width:0.0001px" d="M85.8,96.8c-0.1,1.7-1.2,2.5-2.5,2.6c-1.2,0.1-2.7-1.3-2.7-2.2c0.1-2,1.3-3,2.8-2.9  C84.7,94.3,85.6,95.4,85.8,96.8z"/><path style="fill:none;stroke:red;stroke-width:0.0001px" d="M5.4,61.9c0-1.5,1.3-2.8,2.7-2.7c1.3,0.1,2.3,1.4,2.4,2.7c0,1.3-1.3,2.6-2.6,2.5  C6.6,64.5,5.4,63.2,5.4,61.9z"/><path style="fill:none;stroke:red;stroke-width:0.0001px" d="M22.7,41.7c-1.8,0-2.7-1.1-2.6-2.6c0-1.5,1-2.6,2.9-2.6c1.1,0,2.3,1.5,2.3,2.8  C25.3,40.3,24,41.9,22.7,41.7z"/><path style="fill:none;stroke:red;stroke-width:0.0001px" d="M19.7,44.6c1-0.1,2.5,1.1,2.5,2.5c-0.1,1.4-1.1,2.7-2.5,2.7c-1.3,0-2.5-0.9-2.6-2.5  C17,45.8,18.1,44.7,19.7,44.6z"/><path style="fill:none;stroke:red;stroke-width:0.0001px" d="M120.6,91.5c1.3,0,2.5,1.3,2.5,2.6c0,1.4-1.4,2.5-2.5,2.5c-1.7-0.1-2.6-1-2.7-2.6  C117.9,92.7,119.3,91.5,120.6,91.5z"/><path style="fill:none;stroke:red;stroke-width:0.0001px" d="M74.4,89.1c-1.4,0.1-2.6-1.2-2.6-2.6c0-1,1.5-2.4,2.5-2.4c1.6,0.1,2.6,1,2.6,2.5  C77,88,75.7,89.3,74.4,89.1z"/><path style="fill:none;stroke:red;stroke-width:0.0001px" d="M15.6,74.6c-1.3,0-2.4-1.2-2.4-2.7c0-1,1.3-2.4,2.4-2.4c1.2,0,2.7,1.3,2.6,2.5  C18.1,73.4,17.1,74.7,15.6,74.6z"/><path style="fill:none;stroke:red;stroke-width:0.0001px" d="M89.4,22.9c0,1.2-1,2.5-2.1,2.5c-1.9,0-2.9-0.9-2.9-2.4c0-1.4,1-2.6,2.5-2.6  C88.2,20.4,89.4,21.4,89.4,22.9z"/><path style="fill:none;stroke:red;stroke-width:0.0001px" d="M126.8,75.3c0-1.4,1-2.5,2.3-2.5c1.6,0,2.6,1.2,2.7,2.4c0,1.5-1.3,2.6-2.7,2.6  C128,77.8,126.8,76.5,126.8,75.3z"/><path style="fill:none;stroke:red;stroke-width:0.0001px" d="M106.4,77.2c1.3-0.1,2.6,1.2,2.5,2.5c-0.1,1.4-1,2.4-2.6,2.5c-1.2,0-2.4-1.3-2.4-2.5  C103.8,78.5,105.1,77.2,106.4,77.2z"/><path style="fill:none;stroke:red;stroke-width:0.0001px" d="M108.9,93.3c-1.5,0.2-2.5-1.3-2.5-2.2c0-1.2,0.8-2.7,2.5-2.6c1.5,0,2.4,0.8,2.5,2.4  C111.4,92.1,110.3,93.4,108.9,93.3z"/><path style="fill:none;stroke:red;stroke-width:0.0001px" d="M97.6,27.4c0.1,1.1-1.2,2.6-2.1,2.6c-1.6,0-2.7-1.1-2.8-2.3c-0.1-1.8,1.3-2.8,2.5-2.7  C96.4,24.9,97.8,26.1,97.6,27.4z"/><path style="fill:none;stroke:red;stroke-width:0.0001px" d="M117.5,78c-1.5,0-2.5-1.2-2.5-2.4c0-1.4,1.1-2.5,2.8-2.5c0.9,0,2.1,1.1,2.1,2.2  C120,77,118.6,78.1,117.5,78z"/><path style="fill:none;stroke:red;stroke-width:0.0001px" d="M59.6,69.6c-1.6-0.2-2.4-1.1-2.4-2.6c-0.1-1.4,1.8-2.4,2.8-2.4c0.8,0,2.2,1.7,2.1,2.5  C62,68.6,60.9,69.7,59.6,69.6z"/><path style="fill:none;stroke:red;stroke-width:0.0001px" d="M70.6,24.5c1.2,0,2.4,1.2,2.4,2.4c0,1.2-1.2,2.6-2.3,2.6c-1.5,0-2.6-1.2-2.6-2.6  C68.1,25.7,69.3,24.5,70.6,24.5z"/><path style="fill:none;stroke:red;stroke-width:0.0001px" d="M116.9,38.1c0,1.3-1,2.2-2.3,2.3c-1.1,0-2.7-1-2.6-2.4c0.1-1.6,1.1-2.4,2.5-2.4  C115.9,35.7,116.8,36.4,116.9,38.1z"/><path style="fill:none;stroke:red;stroke-width:0.0001px" d="M67.8,39.9c-1.6,0-2.7-1-2.7-2.4c0-1,1.4-2.3,2.5-2.2c1.4,0.1,2.6,1.3,2.4,2.8  C69.9,39.2,69.2,40,67.8,39.9z"/><path style="fill:none;stroke:red;stroke-width:0.0001px" d="M53.6,125.2c-1.2,0.2-2.4-1.4-2.4-2.3c0.1-1.2,1.2-2.5,2.2-2.5c1.5,0,2.6,1.1,2.6,2.5  C56,124.1,54.9,125.2,53.6,125.2z"/><path style="fill:none;stroke:red;stroke-width:0.0001px" d="M26.4,121.6c-1.9,0.1-2.5-1.2-2.6-2.5c-0.1-1.1,1.1-2.3,2.2-2.3c1.2,0,2.6,1.2,2.5,2.2  C28.5,120.1,27.7,121.9,26.4,121.6z"/><path style="fill:none;stroke:red;stroke-width:0.0001px" d="M73,77.3c0,1.4-1,2.4-2.4,2.4c-1,0-2.3-1.3-2.2-2.3c0-1.4,0.9-2.3,2-2.4C72,74.8,73,75.9,73,77.3z"/><path style="fill:none;stroke:red;stroke-width:0.0001px" d="M61.2,85.8c-0.1-1.4,1.1-2.3,2.1-2.3c1.3-0.1,2.6,1.1,2.6,2.2c0,1.2-1.2,2.5-2.2,2.5  C62.1,88.2,61.2,87.1,61.2,85.8z"/><path style="fill:none;stroke:red;stroke-width:0.0001px" d="M82.6,115.7c0.9,0,2.4,0.9,2.3,2.4c0,1.1-1.3,2.2-2.7,2.2c-1.1,0-2-1.1-2.1-2.4  C80.1,116.7,81.6,115.6,82.6,115.7z"/><path style="fill:none;stroke:red;stroke-width:0.0001px" d="M54.2,105.2c0,1.3-1.3,2.4-2.6,2.4c-0.9,0-2.3-1.1-2.3-1.9c0-1.4,1.1-2.7,2.3-2.7  C53.2,103,54.2,104.2,54.2,105.2z"/><path style="fill:none;stroke:red;stroke-width:0.0001px" d="M80.7,83c-1.3,0.1-2.4-0.9-2.4-2.2c-0.1-1.1,1.1-2.2,2.3-2.3c1.4-0.1,2.2,1.1,2.4,2  C83.1,81.8,81.8,83.1,80.7,83z"/><path style="fill:none;stroke:red;stroke-width:0.0001px" d="M50.8,46.2c0,1.3-1.1,2.5-2.4,2.5c-1,0-2.2-1.2-2.2-2.4c0-1,1.2-2.3,2.2-2.3  C49.7,44,50.6,45.1,50.8,46.2z"/><path style="fill:none;stroke:red;stroke-width:0.0001px" d="M68.1,120.9c1.1,0,2.4,1.1,2.4,2.1c0,1.4-1.2,2.4-2.3,2.4c-1.6,0-2.3-0.9-2.4-2.3  C65.8,122.1,67.1,120.7,68.1,120.9z"/><path style="fill:none;stroke:red;stroke-width:0.0001px" d="M45,69.6c1.6,0,2.4,1.1,2.4,2.2c0,1.5-0.8,2.3-2.3,2.4c-0.9,0.1-2.2-1.3-2.2-2.3  C42.9,70.9,44,69.6,45,69.6z"/><path style="fill:none;stroke:red;stroke-width:0.0001px" d="M57.2,59.1c0,1-1.1,2.1-2.1,2.2c-1.3,0-2.5-1.2-2.5-2.4c0-1.2,1.2-2.2,2.5-2.2  C56.2,56.7,57.2,57.8,57.2,59.1z"/><path style="fill:none;stroke:red;stroke-width:0.0001px" d="M53.2,19.3c-1.3,0-2.4-1-2.3-2.2c0.1-1.3,0.7-2.2,2.3-2.3c1.2,0,2.3,1.1,2.2,2.4  C55.5,18.2,54.3,19.3,53.2,19.3z"/><path style="fill:none;stroke:red;stroke-width:0.0001px" d="M67.2,13.6c0,1.1-1.1,2.1-2.2,2.1c-1.1,0-2.3-1.2-2.3-2.2c0.1-1.3,0.8-2.2,2.4-2.2  C66.2,11.2,67.2,12.4,67.2,13.6z"/><path style="fill:none;stroke:red;stroke-width:0.0001px" d="M120.8,106.9c-1.3,0-2.1-1-2.1-2.2c0-0.9,1.2-2.2,2.2-2.1c1.4,0.1,2.3,0.8,2.3,1.7  C123.2,105.9,122.2,106.9,120.8,106.9z"/><path style="fill:none;stroke:red;stroke-width:0.0001px" d="M40.5,57.8c-1.2,0.1-2.4-1.2-2.3-1.9c0-1.5,1.2-2.4,2.3-2.4c1.4,0,2.2,1,2.2,2.3  C42.7,56.8,41.5,57.8,40.5,57.8z"/><path style="fill:none;stroke:red;stroke-width:0.0001px" d="M25,27.6c-1.2,0.2-2.2-1-2.2-2.4c0-1,1.2-2.1,2.3-2.1c1,0,2.1,1.3,2,2.1C27.1,26.5,26.2,27.6,25,27.6  z"/><path style="fill:none;stroke:red;stroke-width:0.0001px" d="M72.6,91c-0.1,1-1,2.2-2.4,2.1c-1,0-2.1-1.2-2.1-2.2c0-1.2,1.3-2.2,2.2-2.1  C71.6,88.8,72.6,89.6,72.6,91z"/><path style="fill:none;stroke:red;stroke-width:0.0001px" d="M115.4,89.2c-1.2,0-2.1-0.9-2-2.2c0-1.1,0.8-2.2,2.4-2.1c1.1,0.1,1.8,0.8,1.9,2.2  C117.7,88.2,116.4,89.4,115.4,89.2z"/><path style="fill:none;stroke:red;stroke-width:0.0001px" d="M105.7,63.9c0.1-1.4,1.1-2.1,2.2-2.1c1.1-0.1,2.2,1.1,2.2,2.2c0,1-1.2,2.2-2.2,2.1  C106.8,66,105.6,65.2,105.7,63.9z"/><path style="fill:none;stroke:red;stroke-width:0.0001px" d="M62.8,101.1c-1.1-0.1-2.2-1.1-2.2-2.1c0.1-1.2,1.2-2.2,2.4-2.2c1.1,0,2.1,1.3,2,2.5  C64.9,100.3,63.9,101.2,62.8,101.1z"/><path style="fill:none;stroke:red;stroke-width:0.0001px" d="M28.2,101.1c1,0,2.2,1,2.2,1.9c0,1.2-1,2.4-2,2.5c-1.2,0-2.3-1.1-2.3-2.4  C26.1,102.2,26.9,101.1,28.2,101.1z"/><path style="fill:none;stroke:red;stroke-width:0.0001px" d="M67.4,32.2c0,1.2-1,2.2-2,2.3c-1.2,0.1-2.4-0.9-2.4-1.9c0-1.4,1-2.4,2.3-2.4  C66.4,30.2,67.3,31.2,67.4,32.2z"/><path style="fill:none;stroke:red;stroke-width:0.0001px" d="M41.1,18.3c-0.1-1,1.1-2.4,2.3-2.3c1.1,0.1,1.9,1.1,2,2.3c0,1.1-1.1,2.2-2.1,2.1  C41.9,20.3,41.3,19.5,41.1,18.3z"/><path style="fill:none;stroke:red;stroke-width:0.0001px" d="M38.8,33.7c0-1.4,1.1-2.1,2.2-2.2c1.1,0,2.2,0.9,2.1,2.2c-0.1,1-1.1,2-2.1,2  C39.8,35.8,38.6,34.8,38.8,33.7z"/><path style="fill:none;stroke:red;stroke-width:0.0001px" d="M62.6,74.1c-1.3,0-2.2-1-2.2-2.4c0-0.8,1-1.8,1.8-1.8c1.5,0,2.5,0.9,2.5,2.2  C64.7,73.1,63.6,74.2,62.6,74.1z"/><path style="fill:none;stroke:red;stroke-width:0.0001px" d="M116.3,28.6c0-1.1,1.1-2.1,2.2-2.1c1,0,2,1.1,2,2.1c0,1.1-1.1,2.2-2.2,2.2  C117.3,30.8,116.3,29.7,116.3,28.6z"/><path style="fill:none;stroke:red;stroke-width:0.0001px" d="M41.9,129.1c1.3,0,2.3,0.9,2.2,2c-0.1,1.2-1.1,2.3-2.2,2.3c-1,0-1.9-1.1-1.9-2.2  C40,130,40.9,129,41.9,129.1z"/><path style="fill:none;stroke:red;stroke-width:0.0001px" d="M124.6,48.4c1.2,0.1,2.2,1.1,2.1,2c-0.2,1.4-1.2,2.4-2.2,2.2c-1.2-0.2-2-1-1.9-2.2  C122.7,49.4,123.8,48.3,124.6,48.4z"/><path style="fill:none;stroke:red;stroke-width:0.0001px" d="M109,104c-1.2,0-2.1-0.8-2.1-2c0-1.1,0.9-2.2,1.9-2.2c1.2,0,2.2,0.8,2.2,2.2  C111.2,102.9,110,104.2,109,104z"/><path style="fill:none;stroke:red;stroke-width:0.0001px" d="M54.3,95.2c-0.8,0-1.9-1.1-1.8-2.2c0-1,1.2-1.9,2.1-1.9c1.1,0,2.1,0.9,2,2  C56.5,94.5,55.9,95.2,54.3,95.2z"/><path style="fill:none;stroke:red;stroke-width:0.0001px" d="M41.8,87.6c1.2,0,2.2,0.8,2.2,1.8c0,1.2-0.9,2.1-2.2,2.2c-0.9,0-2-1.1-2-2.1  C39.9,88.5,40.8,87.6,41.8,87.6z"/><path style="fill:none;stroke:red;stroke-width:0.0001px" d="M87.3,116.9c1.5,0,2.2,1.1,2.2,2c0,1.2-1,2-2.1,2c-0.9,0-2.1-1.1-1.9-2.2  C85.6,117.9,86.6,116.8,87.3,116.9z"/><path style="fill:none;stroke:red;stroke-width:0.0001px" d="M33.1,79.1c0,0.9-0.9,1.8-1.9,1.9c-0.9,0.1-2.1-1-2-1.9c0.1-1.3,0.9-2.1,2-2.1  C32.3,76.9,33.1,78.1,33.1,79.1z"/><path style="fill:none;stroke:red;stroke-width:0.0001px" d="M70.1,65.8c-1,0.1-1.9-0.8-1.9-1.7c0-1.2,1-2.2,2.1-2.1c1,0.1,1.8,0.8,1.9,2.1  C72.1,64.8,71.2,65.9,70.1,65.8z"/><path style="fill:none;stroke:red;stroke-width:0.0001px" d="M94.1,71.8c0,0.9-0.9,1.8-1.9,1.8c-1-0.1-2-0.6-2-2c0-0.8,1-1.9,1.9-1.9  C93.1,69.7,94.1,70.7,94.1,71.8z"/><path style="fill:none;stroke:red;stroke-width:0.0001px" d="M28.3,68.7c0,0.2,0.1,0.4,0.3,0.5c1.1,0.5,1.6,1.6,1.1,2.6c-0.5,1.1-1.7,1.5-2.8,0.9  c-0.6-0.3-1-1.4-0.9-2.2c0.1-0.6,0.8-1.3,1.5-1.4c0.2,0,0.5,0,0.5-0.4C28.1,68.8,28.2,68.8,28.3,68.7z"/><path style="fill:none;stroke:red;stroke-width:0.0001px" d="M69,57.7c-1.2,0-2-0.7-2-1.8c0-1.1,1-1.8,2.1-1.9c1.3,0,1.8,1.1,1.9,2C71,56.8,70,57.7,69,57.7z"/><path style="fill:none;stroke:red;stroke-width:0.0001px" d="M89,88.5c-1,0-1.9-0.9-1.9-1.8c0-1.2,0.8-1.9,1.9-1.9c1.1-0.1,1.9,0.7,2,1.9C91,87.6,90,88.7,89,88.5  z"/><path style="fill:none;stroke:red;stroke-width:0.0001px" d="M37.3,132.3c-1,0-1.9-0.9-1.9-1.9c0-0.8,1.1-1.9,1.9-1.9c0.9,0,2,1.1,2,2  C39.3,131.4,38.3,132.3,37.3,132.3z"/><path style="fill:none;stroke:red;stroke-width:0.0001px" d="M76.7,65.9c0,1-0.9,1.9-1.9,1.8c-1.1,0-2-0.9-2-1.9c0-1,1-2,2.1-1.9C75.9,64.1,76.6,64.8,76.7,65.9z"/><path style="fill:none;stroke:red;stroke-width:0.0001px" d="M29.2,50.7c0,1-0.9,2-1.8,1.9c-1.1-0.1-1.9-0.6-1.9-1.9c0-1,1-2,1.9-2C28.3,48.8,29.2,49.7,29.2,50.7  z"/><path style="fill:none;stroke:red;stroke-width:0.0001px" d="M36.4,117.7c1.1,0,2,0.8,2,1.8c0,1.1-0.9,2-2.1,1.9c-0.9,0-1.8-1-1.7-1.9  C34.5,118.6,35.2,117.7,36.4,117.7z"/><path style="fill:none;stroke:red;stroke-width:0.0001px" d="M73.5,14.9c1.1,0.1,2,0.7,2,1.9c0,0.9-0.9,1.9-1.9,1.9c-0.9,0-1.9-1-1.9-1.9  C71.6,15.9,72.5,14.9,73.5,14.9z"/><path style="fill:none;stroke:red;stroke-width:0.0001px" d="M63.4,130c-0.9,0-1.8-0.9-1.8-1.7c0-1.2,0.9-2.2,2-2.1c1,0,1.7,0.9,1.7,1.9  C65.3,129,64.3,130,63.4,130z"/><path style="fill:none;stroke:red;stroke-width:0.0001px" d="M81.3,33.8c-1,0.1-1.8-0.8-1.7-1.6c0-1.2,0.7-2,1.7-2c0.9,0,2,1,2,1.8C83.2,33,82.4,33.8,81.3,33.8z"/><path style="fill:none;stroke:red;stroke-width:0.0001px" d="M73.8,63.5c-0.9,0.1-1.8-1.1-1.7-1.7c0-0.9,1-1.8,1.8-1.8c1,0,2,0.9,1.9,1.7  C75.7,62.8,75,63.5,73.8,63.5z"/><path style="fill:none;stroke:red;stroke-width:0.0001px" d="M60,84.3c-1,0-1.8-0.9-1.9-1.8c-0.1-0.9,0.9-1.8,1.9-1.8c1.3,0,1.8,0.9,1.9,1.9  C61.9,83.4,60.9,84.3,60,84.3z"/><path style="fill:none;stroke:red;stroke-width:0.0001px" d="M79.7,19c1-0.1,1.7,1,1.7,1.8c-0.1,0.9-0.7,1.7-1.9,1.7c-0.9,0-1.8-0.9-1.7-1.9  C77.8,19.8,78.6,19,79.7,19z"/><path style="fill:none;stroke:red;stroke-width:0.0001px" d="M69.1,113.6c-0.2,0-0.4,0-0.6,0c0.1-0.3-0.2-0.4-0.4-0.5c-0.9-0.6-1-2-0.3-2.8c0.5-0.5,1.8-0.5,2.4,0  c0.6,0.6,0.7,1.7,0.2,2.4C70.2,113.2,69.5,113.2,69.1,113.6z"/><path style="fill:none;stroke:red;stroke-width:0.0001px" d="M82.6,27.4c0,0.9-0.9,2-1.6,2c-0.9,0-1.9-0.9-2-1.8c0-0.8,0.9-1.8,1.6-1.8  C81.7,25.7,82.6,26.5,82.6,27.4z"/><path style="fill:none;stroke:red;stroke-width:0.0001px" d="M73.5,112.6c0.9,0,1.9,1,1.9,1.8c0,0.8-1,1.7-1.9,1.7c-0.8,0-1.7-0.9-1.7-1.6  C71.8,113.2,72.5,112.7,73.5,112.6z"/><path style="fill:none;stroke:red;stroke-width:0.0001px" d="M75.3,108c0.1-1,0.8-1.9,1.7-1.8c0.9,0,1.8,0.9,1.8,1.7c0,1.3-0.8,1.9-2,1.9  C75.9,109.7,75.3,108.9,75.3,108z"/><path style="fill:none;stroke:red;stroke-width:0.0001px" d="M54.8,66.8c-1,0-1.8-0.8-1.8-1.6c0-1,1-2,1.9-1.9c0.7,0,1.6,1,1.6,1.6C56.5,65.7,55.7,66.9,54.8,66.8  z"/><path style="fill:none;stroke:red;stroke-width:0.0001px" d="M5.7,71.4c-0.8,0-1.7-0.9-1.7-1.7c0-0.9,0.7-1.7,1.7-1.8c1.1-0.1,1.7,0.8,1.8,1.8  C7.6,70.5,6.6,71.4,5.7,71.4z"/><path style="fill:none;stroke:red;stroke-width:0.0001px" d="M18.2,57.8c0.1,1-0.8,1.7-1.7,1.8c-0.8,0.1-1.7-0.9-1.7-1.7c0-1,0.7-1.8,1.7-1.8  C17.3,56.1,18.3,56.9,18.2,57.8z"/><path style="fill:none;stroke:red;stroke-width:0.0001px" d="M120.8,120c-1,0-1.7-0.7-1.7-1.6c0-0.9,0.8-1.8,1.6-1.8c1,0,1.9,0.8,1.9,1.8  C122.5,119.2,121.7,120,120.8,120z"/><path style="fill:none;stroke:red;stroke-width:0.0001px" d="M36,108.9c0.9,0,1.9,1,1.9,1.8c-0.1,0.8-1,1.6-2,1.6c-0.7,0-1.6-1-1.5-1.7  C34.4,109.8,35.1,108.9,36,108.9z"/><path style="fill:none;stroke:red;stroke-width:0.0001px" d="M88.7,108.9c0-1,0.6-1.6,1.5-1.7c1,0,1.8,0.7,1.8,1.6c0,0.9-0.8,1.8-1.7,1.8  C89.4,110.6,88.7,109.9,88.7,108.9z"/><path style="fill:none;stroke:red;stroke-width:0.0001px" d="M47.8,112.3c-0.1-0.8,0.8-1.7,1.6-1.7c0.9,0,1.7,0.8,1.7,1.6c-0.1,1-0.7,1.8-1.8,1.8  C48.4,114,47.7,113.2,47.8,112.3z"/><path style="fill:none;stroke:red;stroke-width:0.0001px" d="M109.5,74.1c1.1,0,1.5,0.7,1.6,1.6c0.1,0.8-0.8,1.7-1.7,1.7c-0.7,0-1.7-0.9-1.7-1.6  C107.7,74.9,108.5,74.1,109.5,74.1z"/><path style="fill:none;stroke:red;stroke-width:0.0001px" d="M81.9,59.5c-1,0-1.7-0.7-1.7-1.7c0-0.8,0.7-1.5,1.5-1.5c1,0,1.7,0.7,1.7,1.6  C83.5,58.9,82.9,59.5,81.9,59.5z"/><path style="fill:none;stroke:red;stroke-width:0.0001px" d="M17.8,39.8c-0.9,0-1.7-0.7-1.7-1.5c0-0.9,0.8-1.8,1.6-1.7c0.9,0,1.7,0.9,1.7,1.7  C19.4,39.1,18.6,39.8,17.8,39.8z"/><path style="fill:none;stroke:red;stroke-width:0.0001px" d="M26.5,84.4c0,0.8-0.8,1.6-1.8,1.6c-0.7,0-1.5-0.9-1.5-1.7c0-0.8,0.9-1.6,1.7-1.6  C25.8,82.6,26.5,83.5,26.5,84.4z"/><path style="fill:none;stroke:red;stroke-width:0.0001px" d="M86.6,68.4c-0.9,0-1.8-0.8-1.8-1.7c0-0.6,1-1.5,1.7-1.5c0.7,0,1.7,0.9,1.7,1.4  C88.2,67.6,87.4,68.4,86.6,68.4z"/><path style="fill:none;stroke:red;stroke-width:0.0001px" d="M18.5,78c-0.9,0.1-1.7-1-1.7-1.6c0.1-0.9,0.8-1.7,1.6-1.7c0.7,0,1.7,0.9,1.7,1.5  C20,77.2,19.4,78,18.5,78z"/><path style="fill:none;stroke:red;stroke-width:0.0001px" d="M61.2,115.9c1,0,1.5,0.5,1.6,1.3c0,1-0.7,1.8-1.5,1.8c-0.9,0-1.7-0.8-1.7-1.6  C59.6,116.6,60.3,116,61.2,115.9z"/><path style="fill:none;stroke:red;stroke-width:0.0001px" d="M33.1,23.8c0-0.7,0.9-1.6,1.7-1.6c0.7,0,1.6,0.9,1.6,1.6c0,0.8-0.8,1.7-1.6,1.7  C34.1,25.4,33.2,24.5,33.1,23.8z"/><path style="fill:none;stroke:red;stroke-width:0.0001px" d="M59.8,98.8c0,0.8-0.8,1.5-1.6,1.6c-0.7,0-1.6-0.8-1.5-1.6c0.1-0.9,0.6-1.5,1.6-1.6  C59,97.1,59.7,98,59.8,98.8z"/><path style="fill:none;stroke:red;stroke-width:0.0001px" d="M66,5.6C65.9,4.9,66.9,4,67.6,4c0.7,0.1,1.6,0.8,1.5,1.5c0,0.9-0.9,1.7-1.7,1.7  C66.7,7.2,66,6.4,66,5.6z"/><path style="fill:none;stroke:red;stroke-width:0.0001px" d="M54.5,76.1c0.2,1-0.4,1.4-1.3,1.6c-0.8,0.1-1.7-0.7-1.7-1.5c0-0.9,0.7-1.6,1.6-1.6  C53.8,74.4,54.5,75.2,54.5,76.1z"/><path style="fill:none;stroke:red;stroke-width:0.0001px" d="M59.6,30.8c-0.1-0.7,0.7-1.6,1.3-1.6c0.8,0,1.6,0.4,1.6,1.6c0,1-0.6,1.4-1.4,1.4  C60.3,32.3,59.6,31.7,59.6,30.8z"/><path style="fill:none;stroke:red;stroke-width:0.0001px" d="M18,104.2c0.7,0,1.4,0.7,1.4,1.5c0,0.7-0.8,1.6-1.4,1.6c-0.8,0-1.6-0.8-1.6-1.6  C16.4,105,17.3,104.2,18,104.2z"/><path style="fill:none;stroke:red;stroke-width:0.0001px" d="M14.2,60.2c0,0.9-0.6,1.5-1.5,1.6c-0.7,0-1.4-0.7-1.4-1.4c0-0.8,0.6-1.5,1.5-1.5  C13.5,58.7,14.2,59.4,14.2,60.2z"/><path style="fill:none;stroke:red;stroke-width:0.0001px" d="M59.9,109.4c0.5,0,1.4,1,1.4,1.4c0,0.7-0.9,1.7-1.5,1.7c-0.8-0.1-1.5-0.8-1.5-1.6  C58.3,110.1,59.1,109.3,59.9,109.4z"/><path style="fill:none;stroke:red;stroke-width:0.0001px" d="M13.6,64.3c0.1,0.8-0.7,1.4-1.5,1.5c-0.7,0.1-1.4-0.7-1.4-1.5c0-0.8,0.6-1.5,1.4-1.5  C12.9,62.9,13.6,63.4,13.6,64.3z"/><path style="fill:none;stroke:red;stroke-width:0.0001px" d="M110.7,85c0.8,0,1.4,0.7,1.4,1.4c0,0.9-0.7,1.6-1.6,1.5c-0.8,0-1.4-0.7-1.3-1.6  C109.2,85.5,109.9,84.9,110.7,85z"/><path style="fill:none;stroke:red;stroke-width:0.0001px" d="M80.2,47.7c0.7,0,1.5,0.9,1.5,1.6c0,0.6-0.8,1.4-1.5,1.4c-0.9,0-1.6-0.7-1.6-1.5  C78.6,48.6,79.6,47.8,80.2,47.7z"/><path style="fill:none;stroke:red;stroke-width:0.0001px" d="M79.2,41.1c-0.7,0-1.4-0.7-1.4-1.3c0-0.8,0.7-1.6,1.5-1.6c0.8,0,1.4,0.7,1.4,1.5  C80.6,40.3,80.1,41.1,79.2,41.1z"/><path style="fill:none;stroke:red;stroke-width:0.0001px" d="M75.1,11.6c-0.7,0-1.5-0.7-1.5-1.3c0-0.8,0.8-1.5,1.7-1.5c0.6,0,1.4,0.8,1.4,1.3  C76.6,10.8,75.8,11.6,75.1,11.6z"/><path style="fill:none;stroke:red;stroke-width:0.0001px" d="M113.4,50.3c0,0.9-0.6,1.3-1.5,1.4c-0.8,0.1-1.5-0.7-1.4-1.5c0-0.7,0.8-1.3,1.5-1.3  C112.6,48.9,113.4,49.7,113.4,50.3z"/><path style="fill:none;stroke:red;stroke-width:0.0001px" d="M87.1,58.4c0,0.8-0.7,1.6-1.4,1.6c-0.7,0-1.5-0.8-1.4-1.5c0.1-0.9,0.7-1.3,1.7-1.3  C86.4,57.1,87.1,57.9,87.1,58.4z"/><path style="fill:none;stroke:red;stroke-width:0.0001px" d="M38.7,123.1c0,0.9-0.7,1.4-1.2,1.4c-0.8,0.1-1.5-0.7-1.5-1.5c0-0.7,0.6-1.3,1.4-1.3  C38.2,121.7,38.7,122.2,38.7,123.1z"/><path style="fill:none;stroke:red;stroke-width:0.0001px" d="M85,79.7c-0.8,0-1.5-0.6-1.5-1.3c0-0.7,0.7-1.5,1.2-1.4c1.1,0.1,1.5,0.5,1.5,1.4  C86.3,79.2,85.8,79.7,85,79.7z"/><path style="fill:none;stroke:red;stroke-width:0.0001px" d="M113.2,127c0,0.7-0.7,1.4-1.4,1.4c-0.6,0-1.4-0.6-1.4-1.2c0-0.8,0.7-1.6,1.5-1.6  C112.7,125.6,113.2,126.2,113.2,127z"/><path style="fill:none;stroke:red;stroke-width:0.0001px" d="M90.8,42.3c-0.6,0-1.4-0.7-1.4-1.2c0-0.9,0.5-1.5,1.3-1.5c0.7,0,1.4,0.6,1.4,1.3  C92.1,41.7,91.5,42.2,90.8,42.3z"/><path style="fill:none;stroke:red;stroke-width:0.0001px" d="M42.7,69.4c-0.8,0-1.3-0.6-1.3-1.4c0-0.7,0.7-1.3,1.4-1.3c0.7,0,1.4,0.7,1.4,1.3  C44.1,68.8,43.6,69.3,42.7,69.4z"/><path style="fill:none;stroke:red;stroke-width:0.0001px" d="M94,35.8c0.9,0,1.3,0.5,1.3,1.3c0,0.6-0.8,1.4-1.4,1.4c-0.7,0-1.3-0.7-1.3-1.6  C92.7,36.2,93.3,35.7,94,35.8z"/><path style="fill:none;stroke:red;stroke-width:0.0001px" d="M48.3,100.7c0,0.8-0.7,1.6-1.4,1.5c-0.6,0-1.3-0.8-1.3-1.4c0-0.6,0.8-1.4,1.3-1.4  C47.6,99.4,48.3,100.1,48.3,100.7z"/><path style="fill:none;stroke:red;stroke-width:0.0001px" d="M107.4,30.5c0.5,0,1.3,0.7,1.3,1.3c0,0.8-0.5,1.5-1.1,1.5c-0.7,0-1.6-0.7-1.6-1.2  C106,31.3,106.7,30.5,107.4,30.5z"/><path style="fill:none;stroke:red;stroke-width:0.0001px" d="M49.6,26.7c0-0.6,0.7-1.4,1.3-1.4c0.9,0,1.4,0.6,1.4,1.4c0,0.6-0.7,1.4-1.3,1.3  C50.2,28,49.6,27.5,49.6,26.7z"/><path style="fill:none;stroke:red;stroke-width:0.0001px" d="M121.6,79.9c-0.7,0-1.4-0.7-1.4-1.4c0-0.5,0.8-1.3,1.3-1.3c0.6,0,1.6,1,1.5,1.5  C123,79.3,122.3,79.9,121.6,79.9z"/><path style="fill:none;stroke:red;stroke-width:0.0001px" d="M36.3,85.9c0,0.6-0.8,1.3-1.5,1.3c-0.6,0-1.2-0.7-1.3-1.2c0-0.7,0.7-1.5,1.3-1.4  C35.6,84.6,36.3,85.1,36.3,85.9z"/><path style="fill:none;stroke:red;stroke-width:0.0001px" d="M106.5,110c-0.7,0.1-1.3-0.6-1.4-1.3c0-0.5,0.6-1.3,1.2-1.3c0.8,0,1.4,0.6,1.4,1.5  C107.7,109.5,107.2,110,106.5,110z"/><path style="fill:none;stroke:red;stroke-width:0.0001px" d="M126.9,69.9c0.7,0,1.4,0.7,1.4,1.4c0,0.5-0.8,1.2-1.4,1.2c-0.6,0-1.3-0.7-1.3-1.4  C125.6,70.6,126.3,69.8,126.9,69.9z"/><path style="fill:none;stroke:red;stroke-width:0.0001px" d="M71.9,82.3c0,0.6-0.6,1.2-1.3,1.2c-0.6,0-1.3-0.6-1.3-1.1c0-0.6,0.7-1.5,1.3-1.5  C71.3,80.9,71.9,81.6,71.9,82.3z"/><path style="fill:none;stroke:red;stroke-width:0.0001px" d="M118,71.3c0-0.7,0.7-1.4,1.3-1.4c0.7,0,1.4,0.7,1.3,1.4c0,0.7-0.8,1.4-1.4,1.3  C118.7,72.5,118,71.8,118,71.3z"/><path style="fill:none;stroke:red;stroke-width:0.0001px" d="M104.7,131c-0.1,1-0.5,1.6-1.3,1.6c-0.6,0-1.4-0.8-1.3-1.3c0.1-0.7,0.6-1.3,1.3-1.3  C104.1,130,104.7,130.5,104.7,131z"/><path style="fill:none;stroke:red;stroke-width:0.0001px" d="M77.1,132.7c0.8,0,1.3,0.5,1.3,1.3c0,0.6-0.7,1.3-1.3,1.3c-0.5,0-1.2-0.8-1.2-1.3  C75.9,133.4,76.5,132.7,77.1,132.7z"/><path style="fill:none;stroke:red;stroke-width:0.0001px" d="M28.3,125.2c0-0.7,0.6-1.3,1.1-1.3c0.6,0,1.4,0.7,1.4,1.3c0,0.7-0.6,1.2-1.5,1.3  C28.7,126.4,28.3,125.9,28.3,125.2z"/><path style="fill:none;stroke:red;stroke-width:0.0001px" d="M31.8,43.1c-0.2-0.6,0.4-1.2,1.3-1.3c0.5,0,1.2,0.6,1.2,1.2c0,0.6-0.4,1.2-0.8,1.2  C32.1,44.3,31.8,44.1,31.8,43.1z"/><path style="fill:none;stroke:red;stroke-width:0.0001px" d="M52.8,34.3c0,0.7-0.6,1.3-1.3,1.3c-0.5,0-1.3-0.7-1.3-1.2c0-0.7,0.7-1.4,1.4-1.4  C52.3,33,52.8,33.5,52.8,34.3z"/><path style="fill:none;stroke:red;stroke-width:0.0001px" d="M28.6,111.8c0.8,0,1.3,0.5,1.3,1.2c0,0.7-0.6,1.3-1.3,1.3c-0.7,0-1.2-0.5-1.2-1.2  c0-0.1,0.1-0.3,0.2-0.4C27.8,112.3,27.9,111.7,28.6,111.8z"/><path style="fill:none;stroke:red;stroke-width:0.0001px" d="M122.3,68.4c0.6,0,1.1,0.7,1.2,1.3c0,0.5-0.7,1.2-1.2,1.2c-0.8,0-1.3-0.5-1.2-1.3  C121,68.9,121.5,68.4,122.3,68.4z"/><path style="fill:none;stroke:red;stroke-width:0.0001px" d="M50.8,135.6c0-0.7,0.5-1.2,1.2-1.1c0.7,0,1.3,0.7,1.3,1.3c0,0.4-0.9,1.2-1.3,1.2  C51.2,136.9,50.7,136.4,50.8,135.6z"/><path style="fill:none;stroke:red;stroke-width:0.0001px" d="M21.6,27c0.7,0,1.3,0.5,1.3,1.2c0,0.8-0.6,1.4-1.3,1.4c-0.6,0-1.2-0.7-1.2-1.3  C20.3,27.8,21.1,27,21.6,27z"/><path style="fill:none;stroke:red;stroke-width:0.0001px" d="M67.3,76.5c0,0.5-0.7,1.2-1.2,1.3c-0.5,0-1.3-0.8-1.2-1.3c0-0.6,0.6-1.2,1.2-1.2  C66.7,75.2,67.3,75.8,67.3,76.5z"/><path style="fill:none;stroke:red;stroke-width:0.0001px" d="M5,82.1c-0.6,0-1.2-0.7-1.2-1.3c0-0.5,0.7-1.2,1.2-1.2c0.5,0,1.3,0.7,1.3,1.2  C6.3,81.5,5.7,82.1,5,82.1z"/><path style="fill:none;stroke:red;stroke-width:0.0001px" d="M97.9,117.8c-0.6,0-1.1-0.5-1.1-1c0-0.7,0.5-1.3,1.1-1.4c0.7,0,1.4,0.5,1.4,1.2  C99.3,117.2,98.6,117.7,97.9,117.8z"/><path style="fill:none;stroke:red;stroke-width:0.0001px" d="M15.8,107.6c0,0.6-0.6,1.3-1.1,1.3c-0.6,0-1.3-0.6-1.3-1.3c0-0.5,0.5-1.3,1.3-1.2  C15.4,106.5,15.8,106.9,15.8,107.6z"/><path style="fill:none;stroke:red;stroke-width:0.0001px" d="M8.5,99.3c0-0.6,0.7-1.3,1.2-1.2c0.7,0.1,1.3,0.6,1.2,1.3c0,0.6-0.5,1.2-1,1.2  C9.1,100.6,8.5,100,8.5,99.3z"/><path style="fill:none;stroke:red;stroke-width:0.0001px" d="M85.7,109.7c0-0.7,0.5-1.2,1.1-1.2c0.6,0,1.3,0.6,1.3,1.2c0,0.6-0.6,1.2-1.2,1.2  C86.2,110.9,85.7,110.4,85.7,109.7z"/><path style="fill:none;stroke:red;stroke-width:0.0001px" d="M24,73.1c-0.7,0-1.2-0.5-1.2-1.2c0-0.5,0.7-1.3,1.2-1.3c0.6,0,1.2,0.6,1.2,1.3  C25.2,72.6,24.6,73.1,24,73.1z"/><path style="fill:none;stroke:red;stroke-width:0.0001px" d="M7.2,89.4c0.5,0,1.2,0.7,1.2,1.3c0,0.5-0.7,1.1-1.1,1.1c-0.7,0-1.2-0.5-1.2-1.2  C6,90,6.5,89.4,7.2,89.4z"/><path style="fill:none;stroke:red;stroke-width:0.0001px" d="M75.9,48.4c0.2,0.1,0.3,0,0.5-0.1c0.7-0.5,1.1-0.4,1.6,0.2c0.3,0.4,0.3,1,0,1.4  c-0.4,0.5-1.2,0.6-1.7,0.2c-0.3-0.3-0.5-0.6-0.4-1.1C75.8,48.8,76,48.6,75.9,48.4L75.9,48.4z"/><path style="fill:none;stroke:red;stroke-width:0.0001px" d="M23.2,43.6c0,0.7-0.5,1.2-1.1,1.2c-0.5,0-1.1-0.6-1.1-1.1c0-0.6,0.6-1.2,1.1-1.2  C22.6,42.4,23.2,43,23.2,43.6z"/><path style="fill:none;stroke:red;stroke-width:0.0001px" d="M8.2,66.1c0,0.5-0.5,1-1.1,1c-0.7,0-1.2-0.5-1.2-1.2c0-0.6,0.5-1.1,1.1-1.1  C7.7,64.9,8.2,65.4,8.2,66.1z"/><path style="fill:none;stroke:red;stroke-width:0.0001px" d="M104.2,15.1c-0.5,0-1.1-0.5-1.1-1.1c-0.1-0.6,0.5-1.2,1.2-1.2c0.6,0,1.1,0.4,1.1,1.2  C105.4,14.6,105,15,104.2,15.1z"/><path style="fill:none;stroke:red;stroke-width:0.0001px" d="M80.9,129.2c-0.6,0-1.1-0.5-1.1-1c0-0.7,0.6-1.1,1.4-1.1c0.5,0,1,0.5,0.9,0.9  C82.1,128.9,81.8,129.2,80.9,129.2z"/><path style="fill:none;stroke:red;stroke-width:0.0001px" d="M46,88.1c0.4,0,1,0.6,1.1,1.1c0,0.5-0.6,1.1-1.2,1.1c-0.5,0-1.1-0.5-1.1-1.1  C44.8,88.6,45.3,88.1,46,88.1z"/><path style="fill:none;stroke:red;stroke-width:0.0001px" d="M39.3,16.8c0.9-0.1,1,0.5,1.1,1.2c0,0.5-0.6,0.9-1.2,0.9c-0.7,0-1.1-0.4-1.1-1.2  C38.1,17.2,38.6,16.8,39.3,16.8z"/><path style="fill:none;stroke:red;stroke-width:0.0001px" d="M131.8,57.2c-0.6,0-1.1-0.5-1.1-1.1c0-0.5,0.5-1.1,1-1.1c0.7,0,1.3,0.6,1.2,1.2  C132.9,56.8,132.4,57.3,131.8,57.2z"/><path style="fill:none;stroke:red;stroke-width:0.0001px" d="M130.3,59.1c0-0.5,0.7-1.1,1.1-1.1c0.5,0,1.2,0.8,1.2,1.4c0,0.4-0.7,1.1-1.1,1  C130.9,60.3,130.3,59.6,130.3,59.1z"/><path style="fill:none;stroke:red;stroke-width:0.0001px" d="M72.9,133.4c0.6,0,1.3,0.6,1.3,1.1c0,0.4-0.8,0.9-1.4,0.9c-0.6,0-1.1-0.4-1.1-0.9  C71.8,133.8,72.2,133.4,72.9,133.4z"/><path style="fill:none;stroke:red;stroke-width:0.0001px" d="M56.7,88.2c0,0.6-0.5,1.1-1,1.1c-0.7,0-1.1-0.5-1.1-1.1c0-0.6,0.6-1.2,1.1-1.1  C56.1,87,56.8,87.5,56.7,88.2z"/><path style="fill:none;stroke:red;stroke-width:0.0001px" d="M129.2,79.3c0,0.5-0.6,1.2-1.1,1.1c-0.5,0-1.1-0.7-1.1-1.1c0-0.5,0.6-1.2,1.1-1.2  C128.6,78.2,129.2,78.8,129.2,79.3z"/><path style="fill:none;stroke:red;stroke-width:0.0001px" d="M136.8,83.5c0-0.6,0.5-1.1,1.1-1.1c0.5,0,1.1,0.6,1.1,1.1c0,0.5-0.7,1.2-1.1,1.2  C137.5,84.6,136.8,84,136.8,83.5z"/><path style="fill:none;stroke:red;stroke-width:0.0001px" d="M60,64.4c-0.5,0-1.1-0.6-1.1-1c0-0.6,0.6-1.1,1.3-1.1c0.4,0,0.9,0.5,0.9,1  C61.1,63.7,60.5,64.4,60,64.4z"/><path style="fill:none;stroke:red;stroke-width:0.0001px" d="M12.8,54.5c0-0.5,0.5-1.1,1-1.1c0.6,0,1.1,0.5,1.1,1.2c0,0.5-0.5,1-1,1  C13.3,55.6,12.8,55.1,12.8,54.5z"/><path style="fill:none;stroke:red;stroke-width:0.0001px" d="M48,91.4c0.5,0,1.2,0.6,1.1,1.1c0,0.5-0.7,1.1-1.1,1.1c-0.5,0-1-0.6-1-1.1C47,92,47.6,91.4,48,91.4z"/><path style="fill:none;stroke:red;stroke-width:0.0001px" d="M55.2,126.9c0,0.6-0.5,1.3-1,1.3c-0.5,0-1-0.6-1.1-1.2c0-0.5,0.6-1,1.1-1  C54.7,125.9,55.2,126.4,55.2,126.9z"/><path style="fill:none;stroke:red;stroke-width:0.0001px" d="M36.4,64.3c-0.1,0.7-0.4,1.1-1.1,1.1c-0.6,0-1-0.6-1-1.1c0-0.5,0.6-1.1,1.1-1  C36,63.3,36.5,63.9,36.4,64.3z"/><path style="fill:none;stroke:red;stroke-width:0.0001px" d="M90.1,8.7c-0.5,0-1-0.5-1-1c0-0.5,0.4-1.1,0.9-1.1c0.5,0,1.2,0.6,1.2,1.1C91.2,8.1,90.6,8.7,90.1,8.7  z"/><path style="fill:none;stroke:red;stroke-width:0.0001px" d="M49.9,102.5c-0.6,0-1.1-0.5-1.1-1c0-0.5,0.6-1.1,1-1.1c0.4,0,1,0.7,1,1.2  C50.9,102,50.4,102.5,49.9,102.5z"/><path style="fill:none;stroke:red;stroke-width:0.0001px" d="M66.7,99.2c0.5,0,1,0.5,1,0.9c0,0.4-0.6,1-1,1c-0.5,0-1.2-0.6-1.2-1C65.5,99.7,66.1,99.2,66.7,99.2z"/><path style="fill:none;stroke:red;stroke-width:0.0001px" d="M76.3,68.8c0-0.7,0.4-1.1,0.9-1c0.6,0,1,0.5,1,0.9c0,0.5-0.6,1.1-1.1,1  C76.6,69.7,76.3,69.3,76.3,68.8z"/><path style="fill:none;stroke:red;stroke-width:0.0001px" d="M39.5,110.1c-0.6,0-1.1-0.6-1-1c0.1-0.5,0.6-1,1.2-0.9c0.4,0,0.9,0.6,0.9,1  C40.5,109.7,40,110.1,39.5,110.1z"/><path style="fill:none;stroke:red;stroke-width:0.0001px" d="M35,71.2c-0.5,0-1.1-0.5-1.1-1c0-0.4,0.6-1,1.1-1c0.4,0,1,0.5,1,0.9C36,70.7,35.5,71.2,35,71.2z"/><path style="fill:none;stroke:red;stroke-width:0.0001px" d="M133.1,46.8c0-0.4,0.6-1.1,1-1.1c0.5,0,1,0.5,1.1,1.1c0,0.5-0.5,1-1,1  C133.6,47.9,133.1,47.3,133.1,46.8z"/><path style="fill:none;stroke:red;stroke-width:0.0001px" d="M131.5,52.1c0.5,0,1,0.4,1,1c0,0.5-0.6,1-1,1c-0.5,0-1.1-0.6-1.1-1C130.4,52.6,131,52.1,131.5,52.1z"/><path style="fill:none;stroke:red;stroke-width:0.0001px" d="M24.3,42.5c0-0.7,0.4-1.1,0.9-1.1c0.5,0,0.9,0.4,0.9,0.9c0,0.5-0.5,1.1-1.2,1  C24.4,43.3,24.2,42.9,24.3,42.5z"/><path style="fill:none;stroke:red;stroke-width:0.0001px" d="M40,30c-0.6,0-0.9-0.4-0.9-1.1c0-0.5,0.4-0.8,1-0.8c0.5,0,0.9,0.5,0.9,1C41,29.7,40.6,30.1,40,30z"/><path style="fill:none;stroke:red;stroke-width:0.0001px" d="M45.4,123.2c0-0.5,0.4-1,0.9-1c0.5,0,1,0.5,1,1.1c0,0.4-0.5,0.9-0.9,0.9  C45.8,124.2,45.4,123.8,45.4,123.2z"/><path style="fill:none;stroke:red;stroke-width:0.0001px" d="M117.6,105.2c0,0.7-0.3,1-1,1c-0.4,0-1-0.5-0.9-0.9c0-0.5,0.5-1.1,1-1  C117.2,104.2,117.6,104.7,117.6,105.2z"/><path style="fill:none;stroke:red;stroke-width:0.0001px" d="M28.4,123c0,0.4-0.6,0.8-1.1,0.8c-0.4,0-0.9-0.6-1-0.9c0-0.4,0.7-1,1.2-1  C28.1,122,28.4,122.4,28.4,123z"/><path style="fill:none;stroke:red;stroke-width:0.0001px" d="M25.1,87.9c0,0.5-0.4,1-0.9,1c-0.4,0-1.2-0.7-1.1-1.1c0-0.4,0.6-0.8,1.1-0.8  C24.6,87,25.1,87.5,25.1,87.9z"/><path style="fill:none;stroke:red;stroke-width:0.0001px" d="M8.2,80.6c0.4,0,0.7,0.4,0.7,0.9c0,0.5-0.3,0.9-0.8,0.9c-0.5,0-1-0.5-1-0.9C7,81,7.5,80.6,8.2,80.6z"/><path style="fill:none;stroke:red;stroke-width:0.0001px" d="M65.5,126.4c0.1-0.3,0.1-0.8,0.6-0.8c0.7-0.1,1.2,0.4,1.3,0.9c0,0.4-0.5,0.9-1,0.9  C65.9,127.4,65.5,127,65.5,126.4z"/><path style="fill:none;stroke:red;stroke-width:0.0001px" d="M57,17.5c0,0,0.1,0,0.1,0c0,0.2,0.1,0.3,0.2,0.4c0.3,0.3,0.6,0.7,0.3,1.1c-0.2,0.3-0.5,0.7-1,0.5  c-0.5-0.2-0.7-0.6-0.6-1.1c0-0.4,0.3-0.5,0.7-0.6C56.8,17.8,57,17.7,57,17.5z"/><path style="fill:none;stroke:red;stroke-width:0.0001px" d="M76.8,18.5c0-0.2,0-0.3-0.1-0.5c-0.1-0.4,0-0.8,0.4-1c0.4-0.1,0.8-0.2,1.1,0.2c0.3,0.4,0.3,0.8,0,1.1  c-0.3,0.3-0.7,0.6-1.2,0.2C76.9,18.6,76.8,18.6,76.8,18.5C76.7,18.5,76.8,18.5,76.8,18.5z"/><path style="fill:none;stroke:red;stroke-width:0.0001px" d="M62.5,110.5c-0.5,0-0.8-0.4-0.8-0.9c0-0.6,0.4-1,0.9-0.9c0.5,0.1,0.8,0.4,0.8,0.9  C63.6,110.2,63.2,110.5,62.5,110.5z"/><path style="fill:none;stroke:red;stroke-width:0.0001px" d="M112.1,64c0.6,0,0.9,0.3,0.9,0.8c0,0.5-0.4,0.9-1,0.9c-0.5,0-1-0.5-0.9-0.9  C111.1,64.3,111.6,64,112.1,64z"/><path style="fill:none;stroke:red;stroke-width:0.0001px" d="M133.3,78.6c-0.4,0-0.9-0.5-0.9-0.8c0-0.5,0.4-1,0.9-1c0.5,0,1,0.5,0.9,1  C134.2,78.3,133.8,78.7,133.3,78.6z"/><path style="fill:none;stroke:red;stroke-width:0.0001px" d="M55.3,24.4c0.6,0,1,0.4,1,0.9c0,0.4-0.5,0.9-0.9,0.9c-0.4,0-0.9-0.6-0.9-1  C54.5,24.5,54.9,24.4,55.3,24.4z"/><path style="fill:none;stroke:red;stroke-width:0.0001px" d="M63.5,5.6c0-0.5,0.4-0.9,0.8-0.9c0.5,0,0.9,0.4,0.9,0.9c0,0.4-0.5,0.9-0.9,0.9  C63.9,6.5,63.5,6.1,63.5,5.6z"/><path style="fill:none;stroke:red;stroke-width:0.0001px" d="M41.2,110.1c0-0.4,0.4-0.9,0.8-0.8c0.5,0,0.8,0.3,0.9,0.8c0,0.4-0.5,0.9-0.9,0.9  C41.5,110.9,41.2,110.5,41.2,110.1z"/><path style="fill:none;stroke:red;stroke-width:0.0001px" d="M63.8,36.5c-0.5,0-1-0.5-1-0.9c0-0.4,0.5-0.8,1-0.8c0.4,0,0.7,0.3,0.7,0.7  C64.5,36.1,64.2,36.5,63.8,36.5z"/><path style="fill:none;stroke:red;stroke-width:0.0001px" d="M40.5,65.2c0-0.5,0.3-0.9,0.8-0.9c0.4,0,0.9,0.4,0.9,0.8c0,0.3-0.4,0.9-0.7,0.9  C40.9,66,40.5,65.8,40.5,65.2z"/><path style="fill:none;stroke:red;stroke-width:0.0001px" d="M48.9,28.3c0,0.5-0.4,1-0.9,0.9c-0.5-0.1-0.7-0.4-0.7-0.9c0-0.4,0.4-0.9,0.8-0.9  C48.5,27.5,48.9,27.9,48.9,28.3z"/><path style="fill:none;stroke:red;stroke-width:0.0001px" d="M124.5,58.2c0.4,0,1,0.5,1,0.9c0,0.4-0.6,0.9-1,0.9c-0.5,0-0.7-0.4-0.8-0.8  C123.8,58.7,124.2,58.2,124.5,58.2z"/><path style="fill:none;stroke:red;stroke-width:0.0001px" d="M57.7,114.1c-0.3-0.1-0.7-0.1-0.8-0.7c0-0.6,0.3-1,0.8-1.1c0.6,0,0.7,0.4,0.8,0.8  C58.5,113.7,58.2,114.1,57.7,114.1z"/><path style="fill:none;stroke:red;stroke-width:0.0001px" d="M72.2,67.1c0,0.3-0.6,0.8-1,0.8c-0.4,0-0.8-0.5-0.7-1c0-0.5,0.5-0.7,0.9-0.7  C71.6,66.1,72.2,66.7,72.2,67.1z"/><path style="fill:none;stroke:red;stroke-width:0.0001px" d="M71.7,95.9c-0.5,0-1-0.4-0.9-0.8c0-0.5,0.4-0.9,0.9-0.9c0.5,0,0.8,0.3,0.8,0.7  C72.4,95.4,72.3,96,71.7,95.9z"/><path style="fill:none;stroke:red;stroke-width:0.0001px" d="M111.3,66.8c0,0.7-0.3,1-0.7,1.1c-0.5,0-1-0.5-0.9-1c0-0.6,0.5-0.7,0.9-0.7  C111,66.2,111.1,66.6,111.3,66.8z"/><path style="fill:none;stroke:red;stroke-width:0.0001px" d="M63.4,94.6c0.4,0,0.8,0.4,0.8,0.8c0,0.3-0.5,0.8-0.9,0.8c-0.4,0-0.9-0.4-0.9-0.8  C62.6,94.9,62.9,94.6,63.4,94.6z"/><path style="fill:none;stroke:red;stroke-width:0.0001px" d="M116.4,72.6c-0.5,0-0.9-0.4-0.9-0.9c0-0.5,0.3-0.7,0.8-0.8c0.5,0,0.9,0.4,1,0.8  C117.2,72.2,116.8,72.6,116.4,72.6z"/><path style="fill:none;stroke:red;stroke-width:0.0001px" d="M79.8,18.3c-0.4,0-0.5-0.4-0.6-0.8c0-0.4,0.4-0.8,0.8-0.8c0.4,0,0.9,0.4,0.9,0.7  C80.9,17.9,80.5,18.3,79.8,18.3z"/><path style="fill:none;stroke:red;stroke-width:0.0001px" d="M74.3,14.3c-0.3,0-0.6-0.3-0.6-0.8c-0.1-0.4,0.5-0.9,0.9-0.8c0.4,0,0.7,0.3,0.8,0.7  C75.4,13.8,74.9,14.3,74.3,14.3z"/><path style="fill:none;stroke:red;stroke-width:0.0001px" d="M76.7,18.5c0,0.4,0.3,0.8-0.1,1.2c-0.2,0.3-0.5,0.5-0.8,0.3c-0.4-0.2-0.6-0.5-0.6-1  c0-0.4,0.2-0.5,0.6-0.6C76.1,18.5,76.4,18.5,76.7,18.5C76.8,18.5,76.7,18.5,76.7,18.5z"/><path style="fill:none;stroke:red;stroke-width:0.0001px" d="M23.7,102.3c0-0.4,0.5-0.9,0.9-0.8c0.4,0.1,0.8,0.4,0.8,0.8c0.1,0.4-0.5,0.9-1,0.8  C24.1,103.1,23.6,102.6,23.7,102.3z"/><path style="fill:none;stroke:red;stroke-width:0.0001px" d="M100.2,28c-0.1,0.4-0.4,0.6-0.8,0.6c-0.4,0-0.9-0.6-0.9-0.9c0-0.3,0.6-0.8,0.9-0.8  C99.8,27,100.3,27.5,100.2,28z"/><path style="fill:none;stroke:red;stroke-width:0.0001px" d="M14.9,37.5c0,0.7-0.4,1.2-0.8,1.2c-0.5,0-0.7-0.4-0.8-0.8c0-0.4,0.4-0.9,0.8-0.8  C14.5,37.1,14.8,37.2,14.9,37.5z"/><path style="fill:none;stroke:red;stroke-width:0.0001px" d="M54,95.9c0.3,0,1,0.6,0.9,0.9c-0.1,0.4-0.3,0.7-0.8,0.7c-0.4,0-0.9-0.5-0.9-1  C53.3,96.1,53.6,95.8,54,95.9z"/><path style="fill:none;stroke:red;stroke-width:0.0001px" d="M112.8,75.1c0.5,0,0.9,0.3,0.9,0.7c0,0.4-0.2,0.7-0.6,0.8c-0.5,0-0.9-0.3-0.9-0.7  C112.2,75.5,112.3,75.1,112.8,75.1z"/><path style="fill:none;stroke:red;stroke-width:0.0001px" d="M124.4,96.6c-0.5,0-0.8-0.3-0.8-0.8c0-0.3,0.5-0.8,0.8-0.7c0.4,0.1,0.8,0.2,0.8,0.8  C125.2,96.4,124.9,96.7,124.4,96.6z"/><path style="fill:none;stroke:red;stroke-width:0.0001px" d="M27.3,107.7c-0.4,0-0.9-0.4-0.9-0.8c0.1-0.4,0.3-0.8,0.8-0.8c0.5,0,0.8,0.3,0.8,0.7  C28.1,107.4,27.7,107.7,27.3,107.7z"/><path style="fill:none;stroke:red;stroke-width:0.0001px" d="M93.5,78.5c0,0.5-0.2,0.8-0.7,0.8c-0.5,0-0.9-0.3-0.8-0.8c0-0.5,0.3-0.7,0.8-0.8  C93.4,77.7,93.4,78.2,93.5,78.5z"/><path style="fill:none;stroke:red;stroke-width:0.0001px" d="M43.6,55.9c0.1-0.4,0.3-0.7,0.8-0.7c0.4,0,0.9,0.5,0.8,0.8c-0.1,0.4-0.3,0.8-0.8,0.8  C43.9,56.7,43.5,56.2,43.6,55.9z"/><path style="fill:none;stroke:red;stroke-width:0.0001px" d="M85.8,63.4c0.7,0,0.9,0.4,0.9,0.8c0,0.5-0.4,0.6-0.8,0.6c-0.5,0-0.7-0.3-0.7-0.7  C85.2,63.6,85.4,63.3,85.8,63.4z"/><path style="fill:none;stroke:red;stroke-width:0.0001px" d="M47.3,20.2c-0.1,0.4-0.2,0.9-0.8,0.8c-0.5,0-0.6-0.4-0.7-0.8c-0.1-0.3,0.6-0.9,0.8-0.8  C47,19.5,47.3,19.8,47.3,20.2z"/><path style="fill:none;stroke:red;stroke-width:0.0001px" d="M68.4,14.4c0.2,0,0.3,0.1,0.4,0.3c0,0.1,0,0.3,0,0.4c0.1,0.5-0.1,0.8-0.5,0.8c-0.4,0.1-0.8-0.2-1-0.6  c-0.1-0.3,0.1-0.6,0.5-0.7C68,14.6,68.3,14.7,68.4,14.4z"/><path style="fill:none;stroke:red;stroke-width:0.0001px" d="M15.6,43.9c0.4,0,0.6,0.3,0.7,0.7c0.1,0.4-0.5,0.9-0.9,0.9c-0.4,0-0.6-0.3-0.6-0.7  C14.8,44.3,15,43.9,15.6,43.9z"/><path style="fill:none;stroke:red;stroke-width:0.0001px" d="M117.3,44.4c0-0.7,0.3-0.9,0.7-0.9c0.4,0,0.7,0.3,0.8,0.7c0.1,0.3-0.5,0.8-0.8,0.7  C117.6,44.9,117.3,44.7,117.3,44.4z"/><path style="fill:none;stroke:red;stroke-width:0.0001px" d="M75.9,48.4c-0.9,0.3-1.4,0-1.4-0.7c0-0.4,0.3-0.5,0.7-0.4c0.3,0.1,0.8-0.1,0.7,0.6  C75.9,48,75.9,48.2,75.9,48.4C75.9,48.4,75.9,48.4,75.9,48.4z"/><path style="fill:none;stroke:red;stroke-width:0.0001px" d="M86.3,122.8c-0.4-0.1-0.8-0.2-0.8-0.7c0-0.5,0.4-0.7,0.7-0.7c0.3,0,0.7,0.3,0.7,0.7  C86.9,122.4,86.9,122.9,86.3,122.8z"/><path style="fill:none;stroke:red;stroke-width:0.0001px" d="M37.2,58.2c-0.3,0-0.8-0.5-0.8-0.8c0.1-0.5,0.4-0.6,0.8-0.6c0.4,0,0.7,0.2,0.8,0.6  C38,57.7,37.5,58.2,37.2,58.2z"/><path style="fill:none;stroke:red;stroke-width:0.0001px" d="M111,32.7c0,0.4-0.2,0.6-0.6,0.6c-0.4,0-0.6-0.2-0.7-0.6c0-0.4,0.4-0.8,0.8-0.7  C110.9,31.9,111,32.3,111,32.7z"/><path style="fill:none;stroke:red;stroke-width:0.0001px" d="M90.5,10.3c0,0.5-0.3,0.7-0.7,0.7c-0.4,0-0.7-0.3-0.7-0.7c0-0.3,0.1-0.7,0.6-0.7  C90.2,9.7,90.5,9.9,90.5,10.3z"/><path style="fill:none;stroke:red;stroke-width:0.0001px" d="M12.3,86.8c-0.4,0-0.7-0.1-0.7-0.5c0-0.4,0.4-0.7,0.8-0.7c0.4,0,0.7,0.2,0.7,0.6  C13.2,86.6,12.9,86.8,12.3,86.8z"/><path style="fill:none;stroke:red;stroke-width:0.0001px" d="M94.6,72.4c0.1-0.3,0.2-0.7,0.7-0.7c0.4,0,0.7,0.3,0.7,0.7c0,0.5-0.3,0.7-0.7,0.7  C94.9,73.1,94.6,72.9,94.6,72.4z"/><path style="fill:none;stroke:red;stroke-width:0.0001px" d="M69.3,133.7c0.1-0.2,0.1-0.7,0.7-0.6c0.5,0.1,0.8,0.3,0.7,0.8c0,0.6-0.5,0.5-0.9,0.6  C69.5,134.4,69.2,134.2,69.3,133.7z"/><path style="fill:none;stroke:red;stroke-width:0.0001px" d="M113.2,89.1c-0.2,0.2-0.4,0.6-0.8,0.6c-0.4,0-0.7-0.3-0.7-0.7c0-0.3,0.3-0.7,0.7-0.7  C112.8,88.3,113.1,88.6,113.2,89.1z"/><path style="fill:none;stroke:red;stroke-width:0.0001px" d="M93.1,13.8c0.5-0.1,0.7,0.3,0.7,0.6c0,0.4-0.4,0.6-0.8,0.6c-0.3,0-0.8-0.2-0.7-0.7  C92.3,13.9,92.7,13.8,93.1,13.8z"/><path style="fill:none;stroke:red;stroke-width:0.0001px" d="M119.4,25.3c-0.4,0-0.7-0.3-0.7-0.7c0-0.4,0.3-0.6,0.7-0.6c0.4,0,0.7,0.3,0.7,0.7  C120.1,25,119.9,25.3,119.4,25.3z"/><path style="fill:none;stroke:red;stroke-width:0.0001px" d="M68.4,30.1c0.1,0.4-0.3,0.6-0.5,0.5c-0.2,0-0.7-0.1-0.7-0.6c0-0.4,0-0.8,0.6-0.8  C68.2,29.3,68.4,29.7,68.4,30.1z"/><path style="fill:none;stroke:red;stroke-width:0.0001px" d="M85.8,125.6c-0.5,0-0.6-0.3-0.6-0.6c0-0.4,0.3-0.6,0.7-0.6c0.4,0,0.6,0.2,0.6,0.6  C86.5,125.3,86.2,125.5,85.8,125.6z"/><path style="fill:none;stroke:red;stroke-width:0.0001px" d="M126.2,61.6c0.1,0.4-0.3,0.6-0.5,0.6c-0.3,0-0.7-0.2-0.7-0.6c0-0.3,0.1-0.8,0.6-0.7  C126,60.8,126.3,61.1,126.2,61.6z"/><path style="fill:none;stroke:red;stroke-width:0.0001px" d="M114.1,106.7c0-0.5,0.3-0.7,0.7-0.8c0.4,0,0.5,0.4,0.5,0.6c0,0.4-0.3,0.7-0.7,0.6  C114.4,107.1,114,107,114.1,106.7z"/><path style="fill:none;stroke:red;stroke-width:0.0001px" d="M96,14c-0.4-0.1-0.6-0.4-0.6-0.8c0-0.4,0.3-0.5,0.7-0.5c0.3,0,0.6,0.3,0.6,0.6  C96.6,13.8,96.3,13.9,96,14z"/><path style="fill:none;stroke:red;stroke-width:0.0001px" d="M58.8,79.7c0,0.4-0.1,0.6-0.5,0.6c-0.4,0-0.6-0.2-0.6-0.6c0-0.4,0.3-0.5,0.6-0.5  C58.7,79.1,58.8,79.4,58.8,79.7z"/><path style="fill:none;stroke:red;stroke-width:0.0001px" d="M37.6,125.4c0.4,0,0.6,0.3,0.6,0.5c0,0.3-0.1,0.6-0.5,0.6c-0.3,0-0.6,0-0.6-0.6  C37.1,125.4,37.5,125.6,37.6,125.4z"/><path style="fill:none;stroke:red;stroke-width:0.0001px" d="M110.3,56.3c-0.1,0.3-0.3,0.6-0.6,0.6c-0.4,0-0.5-0.3-0.5-0.6c0-0.3,0.2-0.5,0.5-0.5  C110.1,55.8,110.3,56,110.3,56.3z"/><path style="fill:none;stroke:red;stroke-width:0.0001px" d="M78.1,77.8c-0.1,0.4-0.2,0.7-0.6,0.6c-0.3,0-0.5-0.2-0.4-0.5c0-0.4,0.2-0.5,0.6-0.5  C77.9,77.4,78.1,77.5,78.1,77.8z"/><path style="fill:none;stroke:red;stroke-width:0.0001px" d="M18.6,69c0.4,0,0.7,0.2,0.7,0.5c0,0.3-0.2,0.6-0.6,0.5c-0.3,0-0.7-0.1-0.7-0.5  C18.1,69.2,18.4,69,18.6,69z"/><path style="fill:none;stroke:red;stroke-width:0.0001px" d="M121.7,44.2c0,0.4-0.2,0.6-0.6,0.6c-0.4,0-0.6-0.2-0.6-0.6c0-0.4,0.3-0.5,0.5-0.4  C121.4,43.8,121.6,44,121.7,44.2z"/><path style="fill:none;stroke:red;stroke-width:0.0001px" d="M11.9,73.2c-0.2-0.1-0.5-0.2-0.5-0.5c0-0.3,0.1-0.5,0.5-0.5c0.4,0,0.5,0.3,0.5,0.6  C12.4,73,12.2,73.2,11.9,73.2z"/><path style="fill:none;stroke:red;stroke-width:0.0001px" d="M49.7,49.8c0,0.3-0.1,0.5-0.4,0.5c-0.4,0-0.4-0.2-0.4-0.5c0-0.3,0.1-0.5,0.5-0.5  C49.6,49.1,49.7,49.4,49.7,49.8z"/><path style="fill:none;stroke:red;stroke-width:0.0001px" d="M106.1,67.1c0-0.3,0.1-0.5,0.5-0.5c0.3,0,0.5,0.1,0.4,0.4c0,0.2-0.1,0.5-0.5,0.5  C106.2,67.5,106,67.4,106.1,67.1z"/><path style="fill:none;stroke:red;stroke-width:0.0001px" d="M114.7,66c-0.2,0-0.3-0.1-0.3-0.4c0-0.3,0.1-0.6,0.5-0.6c0.2,0,0.4,0.1,0.4,0.4  C115.2,65.7,115.1,66,114.7,66z"/><path style="fill:none;stroke:red;stroke-width:0.0001px" d="M91.2,50.9c0,0.3-0.2,0.5-0.4,0.5c-0.3,0-0.4-0.2-0.4-0.4c0-0.2,0.2-0.4,0.4-0.4  C91,50.6,91.2,50.7,91.2,50.9z"/><path style="fill:none;stroke:red;stroke-width:0.0001px" d="M14.4,69C14.2,69,14,69,14,68.7c0-0.2,0.1-0.5,0.4-0.4c0.2,0,0.4,0.2,0.4,0.4  C14.8,69,14.6,69,14.4,69z"/></svg>