<svg xmlns="http://www.w3.org/2000/svg" xmlns:xlink="http://www.w3.org/1999/xlink" version="1.1" id="Layer_1" x="0px" y="0px" viewBox="0 0 144 144" style="enable-background:new 0 0 144 144;" xml:space="preserve"><path style="fill:none;stroke:red;stroke-width:0.0001px" d="M61.8,44.5c-2.4,0-3.9-1.6-4.1-3.5c-0.2-2.3,1.9-4.1,3.7-4.1c2.6-0.1,3.9,2,3.9,3.7  C65.4,42.8,63.7,44.6,61.8,44.5z"/><path style="fill:none;stroke:red;stroke-width:0.0001px" d="M105.2,46.7c-2.2,0-3.9-1.8-3.8-4c0.2-2.4,2-3.6,3.7-3.6c2.8-0.1,4,2.2,3.9,4  C109,45.5,107.2,46.8,105.2,46.7z"/><path style="fill:none;stroke:red;stroke-width:0.0001px" d="M89.5,92.5c-0.1-1.8,1.8-3.8,3.6-3.8c2.6,0.1,4.2,1.9,4,4.2c-0.1,1.9-1.6,3.5-4,3.5  C91.1,96.5,89.4,94.5,89.5,92.5z"/><path style="fill:none;stroke:red;stroke-width:0.0001px" d="M35.3,44.9c0.1,0.5,0.7,0.7,0.9,1.1c0.9,1.4,1,2.8,0.2,4.3c-0.8,1.4-2.1,1.9-3.5,1.9  c-1.4-0.1-3.1-1-3.4-3.1c-0.3-2.1,0.7-3.6,2.3-4.3c0.8-0.4,1.7-0.2,2.5-0.1C34.6,44.8,34.9,45,35.3,44.9L35.3,44.9z"/><path style="fill:none;stroke:red;stroke-width:0.0001px" d="M101.9,62.9c1.7-0.1,3.6,2,3.5,3.7c-0.1,2.2-1.6,3.8-4,3.8c-2,0-3.7-1.9-3.6-4.1  C97.9,64.6,99.6,62.8,101.9,62.9z"/><path style="fill:none;stroke:red;stroke-width:0.0001px" d="M38.2,94.5c0,0.3,0.3,0.3,0.5,0.5c1.2,1.1,1.6,2.6,1,4.1c-0.6,1.6-1.6,2.4-3.3,2.4  c-1.8,0.1-3-1-3.6-2.3c-0.9-2.1,0.4-4.8,2.8-5c0.5,0,1.1,0,1.6,0.1C37.6,94.4,37.9,94.4,38.2,94.5z"/><path style="fill:none;stroke:red;stroke-width:0.0001px" d="M103.8,56.9c1.8,0,2.9,0.9,2.9,2.7c0,1.5-1.3,2.9-2.9,3c-1.5,0.1-2.8-1.3-2.9-3  C100.9,58.2,102.2,56.9,103.8,56.9z"/><path style="fill:none;stroke:red;stroke-width:0.0001px" d="M48.3,79.9c-1.6,0-2.8-1.1-2.8-2.8c0-1.3,1.3-2.7,2.6-2.7c1.5,0,2.8,1.2,2.9,2.7  C51,78.9,49.6,79.9,48.3,79.9z"/><path style="fill:none;stroke:red;stroke-width:0.0001px" d="M108,39.4c-1.5-0.1-2.4-1.4-2.3-2.7c0-1.7,1.4-2.8,2.8-2.7c1.5,0.2,2.7,1.3,2.6,2.7  C111,38.3,109.6,39.4,108,39.4z"/><path style="fill:none;stroke:red;stroke-width:0.0001px" d="M96.5,79.4c-1.7,0-2.8-1.3-2.8-2.8c0-1.4,1.3-2.5,2.9-2.5c1.5,0,2.4,1.3,2.5,2.6  C99.2,78.1,98,79.5,96.5,79.4z"/><path style="fill:none;stroke:red;stroke-width:0.0001px" d="M81.4,102.9c1.5,0,2.8,1.3,2.7,2.7c0,1.4-1.4,2.8-2.7,2.7c-1.7-0.1-2.6-1-2.7-2.7  C78.7,104.1,80,102.9,81.4,102.9z"/><path style="fill:none;stroke:red;stroke-width:0.0001px" d="M92.3,51.9c1.4,0,2.7,1.2,2.7,2.6c0,1.4-1.2,2.7-2.6,2.7c-1.5,0-2.8-1.2-2.8-2.6  C89.6,53.1,90.8,51.9,92.3,51.9z"/><path style="fill:none;stroke:red;stroke-width:0.0001px" d="M96.5,82.6c0-1.4,1.1-2.6,2.4-2.7c1.6,0,2.8,1,2.9,2.3c0.1,1.5-1,2.9-2.9,2.9  C97.5,85.1,96.5,84.1,96.5,82.6z"/><path style="fill:none;stroke:red;stroke-width:0.0001px" d="M94.3,83.3c1.3,0.1,2.4,0.8,2.4,2.7c0,0.9-1.4,2.5-2.7,2.5c-1.3-0.1-2.4-1.1-2.4-2.4  C91.5,84.9,92.7,83.2,94.3,83.3z"/><path style="fill:none;stroke:red;stroke-width:0.0001px" d="M39.5,81.9c0.4,0.2,0.9,0.3,1.3,0.5c1.4,0.8,1.6,2.7,0.4,3.8c-0.8,0.7-1.7,0.9-2.7,0.5  c-0.9-0.5-1.6-1.2-1.7-2.3c0-0.8,0.4-1.4,1.1-1.9c0.3-0.2,0.7-0.3,1-0.6C39.1,81.9,39.3,81.9,39.5,81.9z"/><path style="fill:none;stroke:red;stroke-width:0.0001px" d="M102.9,107.2c-0.2-0.5-0.7-0.7-0.9-1.2c-0.4-1-0.2-2.2,0.7-2.9c1.1-0.9,2.5-0.8,3.4,0.1  c0.7,0.6,1,2,0.5,2.8c-0.7,1.2-1.5,1.7-2.7,1.4c-0.2,0-0.3,0-0.5,0C103.1,107.3,103,107.2,102.9,107.2z"/><path style="fill:none;stroke:red;stroke-width:0.0001px" d="M44.4,40.4c-1.3,0-2.4-1.1-2.4-2.4c0-1.2,1.2-2.4,2.3-2.4c1.2,0,2.5,1.1,2.5,2.2  C46.9,39.3,45.8,40.4,44.4,40.4z"/><path style="fill:none;stroke:red;stroke-width:0.0001px" d="M93.7,102.8c1.2,0,2.3,1,2.2,2.2c0,1.4-1,2.2-2.2,2.2c-1.4,0.1-2.4-1.1-2.4-2.2  C91.4,103.8,92.4,102.9,93.7,102.8z"/><path style="fill:none;stroke:red;stroke-width:0.0001px" d="M62,46.9c0-1.1,0.9-2,2-2.1c1.3,0,2.3,0.8,2.4,2.4c0,0.7-1,1.9-2.2,1.9C63.2,49.2,61.8,48,62,46.9z"/><path style="fill:none;stroke:red;stroke-width:0.0001px" d="M49.4,39.5c-1.2,0-2.1-0.8-2.1-2c0-0.9,0.9-1.8,2-1.8c1,0,1.9,0.7,1.9,1.8  C51.2,38.6,50.4,39.5,49.4,39.5z"/><path style="fill:none;stroke:red;stroke-width:0.0001px" d="M96.6,45.5c1,0,1.7,0.7,1.7,1.6c0,0.7-0.7,1.8-1.7,1.7c-1.1-0.1-1.9-0.8-1.9-1.8  C94.8,46.1,95.6,45.5,96.6,45.5z"/><path style="fill:none;stroke:red;stroke-width:0.0001px" d="M97.1,97c-0.1-0.5-0.4-0.8-0.4-1.4c0.1-0.8,0.9-1.6,1.7-1.6c0.9,0,1.8,0.9,1.8,1.7  c0,0.8-0.9,1.7-1.7,1.7c-0.4,0-0.7,0-1-0.2C97.5,97,97.3,97,97.1,97z"/><path style="fill:none;stroke:red;stroke-width:0.0001px" d="M98.5,101.5c0,0.8-0.8,1.7-1.7,1.8c-0.9,0-1.8-0.8-1.8-1.8c0-0.7,0.9-1.6,1.5-1.6  C97.6,99.9,98.5,100.6,98.5,101.5z"/><path style="fill:none;stroke:red;stroke-width:0.0001px" d="M34,58.3c1,0,1.5,0.6,1.6,1.6c0,0.7-0.9,1.7-1.5,1.7c-1.1-0.1-2-0.6-1.9-1.7  C32.2,58.9,32.8,58.3,34,58.3z"/><path style="fill:none;stroke:red;stroke-width:0.0001px" d="M38.9,102.2c0-1,0.7-1.8,1.7-1.8c0.9,0,1.6,0.8,1.6,1.8c0,0.8-0.8,1.6-1.5,1.6  C39.8,103.7,38.9,103,38.9,102.2z"/><path style="fill:none;stroke:red;stroke-width:0.0001px" d="M44.1,105.2c-0.9,0-1.5-0.8-1.6-1.5c-0.1-0.9,0.8-1.8,1.7-1.8c0.8,0,1.8,0.9,1.7,1.8  C45.8,104.7,45.3,105.2,44.1,105.2z"/><path style="fill:none;stroke:red;stroke-width:0.0001px" d="M101.1,56.9c0,0.9-0.7,1.6-1.6,1.6c-0.9,0-1.7-0.7-1.7-1.7c0-0.9,0.6-1.5,1.6-1.5  C100.3,55.2,101,56,101.1,56.9z"/><path style="fill:none;stroke:red;stroke-width:0.0001px" d="M67.9,50c-0.6-0.4-1.1-0.9-1-1.7c0.1-0.6,0.4-1,1-1.2c0.6-0.2,1.2-0.3,1.7,0.1  c0.9,0.7,0.9,1.1,0.6,1.9c-0.3,0.8-1.2,1.1-2.1,1C68,50,67.9,50,67.9,50z"/><path style="fill:none;stroke:red;stroke-width:0.0001px" d="M91.2,57.8c0.9,0,1.6,0.6,1.6,1.5c0,1-0.7,1.7-1.7,1.7c-0.8,0-1.6-0.8-1.6-1.6  C89.5,58.5,90.3,57.8,91.2,57.8z"/><path style="fill:none;stroke:red;stroke-width:0.0001px" d="M54.9,70.5c-0.8,0-1.6-0.8-1.6-1.5c0-0.9,0.8-1.7,1.7-1.7c0.8,0,1.7,0.8,1.6,1.5  C56.5,69.8,56.2,70.4,54.9,70.5z"/><path style="fill:none;stroke:red;stroke-width:0.0001px" d="M73.7,46.4c0,0.9-0.7,1.6-1.7,1.6c-0.8,0-1.5-0.7-1.6-1.6c-0.1-0.8,0.8-1.6,1.5-1.6  C73,44.8,73.8,45.3,73.7,46.4z"/><path style="fill:none;stroke:red;stroke-width:0.0001px" d="M29.8,61.6c-1,0-1.6-0.7-1.6-1.7c0-0.8,0.8-1.5,1.5-1.5c0.8,0,1.7,0.9,1.7,1.7  C31.4,60.9,30.6,61.6,29.8,61.6z"/><path style="fill:none;stroke:red;stroke-width:0.0001px" d="M87.7,63.1c-0.9,0-1.6-0.7-1.6-1.4c0.1-0.9,0.8-1.7,1.6-1.7c0.9,0,1.6,0.7,1.6,1.4  C89.3,62.5,88.6,63.1,87.7,63.1z"/><path style="fill:none;stroke:red;stroke-width:0.0001px" d="M33.8,90.8c0.1-0.1,0.2-0.1,0.3-0.2c0.7-0.1,1.4,0,1.8,0.7c0.4,0.7,0.3,1.6-0.4,2.1  c-0.6,0.5-1.6,0.3-2-0.3C32.8,92.4,32.9,91.8,33.8,90.8z"/><path style="fill:none;stroke:red;stroke-width:0.0001px" d="M106.7,53.9c0.8,0,1.5,0.7,1.5,1.5c0,1-0.7,1.5-1.6,1.6c-0.8,0.1-1.5-0.7-1.5-1.5  C105.1,54.6,105.8,53.9,106.7,53.9z"/><path style="fill:none;stroke:red;stroke-width:0.0001px" d="M98.1,73.3c-0.8,0-1.4-0.5-1.4-1.3c0-0.9,0.6-1.5,1.5-1.4c0.8,0,1.4,0.6,1.4,1.5  C99.6,72.7,98.9,73.3,98.1,73.3z"/><path style="fill:none;stroke:red;stroke-width:0.0001px" d="M35.3,44.9c-0.4-0.4-0.7-0.8-0.5-1.5c0.2-0.8,0.6-1.2,1.3-1.2c0.8,0,1.5,0.7,1.5,1.4  c0.1,0.7-1.2,1.6-2,1.4C35.5,44.9,35.4,44.9,35.3,44.9C35.3,44.9,35.3,44.9,35.3,44.9z"/><path style="fill:none;stroke:red;stroke-width:0.0001px" d="M64.6,53.4c0.8,0,1.5,0.6,1.5,1.4c0,0.7-0.8,1.4-1.5,1.3c-0.6,0-1.4-0.8-1.4-1.5  C63.3,54,64,53.4,64.6,53.4z"/><path style="fill:none;stroke:red;stroke-width:0.0001px" d="M49.4,41.3c0,0.9-0.5,1.4-1.4,1.4c-0.7,0-1.2-0.6-1.2-1.4c0-0.7,0.6-1.3,1.3-1.3  C49,40,49.4,40.4,49.4,41.3z"/><path style="fill:none;stroke:red;stroke-width:0.0001px" d="M46.3,42.6c0,0.7-0.7,1.4-1.4,1.4c-0.6,0-1.2-0.6-1.2-1.3c0-0.6,0.7-1.3,1.3-1.3  C45.6,41.3,46.3,42,46.3,42.6z"/><path style="fill:none;stroke:red;stroke-width:0.0001px" d="M100.9,51.3c0-0.8,0.5-1.2,1.4-1.2c0.5,0,1.1,0.7,1.1,1.2c0,0.6-0.7,1.2-1.2,1.2  C101.4,52.5,100.9,52,100.9,51.3z"/><path style="fill:none;stroke:red;stroke-width:0.0001px" d="M45.2,93.8c0.9-0.1,1.3,0.7,1.3,1.2c0,0.7-0.5,1.2-1.1,1.2c-0.8,0-1.3-0.6-1.3-1.3  C44.1,94.3,44.6,93.7,45.2,93.8z"/><path style="fill:none;stroke:red;stroke-width:0.0001px" d="M109.5,45.5c0.7,0,1.2,0.5,1.2,1.2c0,0.6-0.5,1.1-1.1,1.1c-0.7,0-1.3-0.5-1.3-1.2  C108.3,46,108.7,45.5,109.5,45.5z"/><path style="fill:none;stroke:red;stroke-width:0.0001px" d="M96.7,63.2c0.6,0,1.2,0.6,1.2,1.2c0,0.6-0.6,1.1-1.2,1.1c-0.6,0-1.1-0.6-1.1-1.2  C95.6,63.7,96.1,63.2,96.7,63.2z"/><path style="fill:none;stroke:red;stroke-width:0.0001px" d="M97.7,55.2c0,0.5-0.5,1-1.1,1c-0.5,0-0.9-0.4-0.9-0.9c0-0.6,0.4-1,1-1C97.3,54.3,97.7,54.7,97.7,55.2  z"/><path style="fill:none;stroke:red;stroke-width:0.0001px" d="M35.5,57.2c0,0.4-0.3,0.7-0.7,0.7c-0.4,0-0.7-0.2-0.7-0.7c0-0.4,0.2-0.8,0.7-0.8  C35.3,56.4,35.5,56.7,35.5,57.2z"/></svg>