<svg xmlns="http://www.w3.org/2000/svg" xmlns:xlink="http://www.w3.org/1999/xlink" version="1.1" x="0px" y="0px" viewBox="0 0 510.2 510.2" style="enable-background:new 0 0 510.2 510.2;" xml:space="preserve"><path style="fill:none;stroke:red;stroke-width:0.0001px" d="M162.4,100c-3.7,0-7.4,0-10.9,0c-6.7-20.1-8.2-21.7-27.9-27.9c0-3.5,0-7.2,0-10.9    C140,56.9,166.2,83,162.4,100z"/><path style="fill:none;stroke:red;stroke-width:0.0001px" d="M123.5,86.4c0-4.1,0-7.8,0-11.3c10.6-3,27.2,13.3,25,24.8c-3.7,0-7.4,0-11.5,0    C135.3,92.8,131.1,88,123.5,86.4z"/><path style="fill:none;stroke:red;stroke-width:0.0001px" d="M184.4,41.5c2.7-2.6,5.4-5.1,8.7-8.4c4.4,5.8,8.9,11.6,13.9,18c-4,2.3-7.2,4.1-10.5,6.1    C192.3,51.7,188.4,46.6,184.4,41.5z"/><path style="fill:none;stroke:red;stroke-width:0.0001px" d="M145.7,18.1c1-3.7,1.8-7.1,3.1-11.6c7.2,3,14.2,5.8,21.4,8.8c-2.3,4-4.1,7.2-6,10.5    C157.9,23.2,152.1,20.8,145.7,18.1z"/><path style="fill:none;stroke:red;stroke-width:0.0001px" d="M190.8,30.7c-3.4,3.3-6.1,5.7-8.8,8.4c-5-3.8-10.1-7.7-15.5-11.9c1.8-3.1,3.7-6.5,6-10.5    C178.7,21.5,184.5,25.9,190.8,30.7z"/><path style="fill:none;stroke:red;stroke-width:0.0001px" d="M197.7,59.3c3.4-2,6.5-3.7,10.4-6c3,7.2,5.8,14,8.9,21.4c-4.4,1.1-8.1,2.1-11.6,3.1    C202.8,71.7,200.4,65.7,197.7,59.3z"/><path style="fill:none;stroke:red;stroke-width:0.0001px" d="M123.5,14.8c0-3.8,0-7.4,0-11.9c7.4,1,14.5,1.8,22.4,2.8c-1.1,4.4-2,7.9-2.8,11.8    C136.6,16.5,130.2,15.6,123.5,14.8z"/><path style="fill:none;stroke:red;stroke-width:0.0001px" d="M208.8,99.9c-0.9-6.7-1.7-12.9-2.6-19.4c3.5-1,7.2-1.8,11.6-3.1c1,7.8,2,15,3,22.6    C216.3,99.9,212.6,99.9,208.8,99.9z"/><path style="fill:none;stroke:red;stroke-width:0.0001px" d="M174,52c2.6-2.7,5.2-5.4,8.4-8.7c3.8,5,7.7,9.8,11.6,15c-4,2.3-7.1,4.1-10.5,6.1    C180.3,60.2,177.2,56.1,174,52z"/><path style="fill:none;stroke:red;stroke-width:0.0001px" d="M180.3,41.2c-3.4,3.3-6.1,5.8-8.8,8.4c-4-3.1-8.1-6.2-12.5-9.6c1.8-3.3,3.7-6.4,6-10.5    C170.4,33.4,175.2,37.1,180.3,41.2z"/><path style="fill:none;stroke:red;stroke-width:0.0001px" d="M195.5,60.8c2.6,6.2,4.8,11.8,7.4,17.9c-4.3,1.1-7.8,2.1-11.5,3.1c-2.1-5.1-4.1-9.8-6.2-14.9    C188.2,64.9,191.5,63,195.5,60.8z"/><path style="fill:none;stroke:red;stroke-width:0.0001px" d="M141.8,32.2c1-3.7,2-7.2,3.1-11.5c6.1,2.6,11.8,4.8,17.9,7.4c-2.3,4-4.1,7.1-6,10.5    C151.8,36.5,147.1,34.5,141.8,32.2z"/><path style="fill:none;stroke:red;stroke-width:0.0001px" d="M123.5,17.5c6.2,0.9,12.1,1.6,18.6,2.4c-1.1,4.3-2,7.8-3,11.5c-5.4-0.7-10.4-1.3-15.7-2    C123.5,25.9,123.5,22.2,123.5,17.5z"/><path style="fill:none;stroke:red;stroke-width:0.0001px" d="M191.9,84.3c3.8-1,7.2-2,11.5-3c0.9,6.5,1.7,12.3,2.6,18.7c-4.4,0-8.1,0-12.1,0    C193.3,94.8,192.6,89.8,191.9,84.3z"/><path style="fill:none;stroke:red;stroke-width:0.0001px" d="M158.2,41.3c4.4,3.4,8.2,6.4,12.2,9.5c-3.3,3.1-6,5.8-8.9,8.7c-3-2.3-6.1-4.7-9.5-7.4    C153.9,48.8,155.7,45.4,158.2,41.3z"/><path style="fill:none;stroke:red;stroke-width:0.0001px" d="M172.9,53.2c3,4,6,7.8,9.2,12.2c-4,2.3-7.2,4.3-10.8,6.2c-2.6-3.4-5-6.5-7.5-9.6    C166.7,59.2,169.5,56.5,172.9,53.2z"/><path style="fill:none;stroke:red;stroke-width:0.0001px" d="M149.6,50.8c-4.1-1.7-7.7-3.1-11.5-4.8c1-3.8,2-7.5,3.3-11.9c5,2,9.5,3.8,14.5,6    C153.6,43.9,151.8,47.1,149.6,50.8z"/><path style="fill:none;stroke:red;stroke-width:0.0001px" d="M189.5,82.2c-4.5,1.3-8.1,2.1-12.1,3.3c-1.6-3.8-3.1-7.5-4.8-11.5c3.5-2,6.8-4,10.8-6.2    C185.5,72.5,187.4,77.1,189.5,82.2z"/><path style="fill:none;stroke:red;stroke-width:0.0001px" d="M135.5,45.4c-4.3-0.6-7.8-1.1-11.8-1.7c0-3.8,0-7.7,0-12.3c5,0.6,9.6,1.3,15,2    C137.6,37.8,136.6,41.5,135.5,45.4z"/><path style="fill:none;stroke:red;stroke-width:0.0001px" d="M192.2,100c-4.7,0-8.2,0-12.3,0c-0.6-3.8-1.1-7.7-1.8-11.9c3.8-1,7.5-2,11.9-3.3    C190.8,90.1,191.5,94.8,192.2,100z"/><path style="fill:none;stroke:red;stroke-width:0.0001px" d="M171.1,74.8c1.6,3.8,3,7.1,4.5,11.1c-4.1,1.1-7.5,2.1-11.5,3.3c-1.3-2.7-2.3-5.2-3.5-8.1    C164,78.9,167.2,77.1,171.1,74.8z"/><path style="fill:none;stroke:red;stroke-width:0.0001px" d="M150.9,53.7c3.4,2.6,6.4,4.8,9.2,7.1c-3,3.1-5.5,5.8-8.4,8.7c-2.1-1.7-4.3-3.3-6.8-5.1    C146.9,60.9,148.8,57.6,150.9,53.7z"/><path style="fill:none;stroke:red;stroke-width:0.0001px" d="M162.7,63.3c2.3,3,4.5,6,7.1,9.2c-3.7,2.1-6.9,4-10.5,6c-1.8-2.4-3.5-4.5-5.2-6.8    C157,68.8,159.6,66.3,162.7,63.3z"/><path style="fill:none;stroke:red;stroke-width:0.0001px" d="M142.7,62.9c-2.8-1.1-5.2-2.3-8.1-3.5c1-3.8,2-7.2,3.1-11.5c3.8,1.6,7.2,3,11.2,4.5    C146.5,56.2,144.7,59.3,142.7,62.9z"/><path style="fill:none;stroke:red;stroke-width:0.0001px" d="M176.3,88.6c0.6,4,1.1,7.5,1.6,11.5c-4.3,0-8.1,0-12.1,0c-0.3-2.7-0.7-5.2-1.1-8.4    C168.5,90.5,172.2,89.7,176.3,88.6z"/><path style="fill:none;stroke:red;stroke-width:0.0001px" d="M132.1,58.6c-3.1-0.4-5.7-0.7-8.4-1c0-3.8,0-7.5,0-12.1c3.7,0.4,7.1,0.9,11.3,1.4    C133.9,51.1,133,54.7,132.1,58.6z"/><path style="fill:none;stroke:red;stroke-width:0.0001px" d="M123.5,99.9c0-4,0-7.4,0-10.9c6,0.1,10.5,4.7,11.1,10.9C131.1,99.9,127.5,99.9,123.5,99.9z"/><rect x="133.6" y="380.9" style="fill:none;stroke:red;stroke-width:0.0001px" width="22.7" height="22.7"/><rect x="158.9" y="380.9" style="fill:none;stroke:red;stroke-width:0.0001px" width="22.7" height="22.7"/><rect x="133.6" y="331.2" style="fill:none;stroke:red;stroke-width:0.0001px" width="22.7" height="22.7"/><rect x="158.9" y="331.2" style="fill:none;stroke:red;stroke-width:0.0001px" width="22.7" height="22.7"/><rect x="133.6" y="356.5" style="fill:none;stroke:red;stroke-width:0.0001px" width="22.7" height="22.7"/><rect x="158.7" y="356.6" style="fill:none;stroke:red;stroke-width:0.0001px" width="22.7" height="22.7"/><rect x="184.1" y="381" style="fill:none;stroke:red;stroke-width:0.0001px" width="22.7" height="22.7"/><rect x="209.4" y="381" style="fill:none;stroke:red;stroke-width:0.0001px" width="22.7" height="22.7"/><rect x="184.1" y="331.5" style="fill:none;stroke:red;stroke-width:0.0001px" width="22.7" height="22.7"/><rect x="209.4" y="331.5" style="fill:none;stroke:red;stroke-width:0.0001px" width="22.7" height="22.7"/><rect x="184.1" y="356.8" style="fill:none;stroke:red;stroke-width:0.0001px" width="22.7" height="22.7"/><rect x="209.2" y="356.8" style="fill:none;stroke:red;stroke-width:0.0001px" width="22.7" height="22.7"/><rect x="133.9" y="306.1" style="fill:none;stroke:red;stroke-width:0.0001px" width="22.7" height="22.7"/><rect x="159" y="306.3" style="fill:none;stroke:red;stroke-width:0.0001px" width="22.7" height="22.7"/><rect x="184.4" y="306.4" style="fill:none;stroke:red;stroke-width:0.0001px" width="22.7" height="22.7"/><rect x="209.5" y="306.4" style="fill:none;stroke:red;stroke-width:0.0001px" width="22.7" height="22.7"/><path style="fill:none;stroke:red;stroke-width:0.0001px" d="M445.2,163.6c0-6.4,0-12.5,0-18.4c-5.4-3.3-10.8-6.5-15.9-9.6c-5.4,3.3-10.5,6.4-15.5,9.5    c0,6.2,0,12.3,0,18.4c5.2,3.3,10.5,6.5,15.7,9.6C434.9,169.8,440.1,166.7,445.2,163.6z"/><path style="fill:none;stroke:red;stroke-width:0.0001px" d="M348.1,262.9c0,6.2,0,12.5,0,18.7c5.4,3.3,10.5,6.4,15.7,9.5c5.1-3.7,10.8-6.2,15.6-9.9    c0-6.4,0-12.5,0-18.3c-5.4-3.3-10.6-6.4-15.7-9.6C358.4,256.6,353.3,259.7,348.1,262.9z"/><path style="fill:none;stroke:red;stroke-width:0.0001px" d="M330.2,251.8c0-6.4,0-12.5,0-18.4c-5.2-3.3-10.4-6.4-15.6-9.5c-5.2,3.5-10.8,6.4-15.9,9.9    c0,6.1,0,11.9,0,18.2c5.2,3,10.4,6.7,15.9,9.5C319.8,258,325.1,254.9,330.2,251.8z"/><path style="fill:none;stroke:red;stroke-width:0.0001px" d="M363,193.1c0-6.2,0-12.2,0-18.6c-5.2-3-10.4-6.7-15.9-9.5c-5.1,3.1-10.2,6.2-15.2,9.2    c0,6.2,0,12.5,0,18.9c5.2,3.1,10.4,6.4,15.6,9.5C352.6,199.5,357.7,196.3,363,193.1z"/><path style="fill:none;stroke:red;stroke-width:0.0001px" d="M381.1,203.7c0,6.4,0,12.6,0,18.9c5.1,3.1,10.2,6.2,15.3,9.4c5.1-3.4,10.6-6.4,15.6-9.8    c0-6.4,0-12.5,0-18.4c-5.4-3.3-10.5-6.4-15.6-9.5C391.3,197.5,386.2,200.6,381.1,203.7z"/><path style="fill:none;stroke:red;stroke-width:0.0001px" d="M414,281.6c2.1,1.3,4.1,2.6,6.2,3.7c2.7,1.7,5.5,3.3,8.2,5.1c0.9,0.6,1.4,0.7,2.3,0.7    c0.3-0.3,0.6-0.7,1-0.9c3.5-2.1,7.2-4.3,10.8-6.4c1.1-0.7,2.1-1.6,3-2.1c0-6.4,0-12.3,0-18.3c-5.2-3.3-10.5-6.4-15.7-9.5    c-5.2,3.3-10.5,6.4-15.7,9.6C414,269.4,414,275.5,414,281.6z"/><path style="fill:none;stroke:red;stroke-width:0.0001px" d="M478.7,204.7c-5-3.7-10.6-6.4-15.9-9.9c-5.2,3.3-10.5,6.4-15.7,9.5c0,6.2,0,12.6,0,18.7    c1.4,0.9,2.6,1.6,3.8,2.3c3.4,2.1,6.8,4.1,10.1,6.2c0.9,0.4,1.6,0.6,2,0.4c5.1-3.1,10.1-6.1,15.2-9.2c0.1-0.7,0.3-1.7,0.4-2.6    C478.7,215.1,478.7,210,478.7,204.7z"/><path style="fill:none;stroke:red;stroke-width:0.0001px" d="M464,311.5c5.2,3.1,10.4,6.4,15.9,9.6c5.2-3.3,10.5-6.4,15.6-9.6c0-6.2,0-12.3,0-18.4    c-5.2-3.3-10.4-6.4-15.7-9.6c-5.2,3.3-10.6,6.2-15.7,9.6C464,299.3,464,305.4,464,311.5z"/><path style="fill:none;stroke:red;stroke-width:0.0001px" d="M331.1,172.9c5.4-3.3,10.6-6.4,15.7-9.6c0-6.1,0-12.2,0-18.3c-5.2-3.3-10.6-6.5-15.7-9.6    c-5.4,3.3-10.6,6.5-15.7,9.6c0,6.1,0,12.2,0,18.4C320.6,166.7,325.8,170.1,331.1,172.9z"/><path style="fill:none;stroke:red;stroke-width:0.0001px" d="M396.3,173.1c2.8-1.4,5.4-3.1,7.9-4.8c2.7-1.7,5.5-3,7.8-4.8c0-6.2,0-12.3,0-18.4    c-5.1-3.1-10.4-6.4-15.5-9.5c-5.2,3.3-10.4,6.4-15.5,9.5c0,6.4,0,12.6,0,18.9C386.2,166.8,391.3,170,396.3,173.1z"/><path style="fill:none;stroke:red;stroke-width:0.0001px" d="M397.1,233.4c0,6.1,0,12.1,0,18.4c5.2,3.3,10.6,6.5,15.9,9.8c5.1-3.7,10.8-6.2,15.6-9.9    c0-6.1,0-12.1,0-18c-5.2-3.3-10.5-6.5-15.9-9.8C407.6,227,402.5,230.1,397.1,233.4z"/><path style="fill:none;stroke:red;stroke-width:0.0001px" d="M346.9,262.7c-5.4-3.3-10.6-6.5-15.9-9.8c-5.4,3.3-10.6,6.5-15.6,9.5c0,6.4,0,12.5,0,18.6    c5.2,3.1,10.4,6.4,15.6,9.5c5.2-3.4,10.9-6.4,15.9-10.1C346.9,274.6,346.9,268.8,346.9,262.7z"/><path style="fill:none;stroke:red;stroke-width:0.0001px" d="M379.4,222.3c0-6.2,0-12.1,0-18c-5.2-3.3-10.5-6.4-15.7-9.6c-5.4,3.3-10.6,6.5-15.7,9.6    c0,5.4,0,10.5,0,15.7c0,1.1-0.1,2.3,0.4,3c5.4,3.3,10.4,6.2,15.3,9.4C368.9,228.8,374.6,226,379.4,222.3z"/><path style="fill:none;stroke:red;stroke-width:0.0001px" d="M379.7,320.3c2.8-1.4,5.4-3.1,7.9-4.8c2.7-1.7,5.5-3,7.8-4.8c0-6.2,0-12.3,0-18.4    c-5.1-3.1-10.4-6.4-15.5-9.5c-5.2,3.3-10.4,6.4-15.5,9.5c0,6.4,0,12.6,0,18.9C369.6,314.2,374.7,317.2,379.7,320.3z"/><path style="fill:none;stroke:red;stroke-width:0.0001px" d="M462,193.1c0-6.2,0-12.1,0-18c-5.2-3.3-10.5-6.4-15.7-9.6c-5.4,3.3-10.6,6.5-15.7,9.6    c0,5.4,0,10.5,0,15.7c0,1.1-0.1,2.3,0.4,3c5.4,3.3,10.4,6.2,15.3,9.4C451.5,199.8,457.1,196.9,462,193.1z"/><path style="fill:none;stroke:red;stroke-width:0.0001px" d="M462.3,291.2c2.8-1.4,5.4-3.1,7.9-4.8c2.7-1.7,5.5-3,7.8-4.8c0-6.2,0-12.3,0-18.4    c-5.1-3.1-10.4-6.4-15.5-9.5c-5.2,3.3-10.4,6.4-15.5,9.5c0,6.4,0,12.6,0,18.9C452.2,285.1,457.3,288.1,462.3,291.2z"/></svg>