<svg xmlns="http://www.w3.org/2000/svg" xmlns:xlink="http://www.w3.org/1999/xlink" version="1.1" x="0px" y="0px" viewBox="0 0 510.2 510.2" style="enable-background:new 0 0 510.2 510.2;" xml:space="preserve"><path style="fill:none;stroke:red;stroke-width:0.0001px" d="M120.1,61c0,3.8,0,7.4,0,11.2c-15.9,2.6-25.2,11.5-27.7,27.7c-3.7,0-7.4,0-11.1,0    C76.3,84.3,102.3,58.1,120.1,61z"/><path style="fill:none;stroke:red;stroke-width:0.0001px" d="M106.5,100c-4.1,0-7.8,0-11.3,0c-2.8-10.9,13.5-27.4,24.8-25c0,3.7,0,7.4,0,11.5    C112.8,88,108.2,92.7,106.5,100z"/><path style="fill:none;stroke:red;stroke-width:0.0001px" d="M94.9,6.4C96,11,97,14.4,98,18.1c-6.1,2.6-12.2,5-18.4,7.7c-1.8-3.1-3.7-6.4-6.1-10.4    C80.7,12.4,87.5,9.5,94.9,6.4z"/><path style="fill:none;stroke:red;stroke-width:0.0001px" d="M61.7,39.1c-2.7-2.8-5.2-5.5-8.2-8.8c5.7-4.4,11.5-8.8,17.9-13.8c2.3,4,4.1,7.1,6,10.5    C71.9,31.1,67,35.1,61.7,39.1z"/><path style="fill:none;stroke:red;stroke-width:0.0001px" d="M50.6,33c3.1,3.3,5.8,5.8,8.5,8.7c-3.8,5-7.7,10.1-11.9,15.6c-3.1-1.8-6.5-3.7-10.5-6.1    C41.6,44.7,46.1,38.9,50.6,33z"/><path style="fill:none;stroke:red;stroke-width:0.0001px" d="M35.3,53.4c4.1,2.3,7.2,4.1,10.5,6c-2.6,6.2-5,12.2-7.7,18.6c-3.5-1-7.1-1.8-11.6-3.1    C29.6,67.6,32.3,60.8,35.3,53.4z"/><path style="fill:none;stroke:red;stroke-width:0.0001px" d="M25.8,77.5c4.5,1.1,7.9,2,11.6,3c-0.9,6.5-1.7,12.9-2.6,19.4c-3.7,0-7.4,0-11.9,0    C24,92.5,24.8,85.4,25.8,77.5z"/><path style="fill:none;stroke:red;stroke-width:0.0001px" d="M120,14.8c-6.5,0.9-12.8,1.7-19.4,2.6c-1-3.5-1.8-7.1-3.1-11.6c7.9-1,15-1.8,22.6-3    C120,7.1,120,10.8,120,14.8z"/><path style="fill:none;stroke:red;stroke-width:0.0001px" d="M61.3,43.2c3.3,3.4,5.8,6,8.5,8.7c-3.3,4.1-6.4,8.2-9.8,12.6c-3.3-1.8-6.4-3.7-10.5-6    C53.5,53.2,57.2,48.4,61.3,43.2z"/><path style="fill:none;stroke:red;stroke-width:0.0001px" d="M84.5,39.9c-4.4,3.4-8.5,6.5-12.8,9.8c-2.6-2.7-5.1-5.2-8.5-8.5c5-3.8,9.8-7.7,15-11.8    C80.7,33.2,82.7,36.5,84.5,39.9z"/><path style="fill:none;stroke:red;stroke-width:0.0001px" d="M48.1,60.8c4,2.3,7.1,4.1,10.5,6c-2.1,5-4.1,9.6-6.2,15c-3.7-1-7.2-2-11.5-3.1    C43.3,72.5,45.5,67,48.1,60.8z"/><path style="fill:none;stroke:red;stroke-width:0.0001px" d="M86.8,38.5c-1.8-3.3-3.7-6.5-6-10.4c6-2.6,11.6-4.8,17.9-7.5c1.1,4.3,2.1,7.8,3.1,11.5    C96.7,34.4,92.1,36.4,86.8,38.5z"/><path style="fill:none;stroke:red;stroke-width:0.0001px" d="M101.3,20c6.5-0.9,12.3-1.7,18.7-2.6c0,4.4,0,8.1,0,12.1c-5.2,0.7-10.2,1.3-15.6,2    C103.4,27.8,102.6,24.4,101.3,20z"/><path style="fill:none;stroke:red;stroke-width:0.0001px" d="M51.6,84.3c-0.7,5.2-1.3,10.2-2,15.6c-3.7,0-7.5,0-12.1,0c0.9-6.1,1.6-12.1,2.4-18.6    C44.4,82.5,47.9,83.3,51.6,84.3z"/><path style="fill:none;stroke:red;stroke-width:0.0001px" d="M82.3,59.5c-3.1-3-5.8-5.5-9.1-8.7c4-3.1,7.9-6.1,12.2-9.4c2.3,4,4.3,7.2,6.2,10.8    C88.4,54.8,85.2,57.2,82.3,59.5z"/><path style="fill:none;stroke:red;stroke-width:0.0001px" d="M79.6,62.2c-2.3,3-4.7,6-7.2,9.4c-3.4-2-6.8-3.8-10.8-6.2c3.3-4.3,6.2-8.2,9.4-12.2    C74,56.5,76.7,59.2,79.6,62.2z"/><path style="fill:none;stroke:red;stroke-width:0.0001px" d="M102.3,34.1c1.1,4.4,2.1,8.1,3.3,11.9c-4,1.6-7.5,3.1-11.5,4.8c-2-3.5-4-6.8-6.2-10.8    C92.8,38.1,97.2,36.2,102.3,34.1z"/><path style="fill:none;stroke:red;stroke-width:0.0001px" d="M70.9,73.9c-1.7,4.1-3.1,7.7-4.8,11.5c-3.8-1-7.5-2-12.1-3.1c2.1-5,4-9.5,6-14.5    C64,70,67.4,71.8,70.9,73.9z"/><path style="fill:none;stroke:red;stroke-width:0.0001px" d="M53.5,84.9C58,86.1,61.6,87,65.5,88c-0.6,4.1-1.1,7.8-1.6,11.9c-3.8,0-7.7,0-12.3,0    C52.2,94.9,52.8,90.3,53.5,84.9z"/><path style="fill:none;stroke:red;stroke-width:0.0001px" d="M108.1,45.4c-1-4-2-7.5-3.1-11.9c5.2-0.7,9.9-1.4,15-2.1c0,4.5,0,8.4,0,12.3    C116.2,44.3,112.5,44.7,108.1,45.4z"/><path style="fill:none;stroke:red;stroke-width:0.0001px" d="M94.9,52.5c3.8-1.6,7.1-3,11.1-4.7c1.1,4.1,2.1,7.5,3.3,11.5c-2.7,1.3-5.2,2.3-8.1,3.5    C99,59.5,97.2,56.4,94.9,52.5z"/><path style="fill:none;stroke:red;stroke-width:0.0001px" d="M79.4,89c-4-1.1-7.4-2.1-11.5-3.3c1.6-4,3-7.2,4.5-11.1c3.7,2.1,6.9,4,10.5,6.1    C81.8,83.6,80.7,86.1,79.4,89z"/><path style="fill:none;stroke:red;stroke-width:0.0001px" d="M98.6,64.2c-2.6,2-4.5,3.5-6.7,5.1c-2.6-2.8-5.1-5.7-7.8-8.9c2.3-1.8,5.2-4,8.5-6.5    C94.8,57.5,96.6,60.6,98.6,64.2z"/><path style="fill:none;stroke:red;stroke-width:0.0001px" d="M73.9,72.5c2.6-3.3,4.8-6.2,7.1-9.2c3,3,5.7,5.7,8.5,8.5c-1.6,2.1-3.3,4.3-5.2,6.7    C80.9,76.5,77.6,74.7,73.9,72.5z"/><path style="fill:none;stroke:red;stroke-width:0.0001px" d="M108.7,47.3c4-0.6,7.5-1.1,11.5-1.6c0,4.3,0,7.9,0,12.1c-2.7,0.3-5.2,0.7-8.4,1    C110.6,54.9,109.8,51.4,108.7,47.3z"/><path style="fill:none;stroke:red;stroke-width:0.0001px" d="M77.9,100c-4,0-7.7,0-12.1,0c0.6-3.8,1-7.4,1.6-11.5c4.1,1.1,7.7,2,11.5,3.1    C78.4,94.5,78.2,96.9,77.9,100z"/><path style="fill:none;stroke:red;stroke-width:0.0001px" d="M120,88.7c0,3.7,0,7.2,0,11.1c-3.7,0-7.2,0-10.8,0C108.9,94.7,113.2,90,120,88.7z"/><rect x="33.5" y="380.9" style="fill:none;stroke:red;stroke-width:0.0001px" width="22.7" height="22.7"/><rect x="58.6" y="380.9" style="fill:none;stroke:red;stroke-width:0.0001px" width="22.7" height="22.7"/><rect x="33.5" y="331.4" style="fill:none;stroke:red;stroke-width:0.0001px" width="22.7" height="22.7"/><rect x="58.6" y="331.4" style="fill:none;stroke:red;stroke-width:0.0001px" width="22.7" height="22.7"/><rect x="33.3" y="356.6" style="fill:none;stroke:red;stroke-width:0.0001px" width="22.7" height="22.7"/><rect x="58.6" y="356.6" style="fill:none;stroke:red;stroke-width:0.0001px" width="22.7" height="22.7"/><rect x="83.5" y="380.9" style="fill:none;stroke:red;stroke-width:0.0001px" width="22.7" height="22.7"/><rect x="108.7" y="380.9" style="fill:none;stroke:red;stroke-width:0.0001px" width="22.7" height="22.7"/><rect x="83.5" y="331.4" style="fill:none;stroke:red;stroke-width:0.0001px" width="22.7" height="22.7"/><rect x="108.7" y="331.4" style="fill:none;stroke:red;stroke-width:0.0001px" width="22.7" height="22.7"/><rect x="83.5" y="356.6" style="fill:none;stroke:red;stroke-width:0.0001px" width="22.7" height="22.7"/><rect x="108.7" y="356.6" style="fill:none;stroke:red;stroke-width:0.0001px" width="22.7" height="22.7"/><rect x="33.6" y="306.3" style="fill:none;stroke:red;stroke-width:0.0001px" width="22.7" height="22.7"/><rect x="58.7" y="306.3" style="fill:none;stroke:red;stroke-width:0.0001px" width="22.7" height="22.7"/><rect x="83.7" y="306.3" style="fill:none;stroke:red;stroke-width:0.0001px" width="22.7" height="22.7"/><rect x="108.9" y="306.3" style="fill:none;stroke:red;stroke-width:0.0001px" width="22.7" height="22.7"/><path style="fill:none;stroke:red;stroke-width:0.0001px" d="M348.1,163.4c2.1,1.3,4.1,2.6,6.2,3.7c2.7,1.7,5.5,3.3,8.2,5.1c0.9,0.6,1.4,0.7,2.3,0.7    c0.3-0.3,0.6-0.7,1-0.9c3.5-2.1,7.2-4.3,10.8-6.4c1.1-0.7,2.1-1.6,3-2.1c0-6.4,0-12.3,0-18.3c-5.2-3.3-10.5-6.4-15.7-9.5    c-5.2,3.3-10.5,6.4-15.7,9.6C348.1,151.2,348.1,157.3,348.1,163.4z"/><path style="fill:none;stroke:red;stroke-width:0.0001px" d="M462.8,135.9c-5.4,3.3-10.5,6.4-15.6,9.5c0,6.2,0,12.6,0,18.7c5.4,3.3,10.5,6.4,15.6,9.5    c5.4-3.3,10.8-6.5,15.9-9.6c0-6.4,0-12.5,0-18.4C473.3,142.3,468.1,139.2,462.8,135.9z"/><path style="fill:none;stroke:red;stroke-width:0.0001px" d="M480,203.6c5.2-3.5,10.9-6.4,15.7-9.9c0-6.2,0-12.1,0-18.2c-5.2-3.3-10.5-6.5-15.9-9.8    c-5.2,3.3-10.5,6.4-15.7,9.5c0,6,0,12.1,0,18.3C469.2,197.2,474.7,200,480,203.6z"/><path style="fill:none;stroke:red;stroke-width:0.0001px" d="M464.1,252.7c5.2,3.1,10.4,6.4,15.9,9.6c5.2-3.3,10.5-6.4,15.6-9.6c0-6.2,0-12.3,0-18.4    c-5.2-3.3-10.4-6.4-15.7-9.6c-5.2,3.3-10.6,6.2-15.7,9.6C464.1,240.5,464.1,246.4,464.1,252.7z"/><path style="fill:none;stroke:red;stroke-width:0.0001px" d="M396,192.7c0-6.1,0-12.1,0-18c-5.1-3.1-10.2-6.2-15.5-9.4c-1,0-1,0-2.8,1c-2.8,1.7-5.7,3.5-8.4,5.2    c-1.6,1-3.1,1.8-4.8,2.8c0,6.1,0,12.3,0,18.9c5.1,3.1,10.4,6.2,15.5,9.4C385.4,199.2,390.9,196.2,396,192.7z"/><path style="fill:none;stroke:red;stroke-width:0.0001px" d="M314.5,202.6c5.2-3.4,10.9-6.2,15.9-9.9c0-6,0-11.9,0-18c-5.2-3.3-10.5-6.5-15.9-9.8    c-0.1,0.3-0.4,0.7-0.7,0.9c-3.7,2-7.1,4.4-10.8,6.4c-1.4,0.9-3.3,1.3-4.1,2.8c0,6.2,0,12.2,0,18.2    C304,196.2,309.1,199.3,314.5,202.6z"/><path style="fill:none;stroke:red;stroke-width:0.0001px" d="M428.6,310.8c0-6.4,0-12.5,0-18.4c-5.4-3.3-10.8-6.5-15.9-9.6c-5.4,3.3-10.5,6.4-15.5,9.5    c0,6.2,0,12.3,0,18.4c5.2,3.3,10.5,6.5,15.7,9.6C418.3,317.2,423.5,313.9,428.6,310.8z"/><path style="fill:none;stroke:red;stroke-width:0.0001px" d="M428.6,193.1c0-6.2,0-12.3,0-18.4c-5.2-3.3-10.5-6.4-15.7-9.6c-5.4,3.3-10.6,6.5-15.6,9.5    c0,6.2,0,12.2,0,18.3c5.1,3.7,10.6,6.7,15.9,9.8C418.4,199.3,423.4,196.3,428.6,193.1z"/><path style="fill:none;stroke:red;stroke-width:0.0001px" d="M331.3,310.7c2.1,1.3,4.1,2.6,6.2,3.7c2.7,1.7,5.5,3.3,8.2,5.1c0.9,0.6,1.4,0.7,2.3,0.7    c0.3-0.3,0.6-0.7,1-0.9c3.5-2.1,7.2-4.3,10.8-6.4c1.1-0.7,2.1-1.6,3-2.1c0-6.4,0-12.3,0-18.3c-5.2-3.3-10.5-6.4-15.7-9.5    c-5.2,3.3-10.5,6.4-15.7,9.6C331.3,298.5,331.3,304.6,331.3,310.7z"/><path style="fill:none;stroke:red;stroke-width:0.0001px" d="M314.5,320.3c5.4-3.3,10.6-6.4,15.7-9.6c0-6.1,0-12.2,0-18.3c-5.2-3.3-10.6-6.5-15.7-9.6    c-5.4,3.3-10.6,6.5-15.7,9.6c0,6.1,0,12.2,0,18.4C304,313.9,309.1,317.5,314.5,320.3z"/><path style="fill:none;stroke:red;stroke-width:0.0001px" d="M330.2,231.5c1,0.1,1.8-0.3,2.7-0.9c2.8-1.8,5.8-3.5,8.7-5.4c1.8-1.1,3.5-2.1,5.2-3.3    c0-6.1,0-11.9,0-18c-5.2-3.4-10.8-6.7-15.9-9.9c-5.4,3.3-10.5,6.4-15.6,9.6c0,6.1,0,12.1,0,18.3    C319.8,225.6,325.2,228,330.2,231.5z"/><path style="fill:none;stroke:red;stroke-width:0.0001px" d="M396.2,233.8c-5-3.7-10.6-6.4-15.9-9.9c-5.2,3.3-10.5,6.4-15.7,9.5c0,6.2,0,12.6,0,18.7    c1.4,0.9,2.6,1.6,3.8,2.3c3.4,2.1,6.8,4.1,10.1,6.2c0.9,0.4,1.6,0.6,2,0.4c5.1-3.1,10.1-6.1,15.2-9.2c0.1-0.7,0.3-1.7,0.4-2.6    C396.2,244.1,396.2,239,396.2,233.8z"/><path style="fill:none;stroke:red;stroke-width:0.0001px" d="M412,262.7c-5.2-3.3-10.5-6.7-15.7-9.5c-5.2,3.3-10.2,6.2-15.3,9.4c0,6.2,0,12.3,0,18.9    c5.1,3.1,10.4,6.4,15.3,9.4c5.4-3.3,10.5-6.4,15.6-9.5C412,275.1,412,269,412,262.7z"/><path style="fill:none;stroke:red;stroke-width:0.0001px" d="M331.9,233.1c0,6.5,0,12.8,0,18.9c5.1,3.1,9.9,6.1,15.2,9.2c0.4-0.1,1.1-0.3,1.7-0.6    c1.3-0.7,2.4-1.4,3.5-2.1c3.5-2.1,6.9-4.3,10.5-6.4c0-6.2,0-12.5,0-18.6c-5.4-3.3-10.5-6.4-15.7-9.6    C342.1,227,337,230.1,331.9,233.1z"/><path style="fill:none;stroke:red;stroke-width:0.0001px" d="M446.1,283.3c-5.4,3.3-10.5,6.4-15.6,9.5c0,6.2,0,12.6,0,18.7c5.4,3.3,10.5,6.4,15.6,9.5    c5.4-3.3,10.8-6.5,15.9-9.6c0-6.4,0-12.5,0-18.4C456.6,289.7,451.5,286.4,446.1,283.3z"/><path style="fill:none;stroke:red;stroke-width:0.0001px" d="M430.6,233.8c0,6.2,0,12.5,0,18.7c5.4,3.3,10.5,6.4,15.7,9.5c5.1-3.7,10.8-6.2,15.6-9.9    c0-6.4,0-12.5,0-18.3c-5.4-3.3-10.6-6.4-15.7-9.6C441.1,227.4,435.9,230.5,430.6,233.8z"/><path style="fill:none;stroke:red;stroke-width:0.0001px" d="M414.6,204c0,6.5,0,12.8,0,18.9c5.1,3.1,9.9,6.1,15.2,9.2c0.4-0.1,1.1-0.3,1.7-0.6    c1.3-0.7,2.4-1.4,3.5-2.1c3.5-2.1,6.9-4.3,10.5-6.4c0-6.2,0-12.5,0-18.6c-5.4-3.3-10.5-6.4-15.7-9.6    C424.7,197.9,419.6,200.9,414.6,204z"/></svg>