<svg xmlns="http://www.w3.org/2000/svg" xmlns:xlink="http://www.w3.org/1999/xlink" version="1.1" x="0px" y="0px" viewBox="0 0 510.2 510.2" style="enable-background:new 0 0 510.2 510.2;" xml:space="preserve"><path style="fill:none;stroke:red;stroke-width:0.0001px" d="M81.1,103.4c3.7,0,7.4,0,11.2,0c2.4,16,11.6,25.1,27.7,27.7c0,3.8,0,7.5,0,11.1    C103.8,146.6,77.6,120.6,81.1,103.4z"/><path style="fill:none;stroke:red;stroke-width:0.0001px" d="M95.2,103.4c3.7,0,7.4,0,11.3,0c1.7,7.1,6.1,11.9,13.6,13.5c0,4,0,7.7,0,11.3    C109.2,131.1,92.8,114.8,95.2,103.4z"/><path style="fill:none;stroke:red;stroke-width:0.0001px" d="M98,185.3c-1,3.7-1.8,7.2-3.1,11.6c-7.4-3-14-5.8-21.4-8.8c2.3-4,4-7.2,6-10.5    C85.7,180.2,91.8,182.7,98,185.3z"/><path style="fill:none;stroke:red;stroke-width:0.0001px" d="M61.8,164.6c5,3.8,10.1,7.7,15.3,11.8c-1.8,3.1-3.7,6.4-6,10.5C65,182,59,177.5,53.1,172.9    C56.5,169.7,59.2,167.1,61.8,164.6z"/><path style="fill:none;stroke:red;stroke-width:0.0001px" d="M36.7,152.4c4-2.3,7.2-4.3,10.5-6.1c4.1,5.2,7.9,10.4,12.1,15.6c-2.7,2.4-5.5,4.8-8.9,7.9    C46.1,164.6,41.6,158.8,36.7,152.4z"/><path style="fill:none;stroke:red;stroke-width:0.0001px" d="M26.5,128.7c4.5-1.3,7.9-2.3,11.6-3.3c2.6,6.1,5,12.1,7.7,18.4c-3.1,1.8-6.2,3.7-10.4,6.1    C32.5,142.9,29.6,136.1,26.5,128.7z"/><path style="fill:none;stroke:red;stroke-width:0.0001px" d="M37.4,123c-3.7,1-7.1,1.8-11.6,3c-1-7.7-2-14.8-3-22.4c4.4,0,8.1,0,11.9,0    C35.7,110,36.6,116.2,37.4,123z"/><path style="fill:none;stroke:red;stroke-width:0.0001px" d="M97.6,197.8c1.1-4.4,2-7.9,3-11.6c6.5,0.9,12.8,1.7,19.4,2.6c0,3.7,0,7.4,0,11.9    C112.6,199.6,105.4,198.6,97.6,197.8z"/><path style="fill:none;stroke:red;stroke-width:0.0001px" d="M60.9,159.8c-3.7-4.8-7.4-9.5-11.3-14.8c3.8-2.3,7.1-4.1,10.4-6.1c3.3,4.3,6.5,8.4,9.6,12.5    C66.8,153.9,64.1,156.6,60.9,159.8z"/><path style="fill:none;stroke:red;stroke-width:0.0001px" d="M63.3,162.3c3.4-3.3,6.1-5.8,8.8-8.4c4,3.1,8.1,6.2,12.5,9.6c-1.8,3.3-3.7,6.5-6,10.5    C73.3,170,68.5,166.3,63.3,162.3z"/><path style="fill:none;stroke:red;stroke-width:0.0001px" d="M86.8,164.9c5.2,2.1,9.9,4.1,15,6.2c-1,3.5-2,7.1-3.1,11.5c-6.1-2.6-11.6-4.8-17.9-7.4    C83.1,171.5,85,168.3,86.8,164.9z"/><path style="fill:none;stroke:red;stroke-width:0.0001px" d="M58.6,136.6c-3.3,1.8-6.5,3.7-10.5,6c-2.6-6.1-4.8-11.8-7.4-17.9c4.3-1.1,7.8-2.1,11.5-3.1    C54.5,126.8,56.5,131.5,58.6,136.6z"/><path style="fill:none;stroke:red;stroke-width:0.0001px" d="M120.1,173.9c0,3.8,0,7.5,0,12.1c-6.2-0.9-12.2-1.7-18.7-2.6c1.1-4.3,2-7.7,3-11.5    C109.6,172.5,114.6,173.2,120.1,173.9z"/><path style="fill:none;stroke:red;stroke-width:0.0001px" d="M40.1,122.2c-0.9-6.5-1.7-12.5-2.6-18.7c4.4,0,8.1,0,12.1,0c0.7,5.1,1.3,10.2,2,15.6    C47.9,120,44.4,121,40.1,122.2z"/><path style="fill:none;stroke:red;stroke-width:0.0001px" d="M85.4,162c-4.4-3.4-8.2-6.2-12.1-9.2c3.3-3.1,6.1-5.8,9.1-8.7c2.7,2,5.8,4.4,9.2,7.1    C89.6,154.6,87.8,158.1,85.4,162z"/><path style="fill:none;stroke:red;stroke-width:0.0001px" d="M61.4,138.1c4.1-2.4,7.4-4.3,10.9-6.2c2.6,3.4,5,6.4,7.2,9.4c-2.8,2.7-5.7,5.4-9.1,8.5    C67.9,146.4,64.8,142.5,61.4,138.1z"/><path style="fill:none;stroke:red;stroke-width:0.0001px" d="M105.5,157.3c-1,4-2,7.5-3.3,11.9c-5-2-9.5-3.8-14.6-6c2.3-4,4.3-7.2,6.2-10.8    C98,154.2,101.6,155.6,105.5,157.3z"/><path style="fill:none;stroke:red;stroke-width:0.0001px" d="M60.1,135.8c-2.1-5-4-9.5-6.1-14.6c4.4-1.1,8.1-2.1,12.1-3.3c1.7,4,3.1,7.5,4.8,11.5    C67.5,131.5,64.3,133.4,60.1,135.8z"/><path style="fill:none;stroke:red;stroke-width:0.0001px" d="M120,172c-5.1-0.7-9.6-1.3-15.2-2c1.3-4.4,2.3-8.1,3.3-12.1c4.3,0.6,7.9,1.1,11.9,1.7    C120,163.6,120,167.3,120,172z"/><path style="fill:none;stroke:red;stroke-width:0.0001px" d="M53.5,118.6c-0.7-5.4-1.4-10.1-2-15.2c4.5,0,8.2,0,12.3,0c0.6,3.8,1.1,7.5,1.7,11.8    C61.7,116.4,58.2,117.3,53.5,118.6z"/><path style="fill:none;stroke:red;stroke-width:0.0001px" d="M101,140.5c2.8,1.3,5.2,2.3,8.2,3.5c-1,3.7-2,7.2-3.1,11.5c-3.8-1.6-7.1-3-11.1-4.5    C97,147.3,98.9,144.2,101,140.5z"/><path style="fill:none;stroke:red;stroke-width:0.0001px" d="M72.5,128.7c-1.6-3.8-3-7.1-4.5-11.1c4.1-1.1,7.5-2.1,11.5-3.3c1.1,2.7,2.3,5.1,3.7,8.1    C79.6,124.4,76.3,126.4,72.5,128.7z"/><path style="fill:none;stroke:red;stroke-width:0.0001px" d="M80.6,139.6c-2-2.6-4.1-5.4-6.7-8.8c3.5-2.1,6.8-4,10.4-6c1.8,2.4,3.5,4.5,5.4,6.9    C86.7,134.4,83.8,136.8,80.6,139.6z"/><path style="fill:none;stroke:red;stroke-width:0.0001px" d="M98.7,139.2c-2.3,3.8-4,6.8-6,10.4c-3.3-2.4-6.2-4.7-9.2-6.9c3-3,5.7-5.5,8.7-8.4    C94,135.6,96.3,137.3,98.7,139.2z"/><path style="fill:none;stroke:red;stroke-width:0.0001px" d="M120.1,145.7c0,4.1,0,7.7,0,12.1c-3.8-0.6-7.4-1-11.5-1.6c1-4,1.8-7.5,3-11.5    C114.5,145.1,117,145.3,120.1,145.7z"/><path style="fill:none;stroke:red;stroke-width:0.0001px" d="M67.2,114.9c-0.6-4.1-1-7.5-1.6-11.5c4.3,0,7.9,0,12.1,0c0.3,2.6,0.7,5.1,1.1,8.4    C75.2,112.8,71.5,113.8,67.2,114.9z"/><path style="fill:none;stroke:red;stroke-width:0.0001px" d="M120,103.6c0,3.7,0,7.2,0,10.6c-5.4,0.3-10.1-4.1-11.2-10.6C112.5,103.6,116,103.6,120,103.6z"/><rect x="33.3" y="431.2" style="fill:none;stroke:red;stroke-width:0.0001px" width="22.7" height="22.7"/><rect x="58.6" y="431.2" style="fill:none;stroke:red;stroke-width:0.0001px" width="22.7" height="22.7"/><rect x="33.3" y="456.5" style="fill:none;stroke:red;stroke-width:0.0001px" width="22.7" height="22.7"/><rect x="58.4" y="456.5" style="fill:none;stroke:red;stroke-width:0.0001px" width="22.7" height="22.7"/><rect x="33.3" y="406.1" style="fill:none;stroke:red;stroke-width:0.0001px" width="22.7" height="22.7"/><rect x="58.6" y="406.1" style="fill:none;stroke:red;stroke-width:0.0001px" width="22.7" height="22.7"/><rect x="33.5" y="481.4" style="fill:none;stroke:red;stroke-width:0.0001px" width="22.7" height="22.7"/><rect x="58.6" y="481.4" style="fill:none;stroke:red;stroke-width:0.0001px" width="22.7" height="22.7"/><rect x="83.5" y="431.2" style="fill:none;stroke:red;stroke-width:0.0001px" width="22.7" height="22.7"/><rect x="108.7" y="431.2" style="fill:none;stroke:red;stroke-width:0.0001px" width="22.7" height="22.7"/><rect x="83.5" y="456.5" style="fill:none;stroke:red;stroke-width:0.0001px" width="22.7" height="22.7"/><rect x="108.7" y="456.5" style="fill:none;stroke:red;stroke-width:0.0001px" width="22.7" height="22.7"/><rect x="83.5" y="406.1" style="fill:none;stroke:red;stroke-width:0.0001px" width="22.7" height="22.7"/><rect x="108.7" y="406.1" style="fill:none;stroke:red;stroke-width:0.0001px" width="22.7" height="22.7"/><rect x="83.5" y="481.4" style="fill:none;stroke:red;stroke-width:0.0001px" width="22.7" height="22.7"/><rect x="108.7" y="481.4" style="fill:none;stroke:red;stroke-width:0.0001px" width="22.7" height="22.7"/><path style="fill:none;stroke:red;stroke-width:0.0001px" d="M162.5,103.4c2.8,17.7-21.4,42-39,38.9c0-3.7,0-7.4,0-11.2c15.9-2.6,25.2-11.6,27.7-27.8    C155,103.4,158.7,103.4,162.5,103.4z"/><path style="fill:none;stroke:red;stroke-width:0.0001px" d="M148.5,103.4c2,11.8-13.3,26.9-25,25.1c0-3.7,0-7.4,0-11.5c7.1-1.6,11.8-6.1,13.5-13.5    C141,103.4,144.7,103.4,148.5,103.4z"/><path style="fill:none;stroke:red;stroke-width:0.0001px" d="M164.1,177.6c1.8,3.4,3.7,6.5,6,10.5c-7.2,3-13.9,5.8-21.3,8.9c-1.1-4.3-2.1-7.9-3.3-11.6    C151.8,182.7,157.7,180.3,164.1,177.6z"/><path style="fill:none;stroke:red;stroke-width:0.0001px" d="M206.9,152.4c-4.8,6.4-9.4,12.2-14,18.2c-3.3-3.3-5.8-5.8-8.5-8.5c4-5.1,7.8-10.2,12.1-15.6    C199.6,148.1,202.8,150,206.9,152.4z"/><path style="fill:none;stroke:red;stroke-width:0.0001px" d="M172.5,186.8c-2.4-4.1-4.3-7.4-6.1-10.5c5.4-4.1,10.5-8.1,15.6-12.1c2.6,2.7,5.1,5.4,8.4,8.7    C184.7,177.3,178.9,181.9,172.5,186.8z"/><path style="fill:none;stroke:red;stroke-width:0.0001px" d="M217,128.6c-3,7.4-5.8,14.2-8.8,21.4c-4-2.3-7.1-4.1-10.5-6c2.6-6.2,5-12.2,7.7-18.6    C208.8,126.4,212.5,127.4,217,128.6z"/><path style="fill:none;stroke:red;stroke-width:0.0001px" d="M123.7,188.7c6.4-0.9,12.6-1.7,19.4-2.7c1,3.5,1.8,7.1,3.1,11.6c-7.8,1-14.9,2-22.4,3    C123.7,196.2,123.7,192.5,123.7,188.7z"/><path style="fill:none;stroke:red;stroke-width:0.0001px" d="M217.9,125.9c-4.4-1.1-7.9-2-11.6-3c0.9-6.5,1.7-12.8,2.6-19.4c3.7,0,7.4,0,11.9,0    C219.7,111,218.7,118.1,217.9,125.9z"/><path style="fill:none;stroke:red;stroke-width:0.0001px" d="M183.7,138.9c3.4,2,6.5,3.8,10.4,6.1c-4,5.2-7.7,9.9-11.5,15c-3-3.3-5.4-6.1-8.1-9.2    C177,147.6,180.1,143.4,183.7,138.9z"/><path style="fill:none;stroke:red;stroke-width:0.0001px" d="M171.6,153.9c2.8,2.7,5.4,5.1,8.7,8.4c-5.1,4-9.9,7.7-15.2,11.8c-2.3-3.8-4.1-7.1-6.1-10.4    C163.3,160.3,167.4,157.2,171.6,153.9z"/><path style="fill:none;stroke:red;stroke-width:0.0001px" d="M145,182.9c-1.3-4.5-2.3-8.1-3.1-11.6c5.1-2.1,9.8-4.1,14.9-6.2c1.8,3.1,3.7,6.2,6.1,10.4    C156.9,177.8,151.2,180.2,145,182.9z"/><path style="fill:none;stroke:red;stroke-width:0.0001px" d="M185,136.6c2.1-5.1,4.1-9.8,6.2-14.9c3.5,1,7.1,1.8,11.5,3c-2.6,6.1-4.8,11.8-7.4,17.9    C191.6,140.5,188.4,138.6,185,136.6z"/><path style="fill:none;stroke:red;stroke-width:0.0001px" d="M123.5,173.9c5.2-0.7,10.4-1.3,15.6-2c1,3.7,1.8,7.2,3,11.5c-6.4,0.9-12.3,1.7-18.7,2.6    C123.5,181.6,123.5,177.9,123.5,173.9z"/><path style="fill:none;stroke:red;stroke-width:0.0001px" d="M192.1,119c0.7-5.4,1.3-10.4,2-15.6c3.8,0,7.5,0,12.1,0c-0.9,6.2-1.6,12.1-2.4,18.7    C199.3,121,195.7,120,192.1,119z"/><path style="fill:none;stroke:red;stroke-width:0.0001px" d="M158.2,162c-2.3-4-4.3-7.2-6.2-10.8c3.4-2.6,6.5-5,9.5-7.4c2.8,3,5.5,5.8,8.7,9.1    C166.4,155.8,162.5,158.8,158.2,162z"/><path style="fill:none;stroke:red;stroke-width:0.0001px" d="M172.8,150.4c-3.3-3.3-6-6.1-8.8-8.9c2.3-3.1,4.7-6.2,7.4-9.6c3.4,2,6.8,4,10.8,6.2    C178.9,142.3,175.9,146.1,172.8,150.4z"/><path style="fill:none;stroke:red;stroke-width:0.0001px" d="M138,157.3c4-1.7,7.5-3.1,11.5-4.8c2,3.4,4,6.7,6.4,10.6c-5,2.1-9.4,4-14.5,6.1    C140.3,165.1,139.1,161.5,138,157.3z"/><path style="fill:none;stroke:red;stroke-width:0.0001px" d="M189.5,121.2c-2.1,5.1-4,9.5-6,14.5c-3.8-2.1-7.1-4.1-10.8-6.1c1.6-3.8,3.1-7.5,4.7-11.6    C181.3,119,185,120,189.5,121.2z"/><path style="fill:none;stroke:red;stroke-width:0.0001px" d="M138.7,170c-5.4,0.7-10.1,1.4-15.2,2c0-4.5,0-8.2,0-12.3c3.8-0.6,7.5-1.1,11.8-1.7    C136.5,161.7,137.4,165.4,138.7,170z"/><path style="fill:none;stroke:red;stroke-width:0.0001px" d="M178.2,115.4c0.6-4.3,1.1-7.9,1.7-11.9c3.8,0,7.5,0,12.2,0c-0.6,4.8-1.1,9.5-1.8,15.2    C185.8,117.5,182,116.5,178.2,115.4z"/><path style="fill:none;stroke:red;stroke-width:0.0001px" d="M160.6,122.5c1.4-3.1,2.4-5.2,3.5-8.1c3.7,1,7.2,2,11.3,3.1c-1.6,3.8-2.8,7.1-4.4,11.1    C167.4,126.4,164,124.4,160.6,122.5z"/><path style="fill:none;stroke:red;stroke-width:0.0001px" d="M154.5,131.2c1.3-1.7,2.8-3.8,4.8-6.2c3.4,2,6.7,3.7,10.5,5.8c-2.4,3.3-4.7,6.2-6.9,9.2    C160,137.1,157.4,134.4,154.5,131.2z"/><path style="fill:none;stroke:red;stroke-width:0.0001px" d="M134.5,144c3-1.3,5.4-2.3,8.2-3.4c2,3.4,3.8,6.7,6.1,10.4c-3.7,1.6-7.1,3-11.1,4.7    C136.6,151.5,135.6,148,134.5,144z"/><path style="fill:none;stroke:red;stroke-width:0.0001px" d="M160.1,142.7c-2.8,2.3-5.8,4.4-9.1,6.9c-2.1-3.5-4-6.8-6.1-10.4c2.4-1.8,4.5-3.5,6.8-5.2    C154.5,136.9,157,139.6,160.1,142.7z"/><path style="fill:none;stroke:red;stroke-width:0.0001px" d="M165.8,103.4c4,0,7.7,0,12.1,0c-0.6,3.8-1,7.5-1.6,11.5c-4.1-1.1-7.8-2.1-11.5-3.1    C165.1,108.8,165.5,106.3,165.8,103.4z"/><path style="fill:none;stroke:red;stroke-width:0.0001px" d="M123.5,157.9c0-4.5,0-8.1,0-12.1c2.7-0.4,5.2-0.7,8.4-1.1c1,3.7,2,7.2,3.1,11.5    C131.1,156.8,127.5,157.2,123.5,157.9z"/><path style="fill:none;stroke:red;stroke-width:0.0001px" d="M134.6,103.6c-0.6,6.1-4.5,10.1-10.9,11.1c0-3.5,0-7.1,0-11.1C127.4,103.6,130.9,103.6,134.6,103.6    z"/><rect x="133.6" y="431.2" style="fill:none;stroke:red;stroke-width:0.0001px" width="22.7" height="22.7"/><rect x="158.9" y="431.2" style="fill:none;stroke:red;stroke-width:0.0001px" width="22.7" height="22.7"/><rect x="133.6" y="456.5" style="fill:none;stroke:red;stroke-width:0.0001px" width="22.7" height="22.7"/><rect x="158.7" y="456.5" style="fill:none;stroke:red;stroke-width:0.0001px" width="22.7" height="22.7"/><rect x="133.6" y="406.1" style="fill:none;stroke:red;stroke-width:0.0001px" width="22.7" height="22.7"/><rect x="158.7" y="406.1" style="fill:none;stroke:red;stroke-width:0.0001px" width="22.7" height="22.7"/><rect x="133.6" y="481.4" style="fill:none;stroke:red;stroke-width:0.0001px" width="22.7" height="22.7"/><rect x="158.9" y="481.4" style="fill:none;stroke:red;stroke-width:0.0001px" width="22.7" height="22.7"/><rect x="184.1" y="431.4" style="fill:none;stroke:red;stroke-width:0.0001px" width="22.7" height="22.7"/><rect x="209.4" y="431.4" style="fill:none;stroke:red;stroke-width:0.0001px" width="22.7" height="22.7"/><rect x="184.1" y="456.6" style="fill:none;stroke:red;stroke-width:0.0001px" width="22.7" height="22.7"/><rect x="209.2" y="456.6" style="fill:none;stroke:red;stroke-width:0.0001px" width="22.7" height="22.7"/><rect x="184.1" y="406.3" style="fill:none;stroke:red;stroke-width:0.0001px" width="22.7" height="22.7"/><rect x="209.2" y="406.3" style="fill:none;stroke:red;stroke-width:0.0001px" width="22.7" height="22.7"/><rect x="184.1" y="481.6" style="fill:none;stroke:red;stroke-width:0.0001px" width="22.7" height="22.7"/><rect x="209.4" y="481.6" style="fill:none;stroke:red;stroke-width:0.0001px" width="22.7" height="22.7"/><path style="fill:none;stroke:red;stroke-width:0.0001px" d="M120.1,61c0,3.8,0,7.4,0,11.2c-15.9,2.6-25.2,11.5-27.7,27.7c-3.7,0-7.4,0-11.1,0    C76.3,84.3,102.3,58.1,120.1,61z"/><path style="fill:none;stroke:red;stroke-width:0.0001px" d="M106.5,100c-4.1,0-7.8,0-11.3,0c-2.8-10.9,13.5-27.4,24.8-25c0,3.7,0,7.4,0,11.5    C112.8,88,108.2,92.7,106.5,100z"/><path style="fill:none;stroke:red;stroke-width:0.0001px" d="M94.9,6.4C96,11,97,14.4,98,18.1c-6.1,2.6-12.2,5-18.4,7.7c-1.8-3.1-3.7-6.4-6.1-10.4    C80.7,12.4,87.5,9.5,94.9,6.4z"/><path style="fill:none;stroke:red;stroke-width:0.0001px" d="M61.7,39.1c-2.7-2.8-5.2-5.5-8.2-8.8c5.7-4.4,11.5-8.8,17.9-13.8c2.3,4,4.1,7.1,6,10.5    C71.9,31.1,67,35.1,61.7,39.1z"/><path style="fill:none;stroke:red;stroke-width:0.0001px" d="M50.6,33c3.1,3.3,5.8,5.8,8.5,8.7c-3.8,5-7.7,10.1-11.9,15.6c-3.1-1.8-6.5-3.7-10.5-6.1    C41.6,44.7,46.1,38.9,50.6,33z"/><path style="fill:none;stroke:red;stroke-width:0.0001px" d="M35.3,53.4c4.1,2.3,7.2,4.1,10.5,6c-2.6,6.2-5,12.2-7.7,18.6c-3.5-1-7.1-1.8-11.6-3.1    C29.6,67.6,32.3,60.8,35.3,53.4z"/><path style="fill:none;stroke:red;stroke-width:0.0001px" d="M25.8,77.5c4.5,1.1,7.9,2,11.6,3c-0.9,6.5-1.7,12.9-2.6,19.4c-3.7,0-7.4,0-11.9,0    C24,92.5,24.8,85.4,25.8,77.5z"/><path style="fill:none;stroke:red;stroke-width:0.0001px" d="M120,14.8c-6.5,0.9-12.8,1.7-19.4,2.6c-1-3.5-1.8-7.1-3.1-11.6c7.9-1,15-1.8,22.6-3    C120,7.1,120,10.8,120,14.8z"/><path style="fill:none;stroke:red;stroke-width:0.0001px" d="M61.3,43.2c3.3,3.4,5.8,6,8.5,8.7c-3.3,4.1-6.4,8.2-9.8,12.6c-3.3-1.8-6.4-3.7-10.5-6    C53.5,53.2,57.2,48.4,61.3,43.2z"/><path style="fill:none;stroke:red;stroke-width:0.0001px" d="M84.5,39.9c-4.4,3.4-8.5,6.5-12.8,9.8c-2.6-2.7-5.1-5.2-8.5-8.5c5-3.8,9.8-7.7,15-11.8    C80.7,33.2,82.7,36.5,84.5,39.9z"/><path style="fill:none;stroke:red;stroke-width:0.0001px" d="M48.1,60.8c4,2.3,7.1,4.1,10.5,6c-2.1,5-4.1,9.6-6.2,15c-3.7-1-7.2-2-11.5-3.1    C43.3,72.5,45.5,67,48.1,60.8z"/><path style="fill:none;stroke:red;stroke-width:0.0001px" d="M86.8,38.5c-1.8-3.3-3.7-6.5-6-10.4c6-2.6,11.6-4.8,17.9-7.5c1.1,4.3,2.1,7.8,3.1,11.5    C96.7,34.4,92.1,36.4,86.8,38.5z"/><path style="fill:none;stroke:red;stroke-width:0.0001px" d="M101.3,20c6.5-0.9,12.3-1.7,18.7-2.6c0,4.4,0,8.1,0,12.1c-5.2,0.7-10.2,1.3-15.6,2    C103.4,27.8,102.6,24.4,101.3,20z"/><path style="fill:none;stroke:red;stroke-width:0.0001px" d="M51.6,84.3c-0.7,5.2-1.3,10.2-2,15.6c-3.7,0-7.5,0-12.1,0c0.9-6.1,1.6-12.1,2.4-18.6    C44.4,82.5,47.9,83.3,51.6,84.3z"/><path style="fill:none;stroke:red;stroke-width:0.0001px" d="M82.3,59.5c-3.1-3-5.8-5.5-9.1-8.7c4-3.1,7.9-6.1,12.2-9.4c2.3,4,4.3,7.2,6.2,10.8    C88.4,54.8,85.2,57.2,82.3,59.5z"/><path style="fill:none;stroke:red;stroke-width:0.0001px" d="M79.6,62.2c-2.3,3-4.7,6-7.2,9.4c-3.4-2-6.8-3.8-10.8-6.2c3.3-4.3,6.2-8.2,9.4-12.2    C74,56.5,76.7,59.2,79.6,62.2z"/><path style="fill:none;stroke:red;stroke-width:0.0001px" d="M102.3,34.1c1.1,4.4,2.1,8.1,3.3,11.9c-4,1.6-7.5,3.1-11.5,4.8c-2-3.5-4-6.8-6.2-10.8    C92.8,38.1,97.2,36.2,102.3,34.1z"/><path style="fill:none;stroke:red;stroke-width:0.0001px" d="M70.9,73.9c-1.7,4.1-3.1,7.7-4.8,11.5c-3.8-1-7.5-2-12.1-3.1c2.1-5,4-9.5,6-14.5    C64,70,67.4,71.8,70.9,73.9z"/><path style="fill:none;stroke:red;stroke-width:0.0001px" d="M53.5,84.9C58,86.1,61.6,87,65.5,88c-0.6,4.1-1.1,7.8-1.6,11.9c-3.8,0-7.7,0-12.3,0    C52.2,94.9,52.8,90.3,53.5,84.9z"/><path style="fill:none;stroke:red;stroke-width:0.0001px" d="M108.1,45.4c-1-4-2-7.5-3.1-11.9c5.2-0.7,9.9-1.4,15-2.1c0,4.5,0,8.4,0,12.3    C116.2,44.3,112.5,44.7,108.1,45.4z"/><path style="fill:none;stroke:red;stroke-width:0.0001px" d="M94.9,52.5c3.8-1.6,7.1-3,11.1-4.7c1.1,4.1,2.1,7.5,3.3,11.5c-2.7,1.3-5.2,2.3-8.1,3.5    C99,59.5,97.2,56.4,94.9,52.5z"/><path style="fill:none;stroke:red;stroke-width:0.0001px" d="M79.4,89c-4-1.1-7.4-2.1-11.5-3.3c1.6-4,3-7.2,4.5-11.1c3.7,2.1,6.9,4,10.5,6.1    C81.8,83.6,80.7,86.1,79.4,89z"/><path style="fill:none;stroke:red;stroke-width:0.0001px" d="M98.6,64.2c-2.6,2-4.5,3.5-6.7,5.1c-2.6-2.8-5.1-5.7-7.8-8.9c2.3-1.8,5.2-4,8.5-6.5    C94.8,57.5,96.6,60.6,98.6,64.2z"/><path style="fill:none;stroke:red;stroke-width:0.0001px" d="M73.9,72.5c2.6-3.3,4.8-6.2,7.1-9.2c3,3,5.7,5.7,8.5,8.5c-1.6,2.1-3.3,4.3-5.2,6.7    C80.9,76.5,77.6,74.7,73.9,72.5z"/><path style="fill:none;stroke:red;stroke-width:0.0001px" d="M108.7,47.3c4-0.6,7.5-1.1,11.5-1.6c0,4.3,0,7.9,0,12.1c-2.7,0.3-5.2,0.7-8.4,1    C110.6,54.9,109.8,51.4,108.7,47.3z"/><path style="fill:none;stroke:red;stroke-width:0.0001px" d="M77.9,100c-4,0-7.7,0-12.1,0c0.6-3.8,1-7.4,1.6-11.5c4.1,1.1,7.7,2,11.5,3.1    C78.4,94.5,78.2,96.9,77.9,100z"/><path style="fill:none;stroke:red;stroke-width:0.0001px" d="M120,88.7c0,3.7,0,7.2,0,11.1c-3.7,0-7.2,0-10.8,0C108.9,94.7,113.2,90,120,88.7z"/><rect x="33.5" y="380.9" style="fill:none;stroke:red;stroke-width:0.0001px" width="22.7" height="22.7"/><rect x="58.6" y="380.9" style="fill:none;stroke:red;stroke-width:0.0001px" width="22.7" height="22.7"/><rect x="33.5" y="331.4" style="fill:none;stroke:red;stroke-width:0.0001px" width="22.7" height="22.7"/><rect x="58.6" y="331.4" style="fill:none;stroke:red;stroke-width:0.0001px" width="22.7" height="22.7"/><rect x="33.3" y="356.6" style="fill:none;stroke:red;stroke-width:0.0001px" width="22.7" height="22.7"/><rect x="58.6" y="356.6" style="fill:none;stroke:red;stroke-width:0.0001px" width="22.7" height="22.7"/><rect x="83.5" y="380.9" style="fill:none;stroke:red;stroke-width:0.0001px" width="22.7" height="22.7"/><rect x="108.7" y="380.9" style="fill:none;stroke:red;stroke-width:0.0001px" width="22.7" height="22.7"/><rect x="83.5" y="331.4" style="fill:none;stroke:red;stroke-width:0.0001px" width="22.7" height="22.7"/><rect x="108.7" y="331.4" style="fill:none;stroke:red;stroke-width:0.0001px" width="22.7" height="22.7"/><rect x="83.5" y="356.6" style="fill:none;stroke:red;stroke-width:0.0001px" width="22.7" height="22.7"/><rect x="108.7" y="356.6" style="fill:none;stroke:red;stroke-width:0.0001px" width="22.7" height="22.7"/><rect x="33.6" y="306.3" style="fill:none;stroke:red;stroke-width:0.0001px" width="22.7" height="22.7"/><rect x="58.7" y="306.3" style="fill:none;stroke:red;stroke-width:0.0001px" width="22.7" height="22.7"/><rect x="83.7" y="306.3" style="fill:none;stroke:red;stroke-width:0.0001px" width="22.7" height="22.7"/><rect x="108.9" y="306.3" style="fill:none;stroke:red;stroke-width:0.0001px" width="22.7" height="22.7"/></svg>