<svg xmlns="http://www.w3.org/2000/svg" xmlns:xlink="http://www.w3.org/1999/xlink" version="1.1" x="0px" y="0px" viewBox="0 0 510.2 510.2" style="enable-background:new 0 0 510.2 510.2;" xml:space="preserve"><path style="fill:none;stroke:red;stroke-width:0.0001px" d="M331.1,172.9c5.4-3.3,10.6-6.4,15.7-9.6c0-6.1,0-12.2,0-18.3c-5.2-3.3-10.6-6.5-15.7-9.6    c-5.4,3.3-10.6,6.5-15.7,9.6c0,6.1,0,12.2,0,18.4C320.6,166.7,325.8,170.1,331.1,172.9z"/><path style="fill:none;stroke:red;stroke-width:0.0001px" d="M396.3,173.1c2.8-1.4,5.4-3.1,7.9-4.8c2.7-1.7,5.5-3,7.8-4.8c0-6.2,0-12.3,0-18.4    c-5.1-3.1-10.4-6.4-15.5-9.5c-5.2,3.3-10.4,6.4-15.5,9.5c0,6.4,0,12.6,0,18.9C386.2,166.8,391.3,170,396.3,173.1z"/><path style="fill:none;stroke:red;stroke-width:0.0001px" d="M397.1,233.4c0,6.1,0,12.1,0,18.4c5.2,3.3,10.6,6.5,15.9,9.8c5.1-3.7,10.8-6.2,15.6-9.9    c0-6.1,0-12.1,0-18c-5.2-3.3-10.5-6.5-15.9-9.8C407.6,227,402.5,230.1,397.1,233.4z"/><path style="fill:none;stroke:red;stroke-width:0.0001px" d="M346.9,262.7c-5.4-3.3-10.6-6.5-15.9-9.8c-5.4,3.3-10.6,6.5-15.6,9.5c0,6.4,0,12.5,0,18.6    c5.2,3.1,10.4,6.4,15.6,9.5c5.2-3.4,10.9-6.4,15.9-10.1C346.9,274.6,346.9,268.8,346.9,262.7z"/><path style="fill:none;stroke:red;stroke-width:0.0001px" d="M379.4,222.3c0-6.2,0-12.1,0-18c-5.2-3.3-10.5-6.4-15.7-9.6c-5.4,3.3-10.6,6.5-15.7,9.6    c0,5.4,0,10.5,0,15.7c0,1.1-0.1,2.3,0.4,3c5.4,3.3,10.4,6.2,15.3,9.4C368.9,228.8,374.6,226,379.4,222.3z"/><path style="fill:none;stroke:red;stroke-width:0.0001px" d="M379.7,320.3c2.8-1.4,5.4-3.1,7.9-4.8c2.7-1.7,5.5-3,7.8-4.8c0-6.2,0-12.3,0-18.4    c-5.1-3.1-10.4-6.4-15.5-9.5c-5.2,3.3-10.4,6.4-15.5,9.5c0,6.4,0,12.6,0,18.9C369.6,314.2,374.7,317.2,379.7,320.3z"/><path style="fill:none;stroke:red;stroke-width:0.0001px" d="M462,193.1c0-6.2,0-12.1,0-18c-5.2-3.3-10.5-6.4-15.7-9.6c-5.4,3.3-10.6,6.5-15.7,9.6    c0,5.4,0,10.5,0,15.7c0,1.1-0.1,2.3,0.4,3c5.4,3.3,10.4,6.2,15.3,9.4C451.5,199.8,457.1,196.9,462,193.1z"/><path style="fill:none;stroke:red;stroke-width:0.0001px" d="M462.3,291.2c2.8-1.4,5.4-3.1,7.9-4.8c2.7-1.7,5.5-3,7.8-4.8c0-6.2,0-12.3,0-18.4    c-5.1-3.1-10.4-6.4-15.5-9.5c-5.2,3.3-10.4,6.4-15.5,9.5c0,6.4,0,12.6,0,18.9C452.2,285.1,457.3,288.1,462.3,291.2z"/></svg>