<svg xmlns="http://www.w3.org/2000/svg" xmlns:xlink="http://www.w3.org/1999/xlink" version="1.1" x="0px" y="0px" viewBox="0 0 510.2 510.2" style="enable-background:new 0 0 510.2 510.2;" xml:space="preserve"><path style="fill:none;stroke:red;stroke-width:0.0001px" d="M81.1,103.4c3.7,0,7.4,0,11.2,0c2.4,16,11.6,25.1,27.7,27.7c0,3.8,0,7.5,0,11.1    C103.8,146.6,77.6,120.6,81.1,103.4z"/><path style="fill:none;stroke:red;stroke-width:0.0001px" d="M95.2,103.4c3.7,0,7.4,0,11.3,0c1.7,7.1,6.1,11.9,13.6,13.5c0,4,0,7.7,0,11.3    C109.2,131.1,92.8,114.8,95.2,103.4z"/><path style="fill:none;stroke:red;stroke-width:0.0001px" d="M98,185.3c-1,3.7-1.8,7.2-3.1,11.6c-7.4-3-14-5.8-21.4-8.8c2.3-4,4-7.2,6-10.5    C85.7,180.2,91.8,182.7,98,185.3z"/><path style="fill:none;stroke:red;stroke-width:0.0001px" d="M61.8,164.6c5,3.8,10.1,7.7,15.3,11.8c-1.8,3.1-3.7,6.4-6,10.5C65,182,59,177.5,53.1,172.9    C56.5,169.7,59.2,167.1,61.8,164.6z"/><path style="fill:none;stroke:red;stroke-width:0.0001px" d="M36.7,152.4c4-2.3,7.2-4.3,10.5-6.1c4.1,5.2,7.9,10.4,12.1,15.6c-2.7,2.4-5.5,4.8-8.9,7.9    C46.1,164.6,41.6,158.8,36.7,152.4z"/><path style="fill:none;stroke:red;stroke-width:0.0001px" d="M26.5,128.7c4.5-1.3,7.9-2.3,11.6-3.3c2.6,6.1,5,12.1,7.7,18.4c-3.1,1.8-6.2,3.7-10.4,6.1    C32.5,142.9,29.6,136.1,26.5,128.7z"/><path style="fill:none;stroke:red;stroke-width:0.0001px" d="M37.4,123c-3.7,1-7.1,1.8-11.6,3c-1-7.7-2-14.8-3-22.4c4.4,0,8.1,0,11.9,0    C35.7,110,36.6,116.2,37.4,123z"/><path style="fill:none;stroke:red;stroke-width:0.0001px" d="M97.6,197.8c1.1-4.4,2-7.9,3-11.6c6.5,0.9,12.8,1.7,19.4,2.6c0,3.7,0,7.4,0,11.9    C112.6,199.6,105.4,198.6,97.6,197.8z"/><path style="fill:none;stroke:red;stroke-width:0.0001px" d="M60.9,159.8c-3.7-4.8-7.4-9.5-11.3-14.8c3.8-2.3,7.1-4.1,10.4-6.1c3.3,4.3,6.5,8.4,9.6,12.5    C66.8,153.9,64.1,156.6,60.9,159.8z"/><path style="fill:none;stroke:red;stroke-width:0.0001px" d="M63.3,162.3c3.4-3.3,6.1-5.8,8.8-8.4c4,3.1,8.1,6.2,12.5,9.6c-1.8,3.3-3.7,6.5-6,10.5    C73.3,170,68.5,166.3,63.3,162.3z"/><path style="fill:none;stroke:red;stroke-width:0.0001px" d="M86.8,164.9c5.2,2.1,9.9,4.1,15,6.2c-1,3.5-2,7.1-3.1,11.5c-6.1-2.6-11.6-4.8-17.9-7.4    C83.1,171.5,85,168.3,86.8,164.9z"/><path style="fill:none;stroke:red;stroke-width:0.0001px" d="M58.6,136.6c-3.3,1.8-6.5,3.7-10.5,6c-2.6-6.1-4.8-11.8-7.4-17.9c4.3-1.1,7.8-2.1,11.5-3.1    C54.5,126.8,56.5,131.5,58.6,136.6z"/><path style="fill:none;stroke:red;stroke-width:0.0001px" d="M120.1,173.9c0,3.8,0,7.5,0,12.1c-6.2-0.9-12.2-1.7-18.7-2.6c1.1-4.3,2-7.7,3-11.5    C109.6,172.5,114.6,173.2,120.1,173.9z"/><path style="fill:none;stroke:red;stroke-width:0.0001px" d="M40.1,122.2c-0.9-6.5-1.7-12.5-2.6-18.7c4.4,0,8.1,0,12.1,0c0.7,5.1,1.3,10.2,2,15.6    C47.9,120,44.4,121,40.1,122.2z"/><path style="fill:none;stroke:red;stroke-width:0.0001px" d="M85.4,162c-4.4-3.4-8.2-6.2-12.1-9.2c3.3-3.1,6.1-5.8,9.1-8.7c2.7,2,5.8,4.4,9.2,7.1    C89.6,154.6,87.8,158.1,85.4,162z"/><path style="fill:none;stroke:red;stroke-width:0.0001px" d="M61.4,138.1c4.1-2.4,7.4-4.3,10.9-6.2c2.6,3.4,5,6.4,7.2,9.4c-2.8,2.7-5.7,5.4-9.1,8.5    C67.9,146.4,64.8,142.5,61.4,138.1z"/><path style="fill:none;stroke:red;stroke-width:0.0001px" d="M105.5,157.3c-1,4-2,7.5-3.3,11.9c-5-2-9.5-3.8-14.6-6c2.3-4,4.3-7.2,6.2-10.8    C98,154.2,101.6,155.6,105.5,157.3z"/><path style="fill:none;stroke:red;stroke-width:0.0001px" d="M60.1,135.8c-2.1-5-4-9.5-6.1-14.6c4.4-1.1,8.1-2.1,12.1-3.3c1.7,4,3.1,7.5,4.8,11.5    C67.5,131.5,64.3,133.4,60.1,135.8z"/><path style="fill:none;stroke:red;stroke-width:0.0001px" d="M120,172c-5.1-0.7-9.6-1.3-15.2-2c1.3-4.4,2.3-8.1,3.3-12.1c4.3,0.6,7.9,1.1,11.9,1.7    C120,163.6,120,167.3,120,172z"/><path style="fill:none;stroke:red;stroke-width:0.0001px" d="M53.5,118.6c-0.7-5.4-1.4-10.1-2-15.2c4.5,0,8.2,0,12.3,0c0.6,3.8,1.1,7.5,1.7,11.8    C61.7,116.4,58.2,117.3,53.5,118.6z"/><path style="fill:none;stroke:red;stroke-width:0.0001px" d="M101,140.5c2.8,1.3,5.2,2.3,8.2,3.5c-1,3.7-2,7.2-3.1,11.5c-3.8-1.6-7.1-3-11.1-4.5    C97,147.3,98.9,144.2,101,140.5z"/><path style="fill:none;stroke:red;stroke-width:0.0001px" d="M72.5,128.7c-1.6-3.8-3-7.1-4.5-11.1c4.1-1.1,7.5-2.1,11.5-3.3c1.1,2.7,2.3,5.1,3.7,8.1    C79.6,124.4,76.3,126.4,72.5,128.7z"/><path style="fill:none;stroke:red;stroke-width:0.0001px" d="M80.6,139.6c-2-2.6-4.1-5.4-6.7-8.8c3.5-2.1,6.8-4,10.4-6c1.8,2.4,3.5,4.5,5.4,6.9    C86.7,134.4,83.8,136.8,80.6,139.6z"/><path style="fill:none;stroke:red;stroke-width:0.0001px" d="M98.7,139.2c-2.3,3.8-4,6.8-6,10.4c-3.3-2.4-6.2-4.7-9.2-6.9c3-3,5.7-5.5,8.7-8.4    C94,135.6,96.3,137.3,98.7,139.2z"/><path style="fill:none;stroke:red;stroke-width:0.0001px" d="M120.1,145.7c0,4.1,0,7.7,0,12.1c-3.8-0.6-7.4-1-11.5-1.6c1-4,1.8-7.5,3-11.5    C114.5,145.1,117,145.3,120.1,145.7z"/><path style="fill:none;stroke:red;stroke-width:0.0001px" d="M67.2,114.9c-0.6-4.1-1-7.5-1.6-11.5c4.3,0,7.9,0,12.1,0c0.3,2.6,0.7,5.1,1.1,8.4    C75.2,112.8,71.5,113.8,67.2,114.9z"/><path style="fill:none;stroke:red;stroke-width:0.0001px" d="M120,103.6c0,3.7,0,7.2,0,10.6c-5.4,0.3-10.1-4.1-11.2-10.6C112.5,103.6,116,103.6,120,103.6z"/><rect x="33.3" y="431.2" style="fill:none;stroke:red;stroke-width:0.0001px" width="22.7" height="22.7"/><rect x="58.6" y="431.2" style="fill:none;stroke:red;stroke-width:0.0001px" width="22.7" height="22.7"/><rect x="33.3" y="456.5" style="fill:none;stroke:red;stroke-width:0.0001px" width="22.7" height="22.7"/><rect x="58.4" y="456.5" style="fill:none;stroke:red;stroke-width:0.0001px" width="22.7" height="22.7"/><rect x="33.3" y="406.1" style="fill:none;stroke:red;stroke-width:0.0001px" width="22.7" height="22.7"/><rect x="58.6" y="406.1" style="fill:none;stroke:red;stroke-width:0.0001px" width="22.7" height="22.7"/><rect x="33.5" y="481.4" style="fill:none;stroke:red;stroke-width:0.0001px" width="22.7" height="22.7"/><rect x="58.6" y="481.4" style="fill:none;stroke:red;stroke-width:0.0001px" width="22.7" height="22.7"/><rect x="83.5" y="431.2" style="fill:none;stroke:red;stroke-width:0.0001px" width="22.7" height="22.7"/><rect x="108.7" y="431.2" style="fill:none;stroke:red;stroke-width:0.0001px" width="22.7" height="22.7"/><rect x="83.5" y="456.5" style="fill:none;stroke:red;stroke-width:0.0001px" width="22.7" height="22.7"/><rect x="108.7" y="456.5" style="fill:none;stroke:red;stroke-width:0.0001px" width="22.7" height="22.7"/><rect x="83.5" y="406.1" style="fill:none;stroke:red;stroke-width:0.0001px" width="22.7" height="22.7"/><rect x="108.7" y="406.1" style="fill:none;stroke:red;stroke-width:0.0001px" width="22.7" height="22.7"/><rect x="83.5" y="481.4" style="fill:none;stroke:red;stroke-width:0.0001px" width="22.7" height="22.7"/><rect x="108.7" y="481.4" style="fill:none;stroke:red;stroke-width:0.0001px" width="22.7" height="22.7"/></svg>