<svg xmlns="http://www.w3.org/2000/svg" xmlns:xlink="http://www.w3.org/1999/xlink" version="1.1" id="Layer_1" x="0px" y="0px" xml:space="preserve" width="32in" height="18in"><g transform="translate(29.82337649086284 29.82337649086284) rotate(-45 72.0 72.0)"><path style="fill:none;stroke:red;stroke-width:0.0001px" d="M105.9,26.3c0-4.5,0-8.8,0-13c-3.8-2.3-7.6-4.6-11.2-6.8c-3.8,2.3-7.4,4.5-10.9,6.7c0,4.4,0,8.7,0,13  c3.7,2.3,7.4,4.6,11.1,6.8C98.6,30.8,102.2,28.6,105.9,26.3z"/><path style="fill:none;stroke:red;stroke-width:0.0001px" d="M105.9,26.3c0-4.5,0-8.8,0-13c-3.8-2.3-7.6-4.6-11.2-6.8c-3.8,2.3-7.4,4.5-10.9,6.7c0,4.4,0,8.7,0,13  c3.7,2.3,7.4,4.6,11.1,6.8C98.6,30.8,102.2,28.6,105.9,26.3z"/><path style="fill:none;stroke:red;stroke-width:0.0001px" d="M105.9,26.3c0-4.5,0-8.8,0-13c-3.8-2.3-7.6-4.6-11.2-6.8c-3.8,2.3-7.4,4.5-10.9,6.7c0,4.4,0,8.7,0,13  c3.7,2.3,7.4,4.6,11.1,6.8C98.6,30.8,102.2,28.6,105.9,26.3z"/><path style="fill:none;stroke:red;stroke-width:0.0001px" d="M37.3,96.4c0,4.4,0,8.8,0,13.2c3.8,2.3,7.4,4.5,11.1,6.7c3.6-2.6,7.6-4.4,11-7c0-4.5,0-8.8,0-12.9  c-3.8-2.3-7.5-4.5-11.1-6.8C44.7,91.9,41.1,94.1,37.3,96.4z"/><path style="fill:none;stroke:red;stroke-width:0.0001px" d="M37.3,96.4c0,4.4,0,8.8,0,13.2c3.8,2.3,7.4,4.5,11.1,6.7c3.6-2.6,7.6-4.4,11-7c0-4.5,0-8.8,0-12.9  c-3.8-2.3-7.5-4.5-11.1-6.8C44.7,91.9,41.1,94.1,37.3,96.4z"/><path style="fill:none;stroke:red;stroke-width:0.0001px" d="M37.3,96.4c0,4.4,0,8.8,0,13.2c3.8,2.3,7.4,4.5,11.1,6.7c3.6-2.6,7.6-4.4,11-7c0-4.5,0-8.8,0-12.9  c-3.8-2.3-7.5-4.5-11.1-6.8C44.7,91.9,41.1,94.1,37.3,96.4z"/><path style="fill:none;stroke:red;stroke-width:0.0001px" d="M24.8,88.5c0-4.5,0-8.8,0-13c-3.7-2.3-7.3-4.5-11-6.7c-3.7,2.5-7.6,4.5-11.2,7c0,4.3,0,8.4,0,12.8  c3.7,2.1,7.3,4.7,11.2,6.7C17.5,93,21.1,90.7,24.8,88.5z"/><path style="fill:none;stroke:red;stroke-width:0.0001px" d="M24.8,88.5c0-4.5,0-8.8,0-13c-3.7-2.3-7.3-4.5-11-6.7c-3.7,2.5-7.6,4.5-11.2,7c0,4.3,0,8.4,0,12.8  c3.7,2.1,7.3,4.7,11.2,6.7C17.5,93,21.1,90.7,24.8,88.5z"/><path style="fill:none;stroke:red;stroke-width:0.0001px" d="M24.8,88.5c0-4.5,0-8.8,0-13c-3.7-2.3-7.3-4.5-11-6.7c-3.7,2.5-7.6,4.5-11.2,7c0,4.3,0,8.4,0,12.8  c3.7,2.1,7.3,4.7,11.2,6.7C17.5,93,21.1,90.7,24.8,88.5z"/><path style="fill:none;stroke:red;stroke-width:0.0001px" d="M47.9,47.2c0-4.4,0-8.6,0-13.1c-3.7-2.1-7.3-4.7-11.2-6.7c-3.6,2.2-7.2,4.4-10.7,6.5  c0,4.4,0,8.8,0,13.3c3.7,2.2,7.3,4.5,11,6.7C40.6,51.6,44.2,49.4,47.9,47.2z"/><path style="fill:none;stroke:red;stroke-width:0.0001px" d="M47.9,47.2c0-4.4,0-8.6,0-13.1c-3.7-2.1-7.3-4.7-11.2-6.7c-3.6,2.2-7.2,4.4-10.7,6.5  c0,4.4,0,8.8,0,13.3c3.7,2.2,7.3,4.5,11,6.7C40.6,51.6,44.2,49.4,47.9,47.2z"/><path style="fill:none;stroke:red;stroke-width:0.0001px" d="M47.9,47.2c0-4.4,0-8.6,0-13.1c-3.7-2.1-7.3-4.7-11.2-6.7c-3.6,2.2-7.2,4.4-10.7,6.5  c0,4.4,0,8.8,0,13.3c3.7,2.2,7.3,4.5,11,6.7C40.6,51.6,44.2,49.4,47.9,47.2z"/><path style="fill:none;stroke:red;stroke-width:0.0001px" d="M60.7,54.6c0,4.5,0,8.9,0,13.3c3.6,2.2,7.2,4.4,10.8,6.6c3.6-2.4,7.5-4.5,11-6.9c0-4.5,0-8.8,0-13  c-3.8-2.3-7.4-4.5-11-6.7C67.8,50.3,64.3,52.4,60.7,54.6z"/><path style="fill:none;stroke:red;stroke-width:0.0001px" d="M60.7,54.6c0,4.5,0,8.9,0,13.3c3.6,2.2,7.2,4.4,10.8,6.6c3.6-2.4,7.5-4.5,11-6.9c0-4.5,0-8.8,0-13  c-3.8-2.3-7.4-4.5-11-6.7C67.8,50.3,64.3,52.4,60.7,54.6z"/><path style="fill:none;stroke:red;stroke-width:0.0001px" d="M60.7,54.6c0,4.5,0,8.9,0,13.3c3.6,2.2,7.2,4.4,10.8,6.6c3.6-2.4,7.5-4.5,11-6.9c0-4.5,0-8.8,0-13  c-3.8-2.3-7.4-4.5-11-6.7C67.8,50.3,64.3,52.4,60.7,54.6z"/><path style="fill:none;stroke:red;stroke-width:0.0001px" d="M83.8,109.6c1.5,0.9,2.9,1.8,4.4,2.6c1.9,1.2,3.9,2.3,5.8,3.6c0.6,0.4,1,0.5,1.6,0.5  c0.2-0.2,0.4-0.5,0.7-0.6c2.5-1.5,5.1-3,7.6-4.5c0.8-0.5,1.5-1.1,2.1-1.5c0-4.5,0-8.7,0-12.9c-3.7-2.3-7.4-4.5-11.1-6.7  c-3.7,2.3-7.4,4.5-11.1,6.8C83.8,100.9,83.8,105.2,83.8,109.6z"/><path style="fill:none;stroke:red;stroke-width:0.0001px" d="M83.8,109.6c1.5,0.9,2.9,1.8,4.4,2.6c1.9,1.2,3.9,2.3,5.8,3.6c0.6,0.4,1,0.5,1.6,0.5  c0.2-0.2,0.4-0.5,0.7-0.6c2.5-1.5,5.1-3,7.6-4.5c0.8-0.5,1.5-1.1,2.1-1.5c0-4.5,0-8.7,0-12.9c-3.7-2.3-7.4-4.5-11.1-6.7  c-3.7,2.3-7.4,4.5-11.1,6.8C83.8,100.9,83.8,105.2,83.8,109.6z"/><path style="fill:none;stroke:red;stroke-width:0.0001px" d="M83.8,109.6c1.5,0.9,2.9,1.8,4.4,2.6c1.9,1.2,3.9,2.3,5.8,3.6c0.6,0.4,1,0.5,1.6,0.5  c0.2-0.2,0.4-0.5,0.7-0.6c2.5-1.5,5.1-3,7.6-4.5c0.8-0.5,1.5-1.1,2.1-1.5c0-4.5,0-8.7,0-12.9c-3.7-2.3-7.4-4.5-11.1-6.7  c-3.7,2.3-7.4,4.5-11.1,6.8C83.8,100.9,83.8,105.2,83.8,109.6z"/><path style="fill:none;stroke:red;stroke-width:0.0001px" d="M129.4,55.3c-3.5-2.6-7.5-4.5-11.2-7c-3.7,2.3-7.4,4.5-11.1,6.7c0,4.4,0,8.9,0,13.2  c1,0.6,1.8,1.1,2.7,1.6c2.4,1.5,4.8,2.9,7.1,4.4c0.6,0.3,1.1,0.4,1.4,0.3c3.6-2.2,7.1-4.3,10.7-6.5c0.1-0.5,0.2-1.2,0.3-1.8  C129.5,62.6,129.4,59,129.4,55.3z"/><path style="fill:none;stroke:red;stroke-width:0.0001px" d="M129.4,55.3c-3.5-2.6-7.5-4.5-11.2-7c-3.7,2.3-7.4,4.5-11.1,6.7c0,4.4,0,8.9,0,13.2  c1,0.6,1.8,1.1,2.7,1.6c2.4,1.5,4.8,2.9,7.1,4.4c0.6,0.3,1.1,0.4,1.4,0.3c3.6-2.2,7.1-4.3,10.7-6.5c0.1-0.5,0.2-1.2,0.3-1.8  C129.5,62.6,129.4,59,129.4,55.3z"/><path style="fill:none;stroke:red;stroke-width:0.0001px" d="M129.4,55.3c-3.5-2.6-7.5-4.5-11.2-7c-3.7,2.3-7.4,4.5-11.1,6.7c0,4.4,0,8.9,0,13.2  c1,0.6,1.8,1.1,2.7,1.6c2.4,1.5,4.8,2.9,7.1,4.4c0.6,0.3,1.1,0.4,1.4,0.3c3.6-2.2,7.1-4.3,10.7-6.5c0.1-0.5,0.2-1.2,0.3-1.8  C129.5,62.6,129.4,59,129.4,55.3z"/><path style="fill:none;stroke:red;stroke-width:0.0001px" d="M119.1,130.7c3.7,2.2,7.3,4.5,11.2,6.8c3.7-2.3,7.4-4.5,11-6.8c0-4.4,0-8.7,0-13  c-3.7-2.3-7.3-4.5-11.1-6.8c-3.7,2.3-7.5,4.4-11.1,6.8C119.1,122.1,119.1,126.4,119.1,130.7z"/><path style="fill:none;stroke:red;stroke-width:0.0001px" d="M119.1,130.7c3.7,2.2,7.3,4.5,11.2,6.8c3.7-2.3,7.4-4.5,11-6.8c0-4.4,0-8.7,0-13  c-3.7-2.3-7.3-4.5-11.1-6.8c-3.7,2.3-7.5,4.4-11.1,6.8C119.1,122.1,119.1,126.4,119.1,130.7z"/><path style="fill:none;stroke:red;stroke-width:0.0001px" d="M119.1,130.7c3.7,2.2,7.3,4.5,11.2,6.8c3.7-2.3,7.4-4.5,11-6.8c0-4.4,0-8.7,0-13  c-3.7-2.3-7.3-4.5-11.1-6.8c-3.7,2.3-7.5,4.4-11.1,6.8C119.1,122.1,119.1,126.4,119.1,130.7z"/></g></svg>