<svg xmlns="http://www.w3.org/2000/svg" xmlns:xlink="http://www.w3.org/1999/xlink" version="1.1" id="Layer_1" x="0px" y="0px" viewBox="0 0 200 200" style="enable-background:new 0 0 200 200;" xml:space="preserve"><path style="fill:none;stroke:red;stroke-width:0.0001px" d="M71.5,174.1c15.5,5.9,32.4,6.9,48.5,2.7c-14.3-7.4-26.2-18.8-34.2-32.8  C76.2,150.9,70.8,162.3,71.5,174.1z"/><path style="fill:none;stroke:red;stroke-width:0.0001px" d="M34.8,59.9C45,74.3,59.1,85.5,75.5,92.1c1.4-10.7,4.8-21,10.1-30.4C69.1,56.5,51.6,55.8,34.8,59.9z"/><path style="fill:none;stroke:red;stroke-width:0.0001px" d="M107.1,21V0H94.5v20.9c-6.8,0.5-13.6,1.8-20.1,4c-17,5.8-31.5,17.2-41.2,32.3  C51,52.7,69.7,53.4,87.1,59c9.3-15.2,23.2-27,39.7-33.7C120.4,23,113.8,21.6,107.1,21z"/></svg>