<svg xmlns="http://www.w3.org/2000/svg" xmlns:xlink="http://www.w3.org/1999/xlink" version="1.1" id="Layer_1" x="0px" y="0px" viewBox="0 0 200 200" style="enable-background:new 0 0 200 200;" xml:space="preserve"><path style="fill:none;stroke:red;stroke-width:0.0001px" d="M23.1,119.8c17.5,4.7,36,4.3,53.3-1.1c1.5,7.9,4.2,15.5,8,22.7c-10.2,7.2-16.2,19-15.9,31.5  C46,163.1,29.3,143.5,23.1,119.8z"/><path style="fill:none;stroke:red;stroke-width:0.0001px" d="M34.8,59.9C45,74.3,59.1,85.5,75.5,92.1c1.4-10.7,4.8-21,10.1-30.4C69.1,56.5,51.6,55.8,34.8,59.9z"/><path style="fill:none;stroke:red;stroke-width:0.0001px" d="M139.2,31c-2.7-1.5-5.4-2.9-8.3-4.1C114,33.1,99.6,44.7,90,60c12.3,4.4,23.7,11.3,33.3,20.2  C133.2,65.7,138.7,48.6,139.2,31z"/></svg>