<svg xmlns="http://www.w3.org/2000/svg" xmlns:xlink="http://www.w3.org/1999/xlink" version="1.1" id="Layer_1" x="0px" y="0px" viewBox="0 0 158.7 158.7" style="enable-background:new 0 0 158.7 158.7;" xml:space="preserve"><path style="fill:#FFA64D;" d="M112.5,74.9c-2.9-3.8-6-7.4-9.4-10.8c-3.7,5-7.9,9.7-12.5,13.9C98,77.8,105.3,76.8,112.5,74.9z"/><path style="fill:#FFA64D;" d="M82.6,80.8c-8.6-0.6-17-2.3-25.1-5.2C57,81.8,57.2,88,58.1,94.1C66.9,90.9,75.2,86.4,82.6,80.8z"/><path style="fill:#FFA64D;" d="M154.7,54.3c4.8,14.3,5.4,29.7,1.7,44.3c-3.6,14.6-11.4,27.9-22.3,38.3c1.2-21.4-4.7-42.6-16.7-60.3  C131.3,72.1,144.1,64.5,154.7,54.3z"/></svg>