<svg xmlns="http://www.w3.org/2000/svg" xmlns:xlink="http://www.w3.org/1999/xlink" version="1.1" id="Layer_1" x="0px" y="0px" viewBox="0 0 250.8 250.4" style="enable-background:new 0 0 250.8 250.4;" xml:space="preserve"><path style="fill:none;stroke:red;stroke-width:0.0001px" d="M106.2,78.3c-4.2,0-6.8-2.8-7.1-6.1c-0.3-4,3.3-7.1,6.4-7.1c4.5-0.2,6.8,3.5,6.8,6.4  C112.4,75.3,109.5,78.4,106.2,78.3z"/><path style="fill:none;stroke:red;stroke-width:0.0001px" d="M181.5,82.1c-3.8,0-6.8-3.1-6.6-6.9c0.3-4.2,3.5-6.2,6.4-6.2c4.9-0.2,6.9,3.8,6.8,6.9  C188.1,80,185,82.2,181.5,82.1z"/><path style="fill:none;stroke:red;stroke-width:0.0001px" d="M154.2,161.5c-0.2-3.1,3.1-6.6,6.2-6.6c4.5,0.2,7.3,3.3,6.9,7.3c-0.2,3.3-2.8,6.1-6.9,6.1  C157,168.5,154.1,165,154.2,161.5z"/><path style="fill:none;stroke:red;stroke-width:0.0001px" d="M59.6,80.8c0.1,0.7,1,1,1.3,1.5c1.3,2,1.5,3.9,0.3,6.1c-1.2,2-3.1,2.7-5.2,2.7  c-2.1-0.1-4.6-1.4-5-4.4c-0.4-3,1-5.1,3.4-6.1c1.2-0.6,2.5-0.3,3.7-0.1C58.6,80.7,59,80.9,59.6,80.8L59.6,80.8z"/><path style="fill:none;stroke:red;stroke-width:0.0001px" d="M175.8,110.2c2.9-0.2,6.2,3.5,6.1,6.4c-0.2,3.8-2.8,6.6-6.9,6.6c-3.5,0-6.4-3.3-6.2-7.1  C168.8,113.1,171.8,110,175.8,110.2z"/><path style="fill:none;stroke:red;stroke-width:0.0001px" d="M65.3,165c0,0.5,0.5,0.5,0.9,0.9c2.1,1.9,2.8,4.5,1.7,7.1c-1,2.8-2.8,4.2-5.7,4.2  c-3.1,0.2-5.2-1.7-6.2-4c-1.6-3.6,0.7-8.3,4.9-8.7c0.9,0,1.9,0,2.8,0.2C64.2,164.8,64.7,164.8,65.3,165z"/><path style="fill:none;stroke:red;stroke-width:0.0001px" d="M179.1,99.8c3.1,0,5,1.6,5,4.7c0,2.6-2.3,5-5,5.2c-2.6,0.2-4.9-2.3-5-5.2  C174,102,176.3,99.8,179.1,99.8z"/><path style="fill:none;stroke:red;stroke-width:0.0001px" d="M82.8,139.7c-2.8,0-4.9-1.9-4.9-4.9c0-2.3,2.3-4.7,4.5-4.7c2.6,0,4.9,2.1,5,4.7  C87.5,137.9,85,139.7,82.8,139.7z"/><path style="fill:none;stroke:red;stroke-width:0.0001px" d="M186.3,69.4c-2.6-0.2-4.2-2.4-4-4.7c0-2.9,2.4-4.9,4.9-4.7c2.6,0.3,4.7,2.3,4.5,4.7  C191.5,67.5,189.1,69.4,186.3,69.4z"/><path style="fill:none;stroke:red;stroke-width:0.0001px" d="M166.4,138.8c-2.9,0-4.9-2.3-4.9-4.9c0-2.4,2.3-4.3,5-4.3c2.6,0,4.2,2.3,4.3,4.5  C171.1,136.5,169,139,166.4,138.8z"/><path style="fill:none;stroke:red;stroke-width:0.0001px" d="M140.4,179.5c2.3,0,4.3,2,4.2,4.1c0,2.1-2.2,4.2-4.2,4.1c-2.6-0.2-4-1.5-4.2-4.1  C136.2,181.3,138.2,179.5,140.4,179.5z"/><path style="fill:none;stroke:red;stroke-width:0.0001px" d="M159.1,91.1c2.4,0,4.7,2.1,4.7,4.5s-2.1,4.7-4.5,4.7c-2.6,0-4.9-2.1-4.9-4.5  C154.4,93.2,156.5,91.1,159.1,91.1z"/><path style="fill:none;stroke:red;stroke-width:0.0001px" d="M166.4,144.3c0-2.4,1.9-4.5,4.2-4.7c2.8,0,4.9,1.7,5,4c0.2,2.6-1.7,5-5,5  C168.1,148.7,166.4,147,166.4,144.3z"/><path style="fill:none;stroke:red;stroke-width:0.0001px" d="M162.6,145.6c2.3,0.2,4.2,1.4,4.2,4.7c0,1.6-2.4,4.3-4.7,4.3c-2.3-0.2-4.2-1.9-4.2-4.2  C157.7,148.3,159.8,145.4,162.6,145.6z"/><path style="fill:none;stroke:red;stroke-width:0.0001px" d="M67.5,143.1c0.7,0.3,1.6,0.5,2.3,0.9c2.4,1.4,2.8,4.7,0.7,6.6c-1.4,1.2-2.9,1.6-4.7,0.9  c-1.6-0.9-2.8-2.1-2.9-4c0-1.4,0.7-2.4,1.9-3.3c0.5-0.3,1.2-0.5,1.7-1C66.8,143.1,67.2,143.1,67.5,143.1z"/><path style="fill:none;stroke:red;stroke-width:0.0001px" d="M177.5,187c-0.3-0.9-1.2-1.2-1.6-2.1c-0.7-1.7-0.3-3.8,1.2-5c1.9-1.6,4.3-1.4,5.9,0.2  c1.2,1,1.7,3.5,0.9,4.9c-1.2,2.1-2.6,2.9-4.7,2.4c-0.3,0-0.5,0-0.9,0C177.8,187.2,177.7,187,177.5,187z"/><path style="fill:none;stroke:red;stroke-width:0.0001px" d="M76,71.1c-2.3,0-4.2-1.9-4.2-4.2c0-2.1,2.1-4.2,4-4.2c2.1,0,4.3,1.9,4.3,3.8  C80.3,69.2,78.4,71.1,76,71.1z"/><path style="fill:none;stroke:red;stroke-width:0.0001px" d="M161.5,179.4c2.1,0,4,1.7,3.8,3.8c0,2.4-1.7,3.8-3.8,3.8c-2.4,0.2-4.2-1.9-4.2-3.8  C157.5,181.1,159.3,179.6,161.5,179.4z"/><path style="fill:none;stroke:red;stroke-width:0.0001px" d="M106.5,82.4c0-1.9,1.6-3.5,3.5-3.6c2.3,0,4,1.4,4.2,4.2c0,1.2-1.7,3.3-3.8,3.3  C108.6,86.4,106.2,84.3,106.5,82.4z"/><path style="fill:none;stroke:red;stroke-width:0.0001px" d="M84.7,69.6c-2.1,0-3.6-1.4-3.6-3.5c0-1.6,1.6-3.1,3.5-3.1c1.7,0,3.3,1.2,3.3,3.1  C87.8,68,86.4,69.6,84.7,69.6z"/><path style="fill:none;stroke:red;stroke-width:0.0001px" d="M166.6,80c1.7,0,2.9,1.2,2.9,2.8c0,1.2-1.2,3.1-2.9,2.9c-1.9-0.2-3.3-1.4-3.3-3.1  C163.4,81,164.8,80,166.6,80z"/><path style="fill:none;stroke:red;stroke-width:0.0001px" d="M167.4,169.3c-0.2-0.9-0.7-1.4-0.7-2.4c0.2-1.4,1.6-2.8,2.9-2.8c1.6,0,3.1,1.6,3.1,2.9  c0,1.4-1.6,2.9-2.9,2.9c-0.7,0-1.2,0-1.7-0.3C168.1,169.3,167.8,169.3,167.4,169.3z"/><path style="fill:none;stroke:red;stroke-width:0.0001px" d="M169.9,177.1c0,1.4-1.4,2.9-2.9,3.1c-1.6,0-3.1-1.4-3.1-3.1c0-1.2,1.6-2.8,2.6-2.8  C168.3,174.4,169.9,175.6,169.9,177.1z"/><path style="fill:none;stroke:red;stroke-width:0.0001px" d="M58,102.2c1.7,0,2.6,1,2.8,2.8c0,1.2-1.6,2.9-2.6,2.9c-1.9-0.2-3.5-1-3.3-2.9  C54.8,103.2,55.9,102.2,58,102.2z"/><path style="fill:none;stroke:red;stroke-width:0.0001px" d="M66.5,178.3c0-1.7,1.2-3.1,2.9-3.1c1.6,0,2.8,1.4,2.8,3.1c0,1.4-1.4,2.8-2.6,2.8  C68,181,66.5,179.7,66.5,178.3z"/><path style="fill:none;stroke:red;stroke-width:0.0001px" d="M75.5,183.6c-1.6,0-2.6-1.4-2.8-2.6c-0.2-1.6,1.4-3.1,2.9-3.1c1.4,0,3.1,1.6,2.9,3.1  C78.4,182.7,77.6,183.6,75.5,183.6z"/><path style="fill:none;stroke:red;stroke-width:0.0001px" d="M174.4,99.8c0,1.6-1.2,2.8-2.8,2.8s-2.9-1.2-2.9-2.9c0-1.6,1-2.6,2.8-2.6  C173,96.8,174.2,98.2,174.4,99.8z"/><path style="fill:none;stroke:red;stroke-width:0.0001px" d="M116.8,87.8c-1-0.7-1.9-1.6-1.7-2.9c0.2-1,0.7-1.7,1.7-2.1c1-0.3,2.1-0.5,2.9,0.2  c1.6,1.2,1.6,1.9,1,3.3c-0.5,1.4-2.1,1.9-3.6,1.7C117,87.8,116.8,87.8,116.8,87.8z"/><path style="fill:none;stroke:red;stroke-width:0.0001px" d="M157.2,101.3c1.6,0,2.8,1,2.8,2.6c0,1.7-1.2,2.9-2.9,2.9c-1.4,0-2.8-1.4-2.8-2.8  C154.2,102.5,155.6,101.3,157.2,101.3z"/><path style="fill:none;stroke:red;stroke-width:0.0001px" d="M94.2,123.4c-1.4,0-2.8-1.4-2.8-2.6c0-1.6,1.4-2.9,2.9-2.9c1.4,0,2.9,1.4,2.8,2.6  C97,122.1,96.5,123.2,94.2,123.4z"/><path style="fill:none;stroke:red;stroke-width:0.0001px" d="M126.8,81.5c0,1.6-1.2,2.8-2.9,2.8c-1.4,0-2.6-1.2-2.8-2.8c-0.2-1.4,1.4-2.8,2.6-2.8  C125.6,78.8,127,79.6,126.8,81.5z"/><path style="fill:none;stroke:red;stroke-width:0.0001px" d="M50.7,107.9c-1.7,0-2.8-1.2-2.8-2.9c0-1.4,1.4-2.6,2.6-2.6c1.4,0,2.9,1.6,2.9,2.9  C53.5,106.7,52.1,107.9,50.7,107.9z"/><path style="fill:none;stroke:red;stroke-width:0.0001px" d="M151.1,110.5c-1.6,0-2.8-1.2-2.8-2.4c0.2-1.6,1.4-2.9,2.8-2.9c1.6,0,2.8,1.2,2.8,2.4  C153.9,109.5,152.7,110.5,151.1,110.5z"/><path style="fill:none;stroke:red;stroke-width:0.0001px" d="M57.6,158.6c0.2-0.2,0.3-0.2,0.5-0.3c1.2-0.2,2.4,0,3.1,1.2c0.7,1.2,0.5,2.8-0.7,3.6  c-1,0.9-2.8,0.5-3.5-0.5C55.9,161.3,56.1,160.3,57.6,158.6z"/><path style="fill:none;stroke:red;stroke-width:0.0001px" d="M184.1,94.6c1.4,0,2.6,1.2,2.6,2.6c0,1.7-1.2,2.6-2.8,2.8c-1.4,0.2-2.6-1.2-2.6-2.6  C181.3,95.8,182.5,94.6,184.1,94.6z"/><path style="fill:none;stroke:red;stroke-width:0.0001px" d="M169.2,128.2c-1.4,0-2.4-0.9-2.4-2.3c0-1.6,1-2.6,2.6-2.4c1.4,0,2.4,1,2.4,2.6  C171.8,127.2,170.6,128.2,169.2,128.2z"/><path style="fill:none;stroke:red;stroke-width:0.0001px" d="M60.2,78.9c-0.7-0.7-1.2-1.4-0.9-2.6c0.3-1.4,1-2.1,2.3-2.1c1.4,0,2.6,1.2,2.6,2.4  c0.2,1.2-2.1,2.8-3.5,2.4C60.6,78.9,60.4,78.9,60.2,78.9L60.2,78.9z"/><path style="fill:none;stroke:red;stroke-width:0.0001px" d="M111.1,93.7c1.4,0,2.6,1,2.6,2.4c0,1.2-1.4,2.4-2.6,2.3c-1,0-2.4-1.4-2.4-2.6  C108.8,94.7,110,93.7,111.1,93.7z"/><path style="fill:none;stroke:red;stroke-width:0.0001px" d="M84.7,72.7c0,1.6-0.9,2.4-2.4,2.4c-1.2,0-2.1-1-2.1-2.4c0-1.2,1-2.3,2.3-2.3  C84,70.4,84.7,71.1,84.7,72.7z"/><path style="fill:none;stroke:red;stroke-width:0.0001px" d="M79.3,75c0,1.2-1.2,2.4-2.4,2.4c-1,0-2.1-1-2.1-2.3c0-1,1.2-2.3,2.3-2.3C78.1,72.7,79.3,73.9,79.3,75  z"/><path style="fill:none;stroke:red;stroke-width:0.0001px" d="M174,90.1c0-1.4,0.9-2.1,2.4-2.1c0.9,0,1.9,1.2,1.9,2.1c0,1-1.2,2.1-2.1,2.1  C174.9,92.1,174,91.3,174,90.1z"/><path style="fill:none;stroke:red;stroke-width:0.0001px" d="M77.4,163.8c1.6-0.2,2.3,1.2,2.3,2.1c0,1.2-0.9,2.1-1.9,2.1c-1.4,0-2.3-1-2.3-2.3  C75.5,164.6,76.4,163.6,77.4,163.8z"/><path style="fill:none;stroke:red;stroke-width:0.0001px" d="M188.9,80c1.2,0,2.1,0.9,2.1,2.1c0,1-0.9,1.9-1.9,1.9c-1.2,0-2.3-0.9-2.3-2.1  C186.9,80.9,187.6,80,188.9,80z"/><path style="fill:none;stroke:red;stroke-width:0.0001px" d="M166.7,110.7c1,0,2.1,1,2.1,2.1c0,1-1,1.9-2.1,1.9s-1.9-1-1.9-2.1  C164.8,111.6,165.7,110.7,166.7,110.7z"/><path style="fill:none;stroke:red;stroke-width:0.0001px" d="M168.5,96.8c0,0.9-0.9,1.7-1.9,1.7c-0.9,0-1.6-0.7-1.6-1.6c0-1,0.7-1.7,1.7-1.7  C167.8,95.3,168.5,95.9,168.5,96.8z"/><path style="fill:none;stroke:red;stroke-width:0.0001px" d="M60.6,100.3c0,0.7-0.5,1.2-1.2,1.2s-1.2-0.3-1.2-1.2c0-0.7,0.3-1.4,1.2-1.4S60.6,99.4,60.6,100.3z"/></svg>