<svg xmlns="http://www.w3.org/2000/svg" xmlns:xlink="http://www.w3.org/1999/xlink" version="1.1" id="Layer_1" x="0px" y="0px" xml:space="preserve" width="32in" height="18in"><g transform="translate(41.42135623730951 41.42135623730951) rotate(-45 100.0 100.0)"><path style="fill:none;stroke:red;stroke-width:0.0001px" d="M81.8,26.3h0.9c0.5,0,1,0,1.5-0.1s0.9-0.2,1.3-0.4c0.4-0.2,0.7-0.5,0.9-0.9c0.2-0.4,0.4-0.9,0.4-1.5   c0-0.8-0.3-1.5-0.8-2c-0.6-0.5-1.3-0.8-2.2-0.8c-0.7,0-1.4,0.2-1.9,0.6c-0.6,0.4-1,1-1.2,1.7l-3.8-1c0.2-0.8,0.6-1.5,1-2   c0.4-0.6,1-1.1,1.6-1.4c0.6-0.4,1.3-0.6,2-0.8c0.7-0.2,1.5-0.3,2.2-0.3c0.9,0,1.8,0.1,2.6,0.4c0.8,0.2,1.5,0.6,2.2,1.1   c0.6,0.5,1.1,1.1,1.5,1.8c0.4,0.7,0.6,1.5,0.6,2.5c0,1.1-0.3,2.2-1,3s-1.5,1.5-2.7,1.8v0.1c1.4,0.2,2.4,0.8,3.1,1.7   c0.7,1,1.1,2.1,1.1,3.4c0,1-0.2,1.9-0.6,2.7s-0.9,1.4-1.6,2c-0.7,0.5-1.4,0.9-2.3,1.2s-1.8,0.4-2.7,0.4c-0.9,0-1.7-0.1-2.5-0.3   s-1.5-0.5-2.1-0.9s-1.2-0.9-1.6-1.5c-0.5-0.6-0.8-1.4-1.1-2.3l3.8-1c0.2,0.9,0.6,1.6,1.2,2c0.6,0.5,1.3,0.7,2.3,0.7   c0.5,0,0.9-0.1,1.4-0.2c0.4-0.2,0.8-0.4,1.1-0.7c0.3-0.3,0.6-0.6,0.8-1.1c0.2-0.4,0.3-0.9,0.3-1.4c0-0.7-0.1-1.2-0.4-1.7   c-0.3-0.4-0.7-0.8-1.1-1c-0.5-0.2-1-0.4-1.5-0.5c-0.6-0.1-1.1-0.1-1.7-0.1h-0.9v-3.2H81.8z"/><path style="fill:none;stroke:red;stroke-width:0.0001px" d="M81.8,26.3h0.9c0.5,0,1,0,1.5-0.1s0.9-0.2,1.3-0.4c0.4-0.2,0.7-0.5,0.9-0.9c0.2-0.4,0.4-0.9,0.4-1.5   c0-0.8-0.3-1.5-0.8-2c-0.6-0.5-1.3-0.8-2.2-0.8c-0.7,0-1.4,0.2-1.9,0.6c-0.6,0.4-1,1-1.2,1.7l-3.8-1c0.2-0.8,0.6-1.5,1-2   c0.4-0.6,1-1.1,1.6-1.4c0.6-0.4,1.3-0.6,2-0.8c0.7-0.2,1.5-0.3,2.2-0.3c0.9,0,1.8,0.1,2.6,0.4c0.8,0.2,1.5,0.6,2.2,1.1   c0.6,0.5,1.1,1.1,1.5,1.8c0.4,0.7,0.6,1.5,0.6,2.5c0,1.1-0.3,2.2-1,3s-1.5,1.5-2.7,1.8v0.1c1.4,0.2,2.4,0.8,3.1,1.7   c0.7,1,1.1,2.1,1.1,3.4c0,1-0.2,1.9-0.6,2.7s-0.9,1.4-1.6,2c-0.7,0.5-1.4,0.9-2.3,1.2s-1.8,0.4-2.7,0.4c-0.9,0-1.7-0.1-2.5-0.3   s-1.5-0.5-2.1-0.9s-1.2-0.9-1.6-1.5c-0.5-0.6-0.8-1.4-1.1-2.3l3.8-1c0.2,0.9,0.6,1.6,1.2,2c0.6,0.5,1.3,0.7,2.3,0.7   c0.5,0,0.9-0.1,1.4-0.2c0.4-0.2,0.8-0.4,1.1-0.7c0.3-0.3,0.6-0.6,0.8-1.1c0.2-0.4,0.3-0.9,0.3-1.4c0-0.7-0.1-1.2-0.4-1.7   c-0.3-0.4-0.7-0.8-1.1-1c-0.5-0.2-1-0.4-1.5-0.5c-0.6-0.1-1.1-0.1-1.7-0.1h-0.9v-3.2H81.8z"/><path style="fill:none;stroke:red;stroke-width:0.0001px" d="M81.8,26.3h0.9c0.5,0,1,0,1.5-0.1s0.9-0.2,1.3-0.4c0.4-0.2,0.7-0.5,0.9-0.9c0.2-0.4,0.4-0.9,0.4-1.5   c0-0.8-0.3-1.5-0.8-2c-0.6-0.5-1.3-0.8-2.2-0.8c-0.7,0-1.4,0.2-1.9,0.6c-0.6,0.4-1,1-1.2,1.7l-3.8-1c0.2-0.8,0.6-1.5,1-2   c0.4-0.6,1-1.1,1.6-1.4c0.6-0.4,1.3-0.6,2-0.8c0.7-0.2,1.5-0.3,2.2-0.3c0.9,0,1.8,0.1,2.6,0.4c0.8,0.2,1.5,0.6,2.2,1.1   c0.6,0.5,1.1,1.1,1.5,1.8c0.4,0.7,0.6,1.5,0.6,2.5c0,1.1-0.3,2.2-1,3s-1.5,1.5-2.7,1.8v0.1c1.4,0.2,2.4,0.8,3.1,1.7   c0.7,1,1.1,2.1,1.1,3.4c0,1-0.2,1.9-0.6,2.7s-0.9,1.4-1.6,2c-0.7,0.5-1.4,0.9-2.3,1.2s-1.8,0.4-2.7,0.4c-0.9,0-1.7-0.1-2.5-0.3   s-1.5-0.5-2.1-0.9s-1.2-0.9-1.6-1.5c-0.5-0.6-0.8-1.4-1.1-2.3l3.8-1c0.2,0.9,0.6,1.6,1.2,2c0.6,0.5,1.3,0.7,2.3,0.7   c0.5,0,0.9-0.1,1.4-0.2c0.4-0.2,0.8-0.4,1.1-0.7c0.3-0.3,0.6-0.6,0.8-1.1c0.2-0.4,0.3-0.9,0.3-1.4c0-0.7-0.1-1.2-0.4-1.7   c-0.3-0.4-0.7-0.8-1.1-1c-0.5-0.2-1-0.4-1.5-0.5c-0.6-0.1-1.1-0.1-1.7-0.1h-0.9v-3.2H81.8z"/><path style="fill:none;stroke:red;stroke-width:0.0001px" d="M81.8,26.3h0.9c0.5,0,1,0,1.5-0.1s0.9-0.2,1.3-0.4c0.4-0.2,0.7-0.5,0.9-0.9c0.2-0.4,0.4-0.9,0.4-1.5   c0-0.8-0.3-1.5-0.8-2c-0.6-0.5-1.3-0.8-2.2-0.8c-0.7,0-1.4,0.2-1.9,0.6c-0.6,0.4-1,1-1.2,1.7l-3.8-1c0.2-0.8,0.6-1.5,1-2   c0.4-0.6,1-1.1,1.6-1.4c0.6-0.4,1.3-0.6,2-0.8c0.7-0.2,1.5-0.3,2.2-0.3c0.9,0,1.8,0.1,2.6,0.4c0.8,0.2,1.5,0.6,2.2,1.1   c0.6,0.5,1.1,1.1,1.5,1.8c0.4,0.7,0.6,1.5,0.6,2.5c0,1.1-0.3,2.2-1,3s-1.5,1.5-2.7,1.8v0.1c1.4,0.2,2.4,0.8,3.1,1.7   c0.7,1,1.1,2.1,1.1,3.4c0,1-0.2,1.9-0.6,2.7s-0.9,1.4-1.6,2c-0.7,0.5-1.4,0.9-2.3,1.2s-1.8,0.4-2.7,0.4c-0.9,0-1.7-0.1-2.5-0.3   s-1.5-0.5-2.1-0.9s-1.2-0.9-1.6-1.5c-0.5-0.6-0.8-1.4-1.1-2.3l3.8-1c0.2,0.9,0.6,1.6,1.2,2c0.6,0.5,1.3,0.7,2.3,0.7   c0.5,0,0.9-0.1,1.4-0.2c0.4-0.2,0.8-0.4,1.1-0.7c0.3-0.3,0.6-0.6,0.8-1.1c0.2-0.4,0.3-0.9,0.3-1.4c0-0.7-0.1-1.2-0.4-1.7   c-0.3-0.4-0.7-0.8-1.1-1c-0.5-0.2-1-0.4-1.5-0.5c-0.6-0.1-1.1-0.1-1.7-0.1h-0.9v-3.2H81.8z"/><path style="fill:none;stroke:red;stroke-width:0.0001px" d="M81.8,26.3h0.9c0.5,0,1,0,1.5-0.1s0.9-0.2,1.3-0.4c0.4-0.2,0.7-0.5,0.9-0.9c0.2-0.4,0.4-0.9,0.4-1.5   c0-0.8-0.3-1.5-0.8-2c-0.6-0.5-1.3-0.8-2.2-0.8c-0.7,0-1.4,0.2-1.9,0.6c-0.6,0.4-1,1-1.2,1.7l-3.8-1c0.2-0.8,0.6-1.5,1-2   c0.4-0.6,1-1.1,1.6-1.4c0.6-0.4,1.3-0.6,2-0.8c0.7-0.2,1.5-0.3,2.2-0.3c0.9,0,1.8,0.1,2.6,0.4c0.8,0.2,1.5,0.6,2.2,1.1   c0.6,0.5,1.1,1.1,1.5,1.8c0.4,0.7,0.6,1.5,0.6,2.5c0,1.1-0.3,2.2-1,3s-1.5,1.5-2.7,1.8v0.1c1.4,0.2,2.4,0.8,3.1,1.7   c0.7,1,1.1,2.1,1.1,3.4c0,1-0.2,1.9-0.6,2.7s-0.9,1.4-1.6,2c-0.7,0.5-1.4,0.9-2.3,1.2s-1.8,0.4-2.7,0.4c-0.9,0-1.7-0.1-2.5-0.3   s-1.5-0.5-2.1-0.9s-1.2-0.9-1.6-1.5c-0.5-0.6-0.8-1.4-1.1-2.3l3.8-1c0.2,0.9,0.6,1.6,1.2,2c0.6,0.5,1.3,0.7,2.3,0.7   c0.5,0,0.9-0.1,1.4-0.2c0.4-0.2,0.8-0.4,1.1-0.7c0.3-0.3,0.6-0.6,0.8-1.1c0.2-0.4,0.3-0.9,0.3-1.4c0-0.7-0.1-1.2-0.4-1.7   c-0.3-0.4-0.7-0.8-1.1-1c-0.5-0.2-1-0.4-1.5-0.5c-0.6-0.1-1.1-0.1-1.7-0.1h-0.9v-3.2H81.8z"/><path style="fill:none;stroke:red;stroke-width:0.0001px" d="M107.5,31.2l-5-6.7h4.4l2.9,4.3l3.1-4.3h4.1l-4.9,6.7l5.8,7.7h-4.4l-3.8-5.2l-3.8,5.2h-4.3   L107.5,31.2z"/><path style="fill:none;stroke:red;stroke-width:0.0001px" d="M107.5,31.2l-5-6.7h4.4l2.9,4.3l3.1-4.3h4.1l-4.9,6.7l5.8,7.7h-4.4l-3.8-5.2l-3.8,5.2h-4.3   L107.5,31.2z"/><path style="fill:none;stroke:red;stroke-width:0.0001px" d="M107.5,31.2l-5-6.7h4.4l2.9,4.3l3.1-4.3h4.1l-4.9,6.7l5.8,7.7h-4.4l-3.8-5.2l-3.8,5.2h-4.3   L107.5,31.2z"/><path style="fill:none;stroke:red;stroke-width:0.0001px" d="M107.5,31.2l-5-6.7h4.4l2.9,4.3l3.1-4.3h4.1l-4.9,6.7l5.8,7.7h-4.4l-3.8-5.2l-3.8,5.2h-4.3   L107.5,31.2z"/><path style="fill:none;stroke:red;stroke-width:0.0001px" d="M107.5,31.2l-5-6.7h4.4l2.9,4.3l3.1-4.3h4.1l-4.9,6.7l5.8,7.7h-4.4l-3.8-5.2l-3.8,5.2h-4.3   L107.5,31.2z"/><path style="fill:none;stroke:red;stroke-width:0.0001px" d="M128.5,35.1l8.2-8c0.2-0.2,0.5-0.5,0.8-0.8s0.5-0.6,0.7-0.9s0.4-0.6,0.5-0.9s0.2-0.7,0.2-1   c0-0.4-0.1-0.8-0.3-1.2c-0.2-0.3-0.4-0.6-0.7-0.9c-0.3-0.2-0.6-0.4-1-0.6c-0.4-0.1-0.8-0.2-1.2-0.2c-0.9,0-1.6,0.3-2.2,0.8   c-0.6,0.5-0.9,1.2-1.1,2.1l-3.8-0.3c0.1-1,0.3-1.8,0.7-2.6c0.4-0.8,0.9-1.4,1.5-1.9s1.3-0.9,2.2-1.1c0.8-0.3,1.7-0.4,2.7-0.4   s1.9,0.1,2.7,0.4s1.6,0.6,2.2,1.1c0.6,0.5,1.1,1.1,1.5,1.9s0.5,1.7,0.5,2.7c0,1.3-0.3,2.5-0.9,3.5c-0.6,1-1.4,1.9-2.4,2.8l-6.6,6.1   h9.8v3.2h-14.2v-3.8H128.5z"/><path style="fill:none;stroke:red;stroke-width:0.0001px" d="M128.5,35.1l8.2-8c0.2-0.2,0.5-0.5,0.8-0.8s0.5-0.6,0.7-0.9s0.4-0.6,0.5-0.9s0.2-0.7,0.2-1   c0-0.4-0.1-0.8-0.3-1.2c-0.2-0.3-0.4-0.6-0.7-0.9c-0.3-0.2-0.6-0.4-1-0.6c-0.4-0.1-0.8-0.2-1.2-0.2c-0.9,0-1.6,0.3-2.2,0.8   c-0.6,0.5-0.9,1.2-1.1,2.1l-3.8-0.3c0.1-1,0.3-1.8,0.7-2.6c0.4-0.8,0.9-1.4,1.5-1.9s1.3-0.9,2.2-1.1c0.8-0.3,1.7-0.4,2.7-0.4   s1.9,0.1,2.7,0.4s1.6,0.6,2.2,1.1c0.6,0.5,1.1,1.1,1.5,1.9s0.5,1.7,0.5,2.7c0,1.3-0.3,2.5-0.9,3.5c-0.6,1-1.4,1.9-2.4,2.8l-6.6,6.1   h9.8v3.2h-14.2v-3.8H128.5z"/><path style="fill:none;stroke:red;stroke-width:0.0001px" d="M128.5,35.1l8.2-8c0.2-0.2,0.5-0.5,0.8-0.8s0.5-0.6,0.7-0.9s0.4-0.6,0.5-0.9s0.2-0.7,0.2-1   c0-0.4-0.1-0.8-0.3-1.2c-0.2-0.3-0.4-0.6-0.7-0.9c-0.3-0.2-0.6-0.4-1-0.6c-0.4-0.1-0.8-0.2-1.2-0.2c-0.9,0-1.6,0.3-2.2,0.8   c-0.6,0.5-0.9,1.2-1.1,2.1l-3.8-0.3c0.1-1,0.3-1.8,0.7-2.6c0.4-0.8,0.9-1.4,1.5-1.9s1.3-0.9,2.2-1.1c0.8-0.3,1.7-0.4,2.7-0.4   s1.9,0.1,2.7,0.4s1.6,0.6,2.2,1.1c0.6,0.5,1.1,1.1,1.5,1.9s0.5,1.7,0.5,2.7c0,1.3-0.3,2.5-0.9,3.5c-0.6,1-1.4,1.9-2.4,2.8l-6.6,6.1   h9.8v3.2h-14.2v-3.8H128.5z"/><path style="fill:none;stroke:red;stroke-width:0.0001px" d="M128.5,35.1l8.2-8c0.2-0.2,0.5-0.5,0.8-0.8s0.5-0.6,0.7-0.9s0.4-0.6,0.5-0.9s0.2-0.7,0.2-1   c0-0.4-0.1-0.8-0.3-1.2c-0.2-0.3-0.4-0.6-0.7-0.9c-0.3-0.2-0.6-0.4-1-0.6c-0.4-0.1-0.8-0.2-1.2-0.2c-0.9,0-1.6,0.3-2.2,0.8   c-0.6,0.5-0.9,1.2-1.1,2.1l-3.8-0.3c0.1-1,0.3-1.8,0.7-2.6c0.4-0.8,0.9-1.4,1.5-1.9s1.3-0.9,2.2-1.1c0.8-0.3,1.7-0.4,2.7-0.4   s1.9,0.1,2.7,0.4s1.6,0.6,2.2,1.1c0.6,0.5,1.1,1.1,1.5,1.9s0.5,1.7,0.5,2.7c0,1.3-0.3,2.5-0.9,3.5c-0.6,1-1.4,1.9-2.4,2.8l-6.6,6.1   h9.8v3.2h-14.2v-3.8H128.5z"/><path style="fill:none;stroke:red;stroke-width:0.0001px" d="M128.5,35.1l8.2-8c0.2-0.2,0.5-0.5,0.8-0.8s0.5-0.6,0.7-0.9s0.4-0.6,0.5-0.9s0.2-0.7,0.2-1   c0-0.4-0.1-0.8-0.3-1.2c-0.2-0.3-0.4-0.6-0.7-0.9c-0.3-0.2-0.6-0.4-1-0.6c-0.4-0.1-0.8-0.2-1.2-0.2c-0.9,0-1.6,0.3-2.2,0.8   c-0.6,0.5-0.9,1.2-1.1,2.1l-3.8-0.3c0.1-1,0.3-1.8,0.7-2.6c0.4-0.8,0.9-1.4,1.5-1.9s1.3-0.9,2.2-1.1c0.8-0.3,1.7-0.4,2.7-0.4   s1.9,0.1,2.7,0.4s1.6,0.6,2.2,1.1c0.6,0.5,1.1,1.1,1.5,1.9s0.5,1.7,0.5,2.7c0,1.3-0.3,2.5-0.9,3.5c-0.6,1-1.4,1.9-2.4,2.8l-6.6,6.1   h9.8v3.2h-14.2v-3.8H128.5z"/><path style="fill:none;stroke:red;stroke-width:0.0001px" d="M171.5,25.6v3.1h-16.3v-3.1H171.5z M171.5,31v3.1h-16.3V31H171.5z"/><path style="fill:none;stroke:red;stroke-width:0.0001px" d="M171.5,25.6v3.1h-16.3v-3.1H171.5z M171.5,31v3.1h-16.3V31H171.5z"/><path style="fill:none;stroke:red;stroke-width:0.0001px" d="M171.5,25.6v3.1h-16.3v-3.1H171.5z M171.5,31v3.1h-16.3V31H171.5z"/><path style="fill:none;stroke:red;stroke-width:0.0001px" d="M171.5,25.6v3.1h-16.3v-3.1H171.5z M171.5,31v3.1h-16.3V31H171.5z"/><path style="fill:none;stroke:red;stroke-width:0.0001px" d="M171.5,25.6v3.1h-16.3v-3.1H171.5z M171.5,31v3.1h-16.3V31H171.5z"/><path style="fill:none;stroke:red;stroke-width:0.0001px" d="M22.2,75.3h0.9c0.5,0,1,0,1.5-0.1s0.9-0.2,1.3-0.4c0.4-0.2,0.7-0.5,0.9-0.9c0.2-0.4,0.4-0.9,0.4-1.5   c0-0.8-0.3-1.5-0.8-2c-0.6-0.5-1.3-0.8-2.2-0.8c-0.7,0-1.4,0.2-1.9,0.6c-0.6,0.4-1,1-1.2,1.7l-3.8-1c0.2-0.8,0.6-1.5,1-2   c0.4-0.6,1-1.1,1.6-1.4c0.6-0.4,1.3-0.6,2-0.8c0.7-0.2,1.5-0.3,2.2-0.3c0.9,0,1.8,0.1,2.6,0.4c0.8,0.2,1.5,0.6,2.2,1.1   c0.6,0.5,1.1,1.1,1.5,1.8c0.4,0.7,0.6,1.5,0.6,2.5c0,1.1-0.3,2.2-1,3s-1.5,1.5-2.7,1.8v0c1.4,0.2,2.4,0.8,3.1,1.7   c0.7,1,1.1,2.1,1.1,3.4c0,1-0.2,1.9-0.6,2.7c-0.4,0.8-0.9,1.4-1.6,2c-0.7,0.5-1.4,0.9-2.3,1.2c-0.9,0.3-1.8,0.4-2.7,0.4   c-0.9,0-1.7-0.1-2.5-0.3c-0.8-0.2-1.5-0.5-2.1-0.9s-1.2-0.9-1.6-1.5c-0.5-0.6-0.8-1.4-1.1-2.3l3.8-1c0.2,0.9,0.6,1.6,1.2,2   c0.6,0.5,1.3,0.7,2.3,0.7c0.5,0,0.9-0.1,1.4-0.2c0.4-0.2,0.8-0.4,1.1-0.7c0.3-0.3,0.6-0.6,0.8-1.1c0.2-0.4,0.3-0.9,0.3-1.4   c0-0.7-0.1-1.2-0.4-1.7c-0.3-0.4-0.7-0.8-1.1-1c-0.5-0.2-1-0.4-1.5-0.5c-0.6-0.1-1.1-0.1-1.7-0.1h-0.9L22.2,75.3L22.2,75.3z"/><path style="fill:none;stroke:red;stroke-width:0.0001px" d="M22.2,75.3h0.9c0.5,0,1,0,1.5-0.1s0.9-0.2,1.3-0.4c0.4-0.2,0.7-0.5,0.9-0.9c0.2-0.4,0.4-0.9,0.4-1.5   c0-0.8-0.3-1.5-0.8-2c-0.6-0.5-1.3-0.8-2.2-0.8c-0.7,0-1.4,0.2-1.9,0.6c-0.6,0.4-1,1-1.2,1.7l-3.8-1c0.2-0.8,0.6-1.5,1-2   c0.4-0.6,1-1.1,1.6-1.4c0.6-0.4,1.3-0.6,2-0.8c0.7-0.2,1.5-0.3,2.2-0.3c0.9,0,1.8,0.1,2.6,0.4c0.8,0.2,1.5,0.6,2.2,1.1   c0.6,0.5,1.1,1.1,1.5,1.8c0.4,0.7,0.6,1.5,0.6,2.5c0,1.1-0.3,2.2-1,3s-1.5,1.5-2.7,1.8v0c1.4,0.2,2.4,0.8,3.1,1.7   c0.7,1,1.1,2.1,1.1,3.4c0,1-0.2,1.9-0.6,2.7c-0.4,0.8-0.9,1.4-1.6,2c-0.7,0.5-1.4,0.9-2.3,1.2c-0.9,0.3-1.8,0.4-2.7,0.4   c-0.9,0-1.7-0.1-2.5-0.3c-0.8-0.2-1.5-0.5-2.1-0.9s-1.2-0.9-1.6-1.5c-0.5-0.6-0.8-1.4-1.1-2.3l3.8-1c0.2,0.9,0.6,1.6,1.2,2   c0.6,0.5,1.3,0.7,2.3,0.7c0.5,0,0.9-0.1,1.4-0.2c0.4-0.2,0.8-0.4,1.1-0.7c0.3-0.3,0.6-0.6,0.8-1.1c0.2-0.4,0.3-0.9,0.3-1.4   c0-0.7-0.1-1.2-0.4-1.7c-0.3-0.4-0.7-0.8-1.1-1c-0.5-0.2-1-0.4-1.5-0.5c-0.6-0.1-1.1-0.1-1.7-0.1h-0.9L22.2,75.3L22.2,75.3z"/><path style="fill:none;stroke:red;stroke-width:0.0001px" d="M22.2,75.3h0.9c0.5,0,1,0,1.5-0.1s0.9-0.2,1.3-0.4c0.4-0.2,0.7-0.5,0.9-0.9c0.2-0.4,0.4-0.9,0.4-1.5   c0-0.8-0.3-1.5-0.8-2c-0.6-0.5-1.3-0.8-2.2-0.8c-0.7,0-1.4,0.2-1.9,0.6c-0.6,0.4-1,1-1.2,1.7l-3.8-1c0.2-0.8,0.6-1.5,1-2   c0.4-0.6,1-1.1,1.6-1.4c0.6-0.4,1.3-0.6,2-0.8c0.7-0.2,1.5-0.3,2.2-0.3c0.9,0,1.8,0.1,2.6,0.4c0.8,0.2,1.5,0.6,2.2,1.1   c0.6,0.5,1.1,1.1,1.5,1.8c0.4,0.7,0.6,1.5,0.6,2.5c0,1.1-0.3,2.2-1,3s-1.5,1.5-2.7,1.8v0c1.4,0.2,2.4,0.8,3.1,1.7   c0.7,1,1.1,2.1,1.1,3.4c0,1-0.2,1.9-0.6,2.7c-0.4,0.8-0.9,1.4-1.6,2c-0.7,0.5-1.4,0.9-2.3,1.2c-0.9,0.3-1.8,0.4-2.7,0.4   c-0.9,0-1.7-0.1-2.5-0.3c-0.8-0.2-1.5-0.5-2.1-0.9s-1.2-0.9-1.6-1.5c-0.5-0.6-0.8-1.4-1.1-2.3l3.8-1c0.2,0.9,0.6,1.6,1.2,2   c0.6,0.5,1.3,0.7,2.3,0.7c0.5,0,0.9-0.1,1.4-0.2c0.4-0.2,0.8-0.4,1.1-0.7c0.3-0.3,0.6-0.6,0.8-1.1c0.2-0.4,0.3-0.9,0.3-1.4   c0-0.7-0.1-1.2-0.4-1.7c-0.3-0.4-0.7-0.8-1.1-1c-0.5-0.2-1-0.4-1.5-0.5c-0.6-0.1-1.1-0.1-1.7-0.1h-0.9L22.2,75.3L22.2,75.3z"/><path style="fill:none;stroke:red;stroke-width:0.0001px" d="M22.2,75.3h0.9c0.5,0,1,0,1.5-0.1s0.9-0.2,1.3-0.4c0.4-0.2,0.7-0.5,0.9-0.9c0.2-0.4,0.4-0.9,0.4-1.5   c0-0.8-0.3-1.5-0.8-2c-0.6-0.5-1.3-0.8-2.2-0.8c-0.7,0-1.4,0.2-1.9,0.6c-0.6,0.4-1,1-1.2,1.7l-3.8-1c0.2-0.8,0.6-1.5,1-2   c0.4-0.6,1-1.1,1.6-1.4c0.6-0.4,1.3-0.6,2-0.8c0.7-0.2,1.5-0.3,2.2-0.3c0.9,0,1.8,0.1,2.6,0.4c0.8,0.2,1.5,0.6,2.2,1.1   c0.6,0.5,1.1,1.1,1.5,1.8c0.4,0.7,0.6,1.5,0.6,2.5c0,1.1-0.3,2.2-1,3s-1.5,1.5-2.7,1.8v0c1.4,0.2,2.4,0.8,3.1,1.7   c0.7,1,1.1,2.1,1.1,3.4c0,1-0.2,1.9-0.6,2.7c-0.4,0.8-0.9,1.4-1.6,2c-0.7,0.5-1.4,0.9-2.3,1.2c-0.9,0.3-1.8,0.4-2.7,0.4   c-0.9,0-1.7-0.1-2.5-0.3c-0.8-0.2-1.5-0.5-2.1-0.9s-1.2-0.9-1.6-1.5c-0.5-0.6-0.8-1.4-1.1-2.3l3.8-1c0.2,0.9,0.6,1.6,1.2,2   c0.6,0.5,1.3,0.7,2.3,0.7c0.5,0,0.9-0.1,1.4-0.2c0.4-0.2,0.8-0.4,1.1-0.7c0.3-0.3,0.6-0.6,0.8-1.1c0.2-0.4,0.3-0.9,0.3-1.4   c0-0.7-0.1-1.2-0.4-1.7c-0.3-0.4-0.7-0.8-1.1-1c-0.5-0.2-1-0.4-1.5-0.5c-0.6-0.1-1.1-0.1-1.7-0.1h-0.9L22.2,75.3L22.2,75.3z"/><path style="fill:none;stroke:red;stroke-width:0.0001px" d="M22.2,75.3h0.9c0.5,0,1,0,1.5-0.1s0.9-0.2,1.3-0.4c0.4-0.2,0.7-0.5,0.9-0.9c0.2-0.4,0.4-0.9,0.4-1.5   c0-0.8-0.3-1.5-0.8-2c-0.6-0.5-1.3-0.8-2.2-0.8c-0.7,0-1.4,0.2-1.9,0.6c-0.6,0.4-1,1-1.2,1.7l-3.8-1c0.2-0.8,0.6-1.5,1-2   c0.4-0.6,1-1.1,1.6-1.4c0.6-0.4,1.3-0.6,2-0.8c0.7-0.2,1.5-0.3,2.2-0.3c0.9,0,1.8,0.1,2.6,0.4c0.8,0.2,1.5,0.6,2.2,1.1   c0.6,0.5,1.1,1.1,1.5,1.8c0.4,0.7,0.6,1.5,0.6,2.5c0,1.1-0.3,2.2-1,3s-1.5,1.5-2.7,1.8v0c1.4,0.2,2.4,0.8,3.1,1.7   c0.7,1,1.1,2.1,1.1,3.4c0,1-0.2,1.9-0.6,2.7c-0.4,0.8-0.9,1.4-1.6,2c-0.7,0.5-1.4,0.9-2.3,1.2c-0.9,0.3-1.8,0.4-2.7,0.4   c-0.9,0-1.7-0.1-2.5-0.3c-0.8-0.2-1.5-0.5-2.1-0.9s-1.2-0.9-1.6-1.5c-0.5-0.6-0.8-1.4-1.1-2.3l3.8-1c0.2,0.9,0.6,1.6,1.2,2   c0.6,0.5,1.3,0.7,2.3,0.7c0.5,0,0.9-0.1,1.4-0.2c0.4-0.2,0.8-0.4,1.1-0.7c0.3-0.3,0.6-0.6,0.8-1.1c0.2-0.4,0.3-0.9,0.3-1.4   c0-0.7-0.1-1.2-0.4-1.7c-0.3-0.4-0.7-0.8-1.1-1c-0.5-0.2-1-0.4-1.5-0.5c-0.6-0.1-1.1-0.1-1.7-0.1h-0.9L22.2,75.3L22.2,75.3z"/><path style="fill:none;stroke:red;stroke-width:0.0001px" d="M47.9,80.3l-5-6.7h4.4l2.9,4.3l3.1-4.3h4.1l-4.9,6.7l5.8,7.7h-4.4l-3.8-5.2L46.4,88h-4.3L47.9,80.3z   "/><path style="fill:none;stroke:red;stroke-width:0.0001px" d="M47.9,80.3l-5-6.7h4.4l2.9,4.3l3.1-4.3h4.1l-4.9,6.7l5.8,7.7h-4.4l-3.8-5.2L46.4,88h-4.3L47.9,80.3z   "/><path style="fill:none;stroke:red;stroke-width:0.0001px" d="M47.9,80.3l-5-6.7h4.4l2.9,4.3l3.1-4.3h4.1l-4.9,6.7l5.8,7.7h-4.4l-3.8-5.2L46.4,88h-4.3L47.9,80.3z   "/><path style="fill:none;stroke:red;stroke-width:0.0001px" d="M47.9,80.3l-5-6.7h4.4l2.9,4.3l3.1-4.3h4.1l-4.9,6.7l5.8,7.7h-4.4l-3.8-5.2L46.4,88h-4.3L47.9,80.3z   "/><path style="fill:none;stroke:red;stroke-width:0.0001px" d="M47.9,80.3l-5-6.7h4.4l2.9,4.3l3.1-4.3h4.1l-4.9,6.7l5.8,7.7h-4.4l-3.8-5.2L46.4,88h-4.3L47.9,80.3z   "/><path style="fill:none;stroke:red;stroke-width:0.0001px" d="M77.2,83.7h-9v-3.6l8.6-13.4h4.1v13.7H84v3.2h-3.1V88h-3.6L77.2,83.7L77.2,83.7z M77.2,71.9   L77.2,71.9l-5.4,8.6h5.4V71.9z"/><path style="fill:none;stroke:red;stroke-width:0.0001px" d="M77.2,83.7h-9v-3.6l8.6-13.4h4.1v13.7H84v3.2h-3.1V88h-3.6L77.2,83.7L77.2,83.7z M77.2,71.9   L77.2,71.9l-5.4,8.6h5.4V71.9z"/><path style="fill:none;stroke:red;stroke-width:0.0001px" d="M77.2,83.7h-9v-3.6l8.6-13.4h4.1v13.7H84v3.2h-3.1V88h-3.6L77.2,83.7L77.2,83.7z M77.2,71.9   L77.2,71.9l-5.4,8.6h5.4V71.9z"/><path style="fill:none;stroke:red;stroke-width:0.0001px" d="M77.2,83.7h-9v-3.6l8.6-13.4h4.1v13.7H84v3.2h-3.1V88h-3.6L77.2,83.7L77.2,83.7z M77.2,71.9   L77.2,71.9l-5.4,8.6h5.4V71.9z"/><path style="fill:none;stroke:red;stroke-width:0.0001px" d="M77.2,83.7h-9v-3.6l8.6-13.4h4.1v13.7H84v3.2h-3.1V88h-3.6L77.2,83.7L77.2,83.7z M77.2,71.9   L77.2,71.9l-5.4,8.6h5.4V71.9z"/><path style="fill:none;stroke:red;stroke-width:0.0001px" d="M111.9,74.7v3.1H95.6v-3.1H111.9z M111.9,80.1v3.1H95.6v-3.1H111.9z"/><path style="fill:none;stroke:red;stroke-width:0.0001px" d="M111.9,74.7v3.1H95.6v-3.1H111.9z M111.9,80.1v3.1H95.6v-3.1H111.9z"/><path style="fill:none;stroke:red;stroke-width:0.0001px" d="M111.9,74.7v3.1H95.6v-3.1H111.9z M111.9,80.1v3.1H95.6v-3.1H111.9z"/><path style="fill:none;stroke:red;stroke-width:0.0001px" d="M111.9,74.7v3.1H95.6v-3.1H111.9z M111.9,80.1v3.1H95.6v-3.1H111.9z"/><path style="fill:none;stroke:red;stroke-width:0.0001px" d="M111.9,74.7v3.1H95.6v-3.1H111.9z M111.9,80.1v3.1H95.6v-3.1H111.9z"/><path style="fill:none;stroke:red;stroke-width:0.0001px" d="M86.9,131h-9v-3.6l8.6-13.3h4.1v13.7h3.1v3.2h-3.1v4.3H87L86.9,131L86.9,131z M86.9,119.2   L86.9,119.2l-5.4,8.6h5.4V119.2z"/><path style="fill:none;stroke:red;stroke-width:0.0001px" d="M86.9,131h-9v-3.6l8.6-13.3h4.1v13.7h3.1v3.2h-3.1v4.3H87L86.9,131L86.9,131z M86.9,119.2   L86.9,119.2l-5.4,8.6h5.4V119.2z"/><path style="fill:none;stroke:red;stroke-width:0.0001px" d="M86.9,131h-9v-3.6l8.6-13.3h4.1v13.7h3.1v3.2h-3.1v4.3H87L86.9,131L86.9,131z M86.9,119.2   L86.9,119.2l-5.4,8.6h5.4V119.2z"/><path style="fill:none;stroke:red;stroke-width:0.0001px" d="M86.9,131h-9v-3.6l8.6-13.3h4.1v13.7h3.1v3.2h-3.1v4.3H87L86.9,131L86.9,131z M86.9,119.2   L86.9,119.2l-5.4,8.6h5.4V119.2z"/><path style="fill:none;stroke:red;stroke-width:0.0001px" d="M86.9,131h-9v-3.6l8.6-13.3h4.1v13.7h3.1v3.2h-3.1v4.3H87L86.9,131L86.9,131z M86.9,119.2   L86.9,119.2l-5.4,8.6h5.4V119.2z"/><path style="fill:none;stroke:red;stroke-width:0.0001px" d="M109.3,127.6l-5-6.7h4.4l2.9,4.3l3.1-4.3h4.1l-4.9,6.7l5.8,7.7h-4.4l-3.8-5.2l-3.8,5.2h-4.3   L109.3,127.6z"/><path style="fill:none;stroke:red;stroke-width:0.0001px" d="M109.3,127.6l-5-6.7h4.4l2.9,4.3l3.1-4.3h4.1l-4.9,6.7l5.8,7.7h-4.4l-3.8-5.2l-3.8,5.2h-4.3   L109.3,127.6z"/><path style="fill:none;stroke:red;stroke-width:0.0001px" d="M109.3,127.6l-5-6.7h4.4l2.9,4.3l3.1-4.3h4.1l-4.9,6.7l5.8,7.7h-4.4l-3.8-5.2l-3.8,5.2h-4.3   L109.3,127.6z"/><path style="fill:none;stroke:red;stroke-width:0.0001px" d="M109.3,127.6l-5-6.7h4.4l2.9,4.3l3.1-4.3h4.1l-4.9,6.7l5.8,7.7h-4.4l-3.8-5.2l-3.8,5.2h-4.3   L109.3,127.6z"/><path style="fill:none;stroke:red;stroke-width:0.0001px" d="M109.3,127.6l-5-6.7h4.4l2.9,4.3l3.1-4.3h4.1l-4.9,6.7l5.8,7.7h-4.4l-3.8-5.2l-3.8,5.2h-4.3   L109.3,127.6z"/><path style="fill:none;stroke:red;stroke-width:0.0001px" d="M138.6,131h-9v-3.6l8.6-13.3h4.1v13.7h3.1v3.2h-3.1v4.3h-3.6V131H138.6z M138.6,119.2L138.6,119.2   l-5.4,8.6h5.4V119.2z"/><path style="fill:none;stroke:red;stroke-width:0.0001px" d="M138.6,131h-9v-3.6l8.6-13.3h4.1v13.7h3.1v3.2h-3.1v4.3h-3.6V131H138.6z M138.6,119.2L138.6,119.2   l-5.4,8.6h5.4V119.2z"/><path style="fill:none;stroke:red;stroke-width:0.0001px" d="M138.6,131h-9v-3.6l8.6-13.3h4.1v13.7h3.1v3.2h-3.1v4.3h-3.6V131H138.6z M138.6,119.2L138.6,119.2   l-5.4,8.6h5.4V119.2z"/><path style="fill:none;stroke:red;stroke-width:0.0001px" d="M138.6,131h-9v-3.6l8.6-13.3h4.1v13.7h3.1v3.2h-3.1v4.3h-3.6V131H138.6z M138.6,119.2L138.6,119.2   l-5.4,8.6h5.4V119.2z"/><path style="fill:none;stroke:red;stroke-width:0.0001px" d="M138.6,131h-9v-3.6l8.6-13.3h4.1v13.7h3.1v3.2h-3.1v4.3h-3.6V131H138.6z M138.6,119.2L138.6,119.2   l-5.4,8.6h5.4V119.2z"/><path style="fill:none;stroke:red;stroke-width:0.0001px" d="M173.3,122v3.1H157V122H173.3z M173.3,127.4v3.1H157v-3.1H173.3z"/><path style="fill:none;stroke:red;stroke-width:0.0001px" d="M173.3,122v3.1H157V122H173.3z M173.3,127.4v3.1H157v-3.1H173.3z"/><path style="fill:none;stroke:red;stroke-width:0.0001px" d="M173.3,122v3.1H157V122H173.3z M173.3,127.4v3.1H157v-3.1H173.3z"/><path style="fill:none;stroke:red;stroke-width:0.0001px" d="M173.3,122v3.1H157V122H173.3z M173.3,127.4v3.1H157v-3.1H173.3z"/><path style="fill:none;stroke:red;stroke-width:0.0001px" d="M173.3,122v3.1H157V122H173.3z M173.3,127.4v3.1H157v-3.1H173.3z"/><path style="fill:none;stroke:red;stroke-width:0.0001px" d="M27.3,178.4h-9v-3.6l8.6-13.4H31v13.7h3v3.2h-3.1v4.3h-3.6V178.4z M27.3,166.6L27.3,166.6l-5.4,8.6   h5.4V166.6z"/><path style="fill:none;stroke:red;stroke-width:0.0001px" d="M27.3,178.4h-9v-3.6l8.6-13.4H31v13.7h3v3.2h-3.1v4.3h-3.6V178.4z M27.3,166.6L27.3,166.6l-5.4,8.6   h5.4V166.6z"/><path style="fill:none;stroke:red;stroke-width:0.0001px" d="M27.3,178.4h-9v-3.6l8.6-13.4H31v13.7h3v3.2h-3.1v4.3h-3.6V178.4z M27.3,166.6L27.3,166.6l-5.4,8.6   h5.4V166.6z"/><path style="fill:none;stroke:red;stroke-width:0.0001px" d="M27.3,178.4h-9v-3.6l8.6-13.4H31v13.7h3v3.2h-3.1v4.3h-3.6V178.4z M27.3,166.6L27.3,166.6l-5.4,8.6   h5.4V166.6z"/><path style="fill:none;stroke:red;stroke-width:0.0001px" d="M27.3,178.4h-9v-3.6l8.6-13.4H31v13.7h3v3.2h-3.1v4.3h-3.6V178.4z M27.3,166.6L27.3,166.6l-5.4,8.6   h5.4V166.6z"/><path style="fill:none;stroke:red;stroke-width:0.0001px" d="M49.7,175l-5-6.7h4.4l2.9,4.3l3.1-4.3h4.1l-4.9,6.7l5.8,7.7h-4.4l-3.8-5.2l-3.8,5.2h-4.3L49.7,175z"/><path style="fill:none;stroke:red;stroke-width:0.0001px" d="M49.7,175l-5-6.7h4.4l2.9,4.3l3.1-4.3h4.1l-4.9,6.7l5.8,7.7h-4.4l-3.8-5.2l-3.8,5.2h-4.3L49.7,175z"/><path style="fill:none;stroke:red;stroke-width:0.0001px" d="M49.7,175l-5-6.7h4.4l2.9,4.3l3.1-4.3h4.1l-4.9,6.7l5.8,7.7h-4.4l-3.8-5.2l-3.8,5.2h-4.3L49.7,175z"/><path style="fill:none;stroke:red;stroke-width:0.0001px" d="M49.7,175l-5-6.7h4.4l2.9,4.3l3.1-4.3h4.1l-4.9,6.7l5.8,7.7h-4.4l-3.8-5.2l-3.8,5.2h-4.3L49.7,175z"/><path style="fill:none;stroke:red;stroke-width:0.0001px" d="M49.7,175l-5-6.7h4.4l2.9,4.3l3.1-4.3h4.1l-4.9,6.7l5.8,7.7h-4.4l-3.8-5.2l-3.8,5.2h-4.3L49.7,175z"/><path style="fill:none;stroke:red;stroke-width:0.0001px" d="M84,164.7h-8.6l-0.1,4.2c0.3-0.1,0.6-0.2,1.1-0.2c0.4,0,0.8-0.1,1.2-0.1c1,0,2,0.2,2.9,0.5   s1.6,0.8,2.2,1.4c0.6,0.6,1.1,1.4,1.5,2.2c0.3,0.9,0.5,1.8,0.5,2.9c0,1.1-0.2,2.2-0.6,3.1c-0.4,0.9-0.9,1.7-1.6,2.3   s-1.5,1.1-2.4,1.5s-2,0.5-3,0.5c-1.7,0-3.1-0.4-4.3-1.2c-1.2-0.8-2-2-2.5-3.7l3.8-1c0.2,0.8,0.7,1.4,1.2,1.8   c0.6,0.4,1.3,0.7,2.2,0.7c0.5,0,1-0.1,1.5-0.3c0.4-0.2,0.8-0.4,1.2-0.8s0.6-0.7,0.8-1.2c0.2-0.4,0.3-0.9,0.3-1.4   c0-0.7-0.1-1.4-0.4-1.9s-0.6-0.9-1.1-1.3s-1-0.6-1.6-0.7c-0.6-0.1-1.2-0.2-1.9-0.2c-0.8,0-1.6,0.1-2.3,0.3   c-0.8,0.2-1.5,0.4-2.1,0.8l0.2-11.5H84V164.7z"/><path style="fill:none;stroke:red;stroke-width:0.0001px" d="M84,164.7h-8.6l-0.1,4.2c0.3-0.1,0.6-0.2,1.1-0.2c0.4,0,0.8-0.1,1.2-0.1c1,0,2,0.2,2.9,0.5   s1.6,0.8,2.2,1.4c0.6,0.6,1.1,1.4,1.5,2.2c0.3,0.9,0.5,1.8,0.5,2.9c0,1.1-0.2,2.2-0.6,3.1c-0.4,0.9-0.9,1.7-1.6,2.3   s-1.5,1.1-2.4,1.5s-2,0.5-3,0.5c-1.7,0-3.1-0.4-4.3-1.2c-1.2-0.8-2-2-2.5-3.7l3.8-1c0.2,0.8,0.7,1.4,1.2,1.8   c0.6,0.4,1.3,0.7,2.2,0.7c0.5,0,1-0.1,1.5-0.3c0.4-0.2,0.8-0.4,1.2-0.8s0.6-0.7,0.8-1.2c0.2-0.4,0.3-0.9,0.3-1.4   c0-0.7-0.1-1.4-0.4-1.9s-0.6-0.9-1.1-1.3s-1-0.6-1.6-0.7c-0.6-0.1-1.2-0.2-1.9-0.2c-0.8,0-1.6,0.1-2.3,0.3   c-0.8,0.2-1.5,0.4-2.1,0.8l0.2-11.5H84V164.7z"/><path style="fill:none;stroke:red;stroke-width:0.0001px" d="M84,164.7h-8.6l-0.1,4.2c0.3-0.1,0.6-0.2,1.1-0.2c0.4,0,0.8-0.1,1.2-0.1c1,0,2,0.2,2.9,0.5   s1.6,0.8,2.2,1.4c0.6,0.6,1.1,1.4,1.5,2.2c0.3,0.9,0.5,1.8,0.5,2.9c0,1.1-0.2,2.2-0.6,3.1c-0.4,0.9-0.9,1.7-1.6,2.3   s-1.5,1.1-2.4,1.5s-2,0.5-3,0.5c-1.7,0-3.1-0.4-4.3-1.2c-1.2-0.8-2-2-2.5-3.7l3.8-1c0.2,0.8,0.7,1.4,1.2,1.8   c0.6,0.4,1.3,0.7,2.2,0.7c0.5,0,1-0.1,1.5-0.3c0.4-0.2,0.8-0.4,1.2-0.8s0.6-0.7,0.8-1.2c0.2-0.4,0.3-0.9,0.3-1.4   c0-0.7-0.1-1.4-0.4-1.9s-0.6-0.9-1.1-1.3s-1-0.6-1.6-0.7c-0.6-0.1-1.2-0.2-1.9-0.2c-0.8,0-1.6,0.1-2.3,0.3   c-0.8,0.2-1.5,0.4-2.1,0.8l0.2-11.5H84V164.7z"/><path style="fill:none;stroke:red;stroke-width:0.0001px" d="M84,164.7h-8.6l-0.1,4.2c0.3-0.1,0.6-0.2,1.1-0.2c0.4,0,0.8-0.1,1.2-0.1c1,0,2,0.2,2.9,0.5   s1.6,0.8,2.2,1.4c0.6,0.6,1.1,1.4,1.5,2.2c0.3,0.9,0.5,1.8,0.5,2.9c0,1.1-0.2,2.2-0.6,3.1c-0.4,0.9-0.9,1.7-1.6,2.3   s-1.5,1.1-2.4,1.5s-2,0.5-3,0.5c-1.7,0-3.1-0.4-4.3-1.2c-1.2-0.8-2-2-2.5-3.7l3.8-1c0.2,0.8,0.7,1.4,1.2,1.8   c0.6,0.4,1.3,0.7,2.2,0.7c0.5,0,1-0.1,1.5-0.3c0.4-0.2,0.8-0.4,1.2-0.8s0.6-0.7,0.8-1.2c0.2-0.4,0.3-0.9,0.3-1.4   c0-0.7-0.1-1.4-0.4-1.9s-0.6-0.9-1.1-1.3s-1-0.6-1.6-0.7c-0.6-0.1-1.2-0.2-1.9-0.2c-0.8,0-1.6,0.1-2.3,0.3   c-0.8,0.2-1.5,0.4-2.1,0.8l0.2-11.5H84V164.7z"/><path style="fill:none;stroke:red;stroke-width:0.0001px" d="M84,164.7h-8.6l-0.1,4.2c0.3-0.1,0.6-0.2,1.1-0.2c0.4,0,0.8-0.1,1.2-0.1c1,0,2,0.2,2.9,0.5   s1.6,0.8,2.2,1.4c0.6,0.6,1.1,1.4,1.5,2.2c0.3,0.9,0.5,1.8,0.5,2.9c0,1.1-0.2,2.2-0.6,3.1c-0.4,0.9-0.9,1.7-1.6,2.3   s-1.5,1.1-2.4,1.5s-2,0.5-3,0.5c-1.7,0-3.1-0.4-4.3-1.2c-1.2-0.8-2-2-2.5-3.7l3.8-1c0.2,0.8,0.7,1.4,1.2,1.8   c0.6,0.4,1.3,0.7,2.2,0.7c0.5,0,1-0.1,1.5-0.3c0.4-0.2,0.8-0.4,1.2-0.8s0.6-0.7,0.8-1.2c0.2-0.4,0.3-0.9,0.3-1.4   c0-0.7-0.1-1.4-0.4-1.9s-0.6-0.9-1.1-1.3s-1-0.6-1.6-0.7c-0.6-0.1-1.2-0.2-1.9-0.2c-0.8,0-1.6,0.1-2.3,0.3   c-0.8,0.2-1.5,0.4-2.1,0.8l0.2-11.5H84V164.7z"/><path style="fill:none;stroke:red;stroke-width:0.0001px" d="M113.7,169.4v3.1H97.4v-3.1H113.7z M113.7,174.8v3.1H97.4v-3.1H113.7z"/><path style="fill:none;stroke:red;stroke-width:0.0001px" d="M113.7,169.4v3.1H97.4v-3.1H113.7z M113.7,174.8v3.1H97.4v-3.1H113.7z"/><path style="fill:none;stroke:red;stroke-width:0.0001px" d="M113.7,169.4v3.1H97.4v-3.1H113.7z M113.7,174.8v3.1H97.4v-3.1H113.7z"/><path style="fill:none;stroke:red;stroke-width:0.0001px" d="M113.7,169.4v3.1H97.4v-3.1H113.7z M113.7,174.8v3.1H97.4v-3.1H113.7z"/><path style="fill:none;stroke:red;stroke-width:0.0001px" d="M113.7,169.4v3.1H97.4v-3.1H113.7z M113.7,174.8v3.1H97.4v-3.1H113.7z"/></g></svg>