<svg xmlns="http://www.w3.org/2000/svg" xmlns:xlink="http://www.w3.org/1999/xlink" version="1.1" id="Layer_1" x="0px" y="0px" xml:space="preserve" width="32in" height="18in"><g transform="translate(41.42135623730951 41.42135623730951) rotate(-45 100.0 100.0)"><path style="fill:none;stroke:red;stroke-width:0.0001px" d="M34.8,59.9C45,74.3,59.1,85.5,75.5,92.1c1.4-10.7,4.8-21,10.1-30.4C69.1,56.5,51.6,55.8,34.8,59.9z"/><path style="fill:none;stroke:red;stroke-width:0.0001px" d="M34.8,59.9C45,74.3,59.1,85.5,75.5,92.1c1.4-10.7,4.8-21,10.1-30.4C69.1,56.5,51.6,55.8,34.8,59.9z"/><path style="fill:none;stroke:red;stroke-width:0.0001px" d="M34.8,59.9C45,74.3,59.1,85.5,75.5,92.1c1.4-10.7,4.8-21,10.1-30.4C69.1,56.5,51.6,55.8,34.8,59.9z"/><path style="fill:none;stroke:red;stroke-width:0.0001px" d="M34.8,59.9C45,74.3,59.1,85.5,75.5,92.1c1.4-10.7,4.8-21,10.1-30.4C69.1,56.5,51.6,55.8,34.8,59.9z"/><path style="fill:none;stroke:red;stroke-width:0.0001px" d="M34.8,59.9C45,74.3,59.1,85.5,75.5,92.1c1.4-10.7,4.8-21,10.1-30.4C69.1,56.5,51.6,55.8,34.8,59.9z"/></g></svg>